G75*
G70*
%OFA0B0*%
%FSLAX24Y24*%
%IPPOS*%
%LPD*%
%AMOC8*
5,1,8,0,0,1.08239X$1,22.5*
%
%ADD10C,0.0000*%
%ADD11C,0.1142*%
%ADD12R,0.0512X0.0158*%
%ADD13R,0.0158X0.0512*%
%ADD14R,0.0316X0.0158*%
%ADD15R,0.0158X0.0316*%
%ADD16R,0.0257X0.0512*%
%ADD17R,0.0512X0.0257*%
%ADD18R,0.0512X0.1497*%
%ADD19R,0.0394X0.0316*%
%ADD20R,0.0631X0.0552*%
%ADD21R,0.0729X0.0197*%
%ADD22R,0.0985X0.0709*%
%ADD23R,0.0335X0.0138*%
%ADD24R,0.0138X0.0335*%
%ADD25R,0.0611X0.0611*%
%ADD26R,0.0552X0.0631*%
%ADD27R,0.0316X0.0394*%
%ADD28R,0.0330X0.0770*%
%ADD29R,0.0375X0.0197*%
%ADD30R,0.0197X0.0375*%
%ADD31R,0.0473X0.0434*%
%ADD32R,0.0434X0.0473*%
%ADD33C,0.0476*%
%ADD34C,0.0640*%
D10*
X000325Y000160D02*
X000325Y012469D01*
X015976Y012469D01*
X015976Y000160D01*
X000325Y000160D01*
X000649Y001098D02*
X000651Y001145D01*
X000657Y001191D01*
X000667Y001237D01*
X000680Y001282D01*
X000698Y001325D01*
X000719Y001367D01*
X000743Y001407D01*
X000771Y001444D01*
X000802Y001479D01*
X000836Y001512D01*
X000872Y001541D01*
X000911Y001567D01*
X000952Y001590D01*
X000995Y001609D01*
X001039Y001625D01*
X001084Y001637D01*
X001130Y001645D01*
X001177Y001649D01*
X001223Y001649D01*
X001270Y001645D01*
X001316Y001637D01*
X001361Y001625D01*
X001405Y001609D01*
X001448Y001590D01*
X001489Y001567D01*
X001528Y001541D01*
X001564Y001512D01*
X001598Y001479D01*
X001629Y001444D01*
X001657Y001407D01*
X001681Y001367D01*
X001702Y001325D01*
X001720Y001282D01*
X001733Y001237D01*
X001743Y001191D01*
X001749Y001145D01*
X001751Y001098D01*
X001749Y001051D01*
X001743Y001005D01*
X001733Y000959D01*
X001720Y000914D01*
X001702Y000871D01*
X001681Y000829D01*
X001657Y000789D01*
X001629Y000752D01*
X001598Y000717D01*
X001564Y000684D01*
X001528Y000655D01*
X001489Y000629D01*
X001448Y000606D01*
X001405Y000587D01*
X001361Y000571D01*
X001316Y000559D01*
X001270Y000551D01*
X001223Y000547D01*
X001177Y000547D01*
X001130Y000551D01*
X001084Y000559D01*
X001039Y000571D01*
X000995Y000587D01*
X000952Y000606D01*
X000911Y000629D01*
X000872Y000655D01*
X000836Y000684D01*
X000802Y000717D01*
X000771Y000752D01*
X000743Y000789D01*
X000719Y000829D01*
X000698Y000871D01*
X000680Y000914D01*
X000667Y000959D01*
X000657Y001005D01*
X000651Y001051D01*
X000649Y001098D01*
X000649Y011410D02*
X000651Y011457D01*
X000657Y011503D01*
X000667Y011549D01*
X000680Y011594D01*
X000698Y011637D01*
X000719Y011679D01*
X000743Y011719D01*
X000771Y011756D01*
X000802Y011791D01*
X000836Y011824D01*
X000872Y011853D01*
X000911Y011879D01*
X000952Y011902D01*
X000995Y011921D01*
X001039Y011937D01*
X001084Y011949D01*
X001130Y011957D01*
X001177Y011961D01*
X001223Y011961D01*
X001270Y011957D01*
X001316Y011949D01*
X001361Y011937D01*
X001405Y011921D01*
X001448Y011902D01*
X001489Y011879D01*
X001528Y011853D01*
X001564Y011824D01*
X001598Y011791D01*
X001629Y011756D01*
X001657Y011719D01*
X001681Y011679D01*
X001702Y011637D01*
X001720Y011594D01*
X001733Y011549D01*
X001743Y011503D01*
X001749Y011457D01*
X001751Y011410D01*
X001749Y011363D01*
X001743Y011317D01*
X001733Y011271D01*
X001720Y011226D01*
X001702Y011183D01*
X001681Y011141D01*
X001657Y011101D01*
X001629Y011064D01*
X001598Y011029D01*
X001564Y010996D01*
X001528Y010967D01*
X001489Y010941D01*
X001448Y010918D01*
X001405Y010899D01*
X001361Y010883D01*
X001316Y010871D01*
X001270Y010863D01*
X001223Y010859D01*
X001177Y010859D01*
X001130Y010863D01*
X001084Y010871D01*
X001039Y010883D01*
X000995Y010899D01*
X000952Y010918D01*
X000911Y010941D01*
X000872Y010967D01*
X000836Y010996D01*
X000802Y011029D01*
X000771Y011064D01*
X000743Y011101D01*
X000719Y011141D01*
X000698Y011183D01*
X000680Y011226D01*
X000667Y011271D01*
X000657Y011317D01*
X000651Y011363D01*
X000649Y011410D01*
X014462Y011410D02*
X014464Y011457D01*
X014470Y011503D01*
X014480Y011549D01*
X014493Y011594D01*
X014511Y011637D01*
X014532Y011679D01*
X014556Y011719D01*
X014584Y011756D01*
X014615Y011791D01*
X014649Y011824D01*
X014685Y011853D01*
X014724Y011879D01*
X014765Y011902D01*
X014808Y011921D01*
X014852Y011937D01*
X014897Y011949D01*
X014943Y011957D01*
X014990Y011961D01*
X015036Y011961D01*
X015083Y011957D01*
X015129Y011949D01*
X015174Y011937D01*
X015218Y011921D01*
X015261Y011902D01*
X015302Y011879D01*
X015341Y011853D01*
X015377Y011824D01*
X015411Y011791D01*
X015442Y011756D01*
X015470Y011719D01*
X015494Y011679D01*
X015515Y011637D01*
X015533Y011594D01*
X015546Y011549D01*
X015556Y011503D01*
X015562Y011457D01*
X015564Y011410D01*
X015562Y011363D01*
X015556Y011317D01*
X015546Y011271D01*
X015533Y011226D01*
X015515Y011183D01*
X015494Y011141D01*
X015470Y011101D01*
X015442Y011064D01*
X015411Y011029D01*
X015377Y010996D01*
X015341Y010967D01*
X015302Y010941D01*
X015261Y010918D01*
X015218Y010899D01*
X015174Y010883D01*
X015129Y010871D01*
X015083Y010863D01*
X015036Y010859D01*
X014990Y010859D01*
X014943Y010863D01*
X014897Y010871D01*
X014852Y010883D01*
X014808Y010899D01*
X014765Y010918D01*
X014724Y010941D01*
X014685Y010967D01*
X014649Y010996D01*
X014615Y011029D01*
X014584Y011064D01*
X014556Y011101D01*
X014532Y011141D01*
X014511Y011183D01*
X014493Y011226D01*
X014480Y011271D01*
X014470Y011317D01*
X014464Y011363D01*
X014462Y011410D01*
X014462Y001098D02*
X014464Y001145D01*
X014470Y001191D01*
X014480Y001237D01*
X014493Y001282D01*
X014511Y001325D01*
X014532Y001367D01*
X014556Y001407D01*
X014584Y001444D01*
X014615Y001479D01*
X014649Y001512D01*
X014685Y001541D01*
X014724Y001567D01*
X014765Y001590D01*
X014808Y001609D01*
X014852Y001625D01*
X014897Y001637D01*
X014943Y001645D01*
X014990Y001649D01*
X015036Y001649D01*
X015083Y001645D01*
X015129Y001637D01*
X015174Y001625D01*
X015218Y001609D01*
X015261Y001590D01*
X015302Y001567D01*
X015341Y001541D01*
X015377Y001512D01*
X015411Y001479D01*
X015442Y001444D01*
X015470Y001407D01*
X015494Y001367D01*
X015515Y001325D01*
X015533Y001282D01*
X015546Y001237D01*
X015556Y001191D01*
X015562Y001145D01*
X015564Y001098D01*
X015562Y001051D01*
X015556Y001005D01*
X015546Y000959D01*
X015533Y000914D01*
X015515Y000871D01*
X015494Y000829D01*
X015470Y000789D01*
X015442Y000752D01*
X015411Y000717D01*
X015377Y000684D01*
X015341Y000655D01*
X015302Y000629D01*
X015261Y000606D01*
X015218Y000587D01*
X015174Y000571D01*
X015129Y000559D01*
X015083Y000551D01*
X015036Y000547D01*
X014990Y000547D01*
X014943Y000551D01*
X014897Y000559D01*
X014852Y000571D01*
X014808Y000587D01*
X014765Y000606D01*
X014724Y000629D01*
X014685Y000655D01*
X014649Y000684D01*
X014615Y000717D01*
X014584Y000752D01*
X014556Y000789D01*
X014532Y000829D01*
X014511Y000871D01*
X014493Y000914D01*
X014480Y000959D01*
X014470Y001005D01*
X014464Y001051D01*
X014462Y001098D01*
D11*
X015013Y001098D03*
X015013Y011410D03*
X001200Y011410D03*
X001200Y001098D03*
D12*
X006575Y003809D03*
X006575Y004005D03*
X006575Y004202D03*
X006575Y004399D03*
X006575Y004596D03*
X006575Y004793D03*
X006575Y004990D03*
X006575Y005187D03*
X006575Y005383D03*
X006575Y005580D03*
X006575Y005777D03*
X006575Y005974D03*
X006575Y006171D03*
X006575Y006368D03*
X006575Y006565D03*
X006575Y006761D03*
X011200Y006761D03*
X011200Y006565D03*
X011200Y006368D03*
X011200Y006171D03*
X011200Y005974D03*
X011200Y005777D03*
X011200Y005580D03*
X011200Y005383D03*
X011200Y005187D03*
X011200Y004990D03*
X011200Y004793D03*
X011200Y004596D03*
X011200Y004399D03*
X011200Y004202D03*
X011200Y004005D03*
X011200Y003809D03*
D13*
X010364Y002972D03*
X010167Y002972D03*
X009970Y002972D03*
X009773Y002972D03*
X009576Y002972D03*
X009380Y002972D03*
X009183Y002972D03*
X008986Y002972D03*
X008789Y002972D03*
X008592Y002972D03*
X008395Y002972D03*
X008199Y002972D03*
X008002Y002972D03*
X007805Y002972D03*
X007608Y002972D03*
X007411Y002972D03*
X007411Y007598D03*
X007608Y007598D03*
X007805Y007598D03*
X008002Y007598D03*
X008199Y007598D03*
X008395Y007598D03*
X008592Y007598D03*
X008789Y007598D03*
X008986Y007598D03*
X009183Y007598D03*
X009380Y007598D03*
X009576Y007598D03*
X009773Y007598D03*
X009970Y007598D03*
X010167Y007598D03*
X010364Y007598D03*
D14*
X010116Y002080D03*
X010116Y001883D03*
X010116Y001687D03*
X010116Y001490D03*
X009034Y001490D03*
X009034Y001687D03*
X009034Y001883D03*
X009034Y002080D03*
D15*
X009280Y002326D03*
X009477Y002326D03*
X009673Y002326D03*
X009870Y002326D03*
X009870Y001244D03*
X009673Y001244D03*
X009477Y001244D03*
X009280Y001244D03*
D16*
X009295Y009770D03*
X009610Y009770D03*
X009925Y009770D03*
X008980Y009770D03*
X008665Y009770D03*
X008350Y009770D03*
X008350Y010675D03*
X008665Y010675D03*
X008980Y010675D03*
X009295Y010675D03*
X009610Y010675D03*
X009925Y010675D03*
D17*
X010004Y010223D03*
X008311Y010223D03*
D18*
X003032Y010223D03*
X001930Y010223D03*
D19*
X010888Y001978D03*
X010888Y001467D03*
X013575Y003779D03*
X013575Y004291D03*
X013575Y005029D03*
X013575Y005541D03*
D20*
X011513Y001807D03*
X011513Y001138D03*
X001200Y009732D03*
X001200Y010401D03*
D21*
X002166Y005234D03*
X002166Y004978D03*
X002166Y004723D03*
X002166Y004467D03*
X002166Y004211D03*
D22*
X012544Y003932D03*
X012544Y005388D03*
D23*
X002978Y007927D03*
X002978Y008124D03*
X002978Y008321D03*
X002978Y008518D03*
X001797Y008518D03*
X001797Y008321D03*
X001797Y008124D03*
X001797Y007927D03*
D24*
X002092Y007632D03*
X002289Y007632D03*
X002486Y007632D03*
X002683Y007632D03*
X002683Y008813D03*
X002486Y008813D03*
X002289Y008813D03*
X002092Y008813D03*
D25*
X002388Y008223D03*
D26*
X002209Y011316D03*
X002878Y011316D03*
D27*
X003694Y008785D03*
X004206Y008785D03*
X004206Y008285D03*
X003694Y008285D03*
X006819Y011441D03*
X007331Y011441D03*
X010350Y011191D03*
X010862Y011191D03*
D28*
X005075Y002585D03*
X004575Y002585D03*
X004075Y002585D03*
X003575Y002585D03*
X003075Y002585D03*
X003075Y000985D03*
X003575Y000985D03*
X004075Y000985D03*
X004575Y000985D03*
X005075Y000985D03*
D29*
X005307Y009276D03*
X005307Y009532D03*
X005307Y009788D03*
X005307Y010044D03*
X006843Y010044D03*
X006843Y009788D03*
X006843Y009532D03*
X006843Y009276D03*
D30*
X006459Y008892D03*
X006203Y008892D03*
X005947Y008892D03*
X005691Y008892D03*
X005691Y010428D03*
X005947Y010428D03*
X006203Y010428D03*
X006459Y010428D03*
D31*
X007365Y008223D03*
X008035Y008223D03*
X012115Y006348D03*
X012785Y006348D03*
D32*
X010950Y009950D03*
X010950Y010620D03*
X006075Y003370D03*
X006075Y002700D03*
D33*
X012356Y002848D03*
X012856Y002848D03*
X013356Y002848D03*
X013856Y002848D03*
X014356Y002848D03*
X014356Y002348D03*
X013856Y002348D03*
X013356Y002348D03*
X012856Y002348D03*
X012356Y002348D03*
X012356Y008848D03*
X012856Y008848D03*
X013356Y008848D03*
X013856Y008848D03*
X014356Y008848D03*
X014356Y009348D03*
X013856Y009348D03*
X013356Y009348D03*
X012856Y009348D03*
X012356Y009348D03*
D34*
X004594Y010379D02*
X003994Y010379D01*
X003994Y011379D02*
X004594Y011379D01*
M02*
