G75*
G70*
%OFA0B0*%
%FSLAX24Y24*%
%IPPOS*%
%LPD*%
%AMOC8*
5,1,8,0,0,1.08239X$1,22.5*
%
%ADD10C,0.0000*%
%ADD11R,0.0354X0.0276*%
%ADD12R,0.0394X0.0433*%
%ADD13R,0.0276X0.0354*%
%ADD14R,0.0512X0.0591*%
%ADD15R,0.0236X0.0709*%
%ADD16R,0.0591X0.0591*%
%ADD17R,0.0394X0.0610*%
%ADD18R,0.0571X0.0394*%
%ADD19R,0.0315X0.0591*%
%ADD20R,0.0315X0.0551*%
%ADD21C,0.0436*%
%ADD22R,0.0591X0.0512*%
%ADD23C,0.0600*%
%ADD24C,0.0317*%
%ADD25C,0.0160*%
%ADD26C,0.0100*%
%ADD27C,0.0356*%
%ADD28C,0.0120*%
D10*
X000325Y000160D02*
X000325Y012469D01*
X015976Y012469D01*
X015976Y000160D01*
X000325Y000160D01*
X000649Y001098D02*
X000651Y001145D01*
X000657Y001191D01*
X000667Y001237D01*
X000680Y001282D01*
X000698Y001325D01*
X000719Y001367D01*
X000743Y001407D01*
X000771Y001444D01*
X000802Y001479D01*
X000836Y001512D01*
X000872Y001541D01*
X000911Y001567D01*
X000952Y001590D01*
X000995Y001609D01*
X001039Y001625D01*
X001084Y001637D01*
X001130Y001645D01*
X001177Y001649D01*
X001223Y001649D01*
X001270Y001645D01*
X001316Y001637D01*
X001361Y001625D01*
X001405Y001609D01*
X001448Y001590D01*
X001489Y001567D01*
X001528Y001541D01*
X001564Y001512D01*
X001598Y001479D01*
X001629Y001444D01*
X001657Y001407D01*
X001681Y001367D01*
X001702Y001325D01*
X001720Y001282D01*
X001733Y001237D01*
X001743Y001191D01*
X001749Y001145D01*
X001751Y001098D01*
X001749Y001051D01*
X001743Y001005D01*
X001733Y000959D01*
X001720Y000914D01*
X001702Y000871D01*
X001681Y000829D01*
X001657Y000789D01*
X001629Y000752D01*
X001598Y000717D01*
X001564Y000684D01*
X001528Y000655D01*
X001489Y000629D01*
X001448Y000606D01*
X001405Y000587D01*
X001361Y000571D01*
X001316Y000559D01*
X001270Y000551D01*
X001223Y000547D01*
X001177Y000547D01*
X001130Y000551D01*
X001084Y000559D01*
X001039Y000571D01*
X000995Y000587D01*
X000952Y000606D01*
X000911Y000629D01*
X000872Y000655D01*
X000836Y000684D01*
X000802Y000717D01*
X000771Y000752D01*
X000743Y000789D01*
X000719Y000829D01*
X000698Y000871D01*
X000680Y000914D01*
X000667Y000959D01*
X000657Y001005D01*
X000651Y001051D01*
X000649Y001098D01*
X000649Y011410D02*
X000651Y011457D01*
X000657Y011503D01*
X000667Y011549D01*
X000680Y011594D01*
X000698Y011637D01*
X000719Y011679D01*
X000743Y011719D01*
X000771Y011756D01*
X000802Y011791D01*
X000836Y011824D01*
X000872Y011853D01*
X000911Y011879D01*
X000952Y011902D01*
X000995Y011921D01*
X001039Y011937D01*
X001084Y011949D01*
X001130Y011957D01*
X001177Y011961D01*
X001223Y011961D01*
X001270Y011957D01*
X001316Y011949D01*
X001361Y011937D01*
X001405Y011921D01*
X001448Y011902D01*
X001489Y011879D01*
X001528Y011853D01*
X001564Y011824D01*
X001598Y011791D01*
X001629Y011756D01*
X001657Y011719D01*
X001681Y011679D01*
X001702Y011637D01*
X001720Y011594D01*
X001733Y011549D01*
X001743Y011503D01*
X001749Y011457D01*
X001751Y011410D01*
X001749Y011363D01*
X001743Y011317D01*
X001733Y011271D01*
X001720Y011226D01*
X001702Y011183D01*
X001681Y011141D01*
X001657Y011101D01*
X001629Y011064D01*
X001598Y011029D01*
X001564Y010996D01*
X001528Y010967D01*
X001489Y010941D01*
X001448Y010918D01*
X001405Y010899D01*
X001361Y010883D01*
X001316Y010871D01*
X001270Y010863D01*
X001223Y010859D01*
X001177Y010859D01*
X001130Y010863D01*
X001084Y010871D01*
X001039Y010883D01*
X000995Y010899D01*
X000952Y010918D01*
X000911Y010941D01*
X000872Y010967D01*
X000836Y010996D01*
X000802Y011029D01*
X000771Y011064D01*
X000743Y011101D01*
X000719Y011141D01*
X000698Y011183D01*
X000680Y011226D01*
X000667Y011271D01*
X000657Y011317D01*
X000651Y011363D01*
X000649Y011410D01*
X014462Y011410D02*
X014464Y011457D01*
X014470Y011503D01*
X014480Y011549D01*
X014493Y011594D01*
X014511Y011637D01*
X014532Y011679D01*
X014556Y011719D01*
X014584Y011756D01*
X014615Y011791D01*
X014649Y011824D01*
X014685Y011853D01*
X014724Y011879D01*
X014765Y011902D01*
X014808Y011921D01*
X014852Y011937D01*
X014897Y011949D01*
X014943Y011957D01*
X014990Y011961D01*
X015036Y011961D01*
X015083Y011957D01*
X015129Y011949D01*
X015174Y011937D01*
X015218Y011921D01*
X015261Y011902D01*
X015302Y011879D01*
X015341Y011853D01*
X015377Y011824D01*
X015411Y011791D01*
X015442Y011756D01*
X015470Y011719D01*
X015494Y011679D01*
X015515Y011637D01*
X015533Y011594D01*
X015546Y011549D01*
X015556Y011503D01*
X015562Y011457D01*
X015564Y011410D01*
X015562Y011363D01*
X015556Y011317D01*
X015546Y011271D01*
X015533Y011226D01*
X015515Y011183D01*
X015494Y011141D01*
X015470Y011101D01*
X015442Y011064D01*
X015411Y011029D01*
X015377Y010996D01*
X015341Y010967D01*
X015302Y010941D01*
X015261Y010918D01*
X015218Y010899D01*
X015174Y010883D01*
X015129Y010871D01*
X015083Y010863D01*
X015036Y010859D01*
X014990Y010859D01*
X014943Y010863D01*
X014897Y010871D01*
X014852Y010883D01*
X014808Y010899D01*
X014765Y010918D01*
X014724Y010941D01*
X014685Y010967D01*
X014649Y010996D01*
X014615Y011029D01*
X014584Y011064D01*
X014556Y011101D01*
X014532Y011141D01*
X014511Y011183D01*
X014493Y011226D01*
X014480Y011271D01*
X014470Y011317D01*
X014464Y011363D01*
X014462Y011410D01*
X014462Y001098D02*
X014464Y001145D01*
X014470Y001191D01*
X014480Y001237D01*
X014493Y001282D01*
X014511Y001325D01*
X014532Y001367D01*
X014556Y001407D01*
X014584Y001444D01*
X014615Y001479D01*
X014649Y001512D01*
X014685Y001541D01*
X014724Y001567D01*
X014765Y001590D01*
X014808Y001609D01*
X014852Y001625D01*
X014897Y001637D01*
X014943Y001645D01*
X014990Y001649D01*
X015036Y001649D01*
X015083Y001645D01*
X015129Y001637D01*
X015174Y001625D01*
X015218Y001609D01*
X015261Y001590D01*
X015302Y001567D01*
X015341Y001541D01*
X015377Y001512D01*
X015411Y001479D01*
X015442Y001444D01*
X015470Y001407D01*
X015494Y001367D01*
X015515Y001325D01*
X015533Y001282D01*
X015546Y001237D01*
X015556Y001191D01*
X015562Y001145D01*
X015564Y001098D01*
X015562Y001051D01*
X015556Y001005D01*
X015546Y000959D01*
X015533Y000914D01*
X015515Y000871D01*
X015494Y000829D01*
X015470Y000789D01*
X015442Y000752D01*
X015411Y000717D01*
X015377Y000684D01*
X015341Y000655D01*
X015302Y000629D01*
X015261Y000606D01*
X015218Y000587D01*
X015174Y000571D01*
X015129Y000559D01*
X015083Y000551D01*
X015036Y000547D01*
X014990Y000547D01*
X014943Y000551D01*
X014897Y000559D01*
X014852Y000571D01*
X014808Y000587D01*
X014765Y000606D01*
X014724Y000629D01*
X014685Y000655D01*
X014649Y000684D01*
X014615Y000717D01*
X014584Y000752D01*
X014556Y000789D01*
X014532Y000829D01*
X014511Y000871D01*
X014493Y000914D01*
X014480Y000959D01*
X014470Y001005D01*
X014464Y001051D01*
X014462Y001098D01*
D11*
X009700Y002779D03*
X009200Y002779D03*
X009200Y003291D03*
X009700Y003291D03*
X005950Y009592D03*
X005950Y010103D03*
D12*
X011200Y005245D03*
X011200Y004575D03*
X002388Y004388D03*
X002388Y005057D03*
D13*
X002581Y005973D03*
X002069Y005973D03*
X003694Y008535D03*
X004206Y008535D03*
D14*
X008084Y011441D03*
X008753Y011441D03*
X003603Y004955D03*
D15*
X004075Y005014D03*
X004508Y005014D03*
X004941Y005014D03*
X005374Y005014D03*
X005807Y005014D03*
X006240Y005014D03*
X006673Y005014D03*
X007106Y005014D03*
D16*
X008071Y004955D03*
D17*
X008051Y000743D03*
D18*
X003622Y001373D03*
D19*
X003504Y001963D03*
D20*
X008209Y001707D03*
D21*
X012356Y002348D03*
X012856Y002348D03*
X013356Y002348D03*
X013856Y002348D03*
X014356Y002348D03*
X014356Y002848D03*
X013856Y002848D03*
X013356Y002848D03*
X012856Y002848D03*
X012356Y002848D03*
X012356Y008848D03*
X012856Y008848D03*
X013356Y008848D03*
X013856Y008848D03*
X014356Y008848D03*
X014356Y009348D03*
X013856Y009348D03*
X013356Y009348D03*
X012856Y009348D03*
X012356Y009348D03*
D22*
X006825Y008088D03*
X006825Y007419D03*
D23*
X004594Y010379D02*
X003994Y010379D01*
X003994Y011379D02*
X004594Y011379D01*
D24*
X005950Y010848D03*
X006138Y011223D03*
X006825Y010848D03*
X007325Y010660D03*
X007825Y009660D03*
X007825Y009223D03*
X007325Y009223D03*
X007138Y008785D03*
X006794Y008504D03*
X005950Y009223D03*
X006388Y009473D03*
X007825Y008598D03*
X008888Y008660D03*
X009075Y009035D03*
X009763Y009223D03*
X009919Y008379D03*
X008888Y008098D03*
X008606Y007066D03*
X008325Y006660D03*
X008888Y006254D03*
X009263Y006566D03*
X009169Y007035D03*
X010294Y007004D03*
X010013Y006254D03*
X010200Y005629D03*
X010513Y005254D03*
X010638Y004566D03*
X009763Y004160D03*
X009700Y003723D03*
X009200Y003785D03*
X008325Y003473D03*
X007263Y004223D03*
X007450Y004910D03*
X007575Y005410D03*
X007294Y005848D03*
X006481Y006941D03*
X005731Y007191D03*
X005700Y006785D03*
X005013Y006973D03*
X004950Y006348D03*
X005544Y005879D03*
X004513Y005723D03*
X004075Y005535D03*
X003075Y005410D03*
X003075Y005910D03*
X003356Y006348D03*
X002450Y006535D03*
X001888Y006848D03*
X001325Y006785D03*
X000981Y007598D03*
X000981Y008254D03*
X000981Y008910D03*
X001575Y009098D03*
X002388Y008223D03*
X003263Y008223D03*
X003700Y007785D03*
X003638Y007410D03*
X003263Y007598D03*
X003700Y009098D03*
X004169Y009785D03*
X002419Y010754D03*
X001356Y010535D03*
X000981Y010535D03*
X005138Y008160D03*
X005200Y007723D03*
X008606Y005098D03*
X009013Y004941D03*
X009419Y004660D03*
X011513Y003504D03*
X011356Y002660D03*
X011013Y002410D03*
X009575Y001785D03*
X008638Y001723D03*
X007700Y001535D03*
X007200Y000973D03*
X008075Y000785D03*
X006638Y002035D03*
X006138Y001285D03*
X004575Y001285D03*
X006575Y002973D03*
X006700Y003473D03*
X005450Y003973D03*
X005044Y003629D03*
X004638Y003348D03*
X005200Y003254D03*
X003825Y003285D03*
X003075Y003660D03*
X003075Y004035D03*
X003513Y004035D03*
X002263Y002848D03*
X001513Y002848D03*
X001513Y002223D03*
X002200Y002223D03*
X002200Y001660D03*
X007888Y002473D03*
X010481Y001254D03*
X014294Y003754D03*
X014419Y004473D03*
X015169Y002910D03*
X013263Y006254D03*
X013544Y006566D03*
X013888Y006973D03*
X014294Y007348D03*
X014388Y006348D03*
X012325Y007723D03*
X011856Y008004D03*
X011825Y007285D03*
X011450Y009098D03*
X009450Y010223D03*
X009513Y011223D03*
X010638Y011691D03*
X011700Y011035D03*
D25*
X014763Y009160D02*
X014763Y007254D01*
X014388Y006348D02*
X015169Y005566D01*
X015169Y002910D01*
X013856Y002348D02*
X013856Y001254D01*
X013263Y000660D01*
X011606Y000660D01*
X011013Y001254D01*
X011013Y002410D01*
X009200Y002785D02*
X008450Y002785D01*
X008481Y002754D01*
X008450Y002785D02*
X008325Y002910D01*
X007263Y002910D01*
X006700Y003473D01*
X005856Y004316D01*
X005513Y003973D01*
X005825Y004348D02*
X005825Y004997D01*
X005807Y005014D02*
X005807Y005642D01*
X005571Y005879D01*
X003075Y005910D02*
X002643Y005910D01*
X003263Y008223D02*
X003263Y008848D01*
X002450Y009660D01*
X002388Y009660D01*
X002138Y009660D01*
X001575Y009098D01*
X003694Y009154D02*
X003694Y008535D01*
X004206Y008535D02*
X004206Y008791D01*
X004513Y009098D01*
X005075Y009223D02*
X005075Y010785D01*
X005513Y011223D01*
X006138Y011223D01*
X005888Y010910D02*
X005950Y010848D01*
X005888Y010910D02*
X005638Y010910D01*
X005356Y010629D01*
X005356Y009254D01*
X005950Y009223D02*
X005950Y009592D01*
X006388Y009473D02*
X006388Y009223D01*
X006843Y009080D02*
X007138Y008785D01*
X006843Y009080D02*
X006843Y010178D01*
X007325Y010660D01*
X007763Y011410D02*
X008053Y011410D01*
X008084Y011441D01*
X006794Y008504D02*
X006794Y008120D01*
X006825Y008088D01*
X003700Y009098D02*
X003694Y009154D01*
X010013Y006254D02*
X013263Y006254D01*
X011888Y007285D02*
X012325Y007723D01*
X008763Y003285D02*
X008513Y003035D01*
X008513Y002723D01*
X008638Y002598D01*
X008638Y001723D01*
D26*
X007888Y002473D02*
X006200Y002473D01*
X006638Y002035D02*
X005325Y002035D01*
X004575Y001285D01*
X004200Y000785D02*
X003638Y001348D01*
X003638Y001357D01*
X003622Y001373D01*
X004200Y000785D02*
X005638Y000785D01*
X006138Y001285D01*
X007200Y000973D02*
X007419Y001191D01*
X009700Y001191D01*
X008075Y000785D02*
X008051Y000761D01*
X008051Y000743D01*
X008513Y002723D02*
X008481Y002754D01*
X008507Y002779D01*
X008763Y003285D02*
X008763Y004285D01*
X009059Y004582D01*
X009200Y003785D02*
X009200Y003291D01*
X009700Y003291D02*
X009700Y003723D01*
X009200Y002785D02*
X009200Y002779D01*
X009700Y002779D01*
X008325Y003473D02*
X007138Y003473D01*
X006263Y004348D01*
X006263Y004992D01*
X006240Y005014D01*
X006673Y005014D02*
X006700Y005041D01*
X006700Y005410D01*
X006825Y005535D01*
X007450Y005535D01*
X007575Y005410D01*
X007106Y005014D02*
X007211Y004910D01*
X007450Y004910D01*
X007294Y005848D02*
X006700Y005848D01*
X006138Y006410D01*
X006138Y007285D01*
X005888Y007535D01*
X005888Y008723D01*
X006388Y009223D01*
X007138Y008785D02*
X007263Y008910D01*
X008075Y008910D01*
X008638Y008379D01*
X009919Y008379D01*
X009575Y009035D02*
X009075Y009035D01*
X008888Y009035D01*
X007825Y010098D01*
X007700Y010098D01*
X007513Y009910D01*
X007513Y009535D01*
X007825Y009223D01*
X007325Y009223D02*
X007325Y010160D01*
X007575Y010410D01*
X009263Y010410D01*
X009450Y010223D01*
X009763Y009223D02*
X009575Y009035D01*
X008888Y008660D02*
X007825Y009660D01*
X005700Y008910D02*
X005700Y007223D01*
X005731Y007191D01*
X005388Y007098D02*
X005700Y006785D01*
X005388Y007098D02*
X005388Y007410D01*
X005513Y007535D01*
X005513Y008785D01*
X005075Y009223D01*
X005356Y009254D02*
X005700Y008910D01*
X005138Y008160D02*
X004013Y007035D01*
X002981Y007035D01*
X002794Y006848D01*
X001888Y006848D01*
X002450Y006535D02*
X002888Y006535D01*
X003138Y006785D01*
X004263Y006785D01*
X005200Y007723D01*
X005013Y006973D02*
X004388Y006348D01*
X003356Y006348D01*
X002643Y005910D02*
X002581Y005973D01*
X002740Y005410D02*
X002388Y005057D01*
X002740Y005410D02*
X003075Y005410D01*
X004075Y005535D02*
X004075Y005014D01*
X004508Y005014D02*
X004513Y005019D01*
X004513Y005723D01*
X005544Y005879D02*
X005571Y005879D01*
X005374Y005014D02*
X005388Y005001D01*
X005388Y004410D01*
X005013Y004035D01*
X005450Y003973D02*
X005513Y003973D01*
X005856Y004316D02*
X005825Y004348D01*
X005825Y004997D02*
X005807Y005014D01*
X009513Y007660D02*
X010575Y007660D01*
X011950Y009035D01*
X011950Y009660D01*
X012231Y009941D01*
X013638Y009941D01*
X013856Y009723D01*
X013856Y009348D01*
X011888Y007285D02*
X011825Y007285D01*
X005356Y010629D02*
X005325Y010598D01*
D27*
X004513Y009098D03*
X007763Y011410D03*
D28*
X007514Y011668D02*
X004984Y011668D01*
X005001Y011651D02*
X004866Y011786D01*
X004689Y011859D01*
X003898Y011859D01*
X003722Y011786D01*
X003587Y011651D01*
X003574Y011619D01*
X003559Y011619D01*
X003470Y011582D01*
X002252Y010363D01*
X002184Y010296D01*
X002148Y010208D01*
X002148Y009920D01*
X002086Y009920D01*
X001990Y009880D01*
X001546Y009436D01*
X001508Y009436D01*
X001383Y009384D01*
X001288Y009289D01*
X001237Y009165D01*
X001237Y009030D01*
X001288Y008906D01*
X001383Y008811D01*
X001508Y008759D01*
X001642Y008759D01*
X001767Y008811D01*
X001862Y008906D01*
X001913Y009030D01*
X001913Y009068D01*
X002245Y009400D01*
X002342Y009400D01*
X003003Y008740D01*
X003003Y008441D01*
X002976Y008414D01*
X002924Y008290D01*
X002924Y008155D01*
X002976Y008031D01*
X003071Y007936D01*
X003195Y007884D01*
X003330Y007884D01*
X003454Y007936D01*
X003549Y008031D01*
X003601Y008155D01*
X003601Y008178D01*
X003906Y008178D01*
X003950Y008221D01*
X003994Y008178D01*
X004418Y008178D01*
X004524Y008283D01*
X004524Y008739D01*
X004584Y008739D01*
X004715Y008794D01*
X004816Y008895D01*
X004871Y009026D01*
X004871Y009059D01*
X004928Y009002D01*
X005000Y008972D01*
X005283Y008690D01*
X005283Y008466D01*
X005205Y008498D01*
X005070Y008498D01*
X004946Y008447D01*
X004851Y008352D01*
X004799Y008227D01*
X004799Y008147D01*
X003917Y007265D01*
X002886Y007265D01*
X002751Y007130D01*
X002698Y007077D01*
X002136Y007077D01*
X002079Y007134D01*
X001955Y007186D01*
X001820Y007186D01*
X001696Y007134D01*
X001601Y007039D01*
X001549Y006915D01*
X001549Y006780D01*
X001601Y006656D01*
X001696Y006561D01*
X001820Y006509D01*
X001955Y006509D01*
X002079Y006561D01*
X002112Y006593D01*
X002112Y006468D01*
X002163Y006343D01*
X002197Y006310D01*
X002078Y006310D01*
X002078Y005981D01*
X002060Y005981D01*
X002060Y005964D01*
X001771Y005964D01*
X001771Y005774D01*
X001782Y005734D01*
X001803Y005697D01*
X001833Y005667D01*
X001870Y005646D01*
X001910Y005635D01*
X002060Y005635D01*
X002060Y005964D01*
X002078Y005964D01*
X002078Y005635D01*
X002228Y005635D01*
X002269Y005646D01*
X002305Y005667D01*
X002311Y005673D01*
X002369Y005615D01*
X002620Y005615D01*
X002459Y005454D01*
X002116Y005454D01*
X002011Y005348D01*
X002011Y004766D01*
X002068Y004708D01*
X002063Y004703D01*
X002042Y004666D01*
X002031Y004625D01*
X002031Y004426D01*
X002349Y004426D01*
X002349Y004349D01*
X002426Y004349D01*
X002426Y004011D01*
X002605Y004011D01*
X002646Y004022D01*
X002683Y004043D01*
X002712Y004073D01*
X002733Y004110D01*
X002744Y004150D01*
X002744Y004349D01*
X002426Y004349D01*
X002426Y004426D01*
X002744Y004426D01*
X002744Y004625D01*
X002733Y004666D01*
X002712Y004703D01*
X002707Y004708D01*
X002764Y004766D01*
X002764Y005109D01*
X002831Y005175D01*
X002883Y005123D01*
X003008Y005072D01*
X003142Y005072D01*
X003167Y005082D01*
X003167Y004585D01*
X003272Y004480D01*
X004268Y004480D01*
X004292Y004504D01*
X004315Y004480D01*
X004701Y004480D01*
X004742Y004522D01*
X004761Y004511D01*
X004802Y004500D01*
X004941Y004500D01*
X004941Y005014D01*
X004941Y005014D01*
X004941Y004500D01*
X005080Y004500D01*
X005121Y004511D01*
X005140Y004522D01*
X005157Y004505D01*
X004901Y004248D01*
X004877Y004238D01*
X004851Y004212D01*
X004590Y004212D01*
X004502Y004176D01*
X004434Y004108D01*
X004028Y003702D01*
X003991Y003614D01*
X003991Y002769D01*
X004028Y002680D01*
X004095Y002613D01*
X004439Y002269D01*
X004527Y002233D01*
X005197Y002233D01*
X004588Y001623D01*
X004508Y001623D01*
X004383Y001572D01*
X004288Y001477D01*
X004237Y001352D01*
X004237Y001218D01*
X004288Y001093D01*
X004366Y001015D01*
X004295Y001015D01*
X004088Y001223D01*
X004088Y001644D01*
X003982Y001749D01*
X003842Y001749D01*
X003842Y002333D01*
X003736Y002438D01*
X003272Y002438D01*
X003167Y002333D01*
X003167Y001654D01*
X003157Y001644D01*
X003157Y001101D01*
X003262Y000996D01*
X003664Y000996D01*
X004105Y000555D01*
X005733Y000555D01*
X005867Y000690D01*
X006124Y000947D01*
X006205Y000947D01*
X006329Y000998D01*
X006424Y001093D01*
X006476Y001218D01*
X006476Y001352D01*
X006424Y001477D01*
X006329Y001572D01*
X006205Y001623D01*
X006070Y001623D01*
X005946Y001572D01*
X005851Y001477D01*
X005799Y001352D01*
X005799Y001272D01*
X005542Y001015D01*
X004784Y001015D01*
X004862Y001093D01*
X004913Y001218D01*
X004913Y001298D01*
X005420Y001805D01*
X006389Y001805D01*
X006446Y001748D01*
X006570Y001697D01*
X006705Y001697D01*
X006829Y001748D01*
X006924Y001843D01*
X006976Y001968D01*
X006976Y002102D01*
X006924Y002227D01*
X006909Y002243D01*
X007639Y002243D01*
X007696Y002186D01*
X007820Y002134D01*
X007948Y002134D01*
X007871Y002057D01*
X007871Y001421D01*
X007323Y001421D01*
X007213Y001311D01*
X007133Y001311D01*
X007008Y001259D01*
X006913Y001164D01*
X006862Y001040D01*
X006862Y000905D01*
X006913Y000781D01*
X007008Y000686D01*
X007133Y000634D01*
X007267Y000634D01*
X007392Y000686D01*
X007487Y000781D01*
X007538Y000905D01*
X007538Y000961D01*
X007695Y000961D01*
X007695Y000781D01*
X008013Y000781D01*
X008013Y000704D01*
X008090Y000704D01*
X008090Y000781D01*
X008408Y000781D01*
X008408Y000961D01*
X009628Y000961D01*
X009652Y000951D01*
X009748Y000951D01*
X009772Y000961D01*
X009795Y000961D01*
X009812Y000978D01*
X009836Y000988D01*
X010753Y001904D01*
X010753Y001202D01*
X010792Y001106D01*
X010865Y001033D01*
X011386Y000513D01*
X011459Y000440D01*
X011555Y000400D01*
X013314Y000400D01*
X013410Y000440D01*
X014004Y001033D01*
X014077Y001106D01*
X014116Y001202D01*
X014116Y002024D01*
X014131Y002010D01*
X014277Y001949D01*
X014435Y001949D01*
X014582Y002010D01*
X014694Y002122D01*
X014695Y002124D01*
X014742Y002144D01*
X014810Y002212D01*
X014997Y002399D01*
X015034Y002487D01*
X015034Y002600D01*
X015101Y002572D01*
X015236Y002572D01*
X015360Y002623D01*
X015456Y002718D01*
X015507Y002843D01*
X015507Y002977D01*
X015456Y003102D01*
X015429Y003129D01*
X015429Y005618D01*
X015389Y005714D01*
X015316Y005787D01*
X014726Y006377D01*
X014726Y006415D01*
X014674Y006539D01*
X014579Y006634D01*
X014511Y006663D01*
X014861Y007013D01*
X014910Y007033D01*
X014983Y007106D01*
X015022Y007202D01*
X015022Y009212D01*
X014983Y009307D01*
X014910Y009380D01*
X014861Y009400D01*
X014778Y009483D01*
X014711Y009551D01*
X014701Y009555D01*
X014694Y009573D01*
X014582Y009685D01*
X014435Y009746D01*
X014277Y009746D01*
X014131Y009685D01*
X014106Y009661D01*
X014086Y009681D01*
X014086Y009818D01*
X013952Y009952D01*
X013733Y010171D01*
X012136Y010171D01*
X012001Y010037D01*
X011720Y009755D01*
X011720Y009130D01*
X010480Y007890D01*
X010405Y007890D01*
X010415Y007899D01*
X010437Y007921D01*
X011018Y008454D01*
X011023Y008457D01*
X011054Y008487D01*
X011085Y008515D01*
X011087Y008520D01*
X011091Y008524D01*
X011107Y008563D01*
X011125Y008602D01*
X011125Y008607D01*
X011127Y008612D01*
X011127Y008655D01*
X011129Y008697D01*
X011127Y008702D01*
X011127Y010520D01*
X011091Y010608D01*
X010966Y010733D01*
X010898Y010801D01*
X010810Y010837D01*
X007924Y010837D01*
X007796Y010966D01*
X008415Y010966D01*
X008443Y010995D01*
X008476Y010986D01*
X008693Y010986D01*
X008693Y011381D01*
X008813Y011381D01*
X008813Y010986D01*
X009030Y010986D01*
X009071Y010997D01*
X009108Y011018D01*
X009137Y011048D01*
X009158Y011084D01*
X009169Y011125D01*
X009169Y011381D01*
X008813Y011381D01*
X008813Y011501D01*
X008693Y011501D01*
X008693Y011897D01*
X008476Y011897D01*
X008443Y011888D01*
X008415Y011917D01*
X007754Y011917D01*
X007648Y011811D01*
X007648Y011750D01*
X007560Y011714D01*
X007459Y011613D01*
X007404Y011481D01*
X007404Y011339D01*
X007457Y011212D01*
X006902Y011212D01*
X006838Y011186D01*
X006758Y011186D01*
X006633Y011134D01*
X006538Y011039D01*
X006487Y010915D01*
X006487Y010780D01*
X006538Y010656D01*
X006633Y010561D01*
X006758Y010509D01*
X006806Y010509D01*
X006695Y010398D01*
X006622Y010325D01*
X006583Y010229D01*
X006583Y009756D01*
X006579Y009759D01*
X006455Y009811D01*
X006320Y009811D01*
X006306Y009805D01*
X006249Y009862D01*
X006255Y009867D01*
X006276Y009904D01*
X006287Y009945D01*
X006287Y010095D01*
X005959Y010095D01*
X005959Y010112D01*
X006287Y010112D01*
X006287Y010262D01*
X006276Y010303D01*
X006255Y010339D01*
X006225Y010369D01*
X006189Y010390D01*
X006148Y010401D01*
X005959Y010401D01*
X005959Y010112D01*
X005941Y010112D01*
X005941Y010401D01*
X005752Y010401D01*
X005711Y010390D01*
X005675Y010369D01*
X005645Y010339D01*
X005624Y010303D01*
X005616Y010275D01*
X005616Y010521D01*
X005707Y010612D01*
X005758Y010561D01*
X005883Y010509D01*
X006017Y010509D01*
X006142Y010561D01*
X006237Y010656D01*
X006288Y010780D01*
X006288Y010915D01*
X006287Y010918D01*
X006329Y010936D01*
X006424Y011031D01*
X006476Y011155D01*
X006476Y011290D01*
X006424Y011414D01*
X006329Y011509D01*
X006205Y011561D01*
X006070Y011561D01*
X005946Y011509D01*
X005919Y011482D01*
X005461Y011482D01*
X005365Y011443D01*
X004855Y010932D01*
X004815Y010837D01*
X004815Y010782D01*
X004770Y010805D01*
X004701Y010827D01*
X004630Y010839D01*
X004334Y010839D01*
X004334Y010419D01*
X004254Y010419D01*
X004254Y010839D01*
X003958Y010839D01*
X003886Y010827D01*
X003817Y010805D01*
X003753Y010772D01*
X003694Y010730D01*
X003643Y010678D01*
X003600Y010620D01*
X003567Y010555D01*
X003545Y010486D01*
X003534Y010419D01*
X004254Y010419D01*
X004254Y010339D01*
X004334Y010339D01*
X004334Y009919D01*
X004630Y009919D01*
X004701Y009930D01*
X004770Y009952D01*
X004815Y009975D01*
X004815Y009301D01*
X004715Y009401D01*
X004584Y009456D01*
X004441Y009456D01*
X004310Y009401D01*
X004209Y009300D01*
X004154Y009169D01*
X004154Y009107D01*
X004059Y009011D01*
X004011Y008963D01*
X004038Y009030D01*
X004038Y009165D01*
X003987Y009289D01*
X003892Y009384D01*
X003767Y009436D01*
X003633Y009436D01*
X003508Y009384D01*
X003413Y009289D01*
X003362Y009165D01*
X003362Y009116D01*
X002670Y009807D01*
X002627Y009850D01*
X002627Y010061D01*
X003630Y011063D01*
X003722Y010972D01*
X003898Y010899D01*
X004689Y010899D01*
X004866Y010972D01*
X005001Y011107D01*
X005074Y011283D01*
X005074Y011474D01*
X005001Y011651D01*
X005043Y011549D02*
X006041Y011549D01*
X006234Y011549D02*
X007432Y011549D01*
X007404Y011431D02*
X006408Y011431D01*
X006467Y011312D02*
X007415Y011312D01*
X007450Y010973D02*
X006950Y010973D01*
X006825Y010848D01*
X006574Y011075D02*
X006443Y011075D01*
X006476Y011194D02*
X006856Y011194D01*
X006504Y010957D02*
X006350Y010957D01*
X006288Y010838D02*
X006487Y010838D01*
X006512Y010720D02*
X006263Y010720D01*
X006182Y010601D02*
X006593Y010601D01*
X006780Y010483D02*
X005616Y010483D01*
X005616Y010364D02*
X005669Y010364D01*
X005696Y010601D02*
X005718Y010601D01*
X005941Y010364D02*
X005959Y010364D01*
X005959Y010246D02*
X005941Y010246D01*
X005941Y010127D02*
X005959Y010127D01*
X006287Y010127D02*
X006583Y010127D01*
X006583Y010009D02*
X006287Y010009D01*
X006268Y009890D02*
X006583Y009890D01*
X006583Y009772D02*
X006550Y009772D01*
X006589Y010246D02*
X006287Y010246D01*
X006231Y010364D02*
X006661Y010364D01*
X007450Y010973D02*
X007825Y010598D01*
X010763Y010598D01*
X010888Y010473D01*
X010888Y008660D01*
X010271Y008094D01*
X010211Y008035D01*
X008950Y008035D01*
X008888Y008098D01*
X008549Y008113D02*
X007300Y008113D01*
X007300Y008231D02*
X008459Y008231D01*
X008477Y008214D02*
X008542Y008149D01*
X008546Y008149D01*
X008549Y008146D01*
X008549Y008030D01*
X008601Y007906D01*
X008696Y007811D01*
X008720Y007801D01*
X008470Y007551D01*
X008403Y007483D01*
X008366Y007395D01*
X008366Y007305D01*
X008319Y007258D01*
X008268Y007134D01*
X008268Y006999D01*
X008319Y006875D01*
X008415Y006779D01*
X008539Y006728D01*
X008674Y006728D01*
X008798Y006779D01*
X008876Y006857D01*
X008882Y006843D01*
X008977Y006748D01*
X009101Y006697D01*
X009236Y006697D01*
X009360Y006748D01*
X009456Y006843D01*
X009507Y006968D01*
X009507Y007034D01*
X009674Y007201D01*
X010779Y007201D01*
X010867Y007238D01*
X011737Y008108D01*
X014216Y008108D01*
X014305Y008144D01*
X014492Y008332D01*
X014503Y008342D01*
X014503Y007333D01*
X013859Y006690D01*
X013831Y006758D01*
X013735Y006853D01*
X013611Y006905D01*
X013476Y006905D01*
X013352Y006853D01*
X013305Y006806D01*
X009746Y006806D01*
X009658Y006770D01*
X009221Y006333D01*
X009174Y006445D01*
X009079Y006541D01*
X008955Y006592D01*
X008820Y006592D01*
X008696Y006541D01*
X008649Y006494D01*
X007268Y006494D01*
X006820Y006942D01*
X006820Y007009D01*
X006768Y007133D01*
X006765Y007136D01*
X006765Y007359D01*
X006885Y007359D01*
X006885Y007003D01*
X007141Y007003D01*
X007182Y007014D01*
X007219Y007035D01*
X007248Y007065D01*
X007269Y007101D01*
X007280Y007142D01*
X007280Y007359D01*
X006885Y007359D01*
X006885Y007479D01*
X007280Y007479D01*
X007280Y007696D01*
X007271Y007729D01*
X007300Y007758D01*
X007300Y008419D01*
X007253Y008466D01*
X007329Y008498D01*
X007424Y008593D01*
X007460Y008680D01*
X007984Y008680D01*
X008477Y008214D01*
X008549Y008146D02*
X008549Y008146D01*
X008564Y007994D02*
X007300Y007994D01*
X007300Y007876D02*
X008631Y007876D01*
X008676Y007757D02*
X007299Y007757D01*
X007280Y007639D02*
X008558Y007639D01*
X008439Y007520D02*
X007280Y007520D01*
X007280Y007283D02*
X008344Y007283D01*
X008369Y007402D02*
X006885Y007402D01*
X006885Y007283D02*
X006765Y007283D01*
X006765Y007165D02*
X006885Y007165D01*
X006885Y007046D02*
X006804Y007046D01*
X006834Y006928D02*
X008297Y006928D01*
X008268Y007046D02*
X007229Y007046D01*
X007280Y007165D02*
X008281Y007165D01*
X008606Y007066D02*
X008606Y007348D01*
X008919Y007660D01*
X009513Y007660D01*
X009575Y007441D02*
X009169Y007035D01*
X009421Y006809D02*
X013308Y006809D01*
X013544Y006566D02*
X009794Y006566D01*
X008606Y005379D01*
X008606Y005098D01*
X008715Y004776D02*
X008726Y004750D01*
X008814Y004661D01*
X008533Y004380D01*
X008533Y003744D01*
X008517Y003759D01*
X008392Y003811D01*
X008258Y003811D01*
X008133Y003759D01*
X008076Y003702D01*
X007233Y003702D01*
X006492Y004443D01*
X006492Y004480D01*
X006866Y004480D01*
X006890Y004504D01*
X006914Y004480D01*
X007299Y004480D01*
X007391Y004572D01*
X007517Y004572D01*
X007596Y004604D01*
X007596Y004585D01*
X007701Y004480D01*
X008441Y004480D01*
X008546Y004585D01*
X008546Y004759D01*
X008674Y004759D01*
X008715Y004776D01*
X008799Y004676D02*
X008546Y004676D01*
X008518Y004558D02*
X008710Y004558D01*
X008591Y004439D02*
X006496Y004439D01*
X006615Y004321D02*
X008533Y004321D01*
X008533Y004202D02*
X006733Y004202D01*
X006852Y004084D02*
X008533Y004084D01*
X008533Y003965D02*
X006970Y003965D01*
X007089Y003847D02*
X008533Y003847D01*
X008992Y004056D02*
X008992Y004190D01*
X009171Y004368D01*
X009195Y004378D01*
X009209Y004392D01*
X009227Y004373D01*
X009351Y004322D01*
X009486Y004322D01*
X009610Y004373D01*
X009691Y004454D01*
X010398Y003748D01*
X010398Y003153D01*
X010393Y003129D01*
X010398Y003105D01*
X010398Y003081D01*
X010407Y003059D01*
X010411Y003035D01*
X010425Y003015D01*
X010434Y002993D01*
X010451Y002976D01*
X010460Y002962D01*
X010460Y002291D01*
X009591Y001421D01*
X008795Y001421D01*
X008829Y001436D01*
X008924Y001531D01*
X008976Y001655D01*
X008976Y001790D01*
X008924Y001914D01*
X008897Y001941D01*
X008897Y002512D01*
X008948Y002461D01*
X009952Y002461D01*
X010057Y002567D01*
X010057Y002991D01*
X010014Y003035D01*
X010057Y003079D01*
X010057Y003503D01*
X009999Y003561D01*
X010038Y003655D01*
X010038Y003790D01*
X009987Y003914D01*
X009892Y004009D01*
X009767Y004061D01*
X009633Y004061D01*
X009508Y004009D01*
X009481Y003982D01*
X009392Y004072D01*
X009267Y004123D01*
X009133Y004123D01*
X009008Y004072D01*
X008992Y004056D01*
X008992Y004084D02*
X009036Y004084D01*
X009005Y004202D02*
X009944Y004202D01*
X010062Y004084D02*
X009364Y004084D01*
X009123Y004321D02*
X009825Y004321D01*
X009707Y004439D02*
X009676Y004439D01*
X009794Y004691D02*
X009794Y004816D01*
X010231Y005254D01*
X010513Y005254D01*
X010200Y005629D02*
X014481Y005629D01*
X014794Y005316D01*
X014794Y002535D01*
X014606Y002348D01*
X014356Y002348D01*
X014641Y002069D02*
X015796Y002069D01*
X015796Y001951D02*
X014438Y001951D01*
X014274Y001951D02*
X014116Y001951D01*
X014116Y001832D02*
X015796Y001832D01*
X015796Y001714D02*
X015431Y001714D01*
X015427Y001717D02*
X015158Y001829D01*
X014867Y001829D01*
X014598Y001717D01*
X014393Y001512D01*
X014281Y001243D01*
X014281Y000952D01*
X014393Y000683D01*
X014598Y000478D01*
X014867Y000366D01*
X015158Y000366D01*
X015427Y000478D01*
X015632Y000683D01*
X015744Y000952D01*
X015744Y001243D01*
X015632Y001512D01*
X015427Y001717D01*
X015549Y001595D02*
X015796Y001595D01*
X015796Y001477D02*
X015647Y001477D01*
X015696Y001358D02*
X015796Y001358D01*
X015796Y001240D02*
X015744Y001240D01*
X015744Y001121D02*
X015796Y001121D01*
X015796Y001003D02*
X015744Y001003D01*
X015715Y000884D02*
X015796Y000884D01*
X015796Y000766D02*
X015666Y000766D01*
X015596Y000647D02*
X015796Y000647D01*
X015796Y000529D02*
X015478Y000529D01*
X015263Y000410D02*
X015796Y000410D01*
X015796Y000340D02*
X008377Y000340D01*
X008397Y000376D01*
X008408Y000416D01*
X008408Y000704D01*
X008090Y000704D01*
X008090Y000340D01*
X008013Y000340D01*
X008013Y000704D01*
X007695Y000704D01*
X007695Y000416D01*
X007705Y000376D01*
X007726Y000340D01*
X000505Y000340D01*
X000505Y000865D01*
X000580Y000683D01*
X000786Y000478D01*
X001055Y000366D01*
X001345Y000366D01*
X001614Y000478D01*
X001820Y000683D01*
X001931Y000952D01*
X001931Y001243D01*
X001820Y001512D01*
X001614Y001717D01*
X001345Y001829D01*
X001055Y001829D01*
X000786Y001717D01*
X000580Y001512D01*
X000505Y001330D01*
X000505Y011177D01*
X000580Y010996D01*
X000786Y010790D01*
X001055Y010679D01*
X001345Y010679D01*
X001614Y010790D01*
X001820Y010996D01*
X001931Y011265D01*
X001931Y011555D01*
X001820Y011824D01*
X001614Y012030D01*
X001345Y012141D01*
X001055Y012141D01*
X000786Y012030D01*
X000580Y011824D01*
X000505Y011643D01*
X000505Y012289D01*
X015796Y012289D01*
X015796Y000340D01*
X014762Y000410D02*
X013338Y000410D01*
X013499Y000529D02*
X014547Y000529D01*
X014429Y000647D02*
X013617Y000647D01*
X013736Y000766D02*
X014359Y000766D01*
X014310Y000884D02*
X013854Y000884D01*
X013973Y001003D02*
X014281Y001003D01*
X014281Y001121D02*
X014083Y001121D01*
X014116Y001240D02*
X014281Y001240D01*
X014329Y001358D02*
X014116Y001358D01*
X014116Y001477D02*
X014378Y001477D01*
X014476Y001595D02*
X014116Y001595D01*
X014116Y001714D02*
X014594Y001714D01*
X014786Y002188D02*
X015796Y002188D01*
X015796Y002306D02*
X014904Y002306D01*
X015008Y002425D02*
X015796Y002425D01*
X015796Y002543D02*
X015034Y002543D01*
X015399Y002662D02*
X015796Y002662D01*
X015796Y002780D02*
X015481Y002780D01*
X015507Y002899D02*
X015796Y002899D01*
X015796Y003017D02*
X015491Y003017D01*
X015429Y003136D02*
X015796Y003136D01*
X015796Y003254D02*
X015429Y003254D01*
X015429Y003373D02*
X015796Y003373D01*
X015796Y003491D02*
X015429Y003491D01*
X015429Y003610D02*
X015796Y003610D01*
X015796Y003728D02*
X015429Y003728D01*
X015429Y003847D02*
X015796Y003847D01*
X015796Y003965D02*
X015429Y003965D01*
X015429Y004084D02*
X015796Y004084D01*
X015796Y004202D02*
X015429Y004202D01*
X015429Y004321D02*
X015796Y004321D01*
X015796Y004439D02*
X015429Y004439D01*
X015429Y004558D02*
X015796Y004558D01*
X015796Y004676D02*
X015429Y004676D01*
X015429Y004795D02*
X015796Y004795D01*
X015796Y004913D02*
X015429Y004913D01*
X015429Y005032D02*
X015796Y005032D01*
X015796Y005150D02*
X015429Y005150D01*
X015429Y005269D02*
X015796Y005269D01*
X015796Y005387D02*
X015429Y005387D01*
X015429Y005506D02*
X015796Y005506D01*
X015796Y005624D02*
X015426Y005624D01*
X015360Y005743D02*
X015796Y005743D01*
X015796Y005861D02*
X015242Y005861D01*
X015123Y005980D02*
X015796Y005980D01*
X015796Y006098D02*
X015005Y006098D01*
X014886Y006217D02*
X015796Y006217D01*
X015796Y006335D02*
X014768Y006335D01*
X014710Y006454D02*
X015796Y006454D01*
X015796Y006572D02*
X014642Y006572D01*
X014539Y006691D02*
X015796Y006691D01*
X015796Y006809D02*
X014657Y006809D01*
X014776Y006928D02*
X015796Y006928D01*
X015796Y007046D02*
X014922Y007046D01*
X015007Y007165D02*
X015796Y007165D01*
X015796Y007283D02*
X015022Y007283D01*
X015022Y007402D02*
X015796Y007402D01*
X015796Y007520D02*
X015022Y007520D01*
X015022Y007639D02*
X015796Y007639D01*
X015796Y007757D02*
X015022Y007757D01*
X015022Y007876D02*
X015796Y007876D01*
X015796Y007994D02*
X015022Y007994D01*
X015022Y008113D02*
X015796Y008113D01*
X015796Y008231D02*
X015022Y008231D01*
X015022Y008350D02*
X015796Y008350D01*
X015796Y008468D02*
X015022Y008468D01*
X015022Y008587D02*
X015796Y008587D01*
X015796Y008705D02*
X015022Y008705D01*
X015022Y008824D02*
X015796Y008824D01*
X015796Y008942D02*
X015022Y008942D01*
X015022Y009061D02*
X015796Y009061D01*
X015796Y009179D02*
X015022Y009179D01*
X014987Y009298D02*
X015796Y009298D01*
X015796Y009416D02*
X014846Y009416D01*
X014727Y009535D02*
X015796Y009535D01*
X015796Y009653D02*
X014614Y009653D01*
X014575Y009348D02*
X014356Y009348D01*
X014575Y009348D02*
X014763Y009160D01*
X014356Y008848D02*
X014356Y008535D01*
X014169Y008348D01*
X011638Y008348D01*
X010731Y007441D01*
X009575Y007441D01*
X009638Y007165D02*
X011509Y007165D01*
X011487Y007218D02*
X011538Y007093D01*
X011633Y006998D01*
X011758Y006947D01*
X011892Y006947D01*
X012017Y006998D01*
X012112Y007093D01*
X012146Y007176D01*
X012354Y007384D01*
X012392Y007384D01*
X012517Y007436D01*
X012612Y007531D01*
X012663Y007655D01*
X012663Y007790D01*
X012612Y007914D01*
X012517Y008009D01*
X012392Y008061D01*
X012258Y008061D01*
X012133Y008009D01*
X012038Y007914D01*
X011987Y007790D01*
X011987Y007752D01*
X011858Y007623D01*
X011758Y007623D01*
X011633Y007572D01*
X011538Y007477D01*
X011487Y007352D01*
X011487Y007218D01*
X011487Y007283D02*
X010912Y007283D01*
X011031Y007402D02*
X011507Y007402D01*
X011581Y007520D02*
X011149Y007520D01*
X011268Y007639D02*
X011873Y007639D01*
X011987Y007757D02*
X011386Y007757D01*
X011505Y007876D02*
X012022Y007876D01*
X012118Y007994D02*
X011623Y007994D01*
X011058Y008468D02*
X011035Y008468D01*
X011118Y008587D02*
X011176Y008587D01*
X011127Y008705D02*
X011295Y008705D01*
X011413Y008824D02*
X011127Y008824D01*
X011127Y008942D02*
X011532Y008942D01*
X011650Y009061D02*
X011127Y009061D01*
X011127Y009179D02*
X011720Y009179D01*
X011720Y009298D02*
X011127Y009298D01*
X011127Y009416D02*
X011720Y009416D01*
X011720Y009535D02*
X011127Y009535D01*
X011127Y009653D02*
X011720Y009653D01*
X011736Y009772D02*
X011127Y009772D01*
X011127Y009890D02*
X011855Y009890D01*
X011973Y010009D02*
X011127Y010009D01*
X011127Y010127D02*
X012092Y010127D01*
X011127Y010246D02*
X015796Y010246D01*
X015796Y010364D02*
X011127Y010364D01*
X011127Y010483D02*
X015796Y010483D01*
X015796Y010601D02*
X011094Y010601D01*
X010980Y010720D02*
X014769Y010720D01*
X014867Y010679D02*
X015158Y010679D01*
X015427Y010790D01*
X015632Y010996D01*
X015744Y011265D01*
X015744Y011555D01*
X015632Y011824D01*
X015427Y012030D01*
X015158Y012141D01*
X014867Y012141D01*
X014598Y012030D01*
X014393Y011824D01*
X014281Y011555D01*
X014281Y011265D01*
X014393Y010996D01*
X014598Y010790D01*
X014867Y010679D01*
X014550Y010838D02*
X007924Y010838D01*
X007805Y010957D02*
X014432Y010957D01*
X014360Y011075D02*
X009153Y011075D01*
X009169Y011194D02*
X014311Y011194D01*
X014281Y011312D02*
X009169Y011312D01*
X009169Y011501D02*
X009169Y011758D01*
X009158Y011798D01*
X009137Y011835D01*
X009108Y011865D01*
X009071Y011886D01*
X009030Y011897D01*
X008813Y011897D01*
X008813Y011501D01*
X009169Y011501D01*
X009169Y011549D02*
X014281Y011549D01*
X014281Y011431D02*
X008813Y011431D01*
X008813Y011549D02*
X008693Y011549D01*
X008693Y011668D02*
X008813Y011668D01*
X008813Y011786D02*
X008693Y011786D01*
X008427Y011905D02*
X014473Y011905D01*
X014377Y011786D02*
X009162Y011786D01*
X009169Y011668D02*
X014328Y011668D01*
X014591Y012023D02*
X001621Y012023D01*
X001740Y011905D02*
X007742Y011905D01*
X007648Y011786D02*
X004865Y011786D01*
X005074Y011431D02*
X005353Y011431D01*
X005234Y011312D02*
X005074Y011312D01*
X005037Y011194D02*
X005116Y011194D01*
X004997Y011075D02*
X004969Y011075D01*
X004879Y010957D02*
X004829Y010957D01*
X004816Y010838D02*
X004635Y010838D01*
X004334Y010838D02*
X004254Y010838D01*
X004254Y010720D02*
X004334Y010720D01*
X004334Y010601D02*
X004254Y010601D01*
X004254Y010483D02*
X004334Y010483D01*
X004254Y010364D02*
X002931Y010364D01*
X003049Y010483D02*
X003544Y010483D01*
X003591Y010601D02*
X003168Y010601D01*
X003286Y010720D02*
X003684Y010720D01*
X003759Y010957D02*
X003523Y010957D01*
X003405Y010838D02*
X003953Y010838D01*
X004254Y010339D02*
X003534Y010339D01*
X003545Y010271D01*
X003567Y010202D01*
X003600Y010138D01*
X003643Y010079D01*
X003694Y010028D01*
X003753Y009985D01*
X003817Y009952D01*
X003886Y009930D01*
X003958Y009919D01*
X004254Y009919D01*
X004254Y010339D01*
X004254Y010246D02*
X004334Y010246D01*
X004334Y010127D02*
X004254Y010127D01*
X004254Y010009D02*
X004334Y010009D01*
X004815Y009890D02*
X002627Y009890D01*
X002627Y010009D02*
X003721Y010009D01*
X003608Y010127D02*
X002694Y010127D01*
X002812Y010246D02*
X003553Y010246D01*
X002825Y009653D02*
X004815Y009653D01*
X004815Y009535D02*
X002943Y009535D01*
X003062Y009416D02*
X003585Y009416D01*
X003421Y009298D02*
X003180Y009298D01*
X003299Y009179D02*
X003367Y009179D01*
X003815Y009416D02*
X004346Y009416D01*
X004208Y009298D02*
X003979Y009298D01*
X004033Y009179D02*
X004159Y009179D01*
X004108Y009061D02*
X004038Y009061D01*
X004059Y009011D02*
X004059Y009011D01*
X004524Y008705D02*
X005267Y008705D01*
X005283Y008587D02*
X004524Y008587D01*
X004524Y008468D02*
X004997Y008468D01*
X004850Y008350D02*
X004524Y008350D01*
X004471Y008231D02*
X004801Y008231D01*
X004765Y008113D02*
X003583Y008113D01*
X003513Y007994D02*
X004646Y007994D01*
X004528Y007876D02*
X000505Y007876D01*
X000505Y007994D02*
X003012Y007994D01*
X002942Y008113D02*
X000505Y008113D01*
X000505Y008231D02*
X002924Y008231D01*
X002949Y008350D02*
X000505Y008350D01*
X000505Y008468D02*
X003003Y008468D01*
X003003Y008587D02*
X000505Y008587D01*
X000505Y008705D02*
X003003Y008705D01*
X002919Y008824D02*
X001780Y008824D01*
X001877Y008942D02*
X002800Y008942D01*
X002682Y009061D02*
X001913Y009061D01*
X002024Y009179D02*
X002563Y009179D01*
X002445Y009298D02*
X002143Y009298D01*
X002388Y009660D02*
X002388Y010160D01*
X003606Y011379D01*
X004294Y011379D01*
X003723Y011786D02*
X001836Y011786D01*
X001885Y011668D02*
X003604Y011668D01*
X003437Y011549D02*
X001931Y011549D01*
X001931Y011431D02*
X003319Y011431D01*
X003200Y011312D02*
X001931Y011312D01*
X001902Y011194D02*
X003082Y011194D01*
X002963Y011075D02*
X001853Y011075D01*
X001781Y010957D02*
X002845Y010957D01*
X002726Y010838D02*
X001662Y010838D01*
X001444Y010720D02*
X002608Y010720D01*
X002489Y010601D02*
X000505Y010601D01*
X000505Y010483D02*
X002371Y010483D01*
X002252Y010364D02*
X000505Y010364D01*
X000505Y010246D02*
X002163Y010246D01*
X002148Y010127D02*
X000505Y010127D01*
X000505Y010009D02*
X002148Y010009D01*
X002013Y009890D02*
X000505Y009890D01*
X000505Y009772D02*
X001881Y009772D01*
X001763Y009653D02*
X000505Y009653D01*
X000505Y009535D02*
X001644Y009535D01*
X001460Y009416D02*
X000505Y009416D01*
X000505Y009298D02*
X001296Y009298D01*
X001242Y009179D02*
X000505Y009179D01*
X000505Y009061D02*
X001237Y009061D01*
X001273Y008942D02*
X000505Y008942D01*
X000505Y008824D02*
X001370Y008824D01*
X000505Y007757D02*
X004409Y007757D01*
X004291Y007639D02*
X000505Y007639D01*
X000505Y007520D02*
X004172Y007520D01*
X004054Y007402D02*
X000505Y007402D01*
X000505Y007283D02*
X003935Y007283D01*
X004819Y006454D02*
X005616Y006454D01*
X005633Y006447D02*
X005767Y006447D01*
X005892Y006498D01*
X005908Y006514D01*
X005908Y006505D01*
X005908Y006315D01*
X006470Y005752D01*
X006593Y005629D01*
X006513Y005549D01*
X006481Y005549D01*
X006457Y005525D01*
X006433Y005549D01*
X006067Y005549D01*
X006067Y005694D01*
X006028Y005790D01*
X005955Y005863D01*
X005955Y005863D01*
X005882Y005935D01*
X005882Y005946D01*
X005831Y006070D01*
X005735Y006166D01*
X005611Y006217D01*
X005476Y006217D01*
X005352Y006166D01*
X005257Y006070D01*
X005205Y005946D01*
X005205Y005811D01*
X005257Y005687D01*
X005352Y005592D01*
X005456Y005549D01*
X005182Y005549D01*
X005140Y005507D01*
X005121Y005518D01*
X005080Y005529D01*
X004941Y005529D01*
X004802Y005529D01*
X004796Y005527D01*
X004799Y005531D01*
X004851Y005655D01*
X004851Y005790D01*
X004799Y005914D01*
X004704Y006009D01*
X004580Y006061D01*
X004445Y006061D01*
X004321Y006009D01*
X004226Y005914D01*
X004199Y005850D01*
X004142Y005873D01*
X004008Y005873D01*
X003883Y005822D01*
X003788Y005727D01*
X003737Y005602D01*
X003737Y005468D01*
X003752Y005431D01*
X003413Y005431D01*
X003413Y005477D01*
X003362Y005602D01*
X003304Y005660D01*
X003362Y005718D01*
X003413Y005843D01*
X003413Y005977D01*
X003400Y006009D01*
X003424Y006009D01*
X003548Y006061D01*
X003605Y006118D01*
X004483Y006118D01*
X004999Y006634D01*
X005080Y006634D01*
X005204Y006686D01*
X005299Y006781D01*
X005323Y006837D01*
X005362Y006798D01*
X005362Y006718D01*
X005413Y006593D01*
X005508Y006498D01*
X005633Y006447D01*
X005784Y006454D02*
X005908Y006454D01*
X005908Y006335D02*
X004700Y006335D01*
X004582Y006217D02*
X005475Y006217D01*
X005613Y006217D02*
X006006Y006217D01*
X006124Y006098D02*
X005803Y006098D01*
X005868Y005980D02*
X006243Y005980D01*
X006361Y005861D02*
X005956Y005861D01*
X006047Y005743D02*
X006480Y005743D01*
X006589Y005624D02*
X006067Y005624D01*
X005320Y005624D02*
X004838Y005624D01*
X004851Y005743D02*
X005234Y005743D01*
X005205Y005861D02*
X004821Y005861D01*
X004734Y005980D02*
X005219Y005980D01*
X005284Y006098D02*
X003585Y006098D01*
X003413Y005980D02*
X004291Y005980D01*
X004204Y005861D02*
X004172Y005861D01*
X003978Y005861D02*
X003413Y005861D01*
X003372Y005743D02*
X003804Y005743D01*
X003746Y005624D02*
X003340Y005624D01*
X003402Y005506D02*
X003737Y005506D01*
X003167Y005032D02*
X002764Y005032D01*
X002764Y004913D02*
X003167Y004913D01*
X003167Y004795D02*
X002764Y004795D01*
X002728Y004676D02*
X003167Y004676D01*
X003195Y004558D02*
X002744Y004558D01*
X002744Y004439D02*
X005091Y004439D01*
X004973Y004321D02*
X002744Y004321D01*
X002744Y004202D02*
X004564Y004202D01*
X004409Y004084D02*
X002718Y004084D01*
X002426Y004084D02*
X002349Y004084D01*
X002349Y004011D02*
X002170Y004011D01*
X002129Y004022D01*
X002092Y004043D01*
X002063Y004073D01*
X002042Y004110D01*
X002031Y004150D01*
X002031Y004349D01*
X002349Y004349D01*
X002349Y004011D01*
X002349Y004202D02*
X002426Y004202D01*
X002426Y004321D02*
X002349Y004321D01*
X002031Y004321D02*
X000505Y004321D01*
X000505Y004439D02*
X002031Y004439D01*
X002031Y004558D02*
X000505Y004558D01*
X000505Y004676D02*
X002047Y004676D01*
X002011Y004795D02*
X000505Y004795D01*
X000505Y004913D02*
X002011Y004913D01*
X002011Y005032D02*
X000505Y005032D01*
X000505Y005150D02*
X002011Y005150D01*
X002011Y005269D02*
X000505Y005269D01*
X000505Y005387D02*
X002049Y005387D01*
X002360Y005624D02*
X000505Y005624D01*
X000505Y005506D02*
X002511Y005506D01*
X002806Y005150D02*
X002856Y005150D01*
X002078Y005743D02*
X002060Y005743D01*
X002060Y005861D02*
X002078Y005861D01*
X002060Y005980D02*
X000505Y005980D01*
X000505Y006098D02*
X001771Y006098D01*
X001771Y006171D02*
X001771Y005981D01*
X002060Y005981D01*
X002060Y006310D01*
X001910Y006310D01*
X001870Y006299D01*
X001833Y006278D01*
X001803Y006248D01*
X001782Y006211D01*
X001771Y006171D01*
X001785Y006217D02*
X000505Y006217D01*
X000505Y006335D02*
X002171Y006335D01*
X002117Y006454D02*
X000505Y006454D01*
X000505Y006572D02*
X001684Y006572D01*
X001586Y006691D02*
X000505Y006691D01*
X000505Y006809D02*
X001549Y006809D01*
X001554Y006928D02*
X000505Y006928D01*
X000505Y007046D02*
X001607Y007046D01*
X001768Y007165D02*
X000505Y007165D01*
X002007Y007165D02*
X002785Y007165D01*
X002112Y006572D02*
X002091Y006572D01*
X002078Y006217D02*
X002060Y006217D01*
X002060Y006098D02*
X002078Y006098D01*
X001771Y005861D02*
X000505Y005861D01*
X000505Y005743D02*
X001780Y005743D01*
X002031Y004202D02*
X000505Y004202D01*
X000505Y004084D02*
X002057Y004084D01*
X000505Y003965D02*
X004291Y003965D01*
X004172Y003847D02*
X000505Y003847D01*
X000505Y003728D02*
X004054Y003728D01*
X003991Y003610D02*
X000505Y003610D01*
X000505Y003491D02*
X003991Y003491D01*
X003991Y003373D02*
X000505Y003373D01*
X000505Y003254D02*
X003991Y003254D01*
X003991Y003136D02*
X000505Y003136D01*
X000505Y003017D02*
X003991Y003017D01*
X003991Y002899D02*
X000505Y002899D01*
X000505Y002780D02*
X003991Y002780D01*
X004047Y002662D02*
X000505Y002662D01*
X000505Y002543D02*
X004165Y002543D01*
X004284Y002425D02*
X003750Y002425D01*
X003842Y002306D02*
X004402Y002306D01*
X004575Y002473D02*
X004231Y002816D01*
X004231Y003566D01*
X004638Y003973D01*
X004950Y003973D01*
X005013Y004035D01*
X005144Y003827D02*
X005163Y003781D01*
X005258Y003686D01*
X005383Y003634D01*
X005517Y003634D01*
X005642Y003686D01*
X005737Y003781D01*
X005771Y003863D01*
X005856Y003949D01*
X006362Y003443D01*
X006362Y003405D01*
X006413Y003281D01*
X006508Y003186D01*
X006633Y003134D01*
X006671Y003134D01*
X007102Y002702D01*
X006272Y002702D01*
X006248Y002712D01*
X004674Y002712D01*
X004471Y002916D01*
X004471Y003467D01*
X004737Y003733D01*
X004998Y003733D01*
X005086Y003769D01*
X005144Y003827D01*
X005216Y003728D02*
X004732Y003728D01*
X004614Y003610D02*
X006195Y003610D01*
X006077Y003728D02*
X005684Y003728D01*
X005764Y003847D02*
X005958Y003847D01*
X006314Y003491D02*
X004495Y003491D01*
X004471Y003373D02*
X006375Y003373D01*
X006440Y003254D02*
X004471Y003254D01*
X004471Y003136D02*
X006629Y003136D01*
X006788Y003017D02*
X004471Y003017D01*
X004488Y002899D02*
X006906Y002899D01*
X007025Y002780D02*
X004607Y002780D01*
X004575Y002473D02*
X006200Y002473D01*
X006941Y002188D02*
X007694Y002188D01*
X007883Y002069D02*
X006976Y002069D01*
X006969Y001951D02*
X007871Y001951D01*
X007871Y001832D02*
X006913Y001832D01*
X006746Y001714D02*
X007871Y001714D01*
X007871Y001595D02*
X006273Y001595D01*
X006424Y001477D02*
X007871Y001477D01*
X008013Y000961D02*
X008090Y000961D01*
X008090Y000781D01*
X008013Y000781D01*
X008013Y000961D01*
X008013Y000884D02*
X008090Y000884D01*
X008090Y000766D02*
X011133Y000766D01*
X011015Y000884D02*
X008408Y000884D01*
X008408Y000647D02*
X011252Y000647D01*
X011370Y000529D02*
X008408Y000529D01*
X008406Y000410D02*
X011530Y000410D01*
X011669Y000941D02*
X012981Y000941D01*
X013356Y001316D01*
X013356Y002348D01*
X012856Y002348D02*
X012856Y001598D01*
X012638Y001379D01*
X011794Y001379D01*
X011700Y001473D01*
X011700Y002754D01*
X010825Y003629D01*
X010825Y004379D01*
X010638Y004566D01*
X011200Y004575D02*
X011200Y003816D01*
X011513Y003504D01*
X011606Y003879D02*
X011919Y003566D01*
X011919Y002535D01*
X012106Y002348D01*
X012356Y002348D01*
X012856Y002848D02*
X012856Y003226D01*
X012819Y003226D01*
X012746Y003211D01*
X012677Y003183D01*
X012621Y003145D01*
X012582Y003185D01*
X012435Y003246D01*
X012277Y003246D01*
X012159Y003197D01*
X012159Y003614D01*
X012122Y003702D01*
X012055Y003770D01*
X011846Y003978D01*
X011846Y005083D01*
X011810Y005171D01*
X011742Y005238D01*
X011592Y005389D01*
X014382Y005389D01*
X014554Y005217D01*
X014554Y003197D01*
X014435Y003246D01*
X014277Y003246D01*
X014131Y003185D01*
X014091Y003145D01*
X014035Y003183D01*
X013967Y003211D01*
X013893Y003226D01*
X013856Y003226D01*
X013819Y003226D01*
X013746Y003211D01*
X013677Y003183D01*
X013615Y003141D01*
X013606Y003132D01*
X013597Y003141D01*
X013535Y003183D01*
X013467Y003211D01*
X013393Y003226D01*
X013356Y003226D01*
X013319Y003226D01*
X013246Y003211D01*
X013177Y003183D01*
X013115Y003141D01*
X013106Y003132D01*
X013097Y003141D01*
X013035Y003183D01*
X012967Y003211D01*
X012893Y003226D01*
X012856Y003226D01*
X012856Y002848D01*
X012856Y002848D01*
X012856Y002899D02*
X012856Y002899D01*
X012856Y003017D02*
X012856Y003017D01*
X012856Y003136D02*
X012856Y003136D01*
X013103Y003136D02*
X013110Y003136D01*
X013356Y003136D02*
X013356Y003136D01*
X013356Y003226D02*
X013356Y002848D01*
X013356Y002848D01*
X013356Y003226D01*
X013356Y003017D02*
X013356Y003017D01*
X013356Y002899D02*
X013356Y002899D01*
X013603Y003136D02*
X013610Y003136D01*
X013856Y003136D02*
X013856Y003136D01*
X013856Y003226D02*
X013856Y002848D01*
X013856Y002848D01*
X013856Y003226D01*
X013856Y003017D02*
X013856Y003017D01*
X013856Y002899D02*
X013856Y002899D01*
X014554Y003254D02*
X012159Y003254D01*
X012159Y003373D02*
X014554Y003373D01*
X014554Y003491D02*
X012159Y003491D01*
X012159Y003610D02*
X014554Y003610D01*
X014554Y003728D02*
X012096Y003728D01*
X011978Y003847D02*
X014554Y003847D01*
X014554Y003965D02*
X011859Y003965D01*
X011846Y004084D02*
X014554Y004084D01*
X014554Y004202D02*
X011846Y004202D01*
X011846Y004321D02*
X014554Y004321D01*
X014554Y004439D02*
X011846Y004439D01*
X011846Y004558D02*
X014554Y004558D01*
X014554Y004676D02*
X011846Y004676D01*
X011846Y004795D02*
X014554Y004795D01*
X014554Y004913D02*
X011846Y004913D01*
X011846Y005032D02*
X014554Y005032D01*
X014554Y005150D02*
X011818Y005150D01*
X011712Y005269D02*
X014502Y005269D01*
X014384Y005387D02*
X011594Y005387D01*
X011397Y005245D02*
X011606Y005035D01*
X011606Y003879D01*
X010638Y003848D02*
X010638Y003129D01*
X010700Y003035D01*
X010700Y002191D01*
X009700Y001191D01*
X009969Y001121D02*
X010786Y001121D01*
X010865Y001033D02*
X010865Y001033D01*
X010896Y001003D02*
X009851Y001003D01*
X010088Y001240D02*
X010753Y001240D01*
X010753Y001358D02*
X010206Y001358D01*
X010325Y001477D02*
X010753Y001477D01*
X010753Y001595D02*
X010443Y001595D01*
X010562Y001714D02*
X010753Y001714D01*
X010753Y001832D02*
X010680Y001832D01*
X010357Y002188D02*
X008897Y002188D01*
X008897Y002306D02*
X010460Y002306D01*
X010460Y002425D02*
X008897Y002425D01*
X008897Y002069D02*
X010238Y002069D01*
X010120Y001951D02*
X008897Y001951D01*
X008958Y001832D02*
X010001Y001832D01*
X009883Y001714D02*
X008976Y001714D01*
X008951Y001595D02*
X009764Y001595D01*
X009646Y001477D02*
X008870Y001477D01*
X008013Y000766D02*
X007472Y000766D01*
X007530Y000884D02*
X007695Y000884D01*
X007695Y000647D02*
X007299Y000647D01*
X007101Y000647D02*
X005825Y000647D01*
X005943Y000766D02*
X006928Y000766D01*
X006870Y000884D02*
X006062Y000884D01*
X006334Y001003D02*
X006862Y001003D01*
X006895Y001121D02*
X006436Y001121D01*
X006476Y001240D02*
X006988Y001240D01*
X007260Y001358D02*
X006474Y001358D01*
X006529Y001714D02*
X005329Y001714D01*
X005210Y001595D02*
X006002Y001595D01*
X005851Y001477D02*
X005092Y001477D01*
X004973Y001358D02*
X005801Y001358D01*
X005767Y001240D02*
X004913Y001240D01*
X004873Y001121D02*
X005648Y001121D01*
X004797Y001832D02*
X003842Y001832D01*
X003842Y001951D02*
X004915Y001951D01*
X005034Y002069D02*
X003842Y002069D01*
X003842Y002188D02*
X005152Y002188D01*
X004678Y001714D02*
X004018Y001714D01*
X004088Y001595D02*
X004439Y001595D01*
X004288Y001477D02*
X004088Y001477D01*
X004088Y001358D02*
X004239Y001358D01*
X004237Y001240D02*
X004088Y001240D01*
X004189Y001121D02*
X004277Y001121D01*
X003894Y000766D02*
X001854Y000766D01*
X001903Y000884D02*
X003776Y000884D01*
X004013Y000647D02*
X001784Y000647D01*
X001665Y000529D02*
X007695Y000529D01*
X007696Y000410D02*
X001451Y000410D01*
X000949Y000410D02*
X000505Y000410D01*
X000505Y000529D02*
X000735Y000529D01*
X000616Y000647D02*
X000505Y000647D01*
X000505Y000766D02*
X000546Y000766D01*
X000516Y001358D02*
X000505Y001358D01*
X000505Y001477D02*
X000566Y001477D01*
X000505Y001595D02*
X000663Y001595D01*
X000782Y001714D02*
X000505Y001714D01*
X000505Y001832D02*
X003167Y001832D01*
X003167Y001714D02*
X001618Y001714D01*
X001737Y001595D02*
X003157Y001595D01*
X003157Y001477D02*
X001834Y001477D01*
X001884Y001358D02*
X003157Y001358D01*
X003157Y001240D02*
X001931Y001240D01*
X001931Y001121D02*
X003157Y001121D01*
X003255Y001003D02*
X001931Y001003D01*
X003167Y001951D02*
X000505Y001951D01*
X000505Y002069D02*
X003167Y002069D01*
X003167Y002188D02*
X000505Y002188D01*
X000505Y002306D02*
X003167Y002306D01*
X003258Y002425D02*
X000505Y002425D01*
X004941Y004558D02*
X004941Y004558D01*
X004941Y004676D02*
X004941Y004676D01*
X004941Y004795D02*
X004941Y004795D01*
X004941Y004913D02*
X004941Y004913D01*
X004941Y005014D02*
X004941Y005529D01*
X004941Y005014D01*
X004941Y005014D01*
X004941Y005032D02*
X004941Y005032D01*
X004941Y005150D02*
X004941Y005150D01*
X004941Y005269D02*
X004941Y005269D01*
X004941Y005387D02*
X004941Y005387D01*
X004941Y005506D02*
X004941Y005506D01*
X004937Y006572D02*
X005434Y006572D01*
X005373Y006691D02*
X005209Y006691D01*
X005311Y006809D02*
X005351Y006809D01*
X006481Y006941D02*
X007169Y006254D01*
X008888Y006254D01*
X009003Y006572D02*
X009460Y006572D01*
X009342Y006454D02*
X009166Y006454D01*
X009220Y006335D02*
X009223Y006335D01*
X009579Y006691D02*
X007071Y006691D01*
X006953Y006809D02*
X008385Y006809D01*
X008828Y006809D02*
X008916Y006809D01*
X008772Y006572D02*
X007190Y006572D01*
X009013Y005348D02*
X009013Y004941D01*
X009138Y004660D02*
X009059Y004582D01*
X009138Y004660D02*
X009419Y004660D01*
X009794Y004691D02*
X010638Y003848D01*
X010398Y003728D02*
X010038Y003728D01*
X010020Y003610D02*
X010398Y003610D01*
X010398Y003491D02*
X010057Y003491D01*
X010057Y003373D02*
X010398Y003373D01*
X010398Y003254D02*
X010057Y003254D01*
X010057Y003136D02*
X010394Y003136D01*
X010424Y003017D02*
X010032Y003017D01*
X010057Y002899D02*
X010460Y002899D01*
X010460Y002780D02*
X010057Y002780D01*
X010057Y002662D02*
X010460Y002662D01*
X010460Y002543D02*
X010033Y002543D01*
X011356Y002660D02*
X011356Y001254D01*
X011669Y000941D01*
X008090Y000647D02*
X008013Y000647D01*
X008013Y000529D02*
X008090Y000529D01*
X008090Y000410D02*
X008013Y000410D01*
X008102Y003728D02*
X007207Y003728D01*
X007377Y004558D02*
X007624Y004558D01*
X009013Y005348D02*
X009606Y005941D01*
X013450Y005941D01*
X014763Y007254D01*
X014503Y007402D02*
X012434Y007402D01*
X012601Y007520D02*
X014503Y007520D01*
X014503Y007639D02*
X012657Y007639D01*
X012663Y007757D02*
X014503Y007757D01*
X014503Y007876D02*
X012628Y007876D01*
X012532Y007994D02*
X014503Y007994D01*
X014503Y008113D02*
X014229Y008113D01*
X014392Y008231D02*
X014503Y008231D01*
X014452Y007283D02*
X012253Y007283D01*
X012141Y007165D02*
X014334Y007165D01*
X014215Y007046D02*
X012065Y007046D01*
X011585Y007046D02*
X009519Y007046D01*
X009491Y006928D02*
X014097Y006928D01*
X013978Y006809D02*
X013780Y006809D01*
X013859Y006691D02*
X013860Y006691D01*
X011397Y005245D02*
X011200Y005245D01*
X010181Y003965D02*
X009936Y003965D01*
X010015Y003847D02*
X010299Y003847D01*
X010516Y007994D02*
X010584Y007994D01*
X010645Y008113D02*
X010702Y008113D01*
X010775Y008231D02*
X010821Y008231D01*
X010904Y008350D02*
X010939Y008350D01*
X008333Y008350D02*
X007300Y008350D01*
X007257Y008468D02*
X008208Y008468D01*
X008083Y008587D02*
X007418Y008587D01*
X005283Y008468D02*
X005278Y008468D01*
X005149Y008824D02*
X004745Y008824D01*
X004836Y008942D02*
X005030Y008942D01*
X004815Y009416D02*
X004679Y009416D01*
X004815Y009772D02*
X002706Y009772D01*
X000956Y010720D02*
X000505Y010720D01*
X000505Y010838D02*
X000738Y010838D01*
X000619Y010957D02*
X000505Y010957D01*
X000505Y011075D02*
X000547Y011075D01*
X000515Y011668D02*
X000505Y011668D01*
X000505Y011786D02*
X000564Y011786D01*
X000505Y011905D02*
X000660Y011905D01*
X000779Y012023D02*
X000505Y012023D01*
X000505Y012142D02*
X015796Y012142D01*
X015796Y012260D02*
X000505Y012260D01*
X008693Y011312D02*
X008813Y011312D01*
X008813Y011194D02*
X008693Y011194D01*
X008693Y011075D02*
X008813Y011075D01*
X013777Y010127D02*
X015796Y010127D01*
X015796Y010009D02*
X013895Y010009D01*
X014014Y009890D02*
X015796Y009890D01*
X015796Y009772D02*
X014086Y009772D01*
X015256Y010720D02*
X015796Y010720D01*
X015796Y010838D02*
X015475Y010838D01*
X015593Y010957D02*
X015796Y010957D01*
X015796Y011075D02*
X015665Y011075D01*
X015714Y011194D02*
X015796Y011194D01*
X015796Y011312D02*
X015744Y011312D01*
X015744Y011431D02*
X015796Y011431D01*
X015796Y011549D02*
X015744Y011549D01*
X015697Y011668D02*
X015796Y011668D01*
X015796Y011786D02*
X015648Y011786D01*
X015552Y011905D02*
X015796Y011905D01*
X015796Y012023D02*
X015434Y012023D01*
M02*
