G75*
G70*
%OFA0B0*%
%FSLAX24Y24*%
%IPPOS*%
%LPD*%
%AMOC8*
5,1,8,0,0,1.08239X$1,22.5*
%
%ADD10C,0.0000*%
%ADD11R,0.0472X0.1457*%
%ADD12R,0.0276X0.0354*%
%ADD13R,0.0689X0.0157*%
%ADD14R,0.0591X0.0787*%
%ADD15R,0.1240X0.0512*%
%ADD16R,0.0984X0.1299*%
%ADD17R,0.0945X0.0669*%
%ADD18R,0.0354X0.0276*%
%ADD19R,0.0295X0.0098*%
%ADD20R,0.0098X0.0295*%
%ADD21R,0.0571X0.0571*%
%ADD22R,0.0512X0.0591*%
%ADD23R,0.0290X0.0730*%
%ADD24R,0.0335X0.0157*%
%ADD25R,0.0157X0.0335*%
%ADD26R,0.0394X0.0433*%
%ADD27C,0.0600*%
%ADD28R,0.0472X0.0118*%
%ADD29R,0.0118X0.0472*%
%ADD30R,0.0250X0.0500*%
%ADD31R,0.0500X0.0250*%
%ADD32R,0.0394X0.0197*%
%ADD33R,0.0197X0.0472*%
%ADD34R,0.0591X0.0512*%
%ADD35R,0.0413X0.0118*%
%ADD36C,0.0436*%
%ADD37R,0.0433X0.0394*%
%ADD38R,0.0472X0.0472*%
%ADD39C,0.0394*%
%ADD40C,0.0394*%
%ADD41C,0.0320*%
%ADD42C,0.0100*%
%ADD43C,0.0356*%
%ADD44C,0.0160*%
%ADD45C,0.0317*%
%ADD46C,0.0120*%
%ADD47C,0.0240*%
D10*
X000160Y000288D02*
X000160Y019888D01*
X019760Y019888D01*
X019760Y000288D01*
X000160Y000288D01*
X000609Y001288D02*
X000611Y001335D01*
X000617Y001381D01*
X000627Y001427D01*
X000640Y001472D01*
X000658Y001515D01*
X000679Y001557D01*
X000703Y001597D01*
X000731Y001634D01*
X000762Y001669D01*
X000796Y001702D01*
X000832Y001731D01*
X000871Y001757D01*
X000912Y001780D01*
X000955Y001799D01*
X000999Y001815D01*
X001044Y001827D01*
X001090Y001835D01*
X001137Y001839D01*
X001183Y001839D01*
X001230Y001835D01*
X001276Y001827D01*
X001321Y001815D01*
X001365Y001799D01*
X001408Y001780D01*
X001449Y001757D01*
X001488Y001731D01*
X001524Y001702D01*
X001558Y001669D01*
X001589Y001634D01*
X001617Y001597D01*
X001641Y001557D01*
X001662Y001515D01*
X001680Y001472D01*
X001693Y001427D01*
X001703Y001381D01*
X001709Y001335D01*
X001711Y001288D01*
X001709Y001241D01*
X001703Y001195D01*
X001693Y001149D01*
X001680Y001104D01*
X001662Y001061D01*
X001641Y001019D01*
X001617Y000979D01*
X001589Y000942D01*
X001558Y000907D01*
X001524Y000874D01*
X001488Y000845D01*
X001449Y000819D01*
X001408Y000796D01*
X001365Y000777D01*
X001321Y000761D01*
X001276Y000749D01*
X001230Y000741D01*
X001183Y000737D01*
X001137Y000737D01*
X001090Y000741D01*
X001044Y000749D01*
X000999Y000761D01*
X000955Y000777D01*
X000912Y000796D01*
X000871Y000819D01*
X000832Y000845D01*
X000796Y000874D01*
X000762Y000907D01*
X000731Y000942D01*
X000703Y000979D01*
X000679Y001019D01*
X000658Y001061D01*
X000640Y001104D01*
X000627Y001149D01*
X000617Y001195D01*
X000611Y001241D01*
X000609Y001288D01*
X000609Y018888D02*
X000611Y018935D01*
X000617Y018981D01*
X000627Y019027D01*
X000640Y019072D01*
X000658Y019115D01*
X000679Y019157D01*
X000703Y019197D01*
X000731Y019234D01*
X000762Y019269D01*
X000796Y019302D01*
X000832Y019331D01*
X000871Y019357D01*
X000912Y019380D01*
X000955Y019399D01*
X000999Y019415D01*
X001044Y019427D01*
X001090Y019435D01*
X001137Y019439D01*
X001183Y019439D01*
X001230Y019435D01*
X001276Y019427D01*
X001321Y019415D01*
X001365Y019399D01*
X001408Y019380D01*
X001449Y019357D01*
X001488Y019331D01*
X001524Y019302D01*
X001558Y019269D01*
X001589Y019234D01*
X001617Y019197D01*
X001641Y019157D01*
X001662Y019115D01*
X001680Y019072D01*
X001693Y019027D01*
X001703Y018981D01*
X001709Y018935D01*
X001711Y018888D01*
X001709Y018841D01*
X001703Y018795D01*
X001693Y018749D01*
X001680Y018704D01*
X001662Y018661D01*
X001641Y018619D01*
X001617Y018579D01*
X001589Y018542D01*
X001558Y018507D01*
X001524Y018474D01*
X001488Y018445D01*
X001449Y018419D01*
X001408Y018396D01*
X001365Y018377D01*
X001321Y018361D01*
X001276Y018349D01*
X001230Y018341D01*
X001183Y018337D01*
X001137Y018337D01*
X001090Y018341D01*
X001044Y018349D01*
X000999Y018361D01*
X000955Y018377D01*
X000912Y018396D01*
X000871Y018419D01*
X000832Y018445D01*
X000796Y018474D01*
X000762Y018507D01*
X000731Y018542D01*
X000703Y018579D01*
X000679Y018619D01*
X000658Y018661D01*
X000640Y018704D01*
X000627Y018749D01*
X000617Y018795D01*
X000611Y018841D01*
X000609Y018888D01*
X018209Y018888D02*
X018211Y018935D01*
X018217Y018981D01*
X018227Y019027D01*
X018240Y019072D01*
X018258Y019115D01*
X018279Y019157D01*
X018303Y019197D01*
X018331Y019234D01*
X018362Y019269D01*
X018396Y019302D01*
X018432Y019331D01*
X018471Y019357D01*
X018512Y019380D01*
X018555Y019399D01*
X018599Y019415D01*
X018644Y019427D01*
X018690Y019435D01*
X018737Y019439D01*
X018783Y019439D01*
X018830Y019435D01*
X018876Y019427D01*
X018921Y019415D01*
X018965Y019399D01*
X019008Y019380D01*
X019049Y019357D01*
X019088Y019331D01*
X019124Y019302D01*
X019158Y019269D01*
X019189Y019234D01*
X019217Y019197D01*
X019241Y019157D01*
X019262Y019115D01*
X019280Y019072D01*
X019293Y019027D01*
X019303Y018981D01*
X019309Y018935D01*
X019311Y018888D01*
X019309Y018841D01*
X019303Y018795D01*
X019293Y018749D01*
X019280Y018704D01*
X019262Y018661D01*
X019241Y018619D01*
X019217Y018579D01*
X019189Y018542D01*
X019158Y018507D01*
X019124Y018474D01*
X019088Y018445D01*
X019049Y018419D01*
X019008Y018396D01*
X018965Y018377D01*
X018921Y018361D01*
X018876Y018349D01*
X018830Y018341D01*
X018783Y018337D01*
X018737Y018337D01*
X018690Y018341D01*
X018644Y018349D01*
X018599Y018361D01*
X018555Y018377D01*
X018512Y018396D01*
X018471Y018419D01*
X018432Y018445D01*
X018396Y018474D01*
X018362Y018507D01*
X018331Y018542D01*
X018303Y018579D01*
X018279Y018619D01*
X018258Y018661D01*
X018240Y018704D01*
X018227Y018749D01*
X018217Y018795D01*
X018211Y018841D01*
X018209Y018888D01*
X018209Y001288D02*
X018211Y001335D01*
X018217Y001381D01*
X018227Y001427D01*
X018240Y001472D01*
X018258Y001515D01*
X018279Y001557D01*
X018303Y001597D01*
X018331Y001634D01*
X018362Y001669D01*
X018396Y001702D01*
X018432Y001731D01*
X018471Y001757D01*
X018512Y001780D01*
X018555Y001799D01*
X018599Y001815D01*
X018644Y001827D01*
X018690Y001835D01*
X018737Y001839D01*
X018783Y001839D01*
X018830Y001835D01*
X018876Y001827D01*
X018921Y001815D01*
X018965Y001799D01*
X019008Y001780D01*
X019049Y001757D01*
X019088Y001731D01*
X019124Y001702D01*
X019158Y001669D01*
X019189Y001634D01*
X019217Y001597D01*
X019241Y001557D01*
X019262Y001515D01*
X019280Y001472D01*
X019293Y001427D01*
X019303Y001381D01*
X019309Y001335D01*
X019311Y001288D01*
X019309Y001241D01*
X019303Y001195D01*
X019293Y001149D01*
X019280Y001104D01*
X019262Y001061D01*
X019241Y001019D01*
X019217Y000979D01*
X019189Y000942D01*
X019158Y000907D01*
X019124Y000874D01*
X019088Y000845D01*
X019049Y000819D01*
X019008Y000796D01*
X018965Y000777D01*
X018921Y000761D01*
X018876Y000749D01*
X018830Y000741D01*
X018783Y000737D01*
X018737Y000737D01*
X018690Y000741D01*
X018644Y000749D01*
X018599Y000761D01*
X018555Y000777D01*
X018512Y000796D01*
X018471Y000819D01*
X018432Y000845D01*
X018396Y000874D01*
X018362Y000907D01*
X018331Y000942D01*
X018303Y000979D01*
X018279Y001019D01*
X018258Y001061D01*
X018240Y001104D01*
X018227Y001149D01*
X018217Y001195D01*
X018211Y001241D01*
X018209Y001288D01*
D11*
X017211Y015944D03*
X016109Y015944D03*
D12*
X017935Y015038D03*
X018447Y015038D03*
X018447Y014506D03*
X017935Y014506D03*
X017935Y014006D03*
X018447Y014006D03*
X008103Y018131D03*
X007592Y018131D03*
X010248Y002381D03*
X010760Y002381D03*
X010760Y001788D03*
X010248Y001788D03*
X012310Y001350D03*
X012822Y001350D03*
X005041Y001381D03*
X004529Y001381D03*
D13*
X018007Y010713D03*
X018007Y010969D03*
X018007Y011225D03*
X018007Y011481D03*
X018007Y011737D03*
D14*
X017948Y012327D03*
X017948Y010123D03*
D15*
X018942Y010142D03*
X018942Y012308D03*
D16*
X019227Y011225D03*
D17*
X003941Y010297D03*
X003941Y008840D03*
D18*
X002816Y008688D03*
X002816Y009200D03*
X002816Y009938D03*
X002816Y010450D03*
X006598Y013969D03*
X006598Y014481D03*
X008723Y014594D03*
X008723Y015106D03*
X009035Y017594D03*
X009035Y018106D03*
X002473Y014825D03*
X002473Y014313D03*
X006941Y002168D03*
X006941Y001657D03*
X013535Y001856D03*
X013535Y001344D03*
X018973Y004938D03*
X018973Y005450D03*
X017910Y008532D03*
X017910Y009043D03*
X016566Y009043D03*
X016566Y008532D03*
X015191Y008532D03*
X015191Y009043D03*
X016035Y012375D03*
X016035Y012887D03*
D19*
X015976Y013648D03*
X015976Y013845D03*
X015976Y014042D03*
X015976Y014239D03*
X017157Y014239D03*
X017157Y014042D03*
X017157Y013845D03*
X017157Y013648D03*
D20*
X016862Y013353D03*
X016665Y013353D03*
X016468Y013353D03*
X016271Y013353D03*
X016271Y014534D03*
X016468Y014534D03*
X016665Y014534D03*
X016862Y014534D03*
D21*
X016566Y013944D03*
D22*
X016388Y017163D03*
X017057Y017163D03*
X010307Y003413D03*
X009638Y003413D03*
X014919Y002694D03*
X015588Y002694D03*
D23*
X013410Y017550D03*
X012910Y017550D03*
X012410Y017550D03*
X011910Y017550D03*
X011410Y017550D03*
X011410Y019150D03*
X011910Y019150D03*
X012410Y019150D03*
X012910Y019150D03*
X013410Y019150D03*
D24*
X013084Y003140D03*
X013084Y002884D03*
X013084Y002628D03*
X013084Y002372D03*
X011549Y002372D03*
X011549Y002628D03*
X011549Y002884D03*
X011549Y003140D03*
X005553Y003046D03*
X005553Y002790D03*
X005553Y002535D03*
X005553Y002279D03*
X004017Y002279D03*
X004017Y002535D03*
X004017Y002790D03*
X004017Y003046D03*
D25*
X004401Y003430D03*
X004657Y003430D03*
X004913Y003430D03*
X005169Y003430D03*
X005169Y001895D03*
X004913Y001895D03*
X004657Y001895D03*
X004401Y001895D03*
X011932Y001989D03*
X012188Y001989D03*
X012444Y001989D03*
X012700Y001989D03*
X012700Y003524D03*
X012444Y003524D03*
X012188Y003524D03*
X011932Y003524D03*
D26*
X011910Y004984D03*
X011910Y005653D03*
X003629Y001435D03*
X003629Y000765D03*
X003066Y007234D03*
X003066Y007903D03*
X001941Y014234D03*
X001941Y014903D03*
D27*
X015098Y018581D02*
X015098Y019181D01*
X016098Y019181D02*
X016098Y018581D01*
D28*
X012774Y011962D03*
X012774Y011765D03*
X012774Y011569D03*
X012774Y011372D03*
X012774Y011175D03*
X012774Y010978D03*
X012774Y010781D03*
X012774Y010584D03*
X012774Y010387D03*
X012774Y010191D03*
X012774Y009994D03*
X012774Y009797D03*
X012774Y009600D03*
X012774Y009403D03*
X012774Y009206D03*
X012774Y009009D03*
X012774Y008813D03*
X012774Y008616D03*
X012774Y008419D03*
X012774Y008222D03*
X012774Y008025D03*
X012774Y007828D03*
X012774Y007631D03*
X012774Y007435D03*
X012774Y007238D03*
X006671Y007238D03*
X006671Y007435D03*
X006671Y007631D03*
X006671Y007828D03*
X006671Y008025D03*
X006671Y008222D03*
X006671Y008419D03*
X006671Y008616D03*
X006671Y008813D03*
X006671Y009009D03*
X006671Y009206D03*
X006671Y009403D03*
X006671Y009600D03*
X006671Y009797D03*
X006671Y009994D03*
X006671Y010191D03*
X006671Y010387D03*
X006671Y010584D03*
X006671Y010781D03*
X006671Y010978D03*
X006671Y011175D03*
X006671Y011372D03*
X006671Y011569D03*
X006671Y011765D03*
X006671Y011962D03*
D29*
X007360Y012651D03*
X007557Y012651D03*
X007754Y012651D03*
X007951Y012651D03*
X008148Y012651D03*
X008345Y012651D03*
X008541Y012651D03*
X008738Y012651D03*
X008935Y012651D03*
X009132Y012651D03*
X009329Y012651D03*
X009526Y012651D03*
X009723Y012651D03*
X009919Y012651D03*
X010116Y012651D03*
X010313Y012651D03*
X010510Y012651D03*
X010707Y012651D03*
X010904Y012651D03*
X011100Y012651D03*
X011297Y012651D03*
X011494Y012651D03*
X011691Y012651D03*
X011888Y012651D03*
X012085Y012651D03*
X012085Y006549D03*
X011888Y006549D03*
X011691Y006549D03*
X011494Y006549D03*
X011297Y006549D03*
X011100Y006549D03*
X010904Y006549D03*
X010707Y006549D03*
X010510Y006549D03*
X010313Y006549D03*
X010116Y006549D03*
X009919Y006549D03*
X009723Y006549D03*
X009526Y006549D03*
X009329Y006549D03*
X009132Y006549D03*
X008935Y006549D03*
X008738Y006549D03*
X008541Y006549D03*
X008345Y006549D03*
X008148Y006549D03*
X007951Y006549D03*
X007754Y006549D03*
X007557Y006549D03*
X007360Y006549D03*
D30*
X007535Y014444D03*
X007141Y014444D03*
X007929Y014444D03*
D31*
X003973Y007962D03*
X003973Y007569D03*
X003973Y007175D03*
D32*
X007688Y003356D03*
X007688Y003041D03*
X007688Y002726D03*
X007688Y002411D03*
X007688Y002096D03*
X007688Y001781D03*
X008632Y001781D03*
X008632Y002096D03*
X008632Y002411D03*
X008632Y002726D03*
X008632Y003041D03*
X008632Y003356D03*
X004257Y014469D03*
X004257Y014784D03*
X004257Y015099D03*
X004257Y015414D03*
X004257Y015729D03*
X004257Y016044D03*
X003313Y016044D03*
X003313Y015729D03*
X003313Y015414D03*
X003313Y015099D03*
X003313Y014784D03*
X003313Y014469D03*
D33*
X003785Y014390D03*
X003785Y016122D03*
X008160Y003435D03*
X008160Y001703D03*
D34*
X004410Y016828D03*
X004410Y017497D03*
D35*
X007501Y017475D03*
X007501Y017731D03*
X007501Y017219D03*
X008131Y017219D03*
X008131Y017475D03*
X008131Y017731D03*
D36*
X004754Y013069D03*
X004254Y013069D03*
X003754Y013069D03*
X003254Y013069D03*
X002754Y013069D03*
X002254Y013069D03*
X001754Y013069D03*
X001754Y012069D03*
X002254Y012069D03*
X002754Y012069D03*
X003254Y012069D03*
X003754Y012069D03*
X004254Y012069D03*
X004754Y012069D03*
X002460Y006288D03*
X002460Y005788D03*
X002460Y005288D03*
X002460Y004788D03*
X002460Y004288D03*
X002460Y003788D03*
X002460Y003288D03*
X002460Y002788D03*
X001460Y002788D03*
X001460Y003288D03*
X001460Y003788D03*
X001460Y004288D03*
X001460Y004788D03*
X001460Y005288D03*
X001460Y005788D03*
X001460Y006288D03*
X017460Y006288D03*
X017460Y005788D03*
X017460Y005288D03*
X017460Y004788D03*
X017460Y004288D03*
X017460Y003788D03*
X017460Y003288D03*
X018460Y003288D03*
X018460Y003788D03*
X018460Y004288D03*
X018460Y004788D03*
X018460Y005288D03*
X018460Y005788D03*
X018460Y006288D03*
D37*
X014182Y012069D03*
X013513Y012069D03*
X007870Y015100D03*
X007200Y015100D03*
X007107Y001100D03*
X007776Y001100D03*
D38*
X015191Y007155D03*
X015191Y007982D03*
X016566Y007982D03*
X016566Y007155D03*
X017910Y007155D03*
X017910Y007982D03*
D39*
X015733Y001776D02*
X015843Y001666D01*
D40*
X016379Y001760D03*
X017009Y001760D03*
X017009Y000815D03*
X016379Y000815D03*
X015749Y000815D03*
D41*
X013513Y012069D02*
X013513Y012797D01*
X013504Y012788D01*
X013504Y012506D01*
X013513Y012797D02*
X014098Y013381D01*
X014473Y013381D01*
X014473Y013350D01*
X014723Y013100D01*
X017211Y015944D02*
X017723Y015944D01*
X018447Y015219D01*
X018447Y015038D01*
X018447Y014506D01*
X019066Y014506D01*
X019066Y014256D01*
X017211Y015944D02*
X017211Y017008D01*
X017057Y017163D01*
D42*
X017935Y015038D02*
X017935Y014506D01*
X017935Y014006D01*
X017566Y014038D02*
X017161Y014038D01*
X017157Y014042D01*
X017157Y013845D01*
X017157Y013648D02*
X017191Y013614D01*
X017191Y013413D01*
X017254Y013475D01*
X017441Y013381D02*
X017441Y013319D01*
X016862Y013353D02*
X016862Y012989D01*
X016848Y012913D01*
X016665Y013105D02*
X016566Y013006D01*
X016566Y012006D01*
X016066Y011506D01*
X015879Y011506D01*
X015473Y011756D02*
X015473Y013038D01*
X015129Y013319D02*
X015066Y013319D01*
X014691Y013694D01*
X013973Y013694D01*
X012285Y012006D01*
X010598Y012006D01*
X010313Y012291D01*
X010313Y012651D01*
X010510Y012651D02*
X010510Y015188D01*
X010191Y015506D01*
X010191Y018194D01*
X010535Y018538D01*
X010598Y018538D01*
X011410Y017725D02*
X011410Y017550D01*
X011535Y016725D02*
X010816Y016725D01*
X010629Y016538D01*
X010629Y016256D01*
X011100Y015785D01*
X011100Y012651D01*
X010904Y012651D02*
X010904Y012356D01*
X011066Y012194D01*
X012191Y012194D01*
X013910Y013913D01*
X014785Y013913D01*
X015049Y013648D01*
X015976Y013648D01*
X015976Y013845D02*
X015133Y013845D01*
X014879Y014100D01*
X014410Y014100D01*
X014285Y014225D01*
X015976Y014239D02*
X016271Y014239D01*
X016566Y013944D01*
X016271Y013648D01*
X016271Y013353D01*
X016468Y013353D02*
X016468Y013158D01*
X016285Y012975D01*
X016123Y012975D01*
X016035Y012887D01*
X016665Y013105D02*
X016665Y013353D01*
X017157Y014239D02*
X017330Y014239D01*
X017810Y014444D02*
X017935Y014506D01*
X017098Y014770D02*
X017098Y014881D01*
X017098Y014770D02*
X016862Y014534D01*
X016468Y014534D02*
X016468Y014792D01*
X016316Y014944D01*
X014182Y012069D02*
X014223Y012028D01*
X014223Y011756D01*
X014035Y011569D01*
X013285Y011569D01*
X013088Y011765D01*
X012774Y011765D01*
X011888Y011765D01*
X011566Y011444D01*
X011973Y011256D02*
X012285Y011569D01*
X012774Y011569D01*
X012774Y011372D02*
X015088Y011372D01*
X015473Y011756D01*
X015098Y010538D02*
X016129Y010538D01*
X017348Y009319D01*
X018129Y009319D01*
X018473Y008975D01*
X017910Y009043D02*
X017760Y009100D01*
X017223Y009100D01*
X016754Y009569D01*
X014723Y009569D01*
X014360Y009206D01*
X012774Y009206D01*
X012774Y009009D02*
X014476Y009009D01*
X014816Y009350D01*
X016166Y009350D01*
X016566Y009043D01*
X015191Y009043D02*
X014822Y009043D01*
X014591Y008813D01*
X012774Y008813D01*
X012774Y008222D02*
X013444Y008222D01*
X016191Y005475D01*
X017035Y005475D01*
X017348Y005788D01*
X017460Y005788D01*
X017460Y005288D02*
X016098Y005288D01*
X016004Y005381D01*
X015863Y005522D01*
X013360Y008025D01*
X012774Y008025D01*
X012774Y007828D02*
X013275Y007828D01*
X016316Y004788D01*
X017460Y004788D01*
X017460Y004288D02*
X016535Y004288D01*
X013191Y007631D01*
X012774Y007631D01*
X011888Y006549D02*
X011888Y005475D01*
X011910Y005653D01*
X011297Y006549D02*
X011297Y004650D01*
X011535Y004413D01*
X012535Y004413D01*
X012691Y004256D01*
X012691Y003533D01*
X012700Y003524D01*
X012444Y003524D02*
X012441Y003527D01*
X012441Y004131D01*
X012379Y004194D01*
X011410Y004194D01*
X011100Y004503D01*
X011100Y006549D01*
X010904Y006549D02*
X010904Y004388D01*
X011316Y003975D01*
X012129Y003975D01*
X012191Y003913D01*
X012191Y003527D01*
X012188Y003524D01*
X013084Y003140D02*
X013325Y003140D01*
X013598Y003413D01*
X011066Y002975D02*
X011066Y003944D01*
X010707Y004303D01*
X010707Y006549D01*
X010116Y006549D02*
X010116Y005831D01*
X010410Y005538D01*
X010410Y004569D01*
X010098Y004256D01*
X009723Y004944D02*
X009723Y006549D01*
X009919Y006549D02*
X009919Y005528D01*
X010098Y005350D01*
X009723Y004944D02*
X009098Y004319D01*
X009098Y003725D01*
X008689Y003413D02*
X008632Y003356D01*
X008689Y003413D02*
X009638Y003413D01*
X009098Y003100D02*
X008691Y003100D01*
X008632Y003041D01*
X008632Y002726D02*
X010817Y002726D01*
X011066Y002975D01*
X009939Y002096D02*
X009535Y002096D01*
X008632Y002096D01*
X008662Y002381D02*
X008632Y002411D01*
X007688Y003041D02*
X007375Y003041D01*
X007129Y003288D01*
X007129Y003663D01*
X007535Y004069D01*
X008473Y004069D01*
X009379Y004975D01*
X009379Y005194D01*
X009329Y005613D02*
X008348Y004631D01*
X004191Y004631D01*
X002848Y003288D01*
X002460Y003288D01*
X002460Y003788D02*
X003066Y003788D01*
X004129Y004850D01*
X008254Y004850D01*
X009132Y005728D01*
X009132Y006549D01*
X009329Y006549D02*
X009329Y005613D01*
X008935Y005813D02*
X008160Y005038D01*
X004066Y005038D01*
X003316Y004288D01*
X002460Y004288D01*
X002460Y004788D02*
X003566Y004788D01*
X004035Y005256D01*
X008098Y005256D01*
X008738Y005897D01*
X008738Y006549D01*
X008541Y006549D02*
X008541Y005981D01*
X008004Y005444D01*
X003941Y005444D01*
X003785Y005288D01*
X002460Y005288D01*
X001723Y004288D02*
X001460Y004288D01*
X001723Y004288D02*
X001941Y004069D01*
X001941Y002631D01*
X002191Y002381D01*
X003223Y002381D01*
X004657Y003430D02*
X004657Y003853D01*
X004535Y003975D01*
X004848Y003881D02*
X004848Y004256D01*
X004816Y004288D01*
X005129Y004038D02*
X005169Y003997D01*
X005169Y003430D01*
X004913Y003430D02*
X004913Y003816D01*
X004848Y003881D01*
X005553Y003430D02*
X005553Y003046D01*
X005553Y002790D02*
X006038Y002790D01*
X006098Y002850D01*
X006504Y002788D02*
X006160Y002444D01*
X006504Y002788D02*
X006504Y004100D01*
X006723Y004319D01*
X006941Y003944D02*
X006723Y003725D01*
X006723Y002475D01*
X006191Y001944D01*
X005553Y003430D02*
X005660Y003538D01*
X006098Y003975D01*
X006191Y003975D01*
X007557Y006549D02*
X007557Y006828D01*
X007379Y007006D01*
X007566Y007131D02*
X007566Y007538D01*
X007348Y007538D01*
X007066Y007819D01*
X006681Y007819D01*
X006671Y007828D01*
X006671Y008025D01*
X006671Y007828D02*
X006295Y007828D01*
X006671Y008222D02*
X007063Y008222D01*
X007191Y008350D01*
X007191Y008944D01*
X007254Y009006D01*
X006671Y009009D02*
X005069Y009009D01*
X005004Y008944D01*
X004691Y009100D02*
X004691Y008569D01*
X004441Y008319D01*
X004723Y008100D02*
X005435Y008813D01*
X006671Y008813D01*
X006671Y008616D02*
X005769Y008616D01*
X005316Y008194D01*
X004691Y009100D02*
X004994Y009403D01*
X006338Y009403D01*
X005982Y009600D02*
X004701Y009600D01*
X003941Y008840D01*
X006004Y010194D02*
X006038Y010191D01*
X006671Y010191D01*
X007223Y010756D02*
X007951Y011485D01*
X007951Y012651D01*
X008148Y012651D02*
X008148Y013081D01*
X008035Y013194D01*
X008035Y013600D01*
X008004Y013631D01*
X008004Y013819D01*
X008316Y014131D01*
X008316Y016194D01*
X007613Y016897D01*
X007613Y017107D01*
X007501Y017219D01*
X007504Y017217D01*
X007501Y017731D02*
X007501Y018041D01*
X007592Y018131D01*
X008103Y018131D02*
X008131Y018103D01*
X008131Y017731D01*
X008131Y017475D02*
X008916Y017475D01*
X009035Y017594D01*
X008416Y017219D02*
X008754Y016881D01*
X008754Y015975D01*
X007870Y015100D02*
X007870Y014503D01*
X007929Y014444D01*
X007200Y014503D02*
X007200Y015100D01*
X007200Y014503D02*
X007141Y014444D01*
X007098Y014400D01*
X007041Y013875D02*
X007254Y013663D01*
X007360Y013556D01*
X007360Y012651D01*
X007191Y012482D01*
X007191Y011163D01*
X007007Y010978D01*
X006671Y010978D01*
X006671Y011175D02*
X004866Y011175D01*
X005557Y011372D02*
X004860Y012069D01*
X004754Y012069D01*
X005316Y012100D02*
X005848Y011569D01*
X006671Y011569D01*
X006671Y011372D02*
X005557Y011372D01*
X007066Y012913D02*
X007066Y013381D01*
X006879Y013569D01*
X002566Y013569D01*
X002254Y013256D01*
X002254Y013069D01*
X002473Y014313D02*
X003157Y014313D01*
X003313Y014469D01*
X003313Y014784D02*
X003272Y014825D01*
X002473Y014825D01*
X003000Y015729D02*
X003313Y015729D01*
X003000Y015729D02*
X002785Y015944D01*
X002785Y016256D01*
X004257Y016044D02*
X004257Y016675D01*
X004410Y016828D01*
X004257Y015729D02*
X005219Y015729D01*
X005223Y015725D01*
X004257Y014469D02*
X004179Y014390D01*
X003785Y014390D01*
X003848Y014328D01*
X003848Y013881D01*
X003785Y013819D01*
X007566Y012194D02*
X007754Y012381D01*
X007754Y012651D01*
X008379Y011725D02*
X008598Y011506D01*
X009223Y011506D01*
X009919Y012203D01*
X009919Y012651D01*
X009723Y012651D02*
X009723Y016506D01*
X009910Y016694D01*
X009526Y016934D02*
X009754Y017163D01*
X009526Y016934D02*
X009526Y012651D01*
X008723Y014569D02*
X008723Y014594D01*
X008416Y017219D02*
X008131Y017219D01*
X008507Y018535D02*
X008606Y018535D01*
X008522Y018550D02*
X008507Y018535D01*
X012535Y016194D02*
X012535Y013101D01*
X012085Y012651D01*
X012774Y011962D02*
X013406Y011962D01*
X013513Y012069D01*
X012774Y011175D02*
X017957Y011175D01*
X018007Y011225D01*
X017998Y010978D02*
X018007Y010969D01*
X017998Y010978D02*
X012774Y010978D01*
X012774Y010387D02*
X014947Y010387D01*
X015098Y010538D01*
X015254Y010194D02*
X012777Y010194D01*
X012774Y010191D01*
X012774Y009994D02*
X014616Y009994D01*
X014723Y009881D01*
X017191Y011725D02*
X017203Y011737D01*
X018007Y011737D01*
X017367Y010713D02*
X017316Y010663D01*
X018973Y004938D02*
X018822Y004788D01*
X018460Y004788D01*
X009879Y007131D02*
X008910Y007131D01*
X008379Y007663D01*
X008129Y007663D01*
X008004Y007538D01*
X007566Y007538D01*
X007566Y007131D02*
X007754Y006944D01*
X007754Y006549D01*
X007754Y006549D01*
X008935Y006549D02*
X008935Y005813D01*
D43*
X014723Y013100D03*
X014473Y013381D03*
X019066Y014256D03*
D44*
X016316Y014944D02*
X016066Y014944D01*
X015754Y014944D01*
X015629Y015069D01*
X015629Y017538D01*
X015098Y018069D01*
X015098Y018881D01*
X014316Y019319D02*
X013941Y019694D01*
X011504Y019694D01*
X011410Y019600D01*
X011410Y019150D01*
X011410Y019131D01*
X011410Y019150D02*
X011441Y019119D01*
X012410Y019150D02*
X012410Y018475D01*
X012535Y018350D01*
X013910Y018350D01*
X013941Y018319D01*
X013941Y018069D01*
X013754Y019225D02*
X013485Y019225D01*
X013410Y019150D01*
X014316Y019319D02*
X014316Y014694D01*
X014598Y014413D01*
X014879Y014413D01*
X013504Y012788D02*
X013160Y012444D01*
X013160Y012413D01*
X012848Y013288D02*
X012848Y016850D01*
X009879Y018100D02*
X009598Y018381D01*
X009598Y019306D01*
X009278Y019306D01*
X008522Y018550D01*
X006610Y018550D01*
X006285Y018225D01*
X006285Y016725D01*
X006035Y016475D01*
X007066Y014475D02*
X007098Y014444D01*
X007141Y014444D01*
X006947Y013969D02*
X006598Y013969D01*
X004757Y013969D01*
X004754Y013966D01*
X004754Y013944D01*
X004629Y013819D01*
X001910Y013819D01*
X001910Y014203D01*
X001941Y014234D01*
X001910Y013819D02*
X001129Y013819D01*
X000848Y013538D01*
X000848Y012694D01*
X001004Y012538D01*
X002035Y012538D01*
X002254Y012319D01*
X002254Y012069D01*
X003754Y012069D02*
X003754Y011663D01*
X005004Y010413D01*
X004866Y011175D02*
X004254Y011788D01*
X004254Y012069D01*
X003789Y010450D02*
X002816Y010450D01*
X002816Y008688D02*
X003789Y008688D01*
X004441Y008319D02*
X002441Y008319D01*
X000566Y010163D01*
X000566Y014538D01*
X005660Y019631D01*
X008848Y019631D01*
X008941Y019538D01*
X008606Y018535D02*
X009035Y018106D01*
X008507Y018535D02*
X008103Y018131D01*
X004257Y014469D02*
X004757Y013969D01*
X006947Y013969D02*
X007041Y013875D01*
X006035Y008413D02*
X005191Y007569D01*
X003973Y007569D01*
X003882Y007234D02*
X003066Y007234D01*
X003044Y007234D02*
X002629Y006819D01*
X001254Y006819D01*
X000754Y006319D01*
X000754Y005975D01*
X000941Y005788D01*
X001460Y005788D01*
X003973Y007175D02*
X005141Y007175D01*
X005553Y002279D02*
X005553Y000832D01*
X005832Y000553D01*
X003841Y000553D01*
X003629Y000765D01*
X004913Y001895D02*
X005169Y001895D01*
X005553Y002279D01*
X006941Y002168D02*
X007310Y002168D01*
X007382Y002096D01*
X007688Y002096D01*
X007688Y001781D02*
X007563Y001657D01*
X006941Y001657D01*
X007776Y001100D02*
X008316Y001100D01*
X008566Y000506D02*
X005879Y000506D01*
X005832Y000553D01*
X009035Y001069D02*
X009535Y001569D01*
X009535Y002096D01*
X009939Y002096D02*
X010248Y001788D01*
X010248Y001418D01*
X010379Y001288D01*
X010760Y001788D02*
X010760Y002381D01*
X010760Y001788D02*
X010760Y000657D01*
X012444Y001989D02*
X012700Y001989D01*
X018460Y005788D02*
X018978Y005788D01*
X018973Y005450D01*
X018554Y006306D02*
X018973Y006725D01*
X018973Y008881D01*
X018316Y009538D01*
X017504Y009538D01*
X017254Y009788D01*
X017254Y010006D01*
X017316Y010069D01*
X017316Y010663D01*
X017367Y010713D02*
X018007Y010713D01*
X017910Y008532D02*
X017910Y007982D01*
X016566Y007982D02*
X016566Y008532D01*
X015191Y008532D02*
X015191Y007982D01*
D45*
X014504Y008350D03*
X014348Y007850D03*
X015348Y007194D03*
X015848Y006631D03*
X015941Y006131D03*
X016598Y005850D03*
X017410Y006788D03*
X017004Y007569D03*
X016129Y008506D03*
X015785Y008944D03*
X014723Y009881D03*
X015254Y010194D03*
X016098Y010100D03*
X017316Y010663D03*
X016629Y011600D03*
X017191Y011725D03*
X016035Y011913D03*
X015879Y011506D03*
X014566Y011694D03*
X013160Y012413D03*
X012848Y013288D03*
X012129Y013194D03*
X011816Y013506D03*
X011848Y013913D03*
X013379Y014756D03*
X014285Y014225D03*
X014879Y014413D03*
X015379Y014381D03*
X014973Y015069D03*
X015004Y015850D03*
X013785Y015975D03*
X013441Y016881D03*
X012848Y016850D03*
X013410Y017444D03*
X013941Y018069D03*
X013754Y019225D03*
X014816Y017100D03*
X016066Y014944D03*
X017098Y014881D03*
X017566Y014038D03*
X017348Y013350D03*
X017254Y012975D03*
X016566Y013944D03*
X015473Y013038D03*
X015129Y013319D03*
X011973Y011256D03*
X011066Y011725D03*
X010754Y010413D03*
X011410Y010163D03*
X010660Y008788D03*
X010660Y008256D03*
X011066Y007506D03*
X011441Y007288D03*
X010660Y007381D03*
X009879Y007131D03*
X009660Y008225D03*
X009691Y008819D03*
X009535Y010163D03*
X009566Y011100D03*
X009035Y011819D03*
X008691Y012069D03*
X008379Y011725D03*
X008441Y011100D03*
X007566Y012194D03*
X007066Y012913D03*
X006723Y013288D03*
X007254Y013663D03*
X008004Y013631D03*
X008598Y014069D03*
X009191Y013694D03*
X008879Y013319D03*
X009254Y013163D03*
X010066Y013475D03*
X010566Y015913D03*
X011129Y016288D03*
X011598Y016163D03*
X011848Y015881D03*
X011535Y016725D03*
X011410Y017725D03*
X010598Y017600D03*
X009879Y018100D03*
X010598Y018538D03*
X010160Y018850D03*
X008941Y019538D03*
X006691Y017788D03*
X006785Y016538D03*
X007160Y015975D03*
X007723Y015600D03*
X008754Y015975D03*
X009910Y016694D03*
X009754Y017163D03*
X007066Y014475D03*
X006629Y015069D03*
X006035Y016475D03*
X005223Y015725D03*
X005160Y014381D03*
X005316Y012100D03*
X005004Y010413D03*
X005379Y010163D03*
X006004Y010194D03*
X007223Y010756D03*
X007316Y009569D03*
X007254Y009006D03*
X007691Y008631D03*
X007441Y008194D03*
X008035Y008006D03*
X008254Y007350D03*
X007848Y007256D03*
X007223Y007256D03*
X007879Y005819D03*
X007348Y005756D03*
X006879Y005756D03*
X005566Y005944D03*
X005629Y007131D03*
X005316Y008194D03*
X004723Y008100D03*
X005004Y008944D03*
X003223Y009444D03*
X003223Y009788D03*
X001973Y009725D03*
X001973Y010944D03*
X001129Y010975D03*
X002535Y012569D03*
X001191Y013006D03*
X001254Y014475D03*
X002285Y015506D03*
X002785Y016256D03*
X003066Y017600D03*
X003191Y019288D03*
X005098Y018163D03*
X005410Y017569D03*
X006129Y019006D03*
X000910Y016975D03*
X000723Y015663D03*
X001379Y008319D03*
X001441Y007506D03*
X002191Y007506D03*
X003473Y006038D03*
X003254Y005631D03*
X003941Y006131D03*
X004816Y004288D03*
X005129Y004038D03*
X004535Y003975D03*
X003723Y003381D03*
X003441Y002819D03*
X003223Y002381D03*
X003285Y001850D03*
X005660Y003538D03*
X006191Y003975D03*
X006723Y004319D03*
X006941Y003944D03*
X007066Y002819D03*
X006098Y002850D03*
X006191Y001944D03*
X006535Y001694D03*
X006223Y000819D03*
X008160Y002319D03*
X009098Y003100D03*
X009098Y003725D03*
X010098Y004256D03*
X010066Y004944D03*
X010098Y005350D03*
X009379Y005194D03*
X010348Y003413D03*
X010754Y003413D03*
X011441Y003600D03*
X012223Y003038D03*
X011254Y002006D03*
X011410Y001538D03*
X010379Y001288D03*
X009535Y000944D03*
X009035Y001069D03*
X009504Y002413D03*
X011941Y005038D03*
X012723Y005506D03*
X013473Y005663D03*
X012879Y006350D03*
X014035Y004850D03*
X012973Y004381D03*
X013598Y003413D03*
X013723Y002663D03*
X013066Y001788D03*
X014785Y000944D03*
X015535Y001256D03*
X016035Y002131D03*
X016660Y002288D03*
X016535Y002694D03*
X016035Y003350D03*
X015723Y003663D03*
X014941Y003725D03*
X015566Y002663D03*
X016473Y000569D03*
X017973Y001788D03*
X018066Y000725D03*
X018973Y004444D03*
X017973Y005381D03*
X019004Y006194D03*
X018566Y007538D03*
X019379Y008069D03*
X018629Y008475D03*
X019379Y009319D03*
X017129Y008756D03*
X013379Y009600D03*
X012254Y008538D03*
X008410Y010006D03*
X008254Y009600D03*
X000879Y004725D03*
X000879Y003819D03*
X017504Y018944D03*
X018879Y016913D03*
X018941Y015663D03*
X019379Y013006D03*
D46*
X018191Y013006D01*
X017598Y013600D01*
X017598Y014006D01*
X017566Y014038D01*
X017330Y014239D02*
X017535Y014444D01*
X017810Y014444D01*
X018438Y013997D02*
X018456Y013997D01*
X018456Y013669D01*
X018606Y013669D01*
X018647Y013680D01*
X018683Y013701D01*
X018713Y013731D01*
X018734Y013767D01*
X018745Y013808D01*
X018745Y013997D01*
X018456Y013997D01*
X018456Y014015D01*
X018745Y014015D01*
X018745Y014096D01*
X018763Y014053D01*
X018863Y013953D01*
X018995Y013898D01*
X019137Y013898D01*
X019269Y013953D01*
X019370Y014053D01*
X019424Y014185D01*
X019424Y014327D01*
X019406Y014371D01*
X019406Y014574D01*
X019354Y014699D01*
X019259Y014794D01*
X019134Y014846D01*
X018787Y014846D01*
X018787Y015287D01*
X018735Y015412D01*
X018640Y015507D01*
X018640Y015507D01*
X017915Y016232D01*
X017790Y016284D01*
X017627Y016284D01*
X017627Y016747D01*
X017551Y016823D01*
X017551Y017076D01*
X017499Y017201D01*
X017493Y017207D01*
X017493Y017532D01*
X017388Y017638D01*
X016727Y017638D01*
X016698Y017609D01*
X016665Y017618D01*
X016448Y017618D01*
X016448Y017223D01*
X016328Y017223D01*
X016328Y017618D01*
X016111Y017618D01*
X016070Y017607D01*
X016034Y017586D01*
X016004Y017556D01*
X015983Y017520D01*
X015972Y017479D01*
X015972Y017222D01*
X016328Y017222D01*
X016328Y017103D01*
X015972Y017103D01*
X015972Y016852D01*
X015889Y016852D01*
X015889Y017589D01*
X015849Y017685D01*
X015362Y018171D01*
X015369Y018174D01*
X015504Y018309D01*
X015577Y018486D01*
X015577Y019277D01*
X015504Y019453D01*
X015369Y019588D01*
X015193Y019661D01*
X015002Y019661D01*
X014826Y019588D01*
X014691Y019453D01*
X014618Y019277D01*
X014618Y018486D01*
X014691Y018309D01*
X014826Y018174D01*
X014838Y018169D01*
X014838Y018017D01*
X014877Y017921D01*
X014950Y017848D01*
X015369Y017430D01*
X015369Y015017D01*
X015408Y014921D01*
X015481Y014848D01*
X015606Y014723D01*
X015702Y014684D01*
X015848Y014684D01*
X015875Y014657D01*
X015999Y014605D01*
X016042Y014605D01*
X016042Y014448D01*
X015976Y014448D01*
X015976Y014271D01*
X015976Y014271D01*
X015976Y014448D01*
X015807Y014448D01*
X015766Y014437D01*
X015730Y014416D01*
X015700Y014386D01*
X015679Y014350D01*
X015668Y014309D01*
X015668Y014239D01*
X015668Y014186D01*
X015648Y014166D01*
X015648Y014075D01*
X015229Y014075D01*
X015124Y014180D01*
X015166Y014221D01*
X015217Y014345D01*
X015217Y014480D01*
X015166Y014604D01*
X015070Y014699D01*
X014946Y014751D01*
X014811Y014751D01*
X014687Y014699D01*
X014683Y014695D01*
X014576Y014801D01*
X014576Y019370D01*
X014537Y019466D01*
X014295Y019708D01*
X019580Y019708D01*
X019580Y013284D01*
X019570Y013293D01*
X019446Y013345D01*
X019311Y013345D01*
X019187Y013293D01*
X019140Y013246D01*
X018291Y013246D01*
X017888Y013649D01*
X018148Y013649D01*
X018205Y013707D01*
X018211Y013701D01*
X018248Y013680D01*
X018288Y013669D01*
X018438Y013669D01*
X018438Y013997D01*
X018438Y013915D02*
X018456Y013915D01*
X018456Y013797D02*
X018438Y013797D01*
X018438Y013678D02*
X018456Y013678D01*
X018639Y013678D02*
X019580Y013678D01*
X019580Y013560D02*
X017977Y013560D01*
X018096Y013441D02*
X019580Y013441D01*
X019580Y013323D02*
X019500Y013323D01*
X019258Y013323D02*
X018214Y013323D01*
X018177Y013678D02*
X018255Y013678D01*
X018742Y013797D02*
X019580Y013797D01*
X019580Y013915D02*
X019178Y013915D01*
X019350Y014034D02*
X019580Y014034D01*
X019580Y014152D02*
X019411Y014152D01*
X019424Y014271D02*
X019580Y014271D01*
X019580Y014389D02*
X019406Y014389D01*
X019406Y014508D02*
X019580Y014508D01*
X019580Y014626D02*
X019385Y014626D01*
X019309Y014745D02*
X019580Y014745D01*
X019580Y014863D02*
X018787Y014863D01*
X018787Y014982D02*
X019580Y014982D01*
X019580Y015100D02*
X018787Y015100D01*
X018787Y015219D02*
X019580Y015219D01*
X019580Y015337D02*
X018766Y015337D01*
X018692Y015456D02*
X019580Y015456D01*
X019580Y015574D02*
X018573Y015574D01*
X018455Y015693D02*
X019580Y015693D01*
X019580Y015811D02*
X018336Y015811D01*
X018218Y015930D02*
X019580Y015930D01*
X019580Y016048D02*
X018099Y016048D01*
X017981Y016167D02*
X019580Y016167D01*
X019580Y016285D02*
X017627Y016285D01*
X017627Y016404D02*
X019580Y016404D01*
X019580Y016522D02*
X017627Y016522D01*
X017627Y016641D02*
X019580Y016641D01*
X019580Y016759D02*
X017615Y016759D01*
X017551Y016878D02*
X019580Y016878D01*
X019580Y016996D02*
X017551Y016996D01*
X017535Y017115D02*
X019580Y017115D01*
X019580Y017233D02*
X017493Y017233D01*
X017493Y017352D02*
X019580Y017352D01*
X019580Y017470D02*
X017493Y017470D01*
X017437Y017589D02*
X019580Y017589D01*
X019580Y017707D02*
X015827Y017707D01*
X015889Y017589D02*
X016038Y017589D01*
X015972Y017470D02*
X015889Y017470D01*
X015889Y017352D02*
X015972Y017352D01*
X015972Y017233D02*
X015889Y017233D01*
X015889Y017115D02*
X016328Y017115D01*
X016328Y017233D02*
X016448Y017233D01*
X016448Y017352D02*
X016328Y017352D01*
X016328Y017470D02*
X016448Y017470D01*
X016448Y017589D02*
X016328Y017589D01*
X016205Y018133D02*
X016274Y018155D01*
X016339Y018188D01*
X016397Y018230D01*
X016448Y018282D01*
X016491Y018340D01*
X016524Y018405D01*
X016546Y018474D01*
X016557Y018545D01*
X016557Y018841D01*
X016138Y018841D01*
X016138Y018921D01*
X016557Y018921D01*
X016557Y019217D01*
X016546Y019289D01*
X016524Y019358D01*
X016491Y019422D01*
X016448Y019481D01*
X016397Y019532D01*
X016339Y019575D01*
X016274Y019608D01*
X016205Y019630D01*
X016138Y019641D01*
X016138Y018921D01*
X016057Y018921D01*
X016057Y018841D01*
X015637Y018841D01*
X015638Y018545D01*
X015649Y018474D01*
X015671Y018405D01*
X015704Y018340D01*
X015747Y018282D01*
X015798Y018230D01*
X015856Y018188D01*
X015921Y018155D01*
X015990Y018133D01*
X016057Y018122D01*
X016057Y018841D01*
X016138Y018841D01*
X016138Y018122D01*
X016205Y018133D01*
X016138Y018181D02*
X016057Y018181D01*
X016057Y018300D02*
X016138Y018300D01*
X016138Y018418D02*
X016057Y018418D01*
X016057Y018537D02*
X016138Y018537D01*
X016138Y018655D02*
X016057Y018655D01*
X016057Y018774D02*
X016138Y018774D01*
X016138Y018892D02*
X018029Y018892D01*
X018029Y018774D02*
X016557Y018774D01*
X016557Y018655D02*
X018065Y018655D01*
X018029Y018742D02*
X018140Y018473D01*
X018346Y018268D01*
X018615Y018156D01*
X018905Y018156D01*
X019174Y018268D01*
X019380Y018473D01*
X019491Y018742D01*
X019491Y019033D01*
X019380Y019302D01*
X019174Y019507D01*
X018905Y019619D01*
X018615Y019619D01*
X018346Y019507D01*
X018140Y019302D01*
X018029Y019033D01*
X018029Y018742D01*
X018114Y018537D02*
X016556Y018537D01*
X016528Y018418D02*
X018195Y018418D01*
X018314Y018300D02*
X016461Y018300D01*
X016325Y018181D02*
X018555Y018181D01*
X018965Y018181D02*
X019580Y018181D01*
X019580Y018063D02*
X015471Y018063D01*
X015376Y018181D02*
X015870Y018181D01*
X015734Y018300D02*
X015495Y018300D01*
X015549Y018418D02*
X015667Y018418D01*
X015639Y018537D02*
X015577Y018537D01*
X015577Y018655D02*
X015637Y018655D01*
X015637Y018774D02*
X015577Y018774D01*
X015577Y018892D02*
X016057Y018892D01*
X016057Y018921D02*
X015638Y018921D01*
X015638Y019217D01*
X015649Y019289D01*
X015671Y019358D01*
X015704Y019422D01*
X015747Y019481D01*
X015798Y019532D01*
X015856Y019575D01*
X015921Y019608D01*
X015990Y019630D01*
X016057Y019641D01*
X016057Y018921D01*
X016057Y019011D02*
X016138Y019011D01*
X016138Y019129D02*
X016057Y019129D01*
X016057Y019248D02*
X016138Y019248D01*
X016138Y019366D02*
X016057Y019366D01*
X016057Y019485D02*
X016138Y019485D01*
X016138Y019603D02*
X016057Y019603D01*
X015912Y019603D02*
X015334Y019603D01*
X015473Y019485D02*
X015750Y019485D01*
X015675Y019366D02*
X015541Y019366D01*
X015577Y019248D02*
X015642Y019248D01*
X015638Y019129D02*
X015577Y019129D01*
X015577Y019011D02*
X015638Y019011D01*
X014861Y019603D02*
X014400Y019603D01*
X014518Y019485D02*
X014722Y019485D01*
X014654Y019366D02*
X014576Y019366D01*
X014576Y019248D02*
X014618Y019248D01*
X014618Y019129D02*
X014576Y019129D01*
X014576Y019011D02*
X014618Y019011D01*
X014618Y018892D02*
X014576Y018892D01*
X014576Y018774D02*
X014618Y018774D01*
X014618Y018655D02*
X014576Y018655D01*
X014576Y018537D02*
X014618Y018537D01*
X014646Y018418D02*
X014576Y018418D01*
X014576Y018300D02*
X014700Y018300D01*
X014819Y018181D02*
X014576Y018181D01*
X014576Y018063D02*
X014838Y018063D01*
X014868Y017944D02*
X014576Y017944D01*
X014576Y017826D02*
X014973Y017826D01*
X015092Y017707D02*
X014576Y017707D01*
X014576Y017589D02*
X015210Y017589D01*
X015329Y017470D02*
X014576Y017470D01*
X014576Y017352D02*
X015369Y017352D01*
X015369Y017233D02*
X014576Y017233D01*
X014576Y017115D02*
X015369Y017115D01*
X015369Y016996D02*
X014576Y016996D01*
X014576Y016878D02*
X015369Y016878D01*
X015369Y016759D02*
X014576Y016759D01*
X014576Y016641D02*
X015369Y016641D01*
X015369Y016522D02*
X014576Y016522D01*
X014576Y016404D02*
X015369Y016404D01*
X015369Y016285D02*
X014576Y016285D01*
X014576Y016167D02*
X015369Y016167D01*
X015369Y016048D02*
X014576Y016048D01*
X014576Y015930D02*
X015369Y015930D01*
X015369Y015811D02*
X014576Y015811D01*
X014576Y015693D02*
X015369Y015693D01*
X015369Y015574D02*
X014576Y015574D01*
X014576Y015456D02*
X015369Y015456D01*
X015369Y015337D02*
X014576Y015337D01*
X014576Y015219D02*
X015369Y015219D01*
X015369Y015100D02*
X014576Y015100D01*
X014576Y014982D02*
X015383Y014982D01*
X015467Y014863D02*
X014576Y014863D01*
X014633Y014745D02*
X014796Y014745D01*
X014962Y014745D02*
X015585Y014745D01*
X015703Y014389D02*
X015217Y014389D01*
X015206Y014508D02*
X016042Y014508D01*
X015976Y014389D02*
X015976Y014389D01*
X015949Y014626D02*
X015144Y014626D01*
X015186Y014271D02*
X015668Y014271D01*
X015668Y014239D02*
X015721Y014239D01*
X015668Y014239D01*
X015721Y014239D02*
X015721Y014239D01*
X015648Y014152D02*
X015152Y014152D01*
X014120Y014523D02*
X014093Y014512D01*
X013998Y014417D01*
X013947Y014292D01*
X013947Y014158D01*
X013953Y014142D01*
X013815Y014142D01*
X013680Y014008D01*
X013139Y013467D01*
X013134Y013479D01*
X013107Y013506D01*
X013107Y016631D01*
X013134Y016658D01*
X013186Y016783D01*
X013186Y016917D01*
X013134Y017042D01*
X013132Y017044D01*
X013153Y017057D01*
X013160Y017064D01*
X013167Y017057D01*
X013203Y017036D01*
X013244Y017025D01*
X013397Y017025D01*
X013397Y017537D01*
X013423Y017537D01*
X013423Y017563D01*
X013715Y017563D01*
X013715Y017816D01*
X013750Y017782D01*
X013874Y017730D01*
X014009Y017730D01*
X014056Y017750D01*
X014056Y014745D01*
X014056Y014642D01*
X014096Y014546D01*
X014120Y014523D01*
X014089Y014508D02*
X013107Y014508D01*
X013107Y014626D02*
X014063Y014626D01*
X014056Y014745D02*
X013107Y014745D01*
X013107Y014863D02*
X014056Y014863D01*
X014056Y014982D02*
X013107Y014982D01*
X013107Y015100D02*
X014056Y015100D01*
X014056Y015219D02*
X013107Y015219D01*
X013107Y015337D02*
X014056Y015337D01*
X014056Y015456D02*
X013107Y015456D01*
X013107Y015574D02*
X014056Y015574D01*
X014056Y015693D02*
X013107Y015693D01*
X013107Y015811D02*
X014056Y015811D01*
X014056Y015930D02*
X013107Y015930D01*
X013107Y016048D02*
X014056Y016048D01*
X014056Y016167D02*
X013107Y016167D01*
X013107Y016285D02*
X014056Y016285D01*
X014056Y016404D02*
X013107Y016404D01*
X013107Y016522D02*
X014056Y016522D01*
X014056Y016641D02*
X013117Y016641D01*
X013176Y016759D02*
X014056Y016759D01*
X014056Y016878D02*
X013186Y016878D01*
X013153Y016996D02*
X014056Y016996D01*
X014056Y017115D02*
X013699Y017115D01*
X013704Y017123D02*
X013715Y017164D01*
X013715Y017537D01*
X013423Y017537D01*
X013423Y017025D01*
X013576Y017025D01*
X013617Y017036D01*
X013653Y017057D01*
X013683Y017087D01*
X013704Y017123D01*
X013715Y017233D02*
X014056Y017233D01*
X014056Y017352D02*
X013715Y017352D01*
X013715Y017470D02*
X014056Y017470D01*
X014056Y017589D02*
X013715Y017589D01*
X013715Y017707D02*
X014056Y017707D01*
X013603Y018068D02*
X013576Y018075D01*
X013423Y018075D01*
X013423Y017563D01*
X013397Y017563D01*
X013397Y018075D01*
X013244Y018075D01*
X013203Y018064D01*
X013167Y018043D01*
X013160Y018036D01*
X013153Y018043D01*
X013117Y018064D01*
X013076Y018075D01*
X012923Y018075D01*
X012923Y017563D01*
X012897Y017563D01*
X012897Y018075D01*
X012744Y018075D01*
X012703Y018064D01*
X012667Y018043D01*
X012660Y018036D01*
X012653Y018043D01*
X012617Y018064D01*
X012576Y018075D01*
X012423Y018075D01*
X012423Y017563D01*
X012397Y017563D01*
X012397Y018075D01*
X012244Y018075D01*
X012203Y018064D01*
X012167Y018043D01*
X012160Y018036D01*
X012153Y018043D01*
X012117Y018064D01*
X012076Y018075D01*
X011923Y018075D01*
X011923Y017563D01*
X011897Y017563D01*
X011897Y018075D01*
X011744Y018075D01*
X011703Y018064D01*
X011676Y018048D01*
X011630Y018095D01*
X011276Y018095D01*
X011353Y018173D01*
X011676Y018173D01*
X011765Y018209D01*
X012046Y018490D01*
X012113Y018558D01*
X012135Y018611D01*
X012150Y018625D01*
X012150Y018423D01*
X012190Y018328D01*
X012315Y018203D01*
X012388Y018130D01*
X012483Y018090D01*
X013603Y018090D01*
X013603Y018068D01*
X013423Y018063D02*
X013397Y018063D01*
X013397Y017944D02*
X013423Y017944D01*
X013423Y017826D02*
X013397Y017826D01*
X013397Y017707D02*
X013423Y017707D01*
X013423Y017589D02*
X013397Y017589D01*
X013397Y017470D02*
X013423Y017470D01*
X013423Y017352D02*
X013397Y017352D01*
X013397Y017233D02*
X013423Y017233D01*
X013423Y017115D02*
X013397Y017115D01*
X012923Y017589D02*
X012897Y017589D01*
X012897Y017707D02*
X012923Y017707D01*
X012923Y017826D02*
X012897Y017826D01*
X012897Y017944D02*
X012923Y017944D01*
X012923Y018063D02*
X012897Y018063D01*
X012701Y018063D02*
X012619Y018063D01*
X012423Y018063D02*
X012397Y018063D01*
X012397Y017944D02*
X012423Y017944D01*
X012423Y017826D02*
X012397Y017826D01*
X012397Y017707D02*
X012423Y017707D01*
X012423Y017589D02*
X012397Y017589D01*
X012397Y017537D02*
X012423Y017537D01*
X012423Y017025D01*
X012554Y017025D01*
X012509Y016917D01*
X012509Y016783D01*
X012561Y016658D01*
X012588Y016631D01*
X012588Y016481D01*
X012043Y017025D01*
X012076Y017025D01*
X012117Y017036D01*
X012153Y017057D01*
X012160Y017064D01*
X012167Y017057D01*
X012203Y017036D01*
X012244Y017025D01*
X012397Y017025D01*
X012397Y017537D01*
X012397Y017470D02*
X012423Y017470D01*
X012423Y017352D02*
X012397Y017352D01*
X012397Y017233D02*
X012423Y017233D01*
X012423Y017115D02*
X012397Y017115D01*
X012542Y016996D02*
X012072Y016996D01*
X012191Y016878D02*
X012509Y016878D01*
X012519Y016759D02*
X012309Y016759D01*
X012428Y016641D02*
X012578Y016641D01*
X012588Y016522D02*
X012546Y016522D01*
X012535Y016194D02*
X011723Y017006D01*
X011160Y017006D01*
X011004Y017163D01*
X011004Y018163D01*
X011254Y018413D01*
X011629Y018413D01*
X011910Y018694D01*
X011910Y019150D01*
X012092Y018537D02*
X012150Y018537D01*
X012152Y018418D02*
X011974Y018418D01*
X011855Y018300D02*
X012218Y018300D01*
X012336Y018181D02*
X011697Y018181D01*
X011701Y018063D02*
X011662Y018063D01*
X011897Y018063D02*
X011923Y018063D01*
X011923Y017944D02*
X011897Y017944D01*
X011897Y017826D02*
X011923Y017826D01*
X011923Y017707D02*
X011897Y017707D01*
X011897Y017589D02*
X011923Y017589D01*
X012119Y018063D02*
X012201Y018063D01*
X013119Y018063D02*
X013201Y018063D01*
X011832Y016557D02*
X012305Y016084D01*
X012305Y013197D01*
X012176Y013067D01*
X011931Y013067D01*
X011931Y013187D01*
X012008Y013219D01*
X012103Y013315D01*
X012155Y013439D01*
X012155Y013574D01*
X012106Y013692D01*
X012134Y013721D01*
X012186Y013845D01*
X012186Y013980D01*
X012134Y014104D01*
X012039Y014199D01*
X011915Y014251D01*
X011780Y014251D01*
X011670Y014205D01*
X011537Y014205D01*
X011537Y016167D01*
X011501Y016255D01*
X011467Y016288D01*
X011467Y016355D01*
X011451Y016393D01*
X011468Y016387D01*
X011602Y016387D01*
X011727Y016438D01*
X011822Y016533D01*
X011832Y016557D01*
X011811Y016522D02*
X011867Y016522D01*
X011986Y016404D02*
X011643Y016404D01*
X011471Y016285D02*
X012104Y016285D01*
X012223Y016167D02*
X011537Y016167D01*
X011537Y016048D02*
X012305Y016048D01*
X012305Y015930D02*
X011537Y015930D01*
X011537Y015811D02*
X012305Y015811D01*
X012305Y015693D02*
X011537Y015693D01*
X011537Y015574D02*
X012305Y015574D01*
X012305Y015456D02*
X011537Y015456D01*
X011537Y015337D02*
X012305Y015337D01*
X012305Y015219D02*
X011537Y015219D01*
X011537Y015100D02*
X012305Y015100D01*
X012305Y014982D02*
X011537Y014982D01*
X011537Y014863D02*
X012305Y014863D01*
X012305Y014745D02*
X011537Y014745D01*
X011537Y014626D02*
X012305Y014626D01*
X012305Y014508D02*
X011537Y014508D01*
X011537Y014389D02*
X012305Y014389D01*
X012305Y014271D02*
X011537Y014271D01*
X011723Y014569D02*
X012348Y013944D01*
X012348Y013444D01*
X012254Y013350D01*
X012305Y013323D02*
X012106Y013323D01*
X012155Y013441D02*
X012305Y013441D01*
X012305Y013560D02*
X012155Y013560D01*
X012111Y013678D02*
X012305Y013678D01*
X012305Y013797D02*
X012166Y013797D01*
X012186Y013915D02*
X012305Y013915D01*
X012305Y014034D02*
X012164Y014034D01*
X012087Y014152D02*
X012305Y014152D01*
X011848Y013913D02*
X011795Y013965D01*
X011494Y013965D01*
X011494Y012651D01*
X011297Y012651D02*
X011297Y016119D01*
X011129Y016288D01*
X010707Y015772D02*
X010566Y015913D01*
X010707Y015772D02*
X010707Y012651D01*
X010116Y012651D02*
X010116Y013425D01*
X010066Y013475D01*
X009296Y013501D02*
X009186Y013501D01*
X009172Y013495D01*
X009166Y013510D01*
X009070Y013606D01*
X008980Y013643D01*
X009046Y013709D01*
X009113Y013777D01*
X009150Y013865D01*
X009150Y014429D01*
X009113Y014517D01*
X009080Y014551D01*
X009080Y014806D01*
X009022Y014864D01*
X009028Y014870D01*
X009049Y014906D01*
X009060Y014947D01*
X009060Y015097D01*
X008731Y015097D01*
X008731Y015115D01*
X008714Y015115D01*
X008714Y015404D01*
X008546Y015404D01*
X008546Y015704D01*
X008562Y015688D01*
X008686Y015637D01*
X008821Y015637D01*
X008945Y015688D01*
X009041Y015783D01*
X009092Y015908D01*
X009092Y016042D01*
X009041Y016167D01*
X008984Y016224D01*
X008984Y016977D01*
X008849Y017111D01*
X008715Y017245D01*
X009011Y017245D01*
X009042Y017276D01*
X009287Y017276D01*
X009392Y017382D01*
X009392Y017806D01*
X009349Y017850D01*
X009392Y017894D01*
X009392Y018219D01*
X009450Y018161D01*
X009450Y018161D01*
X009540Y018071D01*
X009540Y018033D01*
X009592Y017908D01*
X009687Y017813D01*
X009811Y017762D01*
X009946Y017762D01*
X009961Y017768D01*
X009961Y017434D01*
X009945Y017449D01*
X009821Y017501D01*
X009686Y017501D01*
X009562Y017449D01*
X009467Y017354D01*
X009415Y017230D01*
X009415Y017149D01*
X009296Y017030D01*
X009296Y013501D01*
X009296Y013560D02*
X009117Y013560D01*
X009015Y013678D02*
X009296Y013678D01*
X009296Y013797D02*
X009122Y013797D01*
X009150Y013915D02*
X009296Y013915D01*
X009296Y014034D02*
X009150Y014034D01*
X009150Y014152D02*
X009296Y014152D01*
X009296Y014271D02*
X009150Y014271D01*
X009150Y014389D02*
X009296Y014389D01*
X009296Y014508D02*
X009117Y014508D01*
X009080Y014626D02*
X009296Y014626D01*
X009296Y014745D02*
X009080Y014745D01*
X009023Y014863D02*
X009296Y014863D01*
X009296Y014982D02*
X009060Y014982D01*
X009060Y015115D02*
X009060Y015265D01*
X009049Y015305D01*
X009028Y015342D01*
X008998Y015372D01*
X008961Y015393D01*
X008921Y015404D01*
X008731Y015404D01*
X008731Y015115D01*
X009060Y015115D01*
X009060Y015219D02*
X009296Y015219D01*
X009296Y015337D02*
X009031Y015337D01*
X008731Y015337D02*
X008714Y015337D01*
X008714Y015219D02*
X008731Y015219D01*
X008731Y015100D02*
X009296Y015100D01*
X009296Y015456D02*
X008546Y015456D01*
X008546Y015574D02*
X009296Y015574D01*
X009296Y015693D02*
X008950Y015693D01*
X009052Y015811D02*
X009296Y015811D01*
X009296Y015930D02*
X009092Y015930D01*
X009090Y016048D02*
X009296Y016048D01*
X009296Y016167D02*
X009041Y016167D01*
X008984Y016285D02*
X009296Y016285D01*
X009296Y016404D02*
X008984Y016404D01*
X008984Y016522D02*
X009296Y016522D01*
X009296Y016641D02*
X008984Y016641D01*
X008984Y016759D02*
X009296Y016759D01*
X009296Y016878D02*
X008984Y016878D01*
X008964Y016996D02*
X009296Y016996D01*
X009381Y017115D02*
X008846Y017115D01*
X008727Y017233D02*
X009417Y017233D01*
X009466Y017352D02*
X009362Y017352D01*
X009392Y017470D02*
X009612Y017470D01*
X009392Y017589D02*
X009961Y017589D01*
X009961Y017707D02*
X009392Y017707D01*
X009373Y017826D02*
X009675Y017826D01*
X009577Y017944D02*
X009392Y017944D01*
X009392Y018063D02*
X009540Y018063D01*
X009430Y018181D02*
X009392Y018181D01*
X009857Y018489D02*
X009908Y018438D01*
X009946Y018438D01*
X010062Y018390D01*
X010259Y018587D01*
X010259Y018605D01*
X010311Y018729D01*
X010406Y018824D01*
X010530Y018876D01*
X010665Y018876D01*
X010789Y018824D01*
X010884Y018729D01*
X010936Y018605D01*
X010936Y018470D01*
X010910Y018409D01*
X011050Y018548D01*
X011118Y018616D01*
X011161Y018634D01*
X011085Y018710D01*
X011085Y019590D01*
X011152Y019657D01*
X011173Y019708D01*
X009237Y019708D01*
X009280Y019605D01*
X009280Y019566D01*
X009649Y019566D01*
X009745Y019527D01*
X009818Y019454D01*
X009857Y019358D01*
X009857Y018489D01*
X009857Y018537D02*
X010209Y018537D01*
X010280Y018655D02*
X009857Y018655D01*
X009857Y018774D02*
X010355Y018774D01*
X010090Y018418D02*
X009995Y018418D01*
X010421Y018098D02*
X010524Y018202D01*
X010530Y018199D01*
X010665Y018199D01*
X010779Y018246D01*
X010764Y018210D01*
X010764Y017115D01*
X010800Y017027D01*
X010868Y016959D01*
X010872Y016955D01*
X010721Y016955D01*
X010586Y016820D01*
X010421Y016655D01*
X010421Y018098D01*
X010421Y018063D02*
X010764Y018063D01*
X010764Y018181D02*
X010504Y018181D01*
X010421Y017944D02*
X010764Y017944D01*
X010764Y017826D02*
X010421Y017826D01*
X010421Y017707D02*
X010764Y017707D01*
X010764Y017589D02*
X010421Y017589D01*
X010421Y017470D02*
X010764Y017470D01*
X010764Y017352D02*
X010421Y017352D01*
X010421Y017233D02*
X010764Y017233D01*
X010764Y017115D02*
X010421Y017115D01*
X010421Y016996D02*
X010831Y016996D01*
X010644Y016878D02*
X010421Y016878D01*
X010421Y016759D02*
X010525Y016759D01*
X009961Y017470D02*
X009896Y017470D01*
X010914Y018418D02*
X010920Y018418D01*
X010936Y018537D02*
X011038Y018537D01*
X011140Y018655D02*
X010915Y018655D01*
X010840Y018774D02*
X011085Y018774D01*
X011085Y018892D02*
X009857Y018892D01*
X009857Y019011D02*
X011085Y019011D01*
X011085Y019129D02*
X009857Y019129D01*
X009857Y019248D02*
X011085Y019248D01*
X011085Y019366D02*
X009854Y019366D01*
X009787Y019485D02*
X011085Y019485D01*
X011098Y019603D02*
X009280Y019603D01*
X008824Y019220D02*
X008415Y018810D01*
X006558Y018810D01*
X006463Y018771D01*
X006390Y018697D01*
X006065Y018372D01*
X006025Y018277D01*
X006025Y016833D01*
X006006Y016813D01*
X005968Y016813D01*
X005843Y016762D01*
X005748Y016667D01*
X005697Y016542D01*
X005697Y016408D01*
X005748Y016283D01*
X005843Y016188D01*
X005968Y016137D01*
X006045Y016137D01*
X005562Y015654D01*
X005559Y015654D01*
X005561Y015658D01*
X005561Y015792D01*
X005509Y015917D01*
X005414Y016012D01*
X005290Y016063D01*
X005155Y016063D01*
X005031Y016012D01*
X004978Y015959D01*
X004634Y015959D01*
X004634Y016217D01*
X004529Y016322D01*
X004487Y016322D01*
X004487Y016392D01*
X004780Y016392D01*
X004885Y016497D01*
X004885Y017158D01*
X004856Y017187D01*
X004865Y017220D01*
X004865Y017437D01*
X004470Y017437D01*
X004470Y017557D01*
X004865Y017557D01*
X004865Y017774D01*
X004854Y017815D01*
X004833Y017851D01*
X004804Y017881D01*
X004767Y017902D01*
X004726Y017913D01*
X004470Y017913D01*
X004470Y017557D01*
X004350Y017557D01*
X004350Y017437D01*
X003955Y017437D01*
X003955Y017220D01*
X003964Y017187D01*
X003935Y017158D01*
X003935Y016511D01*
X003904Y016519D01*
X003785Y016519D01*
X003785Y016122D01*
X003785Y016519D01*
X003666Y016519D01*
X003625Y016508D01*
X003588Y016487D01*
X003559Y016457D01*
X003537Y016420D01*
X003527Y016380D01*
X003527Y016322D01*
X003123Y016322D01*
X003123Y016324D01*
X003072Y016448D01*
X002977Y016543D01*
X002950Y016554D01*
X003955Y017558D01*
X003955Y017557D01*
X004350Y017557D01*
X004350Y017913D01*
X004309Y017913D01*
X005768Y019371D01*
X008644Y019371D01*
X008654Y019346D01*
X008750Y019251D01*
X008824Y019220D01*
X008757Y019248D02*
X005644Y019248D01*
X005762Y019366D02*
X008646Y019366D01*
X008734Y019129D02*
X005525Y019129D01*
X005407Y019011D02*
X008615Y019011D01*
X008496Y018892D02*
X005288Y018892D01*
X005170Y018774D02*
X006470Y018774D01*
X006347Y018655D02*
X005051Y018655D01*
X004933Y018537D02*
X006229Y018537D01*
X006110Y018418D02*
X004814Y018418D01*
X004696Y018300D02*
X006034Y018300D01*
X006025Y018181D02*
X004577Y018181D01*
X004459Y018063D02*
X006025Y018063D01*
X006025Y017944D02*
X004340Y017944D01*
X004350Y017826D02*
X004470Y017826D01*
X004470Y017707D02*
X004350Y017707D01*
X004350Y017589D02*
X004470Y017589D01*
X004470Y017470D02*
X006025Y017470D01*
X006025Y017352D02*
X004865Y017352D01*
X004865Y017233D02*
X006025Y017233D01*
X006025Y017115D02*
X004885Y017115D01*
X004885Y016996D02*
X006025Y016996D01*
X006025Y016878D02*
X004885Y016878D01*
X004885Y016759D02*
X005840Y016759D01*
X005737Y016641D02*
X004885Y016641D01*
X004885Y016522D02*
X005697Y016522D01*
X005698Y016404D02*
X004791Y016404D01*
X004566Y016285D02*
X005747Y016285D01*
X005895Y016167D02*
X004634Y016167D01*
X004634Y016048D02*
X005118Y016048D01*
X005327Y016048D02*
X005956Y016048D01*
X005838Y015930D02*
X005497Y015930D01*
X005553Y015811D02*
X005719Y015811D01*
X005601Y015693D02*
X005561Y015693D01*
X005661Y015414D02*
X006785Y016538D01*
X006545Y016776D02*
X006545Y018117D01*
X006718Y018290D01*
X007274Y018290D01*
X007274Y018139D01*
X007271Y018136D01*
X007271Y017970D01*
X007220Y017970D01*
X007115Y017865D01*
X007115Y017597D01*
X007139Y017573D01*
X007135Y017555D01*
X007135Y017475D01*
X007135Y017395D01*
X007139Y017377D01*
X007115Y017353D01*
X007115Y017085D01*
X007220Y016980D01*
X007357Y016980D01*
X007082Y016705D01*
X007072Y016729D01*
X006977Y016824D01*
X006852Y016876D01*
X006718Y016876D01*
X006593Y016824D01*
X006545Y016776D01*
X006545Y016878D02*
X007254Y016878D01*
X007204Y016996D02*
X006545Y016996D01*
X006545Y017115D02*
X007115Y017115D01*
X007115Y017233D02*
X006545Y017233D01*
X006545Y017352D02*
X007115Y017352D01*
X007135Y017470D02*
X006545Y017470D01*
X006545Y017589D02*
X007123Y017589D01*
X007135Y017475D02*
X007501Y017475D01*
X007135Y017475D01*
X007115Y017707D02*
X006545Y017707D01*
X006545Y017826D02*
X007115Y017826D01*
X007194Y017944D02*
X006545Y017944D01*
X006545Y018063D02*
X007271Y018063D01*
X007274Y018181D02*
X006609Y018181D01*
X006025Y017826D02*
X004848Y017826D01*
X004865Y017707D02*
X006025Y017707D01*
X006025Y017589D02*
X004865Y017589D01*
X004350Y017470D02*
X003866Y017470D01*
X003955Y017352D02*
X003748Y017352D01*
X003629Y017233D02*
X003955Y017233D01*
X003935Y017115D02*
X003511Y017115D01*
X003392Y016996D02*
X003935Y016996D01*
X003935Y016878D02*
X003274Y016878D01*
X003155Y016759D02*
X003935Y016759D01*
X003935Y016641D02*
X003037Y016641D01*
X002998Y016522D02*
X003935Y016522D01*
X003785Y016404D02*
X003785Y016404D01*
X003785Y016285D02*
X003785Y016285D01*
X003785Y016167D02*
X003785Y016167D01*
X003785Y016122D02*
X003785Y016122D01*
X003533Y016404D02*
X003090Y016404D01*
X002555Y016008D02*
X002555Y015848D01*
X002770Y015633D01*
X002905Y015499D01*
X002956Y015499D01*
X002956Y015414D01*
X003313Y015414D01*
X003313Y015414D01*
X002956Y015414D01*
X002956Y015294D01*
X002966Y015256D01*
X002956Y015218D01*
X002956Y015099D01*
X003313Y015099D01*
X003313Y015099D01*
X002956Y015099D01*
X002956Y015055D01*
X002812Y015055D01*
X002724Y015142D01*
X002298Y015142D01*
X002287Y015182D01*
X002266Y015218D01*
X002236Y015248D01*
X002200Y015269D01*
X002159Y015280D01*
X001980Y015280D01*
X001980Y014942D01*
X001903Y014942D01*
X001903Y015280D01*
X001723Y015280D01*
X001683Y015269D01*
X001646Y015248D01*
X001616Y015218D01*
X001595Y015182D01*
X001584Y015141D01*
X001584Y014942D01*
X001903Y014942D01*
X001903Y014865D01*
X001584Y014865D01*
X001584Y014666D01*
X001595Y014625D01*
X001616Y014589D01*
X001622Y014583D01*
X001564Y014525D01*
X001564Y014079D01*
X001077Y014079D01*
X000981Y014039D01*
X000908Y013966D01*
X000826Y013884D01*
X000826Y014430D01*
X002487Y016091D01*
X002498Y016065D01*
X002555Y016008D01*
X002515Y016048D02*
X002444Y016048D01*
X002555Y015930D02*
X002326Y015930D01*
X002207Y015811D02*
X002592Y015811D01*
X002711Y015693D02*
X002089Y015693D01*
X001970Y015574D02*
X002829Y015574D01*
X002956Y015456D02*
X001852Y015456D01*
X001733Y015337D02*
X002956Y015337D01*
X002956Y015219D02*
X002266Y015219D01*
X001980Y015219D02*
X001903Y015219D01*
X001903Y015100D02*
X001980Y015100D01*
X001980Y014982D02*
X001903Y014982D01*
X001617Y015219D02*
X001615Y015219D01*
X001584Y015100D02*
X001496Y015100D01*
X001584Y014982D02*
X001378Y014982D01*
X001259Y014863D02*
X001584Y014863D01*
X001584Y014745D02*
X001141Y014745D01*
X001022Y014626D02*
X001595Y014626D01*
X001564Y014508D02*
X000904Y014508D01*
X000826Y014389D02*
X001564Y014389D01*
X001564Y014271D02*
X000826Y014271D01*
X000826Y014152D02*
X001564Y014152D01*
X000976Y014034D02*
X000826Y014034D01*
X000826Y013915D02*
X000857Y013915D01*
X001236Y013559D02*
X002231Y013559D01*
X002158Y013486D01*
X002114Y013442D01*
X002028Y013406D01*
X001989Y013367D01*
X001933Y013404D01*
X001864Y013432D01*
X001791Y013447D01*
X001754Y013447D01*
X001754Y013069D01*
X001754Y013069D01*
X001754Y013447D01*
X001717Y013447D01*
X001643Y013432D01*
X001575Y013404D01*
X001513Y013362D01*
X001460Y013310D01*
X001419Y013248D01*
X001390Y013179D01*
X001376Y013106D01*
X001376Y013069D01*
X001754Y013069D01*
X001754Y013069D01*
X001376Y013069D01*
X001376Y013032D01*
X001390Y012958D01*
X001419Y012890D01*
X001460Y012828D01*
X001490Y012797D01*
X001111Y012797D01*
X001107Y012801D01*
X001107Y013430D01*
X001236Y013559D01*
X001119Y013441D02*
X001687Y013441D01*
X001754Y013441D02*
X001754Y013441D01*
X001820Y013441D02*
X002112Y013441D01*
X001754Y013323D02*
X001754Y013323D01*
X001754Y013204D02*
X001754Y013204D01*
X001754Y013086D02*
X001754Y013086D01*
X001473Y013323D02*
X001107Y013323D01*
X001107Y013204D02*
X001401Y013204D01*
X001376Y013086D02*
X001107Y013086D01*
X001107Y012967D02*
X001388Y012967D01*
X001446Y012849D02*
X001107Y012849D01*
X000826Y012347D02*
X000856Y012317D01*
X000952Y012278D01*
X001438Y012278D01*
X001419Y012248D01*
X001390Y012179D01*
X001376Y012106D01*
X001376Y012069D01*
X001754Y012069D01*
X001754Y011691D01*
X001791Y011691D01*
X001864Y011705D01*
X001933Y011734D01*
X001989Y011771D01*
X002028Y011731D01*
X002175Y011671D01*
X002333Y011671D01*
X002479Y011731D01*
X002504Y011756D01*
X002528Y011731D01*
X002675Y011671D01*
X002833Y011671D01*
X002979Y011731D01*
X003004Y011756D01*
X003028Y011731D01*
X003175Y011671D01*
X003333Y011671D01*
X003479Y011731D01*
X003494Y011746D01*
X003494Y011611D01*
X003533Y011515D01*
X003606Y011442D01*
X004237Y010812D01*
X003394Y010812D01*
X003292Y010710D01*
X003126Y010710D01*
X003068Y010767D01*
X002565Y010767D01*
X002459Y010662D01*
X002459Y010237D01*
X002517Y010180D01*
X002511Y010174D01*
X002490Y010137D01*
X002479Y010097D01*
X002479Y009947D01*
X002807Y009947D01*
X002807Y009929D01*
X002479Y009929D01*
X002479Y009779D01*
X002490Y009738D01*
X002511Y009702D01*
X002541Y009672D01*
X002577Y009651D01*
X002618Y009640D01*
X002807Y009640D01*
X002807Y009929D01*
X002825Y009929D01*
X002825Y009640D01*
X003014Y009640D01*
X003055Y009651D01*
X003092Y009672D01*
X003121Y009702D01*
X003143Y009738D01*
X003153Y009779D01*
X003153Y009929D01*
X002825Y009929D01*
X002825Y009947D01*
X003153Y009947D01*
X003153Y010097D01*
X003143Y010137D01*
X003121Y010174D01*
X003116Y010180D01*
X003126Y010190D01*
X003289Y010190D01*
X003289Y009888D01*
X003394Y009782D01*
X004116Y009782D01*
X004306Y009593D01*
X004350Y009575D01*
X004131Y009355D01*
X003394Y009355D01*
X003289Y009250D01*
X003289Y008948D01*
X003126Y008948D01*
X003116Y008958D01*
X003121Y008964D01*
X003143Y009000D01*
X003153Y009041D01*
X003153Y009191D01*
X002825Y009191D01*
X002825Y009209D01*
X002807Y009209D01*
X002807Y009497D01*
X002618Y009497D01*
X002577Y009487D01*
X002541Y009465D01*
X002511Y009436D01*
X002490Y009399D01*
X002479Y009359D01*
X002479Y009209D01*
X002807Y009209D01*
X002807Y009191D01*
X002479Y009191D01*
X002479Y009041D01*
X002490Y009000D01*
X002511Y008964D01*
X002517Y008958D01*
X002459Y008900D01*
X002459Y008666D01*
X000826Y010271D01*
X000826Y012347D01*
X000826Y012256D02*
X001424Y012256D01*
X001382Y012138D02*
X000826Y012138D01*
X000826Y012019D02*
X001378Y012019D01*
X001376Y012032D02*
X001390Y011958D01*
X001419Y011890D01*
X001460Y011828D01*
X001513Y011775D01*
X001575Y011734D01*
X001643Y011705D01*
X001717Y011691D01*
X001754Y011691D01*
X001754Y012069D01*
X001754Y012069D01*
X001754Y012069D01*
X001376Y012069D01*
X001376Y012032D01*
X001414Y011901D02*
X000826Y011901D01*
X000826Y011782D02*
X001506Y011782D01*
X001754Y011782D02*
X001754Y011782D01*
X001754Y011901D02*
X001754Y011901D01*
X001754Y012019D02*
X001754Y012019D01*
X002329Y012612D02*
X003207Y012612D01*
X003212Y012616D02*
X003118Y012522D01*
X003050Y012455D01*
X003031Y012407D01*
X003028Y012406D01*
X003004Y012382D01*
X002979Y012406D01*
X002833Y012467D01*
X002675Y012467D01*
X002528Y012406D01*
X002508Y012386D01*
X002474Y012466D01*
X002270Y012671D01*
X002333Y012671D01*
X002479Y012731D01*
X002504Y012756D01*
X002528Y012731D01*
X002675Y012671D01*
X002833Y012671D01*
X002979Y012731D01*
X003004Y012756D01*
X003028Y012731D01*
X003175Y012671D01*
X003333Y012671D01*
X003479Y012731D01*
X003504Y012756D01*
X003528Y012731D01*
X003675Y012671D01*
X003833Y012671D01*
X003979Y012731D01*
X004004Y012756D01*
X004028Y012731D01*
X004175Y012671D01*
X004333Y012671D01*
X004479Y012731D01*
X004504Y012756D01*
X004528Y012731D01*
X004675Y012671D01*
X004833Y012671D01*
X004979Y012731D01*
X005091Y012843D01*
X005152Y012990D01*
X005152Y013148D01*
X005091Y013294D01*
X005047Y013339D01*
X006384Y013339D01*
X006384Y013220D01*
X006419Y013136D01*
X005936Y012652D01*
X003300Y012652D01*
X003212Y012616D01*
X003089Y012493D02*
X002447Y012493D01*
X002476Y012730D02*
X002531Y012730D01*
X002976Y012730D02*
X003031Y012730D01*
X003476Y012730D02*
X003531Y012730D01*
X003348Y012413D02*
X003254Y012319D01*
X003254Y012069D01*
X003348Y012413D02*
X006035Y012413D01*
X006691Y013069D01*
X006691Y013256D01*
X006723Y013288D01*
X006384Y013323D02*
X005063Y013323D01*
X005129Y013204D02*
X006391Y013204D01*
X006369Y013086D02*
X005152Y013086D01*
X005143Y012967D02*
X006250Y012967D01*
X006132Y012849D02*
X005093Y012849D01*
X004976Y012730D02*
X006013Y012730D01*
X004531Y012730D02*
X004476Y012730D01*
X004031Y012730D02*
X003976Y012730D01*
X003494Y011664D02*
X000826Y011664D01*
X000826Y011545D02*
X003521Y011545D01*
X003622Y011427D02*
X000826Y011427D01*
X000826Y011308D02*
X003741Y011308D01*
X003859Y011190D02*
X000826Y011190D01*
X000826Y011071D02*
X003978Y011071D01*
X004096Y010953D02*
X000826Y010953D01*
X000826Y010834D02*
X004215Y010834D01*
X004594Y010455D02*
X004665Y010383D01*
X004665Y010345D01*
X004717Y010221D01*
X004812Y010126D01*
X004936Y010074D01*
X005071Y010074D01*
X005195Y010126D01*
X005291Y010221D01*
X005342Y010345D01*
X005342Y010480D01*
X005291Y010604D01*
X005195Y010699D01*
X005071Y010751D01*
X005033Y010751D01*
X004869Y010915D01*
X004918Y010915D01*
X004991Y010945D01*
X006255Y010945D01*
X006255Y010254D01*
X006275Y010234D01*
X006275Y010191D01*
X006318Y010191D01*
X006318Y010191D01*
X006318Y010191D01*
X006275Y010191D01*
X006275Y010147D01*
X006255Y010127D01*
X006255Y010037D01*
X004594Y010037D01*
X004594Y010455D01*
X004594Y010360D02*
X004665Y010360D01*
X004708Y010242D02*
X004594Y010242D01*
X004594Y010123D02*
X004818Y010123D01*
X005189Y010123D02*
X006255Y010123D01*
X006267Y010242D02*
X005299Y010242D01*
X005342Y010360D02*
X006255Y010360D01*
X006255Y010479D02*
X005342Y010479D01*
X005294Y010597D02*
X006255Y010597D01*
X006255Y010716D02*
X005157Y010716D01*
X004950Y010834D02*
X006255Y010834D01*
X007088Y010446D02*
X007155Y010418D01*
X007290Y010418D01*
X007414Y010469D01*
X007509Y010565D01*
X007561Y010689D01*
X007561Y010769D01*
X008181Y011389D01*
X008181Y011444D01*
X008187Y011438D01*
X008311Y011387D01*
X008392Y011387D01*
X008502Y011276D01*
X009318Y011276D01*
X009452Y011411D01*
X010149Y012108D01*
X010149Y012129D01*
X010368Y011911D01*
X010502Y011776D01*
X010728Y011776D01*
X010728Y011726D01*
X009779Y010777D01*
X007956Y010777D01*
X007868Y010741D01*
X007800Y010673D01*
X007361Y010234D01*
X007068Y010234D01*
X007088Y010254D01*
X007088Y010446D01*
X007088Y010360D02*
X007487Y010360D01*
X007423Y010479D02*
X007605Y010479D01*
X007523Y010597D02*
X007724Y010597D01*
X007842Y010716D02*
X007561Y010716D01*
X007626Y010834D02*
X009836Y010834D01*
X009954Y010953D02*
X007744Y010953D01*
X007863Y011071D02*
X010073Y011071D01*
X010191Y011190D02*
X007981Y011190D01*
X008100Y011308D02*
X008470Y011308D01*
X008215Y011427D02*
X008181Y011427D01*
X008691Y012069D02*
X008935Y012313D01*
X008935Y012651D01*
X008738Y012651D02*
X008738Y013178D01*
X008879Y013319D01*
X009132Y013041D02*
X009254Y013163D01*
X009132Y013041D02*
X009132Y012651D01*
X009329Y012651D02*
X009329Y012113D01*
X009035Y011819D01*
X009468Y011427D02*
X010428Y011427D01*
X010547Y011545D02*
X009587Y011545D01*
X009705Y011664D02*
X010665Y011664D01*
X010496Y011782D02*
X009824Y011782D01*
X009942Y011901D02*
X010378Y011901D01*
X010259Y012019D02*
X010061Y012019D01*
X010310Y011308D02*
X009350Y011308D01*
X009879Y010538D02*
X011066Y011725D01*
X011405Y011776D02*
X012167Y011776D01*
X011986Y011595D01*
X011905Y011595D01*
X011781Y011543D01*
X011686Y011448D01*
X011634Y011324D01*
X011634Y011189D01*
X011686Y011065D01*
X011781Y010969D01*
X011849Y010941D01*
X011409Y010501D01*
X011343Y010501D01*
X011218Y010449D01*
X011123Y010354D01*
X011072Y010230D01*
X011072Y010095D01*
X011096Y010037D01*
X008748Y010037D01*
X008748Y010074D01*
X008697Y010198D01*
X008602Y010293D01*
X008591Y010298D01*
X009926Y010298D01*
X010015Y010334D01*
X011067Y011387D01*
X011134Y011387D01*
X011258Y011438D01*
X011353Y011533D01*
X011405Y011658D01*
X011405Y011776D01*
X011405Y011664D02*
X012055Y011664D01*
X011785Y011545D02*
X011358Y011545D01*
X011230Y011427D02*
X011677Y011427D01*
X011634Y011308D02*
X010989Y011308D01*
X010870Y011190D02*
X011634Y011190D01*
X011683Y011071D02*
X010752Y011071D01*
X010633Y010953D02*
X011821Y010953D01*
X011742Y010834D02*
X010515Y010834D01*
X010396Y010716D02*
X011624Y010716D01*
X011505Y010597D02*
X010278Y010597D01*
X010159Y010479D02*
X011289Y010479D01*
X011129Y010360D02*
X010041Y010360D01*
X009879Y010538D02*
X008004Y010538D01*
X007460Y009994D01*
X007316Y009994D01*
X007316Y009569D01*
X007088Y009319D02*
X007125Y009282D01*
X007249Y009230D01*
X007384Y009230D01*
X007508Y009282D01*
X007603Y009377D01*
X007655Y009501D01*
X007655Y009636D01*
X007603Y009760D01*
X007580Y009784D01*
X007596Y009790D01*
X008103Y010298D01*
X008229Y010298D01*
X008218Y010293D01*
X008123Y010198D01*
X008072Y010074D01*
X008072Y009939D01*
X008089Y009898D01*
X008062Y009887D01*
X007967Y009792D01*
X007915Y009667D01*
X007915Y009533D01*
X007967Y009408D01*
X008062Y009313D01*
X008186Y009262D01*
X008321Y009262D01*
X008445Y009313D01*
X008492Y009360D01*
X011733Y009360D01*
X011733Y007469D01*
X011728Y007479D01*
X011633Y007574D01*
X011509Y007626D01*
X011374Y007626D01*
X011250Y007574D01*
X011154Y007479D01*
X011103Y007355D01*
X011103Y007247D01*
X010998Y007351D01*
X010998Y007449D01*
X010947Y007573D01*
X010852Y007668D01*
X010727Y007720D01*
X010593Y007720D01*
X010468Y007668D01*
X010373Y007573D01*
X010363Y007549D01*
X010301Y007611D01*
X010233Y007678D01*
X010145Y007715D01*
X009166Y007715D01*
X008671Y008210D01*
X008583Y008246D01*
X008274Y008246D01*
X008227Y008293D01*
X008102Y008345D01*
X007968Y008345D01*
X007843Y008293D01*
X007748Y008198D01*
X007697Y008074D01*
X007697Y007939D01*
X007748Y007815D01*
X007795Y007767D01*
X007443Y007767D01*
X007296Y007914D01*
X007162Y008049D01*
X007088Y008049D01*
X007088Y008159D01*
X007068Y008179D01*
X007068Y008222D01*
X007024Y008222D01*
X007024Y008222D01*
X007024Y008222D01*
X007068Y008222D01*
X007068Y008265D01*
X007088Y008285D01*
X007088Y009319D01*
X007088Y009294D02*
X007113Y009294D01*
X007088Y009175D02*
X011733Y009175D01*
X011733Y009057D02*
X007088Y009057D01*
X007088Y008938D02*
X011733Y008938D01*
X011733Y008820D02*
X007088Y008820D01*
X007088Y008701D02*
X011733Y008701D01*
X011733Y008583D02*
X007088Y008583D01*
X007088Y008464D02*
X011733Y008464D01*
X011733Y008346D02*
X007088Y008346D01*
X007068Y008227D02*
X007777Y008227D01*
X007711Y008109D02*
X007088Y008109D01*
X007220Y007990D02*
X007697Y007990D01*
X007724Y007872D02*
X007339Y007872D01*
X007088Y007472D02*
X007252Y007308D01*
X007336Y007308D01*
X007336Y007036D01*
X007407Y006965D01*
X007227Y006965D01*
X007121Y006860D01*
X007121Y006775D01*
X007067Y006752D01*
X006186Y005871D01*
X005903Y005871D01*
X005905Y005876D01*
X005905Y006011D01*
X005890Y006048D01*
X006051Y006048D01*
X006140Y006084D01*
X006207Y006152D01*
X006875Y006819D01*
X006911Y006907D01*
X006911Y006999D01*
X006982Y006999D01*
X007088Y007104D01*
X007088Y007472D01*
X007088Y007398D02*
X007162Y007398D01*
X007088Y007279D02*
X007336Y007279D01*
X007223Y007256D02*
X007379Y007100D01*
X007379Y007006D01*
X007336Y007042D02*
X007025Y007042D01*
X007088Y007161D02*
X007336Y007161D01*
X007185Y006924D02*
X006911Y006924D01*
X006861Y006805D02*
X007121Y006805D01*
X007001Y006687D02*
X006742Y006687D01*
X006624Y006568D02*
X006882Y006568D01*
X006764Y006450D02*
X006505Y006450D01*
X006387Y006331D02*
X006645Y006331D01*
X006527Y006213D02*
X006268Y006213D01*
X006150Y006094D02*
X006408Y006094D01*
X006290Y005976D02*
X005905Y005976D01*
X006004Y006288D02*
X004098Y006288D01*
X003941Y006131D01*
X004160Y005944D02*
X004035Y005819D01*
X003691Y005819D01*
X003473Y006038D01*
X003254Y005631D02*
X003410Y005475D01*
X003691Y005475D01*
X003848Y005631D01*
X006285Y005631D01*
X007203Y006549D01*
X007360Y006549D01*
X007557Y006549D02*
X007557Y006247D01*
X007410Y006100D01*
X007160Y006100D01*
X006879Y005756D01*
X006850Y005857D02*
X007023Y005857D01*
X007009Y005824D02*
X007009Y005689D01*
X007015Y005674D01*
X006667Y005674D01*
X007176Y006183D01*
X007227Y006133D01*
X007384Y006133D01*
X007347Y006095D01*
X007280Y006095D01*
X007156Y006043D01*
X007061Y005948D01*
X007009Y005824D01*
X007009Y005739D02*
X006732Y005739D01*
X006969Y005976D02*
X007088Y005976D01*
X007087Y006094D02*
X007279Y006094D01*
X007348Y005756D02*
X007754Y006163D01*
X007754Y006549D01*
X007951Y006549D02*
X007951Y007153D01*
X007848Y007256D01*
X008254Y007350D02*
X008345Y007259D01*
X008345Y006549D01*
X008148Y006549D02*
X008148Y006088D01*
X007879Y005819D01*
X006671Y006955D02*
X006004Y006288D01*
X005973Y006569D02*
X003504Y006569D01*
X002723Y005788D01*
X002460Y005788D01*
X002473Y006288D02*
X002460Y006288D01*
X002473Y006288D02*
X002660Y006475D01*
X003066Y006475D01*
X003410Y006819D01*
X005848Y006819D01*
X005973Y006944D01*
X005973Y007538D01*
X006066Y007631D01*
X006671Y007631D01*
X006671Y007435D02*
X006307Y007435D01*
X006223Y007350D01*
X006223Y006819D01*
X005973Y006569D01*
X005629Y007131D02*
X005363Y007397D01*
X005141Y007175D01*
X005363Y007397D02*
X005795Y007828D01*
X006295Y007828D01*
X006035Y008413D02*
X006041Y008419D01*
X006671Y008419D01*
X006671Y009403D02*
X006338Y009403D01*
X006671Y009600D02*
X005982Y009600D01*
X006671Y009797D02*
X004441Y009797D01*
X003941Y010297D01*
X003789Y010450D01*
X003298Y010716D02*
X003120Y010716D01*
X003146Y010123D02*
X003289Y010123D01*
X003289Y010005D02*
X003153Y010005D01*
X003153Y009886D02*
X003291Y009886D01*
X003150Y009768D02*
X004131Y009768D01*
X004250Y009649D02*
X003048Y009649D01*
X003014Y009497D02*
X002825Y009497D01*
X002825Y009209D01*
X003153Y009209D01*
X003153Y009359D01*
X003143Y009399D01*
X003121Y009436D01*
X003092Y009465D01*
X003055Y009487D01*
X003014Y009497D01*
X003135Y009412D02*
X004188Y009412D01*
X004306Y009531D02*
X001580Y009531D01*
X001459Y009649D02*
X002585Y009649D01*
X002482Y009768D02*
X001339Y009768D01*
X001218Y009886D02*
X002479Y009886D01*
X002479Y010005D02*
X001098Y010005D01*
X000977Y010123D02*
X002486Y010123D01*
X002459Y010242D02*
X000857Y010242D01*
X000826Y010360D02*
X002459Y010360D01*
X002459Y010479D02*
X000826Y010479D01*
X000826Y010597D02*
X002459Y010597D01*
X002513Y010716D02*
X000826Y010716D01*
X000340Y010029D02*
X000346Y010015D01*
X000347Y010014D01*
X000347Y010013D01*
X000383Y009978D01*
X000419Y009942D01*
X000420Y009942D01*
X002258Y008134D01*
X002294Y008098D01*
X002295Y008098D01*
X002296Y008097D01*
X002343Y008078D01*
X002390Y008059D01*
X002391Y008059D01*
X002392Y008058D01*
X002442Y008059D01*
X002709Y008059D01*
X002709Y007942D01*
X003028Y007942D01*
X003028Y007865D01*
X002709Y007865D01*
X002709Y007666D01*
X002720Y007625D01*
X002741Y007589D01*
X002747Y007583D01*
X002689Y007525D01*
X002689Y007247D01*
X002521Y007079D01*
X001202Y007079D01*
X001106Y007039D01*
X000606Y006539D01*
X000533Y006466D01*
X000494Y006370D01*
X000494Y005923D01*
X000533Y005828D01*
X000721Y005640D01*
X000794Y005567D01*
X000890Y005528D01*
X001137Y005528D01*
X001122Y005513D01*
X001062Y005367D01*
X001062Y005208D01*
X001122Y005062D01*
X001147Y005038D01*
X001122Y005013D01*
X001062Y004867D01*
X001062Y004708D01*
X001122Y004562D01*
X001147Y004538D01*
X001122Y004513D01*
X001062Y004367D01*
X001062Y004208D01*
X001122Y004062D01*
X001147Y004038D01*
X001122Y004013D01*
X001062Y003867D01*
X001062Y003708D01*
X001122Y003562D01*
X001147Y003538D01*
X001122Y003513D01*
X001062Y003367D01*
X001062Y003208D01*
X001122Y003062D01*
X001147Y003038D01*
X001122Y003013D01*
X000340Y003013D01*
X000340Y002895D02*
X001073Y002895D01*
X001062Y002867D02*
X001062Y002708D01*
X001122Y002562D01*
X001234Y002450D01*
X001381Y002389D01*
X001539Y002389D01*
X001686Y002450D01*
X001741Y002506D01*
X002096Y002151D01*
X002974Y002151D01*
X003031Y002094D01*
X003155Y002043D01*
X003290Y002043D01*
X003414Y002094D01*
X003509Y002190D01*
X003561Y002314D01*
X003561Y002449D01*
X003542Y002494D01*
X003633Y002532D01*
X003690Y002589D01*
X003690Y002535D01*
X004017Y002535D01*
X004017Y002535D01*
X003690Y002535D01*
X003690Y002435D01*
X003698Y002407D01*
X003690Y002378D01*
X003690Y002279D01*
X004017Y002279D01*
X004017Y002279D01*
X003690Y002279D01*
X003690Y002179D01*
X003701Y002138D01*
X003722Y002102D01*
X003752Y002072D01*
X003788Y002051D01*
X003829Y002040D01*
X004017Y002040D01*
X004017Y002279D01*
X004017Y002279D01*
X004017Y002040D01*
X004162Y002040D01*
X004162Y001895D01*
X004398Y001895D01*
X004398Y001895D01*
X004162Y001895D01*
X004162Y001706D01*
X004173Y001666D01*
X004194Y001629D01*
X004211Y001612D01*
X004211Y001130D01*
X004317Y001024D01*
X004741Y001024D01*
X004799Y001082D01*
X004805Y001076D01*
X004841Y001055D01*
X004882Y001044D01*
X005032Y001044D01*
X005032Y001372D01*
X005050Y001372D01*
X005050Y001044D01*
X005200Y001044D01*
X005240Y001055D01*
X005277Y001076D01*
X005293Y001092D01*
X005293Y000813D01*
X004006Y000813D01*
X004006Y001056D01*
X003948Y001114D01*
X003954Y001120D01*
X003975Y001156D01*
X003986Y001197D01*
X003986Y001396D01*
X003667Y001396D01*
X003667Y001473D01*
X003590Y001473D01*
X003590Y001396D01*
X003272Y001396D01*
X003272Y001197D01*
X003283Y001156D01*
X003304Y001120D01*
X003310Y001114D01*
X003252Y001056D01*
X003252Y000474D01*
X003259Y000467D01*
X000340Y000467D01*
X000340Y010029D01*
X000340Y010005D02*
X000356Y010005D01*
X000340Y009886D02*
X000477Y009886D01*
X000597Y009768D02*
X000340Y009768D01*
X000340Y009649D02*
X000718Y009649D01*
X000838Y009531D02*
X000340Y009531D01*
X000340Y009412D02*
X000959Y009412D01*
X001079Y009294D02*
X000340Y009294D01*
X000340Y009175D02*
X001200Y009175D01*
X001320Y009057D02*
X000340Y009057D01*
X000340Y008938D02*
X001441Y008938D01*
X001561Y008820D02*
X000340Y008820D01*
X000340Y008701D02*
X001682Y008701D01*
X001802Y008583D02*
X000340Y008583D01*
X000340Y008464D02*
X001923Y008464D01*
X002043Y008346D02*
X000340Y008346D01*
X000340Y008227D02*
X002164Y008227D01*
X002284Y008109D02*
X000340Y008109D01*
X000340Y007990D02*
X002709Y007990D01*
X002709Y007753D02*
X000340Y007753D01*
X000340Y007635D02*
X002718Y007635D01*
X002689Y007516D02*
X000340Y007516D01*
X000340Y007398D02*
X002689Y007398D01*
X002689Y007279D02*
X000340Y007279D01*
X000340Y007161D02*
X002603Y007161D01*
X003044Y007234D02*
X003066Y007234D01*
X003028Y007872D02*
X000340Y007872D01*
X000340Y007042D02*
X001113Y007042D01*
X000991Y006924D02*
X000340Y006924D01*
X000340Y006805D02*
X000872Y006805D01*
X000754Y006687D02*
X000340Y006687D01*
X000340Y006568D02*
X000635Y006568D01*
X000606Y006539D02*
X000606Y006539D01*
X000526Y006450D02*
X000340Y006450D01*
X000340Y006331D02*
X000494Y006331D01*
X000494Y006213D02*
X000340Y006213D01*
X000340Y006094D02*
X000494Y006094D01*
X000494Y005976D02*
X000340Y005976D01*
X000340Y005857D02*
X000521Y005857D01*
X000623Y005739D02*
X000340Y005739D01*
X000340Y005620D02*
X000741Y005620D01*
X001118Y005502D02*
X000340Y005502D01*
X000340Y005383D02*
X001069Y005383D01*
X001062Y005265D02*
X000340Y005265D01*
X000340Y005146D02*
X001088Y005146D01*
X001137Y005028D02*
X000340Y005028D01*
X000340Y004909D02*
X001079Y004909D01*
X001062Y004791D02*
X000340Y004791D01*
X000340Y004672D02*
X001077Y004672D01*
X001131Y004554D02*
X000340Y004554D01*
X000340Y004435D02*
X001090Y004435D01*
X001062Y004317D02*
X000340Y004317D01*
X000340Y004198D02*
X001066Y004198D01*
X001115Y004080D02*
X000340Y004080D01*
X000340Y003961D02*
X001101Y003961D01*
X001062Y003843D02*
X000340Y003843D01*
X000340Y003724D02*
X001062Y003724D01*
X001104Y003606D02*
X000340Y003606D01*
X000340Y003487D02*
X001112Y003487D01*
X001063Y003369D02*
X000340Y003369D01*
X000340Y003250D02*
X001062Y003250D01*
X001094Y003132D02*
X000340Y003132D01*
X000340Y002776D02*
X001062Y002776D01*
X001062Y002867D02*
X001122Y003013D01*
X001083Y002658D02*
X000340Y002658D01*
X000340Y002539D02*
X001145Y002539D01*
X001306Y002421D02*
X000340Y002421D01*
X000340Y002302D02*
X001945Y002302D01*
X001827Y002421D02*
X001614Y002421D01*
X001305Y002019D02*
X001015Y002019D01*
X000746Y001907D01*
X000540Y001702D01*
X000429Y001433D01*
X000429Y001142D01*
X000540Y000873D01*
X000746Y000668D01*
X001015Y000556D01*
X001305Y000556D01*
X001574Y000668D01*
X001780Y000873D01*
X001891Y001142D01*
X001891Y001433D01*
X001780Y001702D01*
X001574Y001907D01*
X001305Y002019D01*
X001480Y001947D02*
X004162Y001947D01*
X004162Y001828D02*
X001654Y001828D01*
X001772Y001710D02*
X003282Y001710D01*
X003283Y001713D02*
X003272Y001672D01*
X003272Y001473D01*
X003590Y001473D01*
X003590Y001811D01*
X003411Y001811D01*
X003370Y001800D01*
X003334Y001779D01*
X003304Y001749D01*
X003283Y001713D01*
X003272Y001591D02*
X001826Y001591D01*
X001875Y001473D02*
X003590Y001473D01*
X003667Y001473D02*
X003667Y001811D01*
X003847Y001811D01*
X003887Y001800D01*
X003924Y001779D01*
X003954Y001749D01*
X003975Y001713D01*
X003986Y001672D01*
X003986Y001473D01*
X003667Y001473D01*
X004211Y001473D01*
X004211Y001591D02*
X003986Y001591D01*
X003976Y001710D02*
X004162Y001710D01*
X004211Y001354D02*
X003986Y001354D01*
X003986Y001236D02*
X004211Y001236D01*
X004224Y001117D02*
X003951Y001117D01*
X004006Y000999D02*
X005293Y000999D01*
X005293Y000880D02*
X004006Y000880D01*
X004529Y001381D02*
X004657Y001509D01*
X004657Y001895D01*
X005032Y001354D02*
X005050Y001354D01*
X005050Y001236D02*
X005032Y001236D01*
X005032Y001117D02*
X005050Y001117D01*
X005813Y001117D02*
X007068Y001117D01*
X007068Y001138D02*
X007068Y001062D01*
X006730Y001062D01*
X006730Y000882D01*
X006741Y000841D01*
X006762Y000805D01*
X006792Y000775D01*
X006807Y000766D01*
X005986Y000766D01*
X005979Y000774D01*
X005813Y000940D01*
X005813Y001452D01*
X005837Y001428D01*
X005925Y001391D01*
X006381Y001391D01*
X006468Y001355D01*
X006602Y001355D01*
X006652Y001376D01*
X006690Y001339D01*
X006736Y001339D01*
X006730Y001318D01*
X006730Y001138D01*
X007068Y001138D01*
X006730Y001236D02*
X005813Y001236D01*
X005813Y001354D02*
X006674Y001354D01*
X006473Y001631D02*
X006535Y001694D01*
X006473Y001631D02*
X005973Y001631D01*
X005848Y001756D01*
X005848Y002131D01*
X006004Y002288D01*
X006004Y002444D01*
X005910Y002538D01*
X005556Y002538D01*
X005553Y002535D01*
X006004Y002444D02*
X006160Y002444D01*
X006952Y002486D02*
X006952Y003138D01*
X007033Y003058D01*
X007280Y002811D01*
X007331Y002811D01*
X007331Y002726D01*
X007331Y002607D01*
X007341Y002569D01*
X007331Y002531D01*
X007331Y002428D01*
X007251Y002428D01*
X007193Y002486D01*
X006952Y002486D01*
X006952Y002539D02*
X007333Y002539D01*
X007331Y002658D02*
X006952Y002658D01*
X006952Y002776D02*
X007331Y002776D01*
X007331Y002726D02*
X007688Y002726D01*
X007688Y002726D01*
X008044Y002726D01*
X008044Y002607D01*
X008034Y002569D01*
X008044Y002531D01*
X008044Y002411D01*
X007688Y002411D01*
X007688Y002411D01*
X008044Y002411D01*
X008044Y002292D01*
X008044Y002290D01*
X008064Y002269D01*
X008064Y002119D01*
X008256Y002119D01*
X008256Y003039D01*
X008160Y003039D01*
X008160Y003435D01*
X008160Y003435D01*
X008160Y003039D01*
X008064Y003039D01*
X008064Y002868D01*
X008044Y002848D01*
X008044Y002846D01*
X008044Y002726D01*
X007688Y002726D01*
X007331Y002726D01*
X007196Y002895D02*
X006952Y002895D01*
X006952Y003013D02*
X007078Y003013D01*
X006959Y003132D02*
X006952Y003132D01*
X007688Y002726D02*
X007688Y002726D01*
X008044Y002776D02*
X008256Y002776D01*
X008256Y002658D02*
X008044Y002658D01*
X008042Y002539D02*
X008256Y002539D01*
X008256Y002421D02*
X008044Y002421D01*
X008044Y002302D02*
X008256Y002302D01*
X008256Y002184D02*
X008064Y002184D01*
X008160Y001703D02*
X008554Y001703D01*
X008632Y001781D01*
X008662Y002381D02*
X008694Y002413D01*
X009504Y002413D01*
X010217Y002413D01*
X010248Y002381D01*
X009840Y001828D02*
X009795Y001828D01*
X009795Y001866D02*
X009801Y001866D01*
X009930Y001738D01*
X009930Y001536D01*
X009988Y001478D01*
X009988Y001367D01*
X010027Y001271D01*
X010040Y001258D01*
X010040Y001220D01*
X010092Y001096D01*
X010187Y001001D01*
X010311Y000949D01*
X010446Y000949D01*
X010500Y000971D01*
X010500Y000869D01*
X009314Y000869D01*
X009322Y000877D01*
X009373Y001001D01*
X009373Y001039D01*
X009682Y001348D01*
X009755Y001421D01*
X009795Y001517D01*
X009795Y001866D01*
X009795Y001710D02*
X009930Y001710D01*
X009930Y001591D02*
X009795Y001591D01*
X009777Y001473D02*
X009988Y001473D01*
X009993Y001354D02*
X009688Y001354D01*
X009569Y001236D02*
X010040Y001236D01*
X010083Y001117D02*
X009451Y001117D01*
X009372Y000999D02*
X010192Y000999D01*
X010500Y000880D02*
X009323Y000880D01*
X008629Y000569D02*
X008566Y000506D01*
X006731Y000880D02*
X005873Y000880D01*
X005813Y000999D02*
X006730Y000999D01*
X008064Y002895D02*
X008256Y002895D01*
X008256Y003013D02*
X008064Y003013D01*
X008160Y003132D02*
X008160Y003132D01*
X008160Y003250D02*
X008160Y003250D01*
X008160Y003369D02*
X008160Y003369D01*
X009327Y003974D02*
X009327Y004223D01*
X009818Y004714D01*
X009952Y004848D01*
X009952Y005044D01*
X010030Y005012D01*
X010165Y005012D01*
X010180Y005018D01*
X010180Y004664D01*
X010111Y004595D01*
X010030Y004595D01*
X009906Y004543D01*
X009811Y004448D01*
X009759Y004324D01*
X009759Y004189D01*
X009811Y004065D01*
X009906Y003969D01*
X010030Y003918D01*
X010165Y003918D01*
X010289Y003969D01*
X010384Y004065D01*
X010436Y004189D01*
X010436Y004269D01*
X010477Y004310D01*
X010477Y004208D01*
X010611Y004073D01*
X010836Y003848D01*
X010836Y003070D01*
X010722Y002956D01*
X009987Y002956D01*
X009997Y002966D01*
X010030Y002957D01*
X010247Y002957D01*
X010247Y003352D01*
X010367Y003352D01*
X010367Y002957D01*
X010584Y002957D01*
X010625Y002968D01*
X010661Y002989D01*
X010691Y003019D01*
X010712Y003055D01*
X010723Y003096D01*
X010723Y003353D01*
X010367Y003353D01*
X010367Y003472D01*
X010723Y003472D01*
X010723Y003729D01*
X010712Y003770D01*
X010691Y003806D01*
X010661Y003836D01*
X010625Y003857D01*
X010584Y003868D01*
X010367Y003868D01*
X010367Y003473D01*
X010247Y003473D01*
X010247Y003868D01*
X010030Y003868D01*
X009997Y003859D01*
X009968Y003888D01*
X009396Y003888D01*
X009384Y003917D01*
X009327Y003974D01*
X009340Y003961D02*
X009926Y003961D01*
X009804Y004080D02*
X009327Y004080D01*
X009327Y004198D02*
X009759Y004198D01*
X009759Y004317D02*
X009421Y004317D01*
X009539Y004435D02*
X009805Y004435D01*
X009931Y004554D02*
X009658Y004554D01*
X009776Y004672D02*
X010180Y004672D01*
X010180Y004791D02*
X009895Y004791D01*
X009952Y004909D02*
X010180Y004909D01*
X009992Y005028D02*
X009952Y005028D01*
X010436Y004198D02*
X010487Y004198D01*
X010391Y004080D02*
X010605Y004080D01*
X010724Y003961D02*
X010269Y003961D01*
X010247Y003843D02*
X010367Y003843D01*
X010367Y003724D02*
X010247Y003724D01*
X010247Y003606D02*
X010367Y003606D01*
X010367Y003487D02*
X010247Y003487D01*
X010247Y003472D02*
X010074Y003472D01*
X010074Y003353D01*
X010247Y003353D01*
X010247Y003472D01*
X010247Y003369D02*
X010074Y003369D01*
X010247Y003250D02*
X010367Y003250D01*
X010367Y003132D02*
X010247Y003132D01*
X010247Y003013D02*
X010367Y003013D01*
X010367Y003369D02*
X010836Y003369D01*
X010836Y003487D02*
X010723Y003487D01*
X010723Y003606D02*
X010836Y003606D01*
X010836Y003724D02*
X010723Y003724D01*
X010650Y003843D02*
X010836Y003843D01*
X011296Y003745D02*
X011296Y003355D01*
X011319Y003368D01*
X011360Y003379D01*
X011549Y003379D01*
X011549Y003140D01*
X011549Y003140D01*
X011876Y003140D01*
X011876Y003040D01*
X011868Y003012D01*
X011876Y002984D01*
X011876Y002884D01*
X011549Y002884D01*
X011549Y002884D01*
X011876Y002884D01*
X011876Y002784D01*
X011868Y002756D01*
X011876Y002728D01*
X011876Y002628D01*
X011549Y002628D01*
X011549Y002628D01*
X011876Y002628D01*
X011876Y002528D01*
X011868Y002500D01*
X011876Y002472D01*
X011876Y002372D01*
X011549Y002372D01*
X011549Y002372D01*
X011549Y002134D01*
X011694Y002134D01*
X011694Y001989D01*
X011930Y001989D01*
X011930Y001989D01*
X011694Y001989D01*
X011694Y001800D01*
X011705Y001759D01*
X011726Y001723D01*
X011755Y001693D01*
X011792Y001672D01*
X011833Y001661D01*
X011932Y001661D01*
X011932Y001744D01*
X011932Y001744D01*
X011932Y001661D01*
X011948Y001661D01*
X011948Y001424D01*
X011985Y001336D01*
X011993Y001328D01*
X011993Y001098D01*
X012098Y000993D01*
X012523Y000993D01*
X012580Y001051D01*
X012586Y001045D01*
X012623Y001024D01*
X012663Y001013D01*
X012813Y001013D01*
X012813Y001341D01*
X012831Y001341D01*
X012831Y001013D01*
X012981Y001013D01*
X013022Y001024D01*
X013058Y001045D01*
X013088Y001075D01*
X013109Y001111D01*
X013120Y001152D01*
X013120Y001341D01*
X012831Y001341D01*
X012831Y001359D01*
X013120Y001359D01*
X013120Y001548D01*
X013109Y001589D01*
X013088Y001625D01*
X013058Y001655D01*
X013022Y001676D01*
X012981Y001687D01*
X012899Y001687D01*
X012959Y001747D01*
X012959Y001908D01*
X013051Y002000D01*
X013178Y001874D01*
X013178Y001644D01*
X013236Y001586D01*
X013230Y001580D01*
X013209Y001544D01*
X013198Y001503D01*
X013198Y001353D01*
X013526Y001353D01*
X013526Y001335D01*
X013544Y001335D01*
X013544Y001046D01*
X013682Y001046D01*
X013504Y000869D01*
X011020Y000869D01*
X011020Y001478D01*
X011077Y001536D01*
X011077Y002039D01*
X011032Y002084D01*
X011077Y002130D01*
X011077Y002633D01*
X011063Y002647D01*
X011162Y002745D01*
X011221Y002805D01*
X011221Y002784D01*
X011229Y002756D01*
X011221Y002728D01*
X011221Y002628D01*
X011221Y002528D01*
X011229Y002500D01*
X011221Y002472D01*
X011221Y002372D01*
X011221Y002273D01*
X011232Y002232D01*
X011253Y002195D01*
X011283Y002166D01*
X011319Y002145D01*
X011360Y002134D01*
X011549Y002134D01*
X011549Y002372D01*
X011549Y002372D01*
X011876Y002372D01*
X011876Y002316D01*
X011932Y002316D01*
X011932Y002233D01*
X011932Y002233D01*
X011932Y002316D01*
X012015Y002316D01*
X012035Y002336D01*
X012291Y002336D01*
X012547Y002336D01*
X012708Y002336D01*
X012737Y002364D01*
X012737Y003177D01*
X012035Y003177D01*
X012015Y003197D01*
X011932Y003197D01*
X011932Y003279D01*
X011932Y003279D01*
X011932Y003197D01*
X011876Y003197D01*
X011876Y003140D01*
X011549Y003140D01*
X011549Y003140D01*
X011549Y003379D01*
X011694Y003379D01*
X011694Y003524D01*
X011930Y003524D01*
X011930Y003524D01*
X011694Y003524D01*
X011694Y003712D01*
X011702Y003745D01*
X011296Y003745D01*
X011296Y003724D02*
X011697Y003724D01*
X011694Y003606D02*
X011296Y003606D01*
X011296Y003487D02*
X011694Y003487D01*
X011549Y003369D02*
X011549Y003369D01*
X011549Y003250D02*
X011549Y003250D01*
X011322Y003369D02*
X011296Y003369D01*
X010836Y003250D02*
X010723Y003250D01*
X010723Y003132D02*
X010836Y003132D01*
X010779Y003013D02*
X010685Y003013D01*
X011074Y002658D02*
X011221Y002658D01*
X011221Y002628D02*
X011549Y002628D01*
X011221Y002628D01*
X011221Y002539D02*
X011077Y002539D01*
X011077Y002421D02*
X011221Y002421D01*
X011221Y002372D02*
X011549Y002372D01*
X011221Y002372D01*
X011221Y002302D02*
X011077Y002302D01*
X011077Y002184D02*
X011265Y002184D01*
X011052Y002065D02*
X011694Y002065D01*
X011694Y001947D02*
X011077Y001947D01*
X011077Y001828D02*
X011694Y001828D01*
X011739Y001710D02*
X011077Y001710D01*
X011077Y001591D02*
X011948Y001591D01*
X011948Y001473D02*
X011020Y001473D01*
X011020Y001354D02*
X011977Y001354D01*
X011993Y001236D02*
X011020Y001236D01*
X011020Y001117D02*
X011993Y001117D01*
X012092Y000999D02*
X011020Y000999D01*
X011020Y000880D02*
X013516Y000880D01*
X013526Y001046D02*
X013337Y001046D01*
X013296Y001057D01*
X013260Y001078D01*
X013230Y001108D01*
X013209Y001145D01*
X013198Y001185D01*
X013198Y001335D01*
X013526Y001335D01*
X013526Y001046D01*
X013526Y001117D02*
X013544Y001117D01*
X013544Y001236D02*
X013526Y001236D01*
X013634Y000999D02*
X012528Y000999D01*
X012813Y001117D02*
X012831Y001117D01*
X012831Y001236D02*
X012813Y001236D01*
X012831Y001354D02*
X013198Y001354D01*
X013198Y001236D02*
X013120Y001236D01*
X013111Y001117D02*
X013225Y001117D01*
X013198Y001473D02*
X013120Y001473D01*
X013108Y001591D02*
X013230Y001591D01*
X013178Y001710D02*
X012922Y001710D01*
X012959Y001828D02*
X013178Y001828D01*
X013105Y001947D02*
X012997Y001947D01*
X012700Y001989D02*
X013084Y002372D01*
X013084Y002307D01*
X013535Y001856D01*
X013084Y002372D02*
X014231Y002372D01*
X014553Y002694D01*
X014919Y002694D01*
X015355Y002658D02*
X015528Y002658D01*
X015528Y002634D02*
X015355Y002634D01*
X015355Y002754D01*
X015528Y002754D01*
X015528Y002634D01*
X015648Y002634D01*
X015648Y002238D01*
X015713Y002238D01*
X015697Y002199D01*
X015697Y002153D01*
X015658Y002153D01*
X015519Y002096D01*
X015413Y001990D01*
X015401Y001961D01*
X015219Y001961D01*
X015219Y002218D01*
X015250Y002218D01*
X015278Y002247D01*
X015311Y002238D01*
X015528Y002238D01*
X015528Y002634D01*
X015528Y002539D02*
X015648Y002539D01*
X015648Y002634D02*
X015648Y002754D01*
X015528Y002754D01*
X015528Y003149D01*
X015311Y003149D01*
X015278Y003140D01*
X015250Y003169D01*
X015219Y003169D01*
X015219Y003182D01*
X015173Y003292D01*
X015089Y003376D01*
X015058Y003407D01*
X015133Y003438D01*
X015228Y003533D01*
X015280Y003658D01*
X015280Y003766D01*
X015384Y003662D01*
X015384Y003595D01*
X015436Y003471D01*
X015531Y003376D01*
X015655Y003324D01*
X015697Y003324D01*
X015697Y003283D01*
X015748Y003158D01*
X015757Y003149D01*
X015648Y003149D01*
X015648Y002754D01*
X016004Y002754D01*
X016004Y003010D01*
X016004Y003012D01*
X016102Y003012D01*
X016227Y003063D01*
X016261Y003097D01*
X016367Y002991D01*
X016343Y002981D01*
X016248Y002885D01*
X016197Y002761D01*
X016197Y002626D01*
X016248Y002502D01*
X016343Y002407D01*
X016322Y002355D01*
X016322Y002323D01*
X016227Y002418D01*
X016102Y002470D01*
X016004Y002470D01*
X016004Y002634D01*
X015648Y002634D01*
X015648Y002658D02*
X016197Y002658D01*
X016203Y002776D02*
X016004Y002776D01*
X016004Y002895D02*
X016257Y002895D01*
X016345Y003013D02*
X016106Y003013D01*
X016035Y003350D02*
X016348Y003350D01*
X016816Y002881D01*
X017598Y002881D01*
X017879Y003163D01*
X017879Y004413D01*
X018223Y004756D01*
X018429Y004756D01*
X018460Y004788D01*
X018103Y004967D02*
X018087Y004960D01*
X018019Y004892D01*
X017858Y004731D01*
X017858Y004867D01*
X017798Y005013D01*
X017773Y005038D01*
X017798Y005062D01*
X017858Y005208D01*
X017858Y005367D01*
X017798Y005513D01*
X017773Y005537D01*
X017798Y005562D01*
X017858Y005708D01*
X017858Y005867D01*
X017798Y006013D01*
X017773Y006038D01*
X017798Y006062D01*
X017858Y006208D01*
X017858Y006367D01*
X017798Y006513D01*
X017686Y006625D01*
X017539Y006686D01*
X017381Y006686D01*
X017234Y006625D01*
X017122Y006513D01*
X017062Y006367D01*
X017062Y006208D01*
X017122Y006062D01*
X017147Y006038D01*
X017122Y006013D01*
X017062Y005867D01*
X017062Y005827D01*
X016940Y005705D01*
X016904Y005705D01*
X016936Y005783D01*
X016936Y005917D01*
X016884Y006042D01*
X016837Y006089D01*
X016837Y006313D01*
X017452Y006928D01*
X017514Y006989D01*
X017514Y006898D01*
X017525Y006857D01*
X017546Y006821D01*
X017576Y006791D01*
X017612Y006770D01*
X017653Y006759D01*
X017852Y006759D01*
X017852Y007097D01*
X017968Y007097D01*
X017968Y006759D01*
X018167Y006759D01*
X018208Y006770D01*
X018244Y006791D01*
X018274Y006821D01*
X018295Y006857D01*
X018306Y006898D01*
X018306Y007097D01*
X017968Y007097D01*
X017968Y007213D01*
X018306Y007213D01*
X018306Y007413D01*
X018295Y007453D01*
X018274Y007490D01*
X018244Y007520D01*
X018208Y007541D01*
X018167Y007552D01*
X017968Y007552D01*
X017968Y007213D01*
X017852Y007213D01*
X017852Y007552D01*
X017653Y007552D01*
X017612Y007541D01*
X017576Y007520D01*
X017556Y007500D01*
X017556Y007609D01*
X017599Y007566D01*
X018221Y007566D01*
X018326Y007671D01*
X018326Y008293D01*
X018267Y008352D01*
X018267Y008500D01*
X018269Y008495D01*
X018290Y008474D01*
X018290Y008408D01*
X018342Y008283D01*
X018437Y008188D01*
X018561Y008137D01*
X018696Y008137D01*
X018713Y008143D01*
X018713Y006833D01*
X018558Y006678D01*
X018539Y006686D01*
X018381Y006686D01*
X018234Y006625D01*
X018122Y006513D01*
X018062Y006367D01*
X018062Y006208D01*
X018122Y006062D01*
X018147Y006038D01*
X018122Y006013D01*
X018062Y005867D01*
X018062Y005708D01*
X018122Y005562D01*
X018147Y005537D01*
X018122Y005513D01*
X018062Y005367D01*
X018062Y005208D01*
X018122Y005062D01*
X018147Y005038D01*
X018122Y005013D01*
X018103Y004967D01*
X018137Y005028D02*
X017783Y005028D01*
X017832Y005146D02*
X018088Y005146D01*
X018062Y005265D02*
X017858Y005265D01*
X017851Y005383D02*
X018069Y005383D01*
X018118Y005502D02*
X017802Y005502D01*
X017822Y005620D02*
X018098Y005620D01*
X018062Y005739D02*
X017858Y005739D01*
X017858Y005857D02*
X018062Y005857D01*
X018107Y005976D02*
X017813Y005976D01*
X017811Y006094D02*
X018109Y006094D01*
X018062Y006213D02*
X017858Y006213D01*
X017858Y006331D02*
X018062Y006331D01*
X018096Y006450D02*
X017824Y006450D01*
X017742Y006568D02*
X018178Y006568D01*
X018258Y006805D02*
X018685Y006805D01*
X018713Y006924D02*
X018306Y006924D01*
X018306Y007042D02*
X018713Y007042D01*
X018713Y007161D02*
X017968Y007161D01*
X017910Y007155D02*
X018184Y007155D01*
X018566Y007538D01*
X018713Y007516D02*
X018248Y007516D01*
X018289Y007635D02*
X018713Y007635D01*
X018713Y007753D02*
X018326Y007753D01*
X018326Y007872D02*
X018713Y007872D01*
X018713Y007990D02*
X018326Y007990D01*
X018326Y008109D02*
X018713Y008109D01*
X018398Y008227D02*
X018326Y008227D01*
X018316Y008346D02*
X018274Y008346D01*
X018267Y008464D02*
X018290Y008464D01*
X018473Y008631D02*
X018629Y008475D01*
X018473Y008631D02*
X018473Y008975D01*
X018809Y009412D02*
X019580Y009412D01*
X019580Y009294D02*
X018928Y009294D01*
X019046Y009175D02*
X019580Y009175D01*
X019580Y009057D02*
X019165Y009057D01*
X019193Y009029D02*
X018537Y009685D01*
X018515Y009706D01*
X019580Y009706D01*
X019580Y008346D01*
X019570Y008356D01*
X019446Y008407D01*
X019311Y008407D01*
X019232Y008374D01*
X019232Y008830D01*
X019232Y008933D01*
X019193Y009029D01*
X019230Y008938D02*
X019580Y008938D01*
X019580Y008820D02*
X019232Y008820D01*
X019232Y008701D02*
X019580Y008701D01*
X019580Y008583D02*
X019232Y008583D01*
X019232Y008464D02*
X019580Y008464D01*
X019379Y008069D02*
X019379Y004725D01*
X019504Y004600D01*
X019504Y002538D01*
X019098Y002131D01*
X017380Y002131D01*
X017009Y001760D01*
X017254Y001473D02*
X018045Y001473D01*
X018029Y001433D02*
X018029Y001142D01*
X018140Y000873D01*
X018346Y000668D01*
X018615Y000556D01*
X018905Y000556D01*
X019174Y000668D01*
X019380Y000873D01*
X019491Y001142D01*
X019491Y001433D01*
X019380Y001702D01*
X019177Y001904D01*
X019233Y001928D01*
X019301Y001995D01*
X019580Y002274D01*
X019580Y000467D01*
X017091Y000467D01*
X017113Y000472D01*
X017178Y000499D01*
X017236Y000538D01*
X017286Y000588D01*
X017325Y000646D01*
X017352Y000711D01*
X017365Y000777D01*
X017047Y000777D01*
X017047Y000853D01*
X017365Y000853D01*
X017352Y000919D01*
X017325Y000984D01*
X017286Y001043D01*
X017236Y001092D01*
X017178Y001131D01*
X017113Y001158D01*
X017047Y001171D01*
X017047Y000853D01*
X016970Y000853D01*
X016970Y001171D01*
X016905Y001158D01*
X016840Y001131D01*
X016781Y001092D01*
X016731Y001043D01*
X016707Y001006D01*
X016698Y001029D01*
X016592Y001135D01*
X016454Y001192D01*
X016304Y001192D01*
X016165Y001135D01*
X016059Y001029D01*
X016050Y001006D01*
X016026Y001043D01*
X015976Y001092D01*
X015918Y001131D01*
X015860Y001155D01*
X015873Y001189D01*
X015873Y001288D01*
X015919Y001288D01*
X016057Y001345D01*
X016159Y001447D01*
X016165Y001440D01*
X016304Y001383D01*
X016454Y001383D01*
X016592Y001440D01*
X016694Y001542D01*
X016795Y001440D01*
X016934Y001383D01*
X017084Y001383D01*
X017222Y001440D01*
X017328Y001546D01*
X017386Y001685D01*
X017386Y001797D01*
X017479Y001891D01*
X018330Y001891D01*
X018140Y001702D01*
X018029Y001433D01*
X018029Y001354D02*
X016066Y001354D01*
X015873Y001236D02*
X018029Y001236D01*
X018039Y001117D02*
X017199Y001117D01*
X017047Y001117D02*
X016970Y001117D01*
X016970Y000999D02*
X017047Y000999D01*
X017047Y000880D02*
X016970Y000880D01*
X016818Y001117D02*
X016610Y001117D01*
X016379Y000815D02*
X016379Y000663D01*
X016473Y000569D01*
X016148Y001117D02*
X015939Y001117D01*
X015710Y000853D02*
X015710Y000777D01*
X015393Y000777D01*
X015406Y000711D01*
X015433Y000646D01*
X015472Y000588D01*
X015521Y000538D01*
X015580Y000499D01*
X015645Y000472D01*
X015667Y000467D01*
X013952Y000467D01*
X014908Y001424D01*
X014965Y001481D01*
X015281Y001481D01*
X015248Y001448D01*
X015197Y001324D01*
X015197Y001189D01*
X015248Y001065D01*
X015343Y000969D01*
X015414Y000940D01*
X015406Y000919D01*
X015393Y000853D01*
X015710Y000853D01*
X015398Y000880D02*
X014364Y000880D01*
X014246Y000762D02*
X015396Y000762D01*
X015435Y000643D02*
X014127Y000643D01*
X014009Y000525D02*
X015541Y000525D01*
X015314Y000999D02*
X014483Y000999D01*
X014601Y001117D02*
X015226Y001117D01*
X015197Y001236D02*
X014720Y001236D01*
X014838Y001354D02*
X015209Y001354D01*
X015273Y001473D02*
X014957Y001473D01*
X014738Y001678D02*
X014781Y001721D01*
X015788Y001721D01*
X015535Y001467D01*
X015535Y001256D01*
X015488Y002065D02*
X015219Y002065D01*
X015219Y002184D02*
X015697Y002184D01*
X015648Y002302D02*
X015528Y002302D01*
X015528Y002421D02*
X015648Y002421D01*
X015648Y002776D02*
X015528Y002776D01*
X015528Y002895D02*
X015648Y002895D01*
X015648Y003013D02*
X015528Y003013D01*
X015528Y003132D02*
X015648Y003132D01*
X015710Y003250D02*
X015191Y003250D01*
X015097Y003369D02*
X015548Y003369D01*
X015429Y003487D02*
X015182Y003487D01*
X015258Y003606D02*
X015384Y003606D01*
X015322Y003724D02*
X015280Y003724D01*
X014941Y003725D02*
X014598Y004069D01*
X014598Y004975D01*
X013348Y006225D01*
X013004Y006225D01*
X012879Y006350D01*
X012836Y006049D02*
X013223Y005663D01*
X013473Y005663D01*
X013772Y005461D02*
X014358Y004876D01*
X014358Y004108D01*
X014180Y004286D01*
X013772Y004693D01*
X013772Y005461D01*
X013772Y005383D02*
X013850Y005383D01*
X013772Y005265D02*
X013969Y005265D01*
X014087Y005146D02*
X013772Y005146D01*
X013772Y005028D02*
X014206Y005028D01*
X014324Y004909D02*
X013772Y004909D01*
X013772Y004791D02*
X014358Y004791D01*
X014358Y004672D02*
X013794Y004672D01*
X013912Y004554D02*
X014358Y004554D01*
X014358Y004435D02*
X014031Y004435D01*
X014149Y004317D02*
X014358Y004317D01*
X014358Y004198D02*
X014268Y004198D01*
X013988Y004116D02*
X013926Y004116D01*
X013723Y003756D02*
X013598Y003756D01*
X012973Y004381D01*
X012693Y004580D02*
X012630Y004642D01*
X012208Y004642D01*
X012235Y004669D01*
X012256Y004706D01*
X012267Y004747D01*
X012267Y004946D01*
X011948Y004946D01*
X011948Y004642D01*
X011872Y004642D01*
X011872Y004946D01*
X011948Y004946D01*
X011948Y005023D01*
X011948Y005236D01*
X011874Y005245D01*
X011872Y005245D01*
X011872Y005023D01*
X011948Y005023D01*
X012267Y005023D01*
X012267Y005222D01*
X012256Y005262D01*
X012235Y005299D01*
X012229Y005305D01*
X012287Y005362D01*
X012287Y005944D01*
X012181Y006050D01*
X012118Y006050D01*
X012118Y006133D01*
X012218Y006133D01*
X012253Y006167D01*
X012508Y005913D01*
X012575Y005845D01*
X012663Y005809D01*
X012737Y005809D01*
X013019Y005527D01*
X013087Y005459D01*
X013173Y005423D01*
X013173Y004660D01*
X013164Y004668D01*
X013040Y004720D01*
X012905Y004720D01*
X012781Y004668D01*
X012693Y004580D01*
X012790Y004672D02*
X012236Y004672D01*
X012267Y004791D02*
X013173Y004791D01*
X013173Y004909D02*
X012267Y004909D01*
X012267Y005028D02*
X013173Y005028D01*
X013173Y005146D02*
X012267Y005146D01*
X012255Y005265D02*
X013173Y005265D01*
X013173Y005383D02*
X012287Y005383D01*
X012287Y005502D02*
X013044Y005502D01*
X012926Y005620D02*
X012287Y005620D01*
X012287Y005739D02*
X012807Y005739D01*
X012564Y005857D02*
X012287Y005857D01*
X012256Y005976D02*
X012445Y005976D01*
X012508Y005913D02*
X012508Y005913D01*
X012711Y006049D02*
X012836Y006049D01*
X012711Y006049D02*
X012211Y006549D01*
X012085Y006549D01*
X011691Y006549D02*
X011691Y007038D01*
X011441Y007288D01*
X011191Y007516D02*
X010970Y007516D01*
X010998Y007398D02*
X011121Y007398D01*
X011103Y007279D02*
X011070Y007279D01*
X011035Y006975D02*
X010660Y007350D01*
X010660Y007381D01*
X010510Y007063D02*
X010098Y007475D01*
X009066Y007475D01*
X008535Y008006D01*
X008035Y008006D01*
X008629Y008227D02*
X011733Y008227D01*
X011733Y008109D02*
X008772Y008109D01*
X008891Y007990D02*
X011733Y007990D01*
X011733Y007872D02*
X009009Y007872D01*
X009128Y007753D02*
X011733Y007753D01*
X011733Y007635D02*
X010885Y007635D01*
X010435Y007635D02*
X010277Y007635D01*
X010510Y007063D02*
X010510Y006549D01*
X011035Y006975D02*
X011410Y006975D01*
X011494Y006891D01*
X011494Y006549D01*
X012118Y006094D02*
X012327Y006094D01*
X012504Y006913D02*
X012973Y006913D01*
X014879Y005006D01*
X014879Y004506D01*
X015723Y003663D01*
X016723Y003788D02*
X017460Y003788D01*
X017460Y003288D02*
X016910Y003288D01*
X012960Y007238D01*
X012774Y007238D01*
X012774Y007435D02*
X013075Y007435D01*
X016723Y003788D01*
X017460Y003288D02*
X017473Y003288D01*
X018098Y002881D02*
X017848Y002631D01*
X016598Y002631D01*
X016535Y002694D01*
X016330Y002421D02*
X016221Y002421D01*
X016233Y002539D02*
X016004Y002539D01*
X016035Y002131D02*
X016035Y002104D01*
X016379Y001760D01*
X016624Y001473D02*
X016763Y001473D01*
X017347Y001591D02*
X018094Y001591D01*
X018148Y001710D02*
X017386Y001710D01*
X017416Y001828D02*
X018266Y001828D01*
X018691Y002381D02*
X016754Y002381D01*
X016660Y002288D01*
X017315Y000999D02*
X018088Y000999D01*
X018137Y000880D02*
X017360Y000880D01*
X017362Y000762D02*
X018252Y000762D01*
X018405Y000643D02*
X017323Y000643D01*
X017216Y000525D02*
X019580Y000525D01*
X019580Y000643D02*
X019115Y000643D01*
X019268Y000762D02*
X019580Y000762D01*
X019580Y000880D02*
X019383Y000880D01*
X019432Y000999D02*
X019580Y000999D01*
X019580Y001117D02*
X019481Y001117D01*
X019491Y001236D02*
X019580Y001236D01*
X019580Y001354D02*
X019491Y001354D01*
X019475Y001473D02*
X019580Y001473D01*
X019580Y001591D02*
X019426Y001591D01*
X019372Y001710D02*
X019580Y001710D01*
X019580Y001828D02*
X019254Y001828D01*
X019252Y001947D02*
X019580Y001947D01*
X019580Y002065D02*
X019371Y002065D01*
X019489Y002184D02*
X019580Y002184D01*
X018973Y002663D02*
X018691Y002381D01*
X018973Y002663D02*
X018973Y004444D01*
X018460Y004288D02*
X018223Y004288D01*
X018098Y004163D01*
X018098Y002881D01*
X017917Y004791D02*
X017858Y004791D01*
X017841Y004909D02*
X018036Y004909D01*
X016973Y005739D02*
X016918Y005739D01*
X016936Y005857D02*
X017062Y005857D01*
X017107Y005976D02*
X016912Y005976D01*
X016837Y006094D02*
X017109Y006094D01*
X017062Y006213D02*
X016837Y006213D01*
X016855Y006331D02*
X017062Y006331D01*
X017096Y006450D02*
X016974Y006450D01*
X017092Y006568D02*
X017178Y006568D01*
X017211Y006687D02*
X018566Y006687D01*
X018554Y006306D02*
X018473Y006306D01*
X018460Y006294D01*
X018460Y006288D01*
X018473Y006306D02*
X018441Y006306D01*
X018858Y006243D02*
X018858Y006208D01*
X018798Y006062D01*
X018783Y006047D01*
X018929Y006047D01*
X018931Y006048D01*
X018981Y006047D01*
X019030Y006047D01*
X019032Y006047D01*
X019035Y006047D01*
X019080Y006027D01*
X019126Y006008D01*
X019127Y006006D01*
X019130Y006005D01*
X019139Y005996D01*
X019139Y006524D01*
X019120Y006505D01*
X019120Y006505D01*
X018858Y006243D01*
X018858Y006213D02*
X019139Y006213D01*
X019139Y006331D02*
X018946Y006331D01*
X019065Y006450D02*
X019139Y006450D01*
X019139Y006094D02*
X018811Y006094D01*
X017968Y006805D02*
X017852Y006805D01*
X017852Y006924D02*
X017968Y006924D01*
X017968Y007042D02*
X017852Y007042D01*
X017852Y007279D02*
X017968Y007279D01*
X017968Y007398D02*
X017852Y007398D01*
X017852Y007516D02*
X017968Y007516D01*
X018306Y007398D02*
X018713Y007398D01*
X018713Y007279D02*
X018306Y007279D01*
X017572Y007516D02*
X017556Y007516D01*
X017316Y007131D02*
X017316Y008569D01*
X017129Y008756D01*
X016923Y008483D02*
X016937Y008469D01*
X017061Y008418D01*
X017076Y008418D01*
X017076Y007231D01*
X016943Y007097D01*
X016624Y007097D01*
X016624Y007213D01*
X016962Y007213D01*
X016962Y007413D01*
X016952Y007453D01*
X016931Y007490D01*
X016901Y007520D01*
X016864Y007541D01*
X016824Y007552D01*
X016624Y007552D01*
X016624Y007213D01*
X016508Y007213D01*
X016508Y007552D01*
X016369Y007552D01*
X016369Y007566D01*
X016877Y007566D01*
X016982Y007671D01*
X016982Y008293D01*
X016923Y008352D01*
X016923Y008483D01*
X016923Y008464D02*
X016950Y008464D01*
X016930Y008346D02*
X017076Y008346D01*
X017076Y008227D02*
X016982Y008227D01*
X016982Y008109D02*
X017076Y008109D01*
X017076Y007990D02*
X016982Y007990D01*
X016982Y007872D02*
X017076Y007872D01*
X017076Y007753D02*
X016982Y007753D01*
X016946Y007635D02*
X017076Y007635D01*
X017076Y007516D02*
X016904Y007516D01*
X016962Y007398D02*
X017076Y007398D01*
X017076Y007279D02*
X016962Y007279D01*
X017006Y007161D02*
X016624Y007161D01*
X016653Y007155D02*
X016566Y007155D01*
X016508Y007279D02*
X016624Y007279D01*
X016624Y007398D02*
X016508Y007398D01*
X016508Y007516D02*
X016624Y007516D01*
X016129Y007038D02*
X016160Y007006D01*
X016160Y006350D01*
X015941Y006131D01*
X015670Y006339D02*
X015661Y006330D01*
X015133Y006858D01*
X015133Y007097D01*
X015249Y007097D01*
X015249Y006759D01*
X015449Y006759D01*
X015489Y006770D01*
X015526Y006791D01*
X015556Y006821D01*
X015577Y006857D01*
X015587Y006898D01*
X015587Y007097D01*
X015249Y007097D01*
X015249Y007213D01*
X015587Y007213D01*
X015587Y007413D01*
X015577Y007453D01*
X015556Y007490D01*
X015526Y007520D01*
X015489Y007541D01*
X015449Y007552D01*
X015249Y007552D01*
X015249Y007213D01*
X015133Y007213D01*
X015133Y007097D01*
X014894Y007097D01*
X014461Y007531D01*
X014539Y007563D01*
X014634Y007658D01*
X014686Y007783D01*
X014686Y007917D01*
X014634Y008042D01*
X014539Y008137D01*
X014415Y008188D01*
X014358Y008188D01*
X014015Y008552D01*
X014013Y008555D01*
X013986Y008583D01*
X014687Y008583D01*
X014834Y008730D01*
X014834Y008352D01*
X014775Y008293D01*
X014775Y007671D01*
X014880Y007566D01*
X015502Y007566D01*
X015607Y007671D01*
X015607Y008293D01*
X015548Y008352D01*
X015548Y008702D01*
X015593Y008657D01*
X015608Y008651D01*
X015608Y006870D01*
X015561Y006823D01*
X015509Y006699D01*
X015509Y006564D01*
X015561Y006440D01*
X015656Y006344D01*
X015670Y006339D01*
X015662Y006331D02*
X015661Y006331D01*
X015556Y006450D02*
X015542Y006450D01*
X015509Y006568D02*
X015424Y006568D01*
X015509Y006687D02*
X015305Y006687D01*
X015249Y006805D02*
X015187Y006805D01*
X015133Y006924D02*
X015249Y006924D01*
X015249Y007042D02*
X015133Y007042D01*
X015133Y007161D02*
X014831Y007161D01*
X014795Y007213D02*
X014795Y007413D01*
X014806Y007453D01*
X014827Y007490D01*
X014857Y007520D01*
X014893Y007541D01*
X014934Y007552D01*
X015133Y007552D01*
X015133Y007213D01*
X014795Y007213D01*
X014795Y007279D02*
X014713Y007279D01*
X014795Y007398D02*
X014594Y007398D01*
X014476Y007516D02*
X014853Y007516D01*
X014812Y007635D02*
X014611Y007635D01*
X014674Y007753D02*
X014775Y007753D01*
X014775Y007872D02*
X014686Y007872D01*
X014656Y007990D02*
X014775Y007990D01*
X014775Y008109D02*
X014568Y008109D01*
X014775Y008227D02*
X014321Y008227D01*
X014209Y008346D02*
X014828Y008346D01*
X014834Y008464D02*
X014097Y008464D01*
X013986Y008583D02*
X014834Y008583D01*
X014834Y008701D02*
X014805Y008701D01*
X015548Y008701D02*
X015549Y008701D01*
X015548Y008583D02*
X015608Y008583D01*
X015608Y008464D02*
X015548Y008464D01*
X015555Y008346D02*
X015608Y008346D01*
X015607Y008227D02*
X015608Y008227D01*
X015607Y008109D02*
X015608Y008109D01*
X015607Y007990D02*
X015608Y007990D01*
X015607Y007872D02*
X015608Y007872D01*
X015607Y007753D02*
X015608Y007753D01*
X015608Y007635D02*
X015571Y007635D01*
X015608Y007516D02*
X015529Y007516D01*
X015587Y007398D02*
X015608Y007398D01*
X015608Y007279D02*
X015587Y007279D01*
X015608Y007161D02*
X015249Y007161D01*
X015215Y007155D02*
X015348Y007194D01*
X015249Y007279D02*
X015133Y007279D01*
X015133Y007398D02*
X015249Y007398D01*
X015249Y007516D02*
X015133Y007516D01*
X015191Y007155D02*
X015215Y007155D01*
X015587Y007042D02*
X015608Y007042D01*
X015608Y006924D02*
X015587Y006924D01*
X015553Y006805D02*
X015540Y006805D01*
X015848Y006631D02*
X015848Y008881D01*
X015785Y008944D01*
X016129Y008506D02*
X016129Y007038D01*
X016598Y006413D02*
X017316Y007131D01*
X017448Y006924D02*
X017514Y006924D01*
X017562Y006805D02*
X017329Y006805D01*
X016598Y006413D02*
X016598Y005850D01*
X014348Y007850D02*
X013810Y008419D01*
X012774Y008419D01*
X012357Y008464D02*
X012212Y008464D01*
X012212Y008346D02*
X012357Y008346D01*
X012357Y008227D02*
X012212Y008227D01*
X012212Y008109D02*
X012357Y008109D01*
X012357Y007990D02*
X012212Y007990D01*
X012212Y007872D02*
X012357Y007872D01*
X012357Y007753D02*
X012212Y007753D01*
X012212Y007635D02*
X012357Y007635D01*
X012357Y007516D02*
X012240Y007516D01*
X012212Y007543D02*
X012212Y009344D01*
X012228Y009360D01*
X012357Y009360D01*
X012357Y007398D01*
X012212Y007543D01*
X011973Y007444D02*
X012504Y006913D01*
X011973Y007444D02*
X011973Y009444D01*
X012129Y009600D01*
X012774Y009600D01*
X008254Y009600D01*
X008398Y009294D02*
X011733Y009294D01*
X012212Y009294D02*
X012357Y009294D01*
X012357Y009175D02*
X012212Y009175D01*
X012212Y009057D02*
X012357Y009057D01*
X012357Y008938D02*
X012212Y008938D01*
X012212Y008820D02*
X012357Y008820D01*
X012357Y008701D02*
X012212Y008701D01*
X012212Y008583D02*
X012357Y008583D01*
X013190Y009436D02*
X013190Y009466D01*
X013190Y009764D01*
X014405Y009764D01*
X014436Y009690D01*
X014477Y009648D01*
X014265Y009436D01*
X013190Y009436D01*
X013190Y009531D02*
X014359Y009531D01*
X014476Y009649D02*
X013190Y009649D01*
X012774Y009797D02*
X008619Y009797D01*
X008410Y010006D01*
X008072Y010005D02*
X007810Y010005D01*
X007929Y010123D02*
X008092Y010123D01*
X008047Y010242D02*
X008167Y010242D01*
X008061Y009886D02*
X007692Y009886D01*
X007596Y009768D02*
X007957Y009768D01*
X007915Y009649D02*
X007649Y009649D01*
X007655Y009531D02*
X007916Y009531D01*
X007965Y009412D02*
X007618Y009412D01*
X007520Y009294D02*
X008109Y009294D01*
X008728Y010123D02*
X011072Y010123D01*
X011076Y010242D02*
X008653Y010242D01*
X007368Y010242D02*
X007075Y010242D01*
X007068Y010234D02*
X007068Y010234D01*
X007316Y009994D02*
X006671Y009994D01*
X006671Y007238D02*
X006671Y006955D01*
X005566Y005944D02*
X004160Y005944D01*
X003973Y007175D02*
X003882Y007234D01*
X003789Y008688D02*
X003941Y008840D01*
X003289Y009057D02*
X003153Y009057D01*
X003153Y009175D02*
X003289Y009175D01*
X003333Y009294D02*
X003153Y009294D01*
X002825Y009294D02*
X002807Y009294D01*
X002807Y009412D02*
X002825Y009412D01*
X002807Y009649D02*
X002825Y009649D01*
X002825Y009768D02*
X002807Y009768D01*
X002807Y009886D02*
X002825Y009886D01*
X002497Y009412D02*
X001700Y009412D01*
X001821Y009294D02*
X002479Y009294D01*
X002479Y009175D02*
X001941Y009175D01*
X002062Y009057D02*
X002479Y009057D01*
X002497Y008938D02*
X002182Y008938D01*
X002303Y008820D02*
X002459Y008820D01*
X002459Y008701D02*
X002423Y008701D01*
X004287Y004401D02*
X004497Y004401D01*
X004478Y004355D01*
X004478Y004313D01*
X004468Y004313D01*
X004343Y004262D01*
X004248Y004167D01*
X004197Y004042D01*
X004197Y003908D01*
X004248Y003783D01*
X004280Y003752D01*
X004261Y003747D01*
X004224Y003726D01*
X004194Y003696D01*
X004173Y003659D01*
X004162Y003619D01*
X004162Y003430D01*
X004162Y003285D01*
X004017Y003285D01*
X003829Y003285D01*
X003788Y003274D01*
X003752Y003253D01*
X003722Y003223D01*
X003701Y003187D01*
X003690Y003146D01*
X003690Y003049D01*
X003633Y003106D01*
X003509Y003157D01*
X003374Y003157D01*
X003250Y003106D01*
X003154Y003010D01*
X003103Y002886D01*
X003103Y002751D01*
X003122Y002706D01*
X003031Y002668D01*
X002974Y002611D01*
X002818Y002611D01*
X002858Y002708D01*
X002858Y002867D01*
X002798Y003013D01*
X003157Y003013D01*
X003106Y002895D02*
X002847Y002895D01*
X002858Y002776D02*
X003103Y002776D01*
X003020Y002658D02*
X002837Y002658D01*
X002798Y003013D02*
X002773Y003038D01*
X002793Y003058D01*
X002943Y003058D01*
X003077Y003192D01*
X004287Y004401D01*
X004202Y004317D02*
X004478Y004317D01*
X004279Y004198D02*
X004083Y004198D01*
X003965Y004080D02*
X004212Y004080D01*
X004197Y003961D02*
X003846Y003961D01*
X003728Y003843D02*
X004224Y003843D01*
X004223Y003724D02*
X003609Y003724D01*
X003491Y003606D02*
X004162Y003606D01*
X004162Y003487D02*
X003372Y003487D01*
X003254Y003369D02*
X004162Y003369D01*
X004162Y003430D02*
X004398Y003430D01*
X004398Y003430D01*
X004162Y003430D01*
X004017Y003285D02*
X004017Y003046D01*
X004017Y003285D01*
X004017Y003250D02*
X004017Y003250D01*
X004017Y003132D02*
X004017Y003132D01*
X004017Y003046D02*
X004017Y003046D01*
X003749Y003250D02*
X003135Y003250D01*
X003017Y003132D02*
X003312Y003132D01*
X003571Y003132D02*
X003690Y003132D01*
X003690Y002539D02*
X003640Y002539D01*
X003694Y002421D02*
X003561Y002421D01*
X003556Y002302D02*
X003690Y002302D01*
X003690Y002184D02*
X003503Y002184D01*
X003343Y002065D02*
X003764Y002065D01*
X004017Y002065D02*
X004017Y002065D01*
X004017Y002184D02*
X004017Y002184D01*
X003667Y001710D02*
X003590Y001710D01*
X003590Y001591D02*
X003667Y001591D01*
X003272Y001354D02*
X001891Y001354D01*
X001891Y001236D02*
X003272Y001236D01*
X003307Y001117D02*
X001881Y001117D01*
X001832Y000999D02*
X003252Y000999D01*
X003252Y000880D02*
X001783Y000880D01*
X001668Y000762D02*
X003252Y000762D01*
X003252Y000643D02*
X001515Y000643D01*
X000805Y000643D02*
X000340Y000643D01*
X000340Y000525D02*
X003252Y000525D01*
X003102Y002065D02*
X000340Y002065D01*
X000340Y001947D02*
X000840Y001947D01*
X000666Y001828D02*
X000340Y001828D01*
X000340Y001710D02*
X000548Y001710D01*
X000494Y001591D02*
X000340Y001591D01*
X000340Y001473D02*
X000445Y001473D01*
X000429Y001354D02*
X000340Y001354D01*
X000340Y001236D02*
X000429Y001236D01*
X000439Y001117D02*
X000340Y001117D01*
X000340Y000999D02*
X000488Y000999D01*
X000537Y000880D02*
X000340Y000880D01*
X000340Y000762D02*
X000652Y000762D01*
X000340Y002184D02*
X002064Y002184D01*
X010760Y000657D02*
X010848Y000569D01*
X011932Y001710D02*
X011932Y001710D01*
X012188Y001472D02*
X012310Y001350D01*
X012188Y001472D02*
X012188Y001989D01*
X011932Y002302D02*
X011932Y002302D01*
X011876Y002421D02*
X012737Y002421D01*
X012737Y002539D02*
X011876Y002539D01*
X011876Y002658D02*
X012737Y002658D01*
X012737Y002776D02*
X011874Y002776D01*
X011876Y002895D02*
X012737Y002895D01*
X012737Y003013D02*
X011869Y003013D01*
X011876Y003132D02*
X012737Y003132D01*
X013084Y002884D02*
X013538Y002884D01*
X013910Y003256D01*
X013910Y003569D01*
X013723Y003756D01*
X013173Y004672D02*
X013155Y004672D01*
X011948Y004672D02*
X011872Y004672D01*
X011872Y004791D02*
X011948Y004791D01*
X011948Y004909D02*
X011872Y004909D01*
X011872Y005028D02*
X011948Y005028D01*
X011948Y005146D02*
X011872Y005146D01*
X011932Y003250D02*
X011932Y003250D01*
X011549Y002628D02*
X011549Y002628D01*
X011549Y002372D02*
X011549Y002372D01*
X011549Y002302D02*
X011549Y002302D01*
X011549Y002184D02*
X011549Y002184D01*
X011223Y002776D02*
X011193Y002776D01*
X013084Y002628D02*
X013688Y002628D01*
X013723Y002663D01*
X011733Y007516D02*
X011691Y007516D01*
X011410Y010163D02*
X012029Y010781D01*
X012774Y010781D01*
X012774Y010584D02*
X013113Y010584D01*
X013316Y010788D01*
X017191Y010788D01*
X017316Y010663D01*
X017482Y011405D02*
X016912Y011405D01*
X016916Y011408D01*
X016954Y011501D01*
X017102Y011649D01*
X017147Y011759D01*
X017147Y012972D01*
X017102Y013082D01*
X017092Y013093D01*
X017092Y013439D01*
X017157Y013439D01*
X017326Y013439D01*
X017366Y013450D01*
X017393Y013466D01*
X017394Y013464D01*
X017462Y013397D01*
X017957Y012901D01*
X017578Y012901D01*
X017472Y012796D01*
X017472Y011859D01*
X017502Y011829D01*
X017502Y011737D01*
X017585Y011737D01*
X017585Y011737D01*
X017502Y011737D01*
X017502Y011654D01*
X017482Y011634D01*
X017482Y011405D01*
X017482Y011427D02*
X016923Y011427D01*
X016998Y011545D02*
X017482Y011545D01*
X017502Y011664D02*
X017108Y011664D01*
X017147Y011782D02*
X017502Y011782D01*
X017472Y011901D02*
X017147Y011901D01*
X017147Y012019D02*
X017472Y012019D01*
X017472Y012138D02*
X017147Y012138D01*
X017147Y012256D02*
X017472Y012256D01*
X017472Y012375D02*
X017147Y012375D01*
X017147Y012493D02*
X017472Y012493D01*
X017472Y012612D02*
X017147Y012612D01*
X017147Y012730D02*
X017472Y012730D01*
X017525Y012849D02*
X017147Y012849D01*
X017147Y012967D02*
X017891Y012967D01*
X017773Y013086D02*
X017099Y013086D01*
X017092Y013204D02*
X017654Y013204D01*
X017536Y013323D02*
X017092Y013323D01*
X017157Y013439D02*
X017157Y013615D01*
X017157Y013439D01*
X017157Y013441D02*
X017157Y013441D01*
X017157Y013560D02*
X017157Y013560D01*
X017157Y013615D02*
X017157Y013615D01*
X017332Y013441D02*
X017417Y013441D01*
X016506Y013884D02*
X016303Y013884D01*
X016303Y013969D01*
X016303Y014004D01*
X016506Y014004D01*
X016506Y013884D01*
X016506Y013915D02*
X016303Y013915D01*
X016665Y014534D02*
X016665Y014970D01*
X016254Y015381D01*
X016254Y015799D01*
X016109Y015944D01*
X015972Y016878D02*
X015889Y016878D01*
X015889Y016996D02*
X015972Y016996D01*
X015708Y017826D02*
X019580Y017826D01*
X019580Y017944D02*
X015590Y017944D01*
X016557Y019011D02*
X018029Y019011D01*
X018069Y019129D02*
X016557Y019129D01*
X016553Y019248D02*
X018118Y019248D01*
X018204Y019366D02*
X016520Y019366D01*
X016445Y019485D02*
X018323Y019485D01*
X018577Y019603D02*
X016283Y019603D01*
X018943Y019603D02*
X019580Y019603D01*
X019580Y019485D02*
X019197Y019485D01*
X019316Y019366D02*
X019580Y019366D01*
X019580Y019248D02*
X019402Y019248D01*
X019451Y019129D02*
X019580Y019129D01*
X019580Y019011D02*
X019491Y019011D01*
X019491Y018892D02*
X019580Y018892D01*
X019580Y018774D02*
X019491Y018774D01*
X019455Y018655D02*
X019580Y018655D01*
X019580Y018537D02*
X019406Y018537D01*
X019325Y018418D02*
X019580Y018418D01*
X019580Y018300D02*
X019206Y018300D01*
X018783Y014034D02*
X018745Y014034D01*
X018745Y013915D02*
X018954Y013915D01*
X016336Y012135D02*
X016336Y012102D01*
X016040Y011806D01*
X015946Y011845D01*
X015811Y011845D01*
X015702Y011800D01*
X015702Y012199D01*
X015709Y012176D01*
X015730Y012139D01*
X015760Y012110D01*
X015796Y012088D01*
X015837Y012078D01*
X016026Y012078D01*
X016026Y012366D01*
X016044Y012366D01*
X016044Y012078D01*
X016233Y012078D01*
X016274Y012088D01*
X016310Y012110D01*
X016336Y012135D01*
X016254Y012019D02*
X015702Y012019D01*
X015702Y011901D02*
X016135Y011901D01*
X016044Y012138D02*
X016026Y012138D01*
X016026Y012256D02*
X016044Y012256D01*
X015732Y012138D02*
X015702Y012138D01*
X015243Y012138D02*
X014559Y012138D01*
X014559Y012107D02*
X014559Y012287D01*
X014548Y012327D01*
X014527Y012364D01*
X014497Y012394D01*
X014460Y012415D01*
X014420Y012426D01*
X014221Y012426D01*
X014221Y012107D01*
X014559Y012107D01*
X014559Y012030D02*
X014221Y012030D01*
X014221Y012107D01*
X014144Y012107D01*
X014144Y012426D01*
X013945Y012426D01*
X013904Y012415D01*
X013867Y012394D01*
X013862Y012388D01*
X013853Y012397D01*
X013853Y012656D01*
X014238Y013041D01*
X014300Y013041D01*
X014401Y012941D01*
X014419Y012897D01*
X014520Y012796D01*
X014651Y012742D01*
X014794Y012742D01*
X014925Y012796D01*
X015026Y012897D01*
X015061Y012981D01*
X015061Y012980D01*
X015134Y012980D01*
X015134Y012970D01*
X015186Y012846D01*
X015243Y012789D01*
X015243Y011852D01*
X014993Y011602D01*
X013190Y011602D01*
X013190Y011702D01*
X013170Y011722D01*
X013170Y011732D01*
X013181Y011732D01*
X013222Y011692D01*
X013804Y011692D01*
X013862Y011750D01*
X013867Y011744D01*
X013904Y011723D01*
X013945Y011712D01*
X014144Y011712D01*
X014144Y012030D01*
X014221Y012030D01*
X014221Y011712D01*
X014420Y011712D01*
X014460Y011723D01*
X014497Y011744D01*
X014527Y011774D01*
X014548Y011810D01*
X014559Y011851D01*
X014559Y012030D01*
X014559Y012019D02*
X015243Y012019D01*
X015243Y011901D02*
X014559Y011901D01*
X014532Y011782D02*
X015173Y011782D01*
X015055Y011664D02*
X013190Y011664D01*
X013853Y012493D02*
X015243Y012493D01*
X015243Y012375D02*
X014516Y012375D01*
X014559Y012256D02*
X015243Y012256D01*
X015243Y012612D02*
X013853Y012612D01*
X013927Y012730D02*
X015243Y012730D01*
X015184Y012849D02*
X014977Y012849D01*
X015055Y012967D02*
X015135Y012967D01*
X014468Y012849D02*
X014046Y012849D01*
X014164Y012967D02*
X014375Y012967D01*
X014221Y012375D02*
X014144Y012375D01*
X014144Y012256D02*
X014221Y012256D01*
X014221Y012138D02*
X014144Y012138D01*
X014144Y012019D02*
X014221Y012019D01*
X014221Y011901D02*
X014144Y011901D01*
X014144Y011782D02*
X014221Y011782D01*
X015573Y010308D02*
X016033Y010308D01*
X016542Y009799D01*
X015055Y009799D01*
X015061Y009814D01*
X015061Y009908D01*
X015062Y009907D01*
X015186Y009855D01*
X015321Y009855D01*
X015445Y009907D01*
X015541Y010002D01*
X015592Y010126D01*
X015592Y010261D01*
X015573Y010308D01*
X015592Y010242D02*
X016099Y010242D01*
X016218Y010123D02*
X015591Y010123D01*
X015542Y010005D02*
X016336Y010005D01*
X016455Y009886D02*
X015395Y009886D01*
X015112Y009886D02*
X015061Y009886D01*
X012194Y013086D02*
X011931Y013086D01*
X011971Y013204D02*
X012305Y013204D01*
X011816Y013506D02*
X011691Y013381D01*
X011691Y012651D01*
X013107Y013560D02*
X013232Y013560D01*
X013350Y013678D02*
X013107Y013678D01*
X013107Y013797D02*
X013469Y013797D01*
X013587Y013915D02*
X013107Y013915D01*
X013107Y014034D02*
X013706Y014034D01*
X013949Y014152D02*
X013107Y014152D01*
X013107Y014271D02*
X013947Y014271D01*
X013987Y014389D02*
X013107Y014389D01*
X008910Y014381D02*
X008910Y013913D01*
X008541Y013544D01*
X008541Y012651D01*
X008345Y012651D02*
X008345Y013816D01*
X008598Y014069D01*
X008910Y014381D02*
X008723Y014569D01*
X007908Y015138D02*
X007831Y015138D01*
X007831Y015457D01*
X007632Y015457D01*
X007591Y015446D01*
X007555Y015425D01*
X007549Y015419D01*
X007491Y015477D01*
X006909Y015477D01*
X006804Y015371D01*
X006804Y014829D01*
X006850Y014782D01*
X006836Y014768D01*
X006796Y014779D01*
X006606Y014779D01*
X006606Y014490D01*
X006589Y014490D01*
X006589Y014779D01*
X006399Y014779D01*
X006359Y014768D01*
X006322Y014747D01*
X006292Y014717D01*
X006271Y014680D01*
X006260Y014640D01*
X006260Y014490D01*
X006589Y014490D01*
X006589Y014472D01*
X006260Y014472D01*
X006260Y014322D01*
X006271Y014281D01*
X006292Y014245D01*
X006298Y014239D01*
X006288Y014229D01*
X004865Y014229D01*
X004634Y014460D01*
X004634Y014544D01*
X005860Y014544D01*
X005949Y014580D01*
X007009Y015641D01*
X007081Y015641D01*
X007093Y015637D01*
X007227Y015637D01*
X007352Y015688D01*
X007447Y015783D01*
X007498Y015908D01*
X007498Y016042D01*
X007447Y016167D01*
X007352Y016262D01*
X007328Y016272D01*
X007620Y016565D01*
X008086Y016098D01*
X008086Y015457D01*
X007908Y015457D01*
X007908Y015138D01*
X007908Y015219D02*
X007831Y015219D01*
X007831Y015337D02*
X007908Y015337D01*
X007908Y015456D02*
X007831Y015456D01*
X008086Y015574D02*
X006942Y015574D01*
X006888Y015456D02*
X006824Y015456D01*
X006804Y015337D02*
X006705Y015337D01*
X006804Y015219D02*
X006587Y015219D01*
X006468Y015100D02*
X006804Y015100D01*
X006804Y014982D02*
X006350Y014982D01*
X006231Y014863D02*
X006804Y014863D01*
X006836Y014768D02*
X006836Y014768D01*
X006606Y014745D02*
X006589Y014745D01*
X006589Y014626D02*
X006606Y014626D01*
X006606Y014508D02*
X006589Y014508D01*
X006260Y014508D02*
X004634Y014508D01*
X004705Y014389D02*
X006260Y014389D01*
X006277Y014271D02*
X004823Y014271D01*
X004257Y014784D02*
X005813Y014784D01*
X006910Y015881D01*
X007066Y015881D01*
X007160Y015975D01*
X007356Y015693D02*
X008086Y015693D01*
X008086Y015811D02*
X007458Y015811D01*
X007498Y015930D02*
X008086Y015930D01*
X008086Y016048D02*
X007496Y016048D01*
X007447Y016167D02*
X008018Y016167D01*
X007900Y016285D02*
X007341Y016285D01*
X007459Y016404D02*
X007781Y016404D01*
X007663Y016522D02*
X007578Y016522D01*
X007613Y016897D02*
X005815Y015099D01*
X004257Y015099D01*
X004257Y015414D02*
X005661Y015414D01*
X006113Y014745D02*
X006320Y014745D01*
X006260Y014626D02*
X005994Y014626D01*
X007535Y014444D02*
X007557Y013922D01*
X007557Y012651D01*
X007754Y012651D02*
X007754Y012651D01*
X007627Y015456D02*
X007513Y015456D01*
X008546Y015693D02*
X008558Y015693D01*
X007136Y016759D02*
X007042Y016759D01*
X007501Y017475D02*
X007501Y017475D01*
X005369Y019708D02*
X000346Y014685D01*
X000340Y014671D01*
X000340Y019708D01*
X005369Y019708D01*
X005264Y019603D02*
X001343Y019603D01*
X001305Y019619D02*
X001015Y019619D01*
X000746Y019507D01*
X000540Y019302D01*
X000429Y019033D01*
X000429Y018742D01*
X000540Y018473D01*
X000746Y018268D01*
X001015Y018156D01*
X001305Y018156D01*
X001574Y018268D01*
X001780Y018473D01*
X001891Y018742D01*
X001891Y019033D01*
X001780Y019302D01*
X001574Y019507D01*
X001305Y019619D01*
X001597Y019485D02*
X005146Y019485D01*
X005027Y019366D02*
X001716Y019366D01*
X001802Y019248D02*
X004909Y019248D01*
X004790Y019129D02*
X001851Y019129D01*
X001891Y019011D02*
X004672Y019011D01*
X004553Y018892D02*
X001891Y018892D01*
X001891Y018774D02*
X004435Y018774D01*
X004316Y018655D02*
X001855Y018655D01*
X001806Y018537D02*
X004198Y018537D01*
X004079Y018418D02*
X001725Y018418D01*
X001606Y018300D02*
X003961Y018300D01*
X003842Y018181D02*
X001365Y018181D01*
X000955Y018181D02*
X000340Y018181D01*
X000340Y018063D02*
X003724Y018063D01*
X003605Y017944D02*
X000340Y017944D01*
X000340Y017826D02*
X003487Y017826D01*
X003368Y017707D02*
X000340Y017707D01*
X000340Y017589D02*
X003250Y017589D01*
X003131Y017470D02*
X000340Y017470D01*
X000340Y017352D02*
X003013Y017352D01*
X002894Y017233D02*
X000340Y017233D01*
X000340Y017115D02*
X002776Y017115D01*
X002657Y016996D02*
X000340Y016996D01*
X000340Y016878D02*
X002539Y016878D01*
X002420Y016759D02*
X000340Y016759D01*
X000340Y016641D02*
X002302Y016641D01*
X002183Y016522D02*
X000340Y016522D01*
X000340Y016404D02*
X002065Y016404D01*
X001946Y016285D02*
X000340Y016285D01*
X000340Y016167D02*
X001828Y016167D01*
X001709Y016048D02*
X000340Y016048D01*
X000340Y015930D02*
X001591Y015930D01*
X001472Y015811D02*
X000340Y015811D01*
X000340Y015693D02*
X001354Y015693D01*
X001235Y015574D02*
X000340Y015574D01*
X000340Y015456D02*
X001117Y015456D01*
X000998Y015337D02*
X000340Y015337D01*
X000340Y015219D02*
X000880Y015219D01*
X000761Y015100D02*
X000340Y015100D01*
X000340Y014982D02*
X000643Y014982D01*
X000524Y014863D02*
X000340Y014863D01*
X000340Y014745D02*
X000406Y014745D01*
X002767Y015100D02*
X002956Y015100D01*
X000714Y018300D02*
X000340Y018300D01*
X000340Y018418D02*
X000595Y018418D01*
X000514Y018537D02*
X000340Y018537D01*
X000340Y018655D02*
X000465Y018655D01*
X000429Y018774D02*
X000340Y018774D01*
X000340Y018892D02*
X000429Y018892D01*
X000429Y019011D02*
X000340Y019011D01*
X000340Y019129D02*
X000469Y019129D01*
X000518Y019248D02*
X000340Y019248D01*
X000340Y019366D02*
X000604Y019366D01*
X000723Y019485D02*
X000340Y019485D01*
X000340Y019603D02*
X000977Y019603D01*
X018537Y009685D02*
X018537Y009685D01*
X018572Y009649D02*
X019580Y009649D01*
X019580Y009531D02*
X018691Y009531D01*
D47*
X016629Y011600D02*
X016848Y011819D01*
X016848Y012913D01*
X013473Y005663D02*
X013473Y004569D01*
X013926Y004116D01*
X014919Y003122D01*
X014919Y002694D01*
X014919Y001859D01*
X014738Y001678D01*
X013629Y000569D01*
X010848Y000569D01*
X008629Y000569D01*
X008316Y000881D01*
X008316Y001100D01*
X008316Y001546D01*
X008160Y001703D01*
M02*
