G75*
G70*
%OFA0B0*%
%FSLAX24Y24*%
%IPPOS*%
%LPD*%
%AMOC8*
5,1,8,0,0,1.08239X$1,22.5*
%
%ADD10C,0.0000*%
%ADD11C,0.0060*%
%ADD12C,0.0030*%
%ADD13C,0.0040*%
%ADD14R,0.0236X0.0118*%
%ADD15R,0.0374X0.0197*%
%ADD16R,0.0118X0.0236*%
%ADD17C,0.0050*%
%ADD18R,0.0571X0.0295*%
%ADD19R,0.0295X0.0571*%
D10*
X000325Y000160D02*
X000325Y012469D01*
X015976Y012469D01*
X015976Y000160D01*
X000325Y000160D01*
X000649Y001098D02*
X000651Y001145D01*
X000657Y001191D01*
X000667Y001237D01*
X000680Y001282D01*
X000698Y001325D01*
X000719Y001367D01*
X000743Y001407D01*
X000771Y001444D01*
X000802Y001479D01*
X000836Y001512D01*
X000872Y001541D01*
X000911Y001567D01*
X000952Y001590D01*
X000995Y001609D01*
X001039Y001625D01*
X001084Y001637D01*
X001130Y001645D01*
X001177Y001649D01*
X001223Y001649D01*
X001270Y001645D01*
X001316Y001637D01*
X001361Y001625D01*
X001405Y001609D01*
X001448Y001590D01*
X001489Y001567D01*
X001528Y001541D01*
X001564Y001512D01*
X001598Y001479D01*
X001629Y001444D01*
X001657Y001407D01*
X001681Y001367D01*
X001702Y001325D01*
X001720Y001282D01*
X001733Y001237D01*
X001743Y001191D01*
X001749Y001145D01*
X001751Y001098D01*
X001749Y001051D01*
X001743Y001005D01*
X001733Y000959D01*
X001720Y000914D01*
X001702Y000871D01*
X001681Y000829D01*
X001657Y000789D01*
X001629Y000752D01*
X001598Y000717D01*
X001564Y000684D01*
X001528Y000655D01*
X001489Y000629D01*
X001448Y000606D01*
X001405Y000587D01*
X001361Y000571D01*
X001316Y000559D01*
X001270Y000551D01*
X001223Y000547D01*
X001177Y000547D01*
X001130Y000551D01*
X001084Y000559D01*
X001039Y000571D01*
X000995Y000587D01*
X000952Y000606D01*
X000911Y000629D01*
X000872Y000655D01*
X000836Y000684D01*
X000802Y000717D01*
X000771Y000752D01*
X000743Y000789D01*
X000719Y000829D01*
X000698Y000871D01*
X000680Y000914D01*
X000667Y000959D01*
X000657Y001005D01*
X000651Y001051D01*
X000649Y001098D01*
X000649Y011410D02*
X000651Y011457D01*
X000657Y011503D01*
X000667Y011549D01*
X000680Y011594D01*
X000698Y011637D01*
X000719Y011679D01*
X000743Y011719D01*
X000771Y011756D01*
X000802Y011791D01*
X000836Y011824D01*
X000872Y011853D01*
X000911Y011879D01*
X000952Y011902D01*
X000995Y011921D01*
X001039Y011937D01*
X001084Y011949D01*
X001130Y011957D01*
X001177Y011961D01*
X001223Y011961D01*
X001270Y011957D01*
X001316Y011949D01*
X001361Y011937D01*
X001405Y011921D01*
X001448Y011902D01*
X001489Y011879D01*
X001528Y011853D01*
X001564Y011824D01*
X001598Y011791D01*
X001629Y011756D01*
X001657Y011719D01*
X001681Y011679D01*
X001702Y011637D01*
X001720Y011594D01*
X001733Y011549D01*
X001743Y011503D01*
X001749Y011457D01*
X001751Y011410D01*
X001749Y011363D01*
X001743Y011317D01*
X001733Y011271D01*
X001720Y011226D01*
X001702Y011183D01*
X001681Y011141D01*
X001657Y011101D01*
X001629Y011064D01*
X001598Y011029D01*
X001564Y010996D01*
X001528Y010967D01*
X001489Y010941D01*
X001448Y010918D01*
X001405Y010899D01*
X001361Y010883D01*
X001316Y010871D01*
X001270Y010863D01*
X001223Y010859D01*
X001177Y010859D01*
X001130Y010863D01*
X001084Y010871D01*
X001039Y010883D01*
X000995Y010899D01*
X000952Y010918D01*
X000911Y010941D01*
X000872Y010967D01*
X000836Y010996D01*
X000802Y011029D01*
X000771Y011064D01*
X000743Y011101D01*
X000719Y011141D01*
X000698Y011183D01*
X000680Y011226D01*
X000667Y011271D01*
X000657Y011317D01*
X000651Y011363D01*
X000649Y011410D01*
X014462Y011410D02*
X014464Y011457D01*
X014470Y011503D01*
X014480Y011549D01*
X014493Y011594D01*
X014511Y011637D01*
X014532Y011679D01*
X014556Y011719D01*
X014584Y011756D01*
X014615Y011791D01*
X014649Y011824D01*
X014685Y011853D01*
X014724Y011879D01*
X014765Y011902D01*
X014808Y011921D01*
X014852Y011937D01*
X014897Y011949D01*
X014943Y011957D01*
X014990Y011961D01*
X015036Y011961D01*
X015083Y011957D01*
X015129Y011949D01*
X015174Y011937D01*
X015218Y011921D01*
X015261Y011902D01*
X015302Y011879D01*
X015341Y011853D01*
X015377Y011824D01*
X015411Y011791D01*
X015442Y011756D01*
X015470Y011719D01*
X015494Y011679D01*
X015515Y011637D01*
X015533Y011594D01*
X015546Y011549D01*
X015556Y011503D01*
X015562Y011457D01*
X015564Y011410D01*
X015562Y011363D01*
X015556Y011317D01*
X015546Y011271D01*
X015533Y011226D01*
X015515Y011183D01*
X015494Y011141D01*
X015470Y011101D01*
X015442Y011064D01*
X015411Y011029D01*
X015377Y010996D01*
X015341Y010967D01*
X015302Y010941D01*
X015261Y010918D01*
X015218Y010899D01*
X015174Y010883D01*
X015129Y010871D01*
X015083Y010863D01*
X015036Y010859D01*
X014990Y010859D01*
X014943Y010863D01*
X014897Y010871D01*
X014852Y010883D01*
X014808Y010899D01*
X014765Y010918D01*
X014724Y010941D01*
X014685Y010967D01*
X014649Y010996D01*
X014615Y011029D01*
X014584Y011064D01*
X014556Y011101D01*
X014532Y011141D01*
X014511Y011183D01*
X014493Y011226D01*
X014480Y011271D01*
X014470Y011317D01*
X014464Y011363D01*
X014462Y011410D01*
X014462Y001098D02*
X014464Y001145D01*
X014470Y001191D01*
X014480Y001237D01*
X014493Y001282D01*
X014511Y001325D01*
X014532Y001367D01*
X014556Y001407D01*
X014584Y001444D01*
X014615Y001479D01*
X014649Y001512D01*
X014685Y001541D01*
X014724Y001567D01*
X014765Y001590D01*
X014808Y001609D01*
X014852Y001625D01*
X014897Y001637D01*
X014943Y001645D01*
X014990Y001649D01*
X015036Y001649D01*
X015083Y001645D01*
X015129Y001637D01*
X015174Y001625D01*
X015218Y001609D01*
X015261Y001590D01*
X015302Y001567D01*
X015341Y001541D01*
X015377Y001512D01*
X015411Y001479D01*
X015442Y001444D01*
X015470Y001407D01*
X015494Y001367D01*
X015515Y001325D01*
X015533Y001282D01*
X015546Y001237D01*
X015556Y001191D01*
X015562Y001145D01*
X015564Y001098D01*
X015562Y001051D01*
X015556Y001005D01*
X015546Y000959D01*
X015533Y000914D01*
X015515Y000871D01*
X015494Y000829D01*
X015470Y000789D01*
X015442Y000752D01*
X015411Y000717D01*
X015377Y000684D01*
X015341Y000655D01*
X015302Y000629D01*
X015261Y000606D01*
X015218Y000587D01*
X015174Y000571D01*
X015129Y000559D01*
X015083Y000551D01*
X015036Y000547D01*
X014990Y000547D01*
X014943Y000551D01*
X014897Y000559D01*
X014852Y000571D01*
X014808Y000587D01*
X014765Y000606D01*
X014724Y000629D01*
X014685Y000655D01*
X014649Y000684D01*
X014615Y000717D01*
X014584Y000752D01*
X014556Y000789D01*
X014532Y000829D01*
X014511Y000871D01*
X014493Y000914D01*
X014480Y000959D01*
X014470Y001005D01*
X014464Y001051D01*
X014462Y001098D01*
D11*
X012389Y003205D02*
X012389Y003632D01*
X012389Y003418D02*
X011748Y003418D01*
X011962Y003632D01*
X011962Y003849D02*
X011962Y003955D01*
X012175Y004169D01*
X011962Y004169D02*
X012389Y004169D01*
X012282Y005031D02*
X011855Y005031D01*
X011748Y005138D01*
X011748Y005351D01*
X011855Y005458D01*
X012282Y005458D01*
X012389Y005351D01*
X012389Y005138D01*
X012282Y005031D01*
X012389Y005676D02*
X011748Y005676D01*
X011962Y005889D01*
X011748Y006103D01*
X012389Y006103D01*
X012389Y006320D02*
X012389Y006747D01*
X011748Y006747D01*
X011748Y006320D01*
X012068Y006534D02*
X012068Y006747D01*
X011748Y006965D02*
X012389Y006965D01*
X011748Y007392D01*
X012389Y007392D01*
X012389Y007609D02*
X011962Y008036D01*
X012389Y008036D02*
X011962Y007609D01*
X009788Y003131D02*
X009788Y002939D01*
X009612Y002939D02*
X009612Y003131D01*
X009288Y003131D02*
X009288Y002939D01*
X009112Y002939D02*
X009112Y003131D01*
X002421Y005884D02*
X002229Y005884D01*
X002229Y006061D02*
X002421Y006061D01*
X003854Y008447D02*
X004046Y008447D01*
X004046Y008623D02*
X003854Y008623D01*
X005862Y009751D02*
X005862Y009944D01*
X006038Y009944D02*
X006038Y009751D01*
D12*
X012565Y006610D02*
X012627Y006610D01*
X012751Y006610D02*
X012998Y006610D01*
X012998Y006672D02*
X012998Y006548D01*
X012998Y006426D02*
X012998Y006303D01*
X012998Y006364D02*
X012627Y006364D01*
X012627Y006426D01*
X012751Y006610D02*
X012751Y006672D01*
X012812Y006793D02*
X012998Y006793D01*
X012812Y006793D02*
X012751Y006855D01*
X012751Y006978D01*
X012812Y007040D01*
X012812Y007161D02*
X012998Y007161D01*
X012998Y007347D01*
X012936Y007408D01*
X012874Y007347D01*
X012874Y007161D01*
X012812Y007161D02*
X012751Y007223D01*
X012751Y007347D01*
X012812Y007530D02*
X012998Y007530D01*
X012812Y007530D02*
X012751Y007592D01*
X012751Y007777D01*
X012998Y007777D01*
X012936Y007898D02*
X012812Y007898D01*
X012751Y007960D01*
X012751Y008145D01*
X012627Y008145D02*
X012998Y008145D01*
X012998Y007960D01*
X012936Y007898D01*
X012998Y007040D02*
X012627Y007040D01*
X012627Y006181D02*
X012627Y006119D01*
X012998Y006119D01*
X012998Y006181D02*
X012998Y006057D01*
X012936Y005935D02*
X012689Y005935D01*
X012627Y005873D01*
X012627Y005750D01*
X012689Y005688D01*
X012812Y005688D01*
X012874Y005750D01*
X012751Y005750D01*
X012751Y005873D01*
X012874Y005873D01*
X012874Y005750D01*
X012936Y005688D02*
X012998Y005750D01*
X012998Y005873D01*
X012936Y005935D01*
X012936Y005567D02*
X012812Y005567D01*
X012751Y005505D01*
X012751Y005320D01*
X013059Y005320D01*
X013121Y005382D01*
X013121Y005443D01*
X012998Y005505D02*
X012998Y005320D01*
X012998Y005198D02*
X012751Y005198D01*
X012751Y005137D01*
X012812Y005075D01*
X012751Y005013D01*
X012812Y004952D01*
X012998Y004952D01*
X012998Y005075D02*
X012812Y005075D01*
X012936Y004830D02*
X012874Y004768D01*
X012874Y004583D01*
X012812Y004583D02*
X012998Y004583D01*
X012998Y004768D01*
X012936Y004830D01*
X012751Y004768D02*
X012751Y004645D01*
X012812Y004583D01*
X012751Y004462D02*
X012751Y004400D01*
X012998Y004400D01*
X012998Y004462D02*
X012998Y004338D01*
X012998Y004216D02*
X012998Y004093D01*
X012998Y004155D02*
X012627Y004155D01*
X012627Y004216D01*
X012627Y004400D02*
X012565Y004400D01*
X012936Y003971D02*
X012936Y003909D01*
X012998Y003909D01*
X012998Y003971D01*
X012936Y003971D01*
X012936Y003787D02*
X012812Y003787D01*
X012751Y003725D01*
X012751Y003540D01*
X012812Y003418D02*
X012936Y003418D01*
X012998Y003357D01*
X012998Y003233D01*
X012936Y003171D01*
X012812Y003171D01*
X012751Y003233D01*
X012751Y003357D01*
X012812Y003418D01*
X012998Y003540D02*
X012998Y003725D01*
X012936Y003787D01*
X012998Y003050D02*
X012751Y003050D01*
X012751Y002988D01*
X012812Y002927D01*
X012751Y002865D01*
X012812Y002803D01*
X012998Y002803D01*
X012998Y002927D02*
X012812Y002927D01*
X012998Y005505D02*
X012936Y005567D01*
D13*
X011365Y005050D02*
X011365Y004770D01*
X011030Y004770D02*
X011030Y005050D01*
X010880Y005050D02*
X010880Y004896D01*
X010804Y004820D01*
X010650Y004973D02*
X010650Y005050D01*
X010573Y005127D01*
X010497Y005127D01*
X010420Y005050D01*
X010420Y004896D01*
X010497Y004820D01*
X010650Y005050D02*
X010727Y005127D01*
X010804Y005127D01*
X010880Y005050D01*
X010420Y004666D02*
X010420Y004359D01*
X010420Y004513D02*
X010880Y004513D01*
X010727Y004359D01*
X010804Y004206D02*
X010880Y004129D01*
X010880Y003976D01*
X010804Y003899D01*
X010497Y003899D01*
X010420Y003976D01*
X010420Y004129D01*
X010497Y004206D01*
X010412Y003308D02*
X010412Y003001D01*
X010181Y003001D01*
X010258Y003154D01*
X010258Y003231D01*
X010181Y003308D01*
X010028Y003308D01*
X009951Y003231D01*
X009951Y003078D01*
X010028Y003001D01*
X009951Y002847D02*
X010105Y002694D01*
X010105Y002771D02*
X010105Y002540D01*
X009951Y002540D02*
X010412Y002540D01*
X010412Y002771D01*
X010335Y002847D01*
X010181Y002847D01*
X010105Y002771D01*
X008880Y002915D02*
X008880Y003146D01*
X008804Y003222D01*
X008650Y003222D01*
X008573Y003146D01*
X008573Y002915D01*
X008420Y002915D02*
X008880Y002915D01*
X008573Y003069D02*
X008420Y003222D01*
X008497Y003376D02*
X008420Y003453D01*
X008420Y003606D01*
X008497Y003683D01*
X008573Y003683D01*
X008650Y003606D01*
X008650Y003376D01*
X008497Y003376D01*
X008650Y003376D02*
X008804Y003529D01*
X008880Y003683D01*
X006329Y006743D02*
X006022Y006743D01*
X005945Y006819D01*
X005945Y006973D01*
X006022Y007049D01*
X005945Y007203D02*
X005945Y007510D01*
X005945Y007356D02*
X006405Y007356D01*
X006252Y007203D01*
X006329Y007049D02*
X006405Y006973D01*
X006405Y006819D01*
X006329Y006743D01*
X006565Y007604D02*
X006565Y007904D01*
X006405Y007970D02*
X006329Y007817D01*
X006175Y007663D01*
X006175Y007894D01*
X006098Y007970D01*
X006022Y007970D01*
X005945Y007894D01*
X005945Y007740D01*
X006022Y007663D01*
X006175Y007663D01*
X007085Y007604D02*
X007085Y007894D01*
X005630Y009273D02*
X005554Y009197D01*
X005247Y009197D01*
X005170Y009273D01*
X005170Y009427D01*
X005247Y009504D01*
X005170Y009657D02*
X005170Y009964D01*
X005170Y009811D02*
X005630Y009811D01*
X005477Y009657D01*
X005554Y009504D02*
X005630Y009427D01*
X005630Y009273D01*
X004984Y008215D02*
X004831Y008215D01*
X004754Y008139D01*
X004601Y008062D02*
X004447Y008215D01*
X004447Y007755D01*
X004294Y007755D02*
X004601Y007755D01*
X004754Y007832D02*
X004831Y007755D01*
X004984Y007755D01*
X005061Y007832D01*
X005061Y008139D01*
X004984Y008215D01*
X004140Y007985D02*
X003833Y007985D01*
X003910Y007755D02*
X003910Y008215D01*
X004140Y007985D01*
X002555Y006753D02*
X002325Y006753D01*
X002248Y006676D01*
X002248Y006523D01*
X002325Y006446D01*
X002555Y006446D01*
X002402Y006446D02*
X002248Y006293D01*
X002095Y006369D02*
X002018Y006293D01*
X001864Y006293D01*
X001788Y006369D01*
X001788Y006446D01*
X001864Y006523D01*
X001941Y006523D01*
X001864Y006523D02*
X001788Y006599D01*
X001788Y006676D01*
X001864Y006753D01*
X002018Y006753D01*
X002095Y006676D01*
X002555Y006753D02*
X002555Y006293D01*
X003091Y005160D02*
X002784Y004853D01*
X002708Y004853D01*
X002558Y004863D02*
X002558Y004582D01*
X002708Y004623D02*
X002708Y004469D01*
X002784Y004393D01*
X003091Y004393D01*
X003168Y004469D01*
X003168Y004623D01*
X003091Y004699D01*
X003168Y004853D02*
X003168Y005160D01*
X003091Y005160D01*
X002784Y004699D02*
X002708Y004623D01*
X002223Y004582D02*
X002223Y004863D01*
X002723Y002859D02*
X002876Y002859D01*
X002953Y002782D01*
X003106Y002859D02*
X003260Y002859D01*
X003183Y002859D02*
X003183Y002475D01*
X003260Y002399D01*
X003337Y002399D01*
X003413Y002475D01*
X002953Y002399D02*
X002646Y002706D01*
X002646Y002782D01*
X002723Y002859D01*
X002646Y002399D02*
X002953Y002399D01*
X008509Y010561D02*
X008509Y010638D01*
X008202Y010945D01*
X008202Y011022D01*
X008509Y011022D01*
X008569Y011181D02*
X008269Y011181D01*
X008816Y011022D02*
X008816Y010561D01*
X008663Y010561D02*
X008970Y010561D01*
X009123Y010638D02*
X009200Y010561D01*
X009353Y010561D01*
X009430Y010638D01*
X009430Y010945D01*
X009353Y011022D01*
X009200Y011022D01*
X009123Y010945D01*
X008970Y010868D02*
X008816Y011022D01*
X008569Y011701D02*
X008279Y011701D01*
D14*
X005952Y010007D03*
X005952Y009687D03*
X009202Y003194D03*
X009202Y002874D03*
X009702Y002874D03*
X009702Y003194D03*
D15*
X011198Y004682D03*
X011198Y005142D03*
X002390Y004951D03*
X002390Y004491D03*
D16*
X002484Y005971D03*
X002164Y005971D03*
X003791Y008537D03*
X004111Y008537D03*
D17*
X003347Y005132D02*
X003347Y000644D01*
X008209Y000644D01*
X008209Y005132D01*
X003347Y005132D01*
D18*
X006825Y007466D03*
X006825Y008036D03*
D19*
X008136Y011441D03*
X008706Y011441D03*
M02*
