G75*
G70*
%OFA0B0*%
%FSLAX24Y24*%
%IPPOS*%
%LPD*%
%AMOC8*
5,1,8,0,0,1.08239X$1,22.5*
%
%ADD10C,0.0000*%
%ADD11R,0.0394X0.0433*%
%ADD12R,0.0512X0.0591*%
%ADD13R,0.0236X0.0709*%
%ADD14R,0.0591X0.0591*%
%ADD15R,0.0394X0.0610*%
%ADD16R,0.0571X0.0394*%
%ADD17R,0.0315X0.0591*%
%ADD18R,0.0315X0.0551*%
%ADD19R,0.0276X0.0354*%
%ADD20R,0.0591X0.0512*%
%ADD21R,0.0433X0.0394*%
%ADD22C,0.0600*%
%ADD23C,0.0436*%
%ADD24R,0.0354X0.0276*%
%ADD25R,0.0250X0.0500*%
%ADD26C,0.0356*%
%ADD27C,0.0320*%
%ADD28C,0.0317*%
%ADD29C,0.0160*%
%ADD30C,0.0120*%
%ADD31C,0.0100*%
%ADD32C,0.0240*%
D10*
X000160Y000288D02*
X000160Y019888D01*
X019760Y019888D01*
X019760Y000288D01*
X000160Y000288D01*
X000609Y001288D02*
X000611Y001335D01*
X000617Y001381D01*
X000627Y001427D01*
X000640Y001472D01*
X000658Y001515D01*
X000679Y001557D01*
X000703Y001597D01*
X000731Y001634D01*
X000762Y001669D01*
X000796Y001702D01*
X000832Y001731D01*
X000871Y001757D01*
X000912Y001780D01*
X000955Y001799D01*
X000999Y001815D01*
X001044Y001827D01*
X001090Y001835D01*
X001137Y001839D01*
X001183Y001839D01*
X001230Y001835D01*
X001276Y001827D01*
X001321Y001815D01*
X001365Y001799D01*
X001408Y001780D01*
X001449Y001757D01*
X001488Y001731D01*
X001524Y001702D01*
X001558Y001669D01*
X001589Y001634D01*
X001617Y001597D01*
X001641Y001557D01*
X001662Y001515D01*
X001680Y001472D01*
X001693Y001427D01*
X001703Y001381D01*
X001709Y001335D01*
X001711Y001288D01*
X001709Y001241D01*
X001703Y001195D01*
X001693Y001149D01*
X001680Y001104D01*
X001662Y001061D01*
X001641Y001019D01*
X001617Y000979D01*
X001589Y000942D01*
X001558Y000907D01*
X001524Y000874D01*
X001488Y000845D01*
X001449Y000819D01*
X001408Y000796D01*
X001365Y000777D01*
X001321Y000761D01*
X001276Y000749D01*
X001230Y000741D01*
X001183Y000737D01*
X001137Y000737D01*
X001090Y000741D01*
X001044Y000749D01*
X000999Y000761D01*
X000955Y000777D01*
X000912Y000796D01*
X000871Y000819D01*
X000832Y000845D01*
X000796Y000874D01*
X000762Y000907D01*
X000731Y000942D01*
X000703Y000979D01*
X000679Y001019D01*
X000658Y001061D01*
X000640Y001104D01*
X000627Y001149D01*
X000617Y001195D01*
X000611Y001241D01*
X000609Y001288D01*
X000609Y018888D02*
X000611Y018935D01*
X000617Y018981D01*
X000627Y019027D01*
X000640Y019072D01*
X000658Y019115D01*
X000679Y019157D01*
X000703Y019197D01*
X000731Y019234D01*
X000762Y019269D01*
X000796Y019302D01*
X000832Y019331D01*
X000871Y019357D01*
X000912Y019380D01*
X000955Y019399D01*
X000999Y019415D01*
X001044Y019427D01*
X001090Y019435D01*
X001137Y019439D01*
X001183Y019439D01*
X001230Y019435D01*
X001276Y019427D01*
X001321Y019415D01*
X001365Y019399D01*
X001408Y019380D01*
X001449Y019357D01*
X001488Y019331D01*
X001524Y019302D01*
X001558Y019269D01*
X001589Y019234D01*
X001617Y019197D01*
X001641Y019157D01*
X001662Y019115D01*
X001680Y019072D01*
X001693Y019027D01*
X001703Y018981D01*
X001709Y018935D01*
X001711Y018888D01*
X001709Y018841D01*
X001703Y018795D01*
X001693Y018749D01*
X001680Y018704D01*
X001662Y018661D01*
X001641Y018619D01*
X001617Y018579D01*
X001589Y018542D01*
X001558Y018507D01*
X001524Y018474D01*
X001488Y018445D01*
X001449Y018419D01*
X001408Y018396D01*
X001365Y018377D01*
X001321Y018361D01*
X001276Y018349D01*
X001230Y018341D01*
X001183Y018337D01*
X001137Y018337D01*
X001090Y018341D01*
X001044Y018349D01*
X000999Y018361D01*
X000955Y018377D01*
X000912Y018396D01*
X000871Y018419D01*
X000832Y018445D01*
X000796Y018474D01*
X000762Y018507D01*
X000731Y018542D01*
X000703Y018579D01*
X000679Y018619D01*
X000658Y018661D01*
X000640Y018704D01*
X000627Y018749D01*
X000617Y018795D01*
X000611Y018841D01*
X000609Y018888D01*
X018209Y018888D02*
X018211Y018935D01*
X018217Y018981D01*
X018227Y019027D01*
X018240Y019072D01*
X018258Y019115D01*
X018279Y019157D01*
X018303Y019197D01*
X018331Y019234D01*
X018362Y019269D01*
X018396Y019302D01*
X018432Y019331D01*
X018471Y019357D01*
X018512Y019380D01*
X018555Y019399D01*
X018599Y019415D01*
X018644Y019427D01*
X018690Y019435D01*
X018737Y019439D01*
X018783Y019439D01*
X018830Y019435D01*
X018876Y019427D01*
X018921Y019415D01*
X018965Y019399D01*
X019008Y019380D01*
X019049Y019357D01*
X019088Y019331D01*
X019124Y019302D01*
X019158Y019269D01*
X019189Y019234D01*
X019217Y019197D01*
X019241Y019157D01*
X019262Y019115D01*
X019280Y019072D01*
X019293Y019027D01*
X019303Y018981D01*
X019309Y018935D01*
X019311Y018888D01*
X019309Y018841D01*
X019303Y018795D01*
X019293Y018749D01*
X019280Y018704D01*
X019262Y018661D01*
X019241Y018619D01*
X019217Y018579D01*
X019189Y018542D01*
X019158Y018507D01*
X019124Y018474D01*
X019088Y018445D01*
X019049Y018419D01*
X019008Y018396D01*
X018965Y018377D01*
X018921Y018361D01*
X018876Y018349D01*
X018830Y018341D01*
X018783Y018337D01*
X018737Y018337D01*
X018690Y018341D01*
X018644Y018349D01*
X018599Y018361D01*
X018555Y018377D01*
X018512Y018396D01*
X018471Y018419D01*
X018432Y018445D01*
X018396Y018474D01*
X018362Y018507D01*
X018331Y018542D01*
X018303Y018579D01*
X018279Y018619D01*
X018258Y018661D01*
X018240Y018704D01*
X018227Y018749D01*
X018217Y018795D01*
X018211Y018841D01*
X018209Y018888D01*
X018209Y001288D02*
X018211Y001335D01*
X018217Y001381D01*
X018227Y001427D01*
X018240Y001472D01*
X018258Y001515D01*
X018279Y001557D01*
X018303Y001597D01*
X018331Y001634D01*
X018362Y001669D01*
X018396Y001702D01*
X018432Y001731D01*
X018471Y001757D01*
X018512Y001780D01*
X018555Y001799D01*
X018599Y001815D01*
X018644Y001827D01*
X018690Y001835D01*
X018737Y001839D01*
X018783Y001839D01*
X018830Y001835D01*
X018876Y001827D01*
X018921Y001815D01*
X018965Y001799D01*
X019008Y001780D01*
X019049Y001757D01*
X019088Y001731D01*
X019124Y001702D01*
X019158Y001669D01*
X019189Y001634D01*
X019217Y001597D01*
X019241Y001557D01*
X019262Y001515D01*
X019280Y001472D01*
X019293Y001427D01*
X019303Y001381D01*
X019309Y001335D01*
X019311Y001288D01*
X019309Y001241D01*
X019303Y001195D01*
X019293Y001149D01*
X019280Y001104D01*
X019262Y001061D01*
X019241Y001019D01*
X019217Y000979D01*
X019189Y000942D01*
X019158Y000907D01*
X019124Y000874D01*
X019088Y000845D01*
X019049Y000819D01*
X019008Y000796D01*
X018965Y000777D01*
X018921Y000761D01*
X018876Y000749D01*
X018830Y000741D01*
X018783Y000737D01*
X018737Y000737D01*
X018690Y000741D01*
X018644Y000749D01*
X018599Y000761D01*
X018555Y000777D01*
X018512Y000796D01*
X018471Y000819D01*
X018432Y000845D01*
X018396Y000874D01*
X018362Y000907D01*
X018331Y000942D01*
X018303Y000979D01*
X018279Y001019D01*
X018258Y001061D01*
X018240Y001104D01*
X018227Y001149D01*
X018217Y001195D01*
X018211Y001241D01*
X018209Y001288D01*
D11*
X011973Y010515D03*
X011973Y011185D03*
X007348Y005747D03*
X007348Y005078D03*
X018223Y010922D03*
X018223Y011591D03*
D12*
X017982Y013225D03*
X018651Y013225D03*
X016026Y017694D03*
X015357Y017694D03*
X012820Y015242D03*
D13*
X012348Y015183D03*
X011914Y015183D03*
X011481Y015183D03*
X011048Y015183D03*
X010615Y015183D03*
X010182Y015183D03*
X009749Y015183D03*
X009316Y015183D03*
D14*
X008351Y015242D03*
D15*
X008371Y019455D03*
D16*
X012800Y018825D03*
D17*
X012918Y018234D03*
D18*
X008214Y018490D03*
D19*
X007978Y014100D03*
X007467Y014100D03*
X007467Y013631D03*
X007978Y013631D03*
D20*
X006660Y008216D03*
X006660Y007547D03*
D21*
X006776Y009538D03*
X006107Y009538D03*
D22*
X015098Y018581D02*
X015098Y019181D01*
X016098Y019181D02*
X016098Y018581D01*
D23*
X004754Y013069D03*
X004254Y013069D03*
X003754Y013069D03*
X003254Y013069D03*
X002754Y013069D03*
X002254Y013069D03*
X001754Y013069D03*
X001754Y012069D03*
X002254Y012069D03*
X002754Y012069D03*
X003254Y012069D03*
X003754Y012069D03*
X004254Y012069D03*
X004754Y012069D03*
X002460Y006288D03*
X002460Y005788D03*
X002460Y005288D03*
X002460Y004788D03*
X002460Y004288D03*
X002460Y003788D03*
X002460Y003288D03*
X002460Y002788D03*
X001460Y002788D03*
X001460Y003288D03*
X001460Y003788D03*
X001460Y004288D03*
X001460Y004788D03*
X001460Y005288D03*
X001460Y005788D03*
X001460Y006288D03*
X017460Y006288D03*
X017460Y005788D03*
X017460Y005288D03*
X017460Y004788D03*
X017460Y004288D03*
X017460Y003788D03*
X017460Y003288D03*
X018460Y003288D03*
X018460Y003788D03*
X018460Y004288D03*
X018460Y004788D03*
X018460Y005288D03*
X018460Y005788D03*
X018460Y006288D03*
D24*
X019160Y005450D03*
X019160Y004938D03*
D25*
X016897Y001256D03*
X016504Y001256D03*
X016110Y001256D03*
D26*
X014723Y013100D03*
X014473Y013381D03*
X019066Y014256D03*
D27*
X018691Y014256D01*
X017982Y013547D01*
X017982Y013225D01*
X017982Y013078D01*
X017285Y012381D01*
X015441Y012381D01*
X014473Y013381D01*
D28*
X015129Y013319D03*
X015473Y013038D03*
X016566Y013944D03*
X017348Y013350D03*
X017254Y012975D03*
X017566Y014038D03*
X017098Y014881D03*
X016066Y014944D03*
X015379Y014381D03*
X014879Y014413D03*
X014285Y014225D03*
X013379Y014756D03*
X013785Y015975D03*
X013441Y016881D03*
X012848Y016850D03*
X013410Y017444D03*
X013941Y018069D03*
X013754Y019225D03*
X014816Y017100D03*
X015004Y015850D03*
X014973Y015069D03*
X012848Y013288D03*
X012129Y013194D03*
X011816Y013506D03*
X011848Y013913D03*
X013160Y012413D03*
X011973Y011256D03*
X011066Y011725D03*
X010754Y010413D03*
X011410Y010163D03*
X010660Y008788D03*
X010660Y008256D03*
X011066Y007506D03*
X011441Y007288D03*
X010660Y007381D03*
X009879Y007131D03*
X009660Y008225D03*
X009691Y008819D03*
X009535Y010163D03*
X009566Y011100D03*
X009035Y011819D03*
X008691Y012069D03*
X008379Y011725D03*
X008441Y011100D03*
X007566Y012194D03*
X007066Y012913D03*
X006723Y013288D03*
X007254Y013663D03*
X008004Y013631D03*
X008598Y014069D03*
X009191Y013694D03*
X008879Y013319D03*
X009254Y013163D03*
X010066Y013475D03*
X010566Y015913D03*
X011129Y016288D03*
X011598Y016163D03*
X011848Y015881D03*
X011535Y016725D03*
X011410Y017725D03*
X010598Y017600D03*
X009879Y018100D03*
X010598Y018538D03*
X010160Y018850D03*
X008941Y019538D03*
X006691Y017788D03*
X006785Y016538D03*
X007160Y015975D03*
X007723Y015600D03*
X008754Y015975D03*
X009910Y016694D03*
X009754Y017163D03*
X007066Y014475D03*
X006629Y015069D03*
X006035Y016475D03*
X005223Y015725D03*
X005160Y014381D03*
X005316Y012100D03*
X005004Y010413D03*
X005379Y010163D03*
X006004Y010194D03*
X007223Y010756D03*
X007316Y009569D03*
X007254Y009006D03*
X007691Y008631D03*
X007441Y008194D03*
X008035Y008006D03*
X008254Y007350D03*
X007848Y007256D03*
X007223Y007256D03*
X007879Y005819D03*
X007348Y005756D03*
X006879Y005756D03*
X005566Y005944D03*
X005629Y007131D03*
X005316Y008194D03*
X004723Y008100D03*
X005004Y008944D03*
X003223Y009444D03*
X003223Y009788D03*
X001973Y009725D03*
X001973Y010944D03*
X001129Y010975D03*
X002535Y012569D03*
X001191Y013006D03*
X001254Y014475D03*
X002285Y015506D03*
X002785Y016256D03*
X003066Y017600D03*
X003191Y019288D03*
X005098Y018163D03*
X005410Y017569D03*
X006129Y019006D03*
X000910Y016975D03*
X000723Y015663D03*
X001379Y008319D03*
X001441Y007506D03*
X002191Y007506D03*
X003473Y006038D03*
X003254Y005631D03*
X003941Y006131D03*
X004816Y004288D03*
X005129Y004038D03*
X004535Y003975D03*
X003723Y003381D03*
X003441Y002819D03*
X003223Y002381D03*
X003285Y001850D03*
X005660Y003538D03*
X006191Y003975D03*
X006723Y004319D03*
X006941Y003944D03*
X007066Y002819D03*
X006098Y002850D03*
X006191Y001944D03*
X006535Y001694D03*
X006223Y000819D03*
X008160Y002319D03*
X009098Y003100D03*
X009098Y003725D03*
X010098Y004256D03*
X010066Y004944D03*
X010098Y005350D03*
X009379Y005194D03*
X010348Y003413D03*
X010754Y003413D03*
X011441Y003600D03*
X012223Y003038D03*
X011254Y002006D03*
X011410Y001538D03*
X010379Y001288D03*
X009535Y000944D03*
X009035Y001069D03*
X009504Y002413D03*
X011941Y005038D03*
X012723Y005506D03*
X013473Y005663D03*
X012879Y006350D03*
X014035Y004850D03*
X012973Y004381D03*
X013598Y003413D03*
X013723Y002663D03*
X013066Y001788D03*
X014785Y000944D03*
X015535Y001256D03*
X016035Y002131D03*
X016660Y002288D03*
X016535Y002694D03*
X016035Y003350D03*
X015723Y003663D03*
X014941Y003725D03*
X015566Y002663D03*
X016473Y000569D03*
X017973Y001788D03*
X018066Y000725D03*
X018973Y004444D03*
X017973Y005381D03*
X019004Y006194D03*
X018566Y007538D03*
X019379Y008069D03*
X018629Y008475D03*
X019379Y009319D03*
X017316Y010663D03*
X016629Y011600D03*
X017191Y011725D03*
X016035Y011913D03*
X015879Y011506D03*
X014566Y011694D03*
X015254Y010194D03*
X014723Y009881D03*
X015785Y008944D03*
X016129Y008506D03*
X017129Y008756D03*
X017004Y007569D03*
X017410Y006788D03*
X016598Y005850D03*
X015941Y006131D03*
X015848Y006631D03*
X015348Y007194D03*
X014348Y007850D03*
X014504Y008350D03*
X013379Y009600D03*
X012254Y008538D03*
X016098Y010100D03*
X019379Y013006D03*
X018941Y015663D03*
X018879Y016913D03*
X017504Y018944D03*
X008410Y010006D03*
X008254Y009600D03*
X000879Y004725D03*
X000879Y003819D03*
D29*
X005629Y007131D02*
X006044Y007547D01*
X006660Y007547D01*
X007691Y002788D02*
X006598Y001694D01*
X013160Y012413D02*
X012848Y012725D01*
X012848Y013288D01*
X012848Y013506D01*
X011941Y014413D01*
X010910Y014413D01*
X010615Y014707D01*
X010615Y015183D01*
X012285Y016881D02*
X012785Y016381D01*
X013754Y016381D01*
X013941Y016569D01*
X013941Y018069D01*
X013754Y019225D02*
X013754Y019538D01*
X008941Y019538D01*
X009879Y018100D02*
X011473Y018100D01*
X011410Y018038D01*
X011410Y017725D01*
X011473Y018100D02*
X011598Y018100D01*
X012848Y016850D01*
X015098Y017953D02*
X015098Y018881D01*
X015098Y017953D02*
X015357Y017694D01*
X007467Y014100D02*
X007092Y014475D01*
X007066Y014475D01*
X007035Y014506D01*
X006191Y014506D01*
X006035Y014663D01*
X006035Y016475D01*
X007254Y013663D02*
X007285Y013631D01*
X007467Y013631D01*
X018460Y005788D02*
X018978Y005788D01*
D30*
X018978Y005757D01*
X018978Y005757D01*
X019160Y005575D01*
X019160Y005450D01*
X019307Y005767D02*
X019238Y005836D01*
X019238Y005839D01*
X019199Y005935D01*
X019126Y006008D01*
X019030Y006047D01*
X018783Y006047D01*
X018798Y006062D01*
X018858Y006208D01*
X018858Y006367D01*
X018798Y006513D01*
X018686Y006625D01*
X018539Y006686D01*
X018381Y006686D01*
X018327Y006664D01*
X018327Y007008D01*
X018147Y007188D01*
X018147Y007222D01*
X018102Y007332D01*
X018017Y007417D01*
X017907Y007462D01*
X016941Y007462D01*
X016224Y008179D01*
X016320Y008219D01*
X016416Y008315D01*
X016467Y008439D01*
X016467Y008574D01*
X016431Y008660D01*
X016431Y009116D01*
X016395Y009205D01*
X016327Y009272D01*
X016077Y009522D01*
X015989Y009559D01*
X015666Y009559D01*
X015494Y009731D01*
X015494Y009955D01*
X015541Y010002D01*
X015592Y010126D01*
X015592Y010261D01*
X015541Y010385D01*
X015484Y010442D01*
X015484Y011576D01*
X015540Y011519D01*
X015540Y011439D01*
X015592Y011315D01*
X015687Y011219D01*
X015811Y011168D01*
X015946Y011168D01*
X016070Y011219D01*
X016166Y011315D01*
X016217Y011439D01*
X016217Y011574D01*
X016166Y011698D01*
X016070Y011793D01*
X015946Y011845D01*
X015866Y011845D01*
X015669Y012041D01*
X017353Y012041D01*
X017478Y012093D01*
X017573Y012189D01*
X018134Y012750D01*
X018312Y012750D01*
X018341Y012779D01*
X018374Y012770D01*
X018591Y012770D01*
X018591Y013165D01*
X018711Y013165D01*
X018711Y013285D01*
X019067Y013285D01*
X019067Y013541D01*
X019056Y013582D01*
X019035Y013619D01*
X019005Y013648D01*
X018969Y013669D01*
X018928Y013680D01*
X018711Y013680D01*
X018711Y013285D01*
X018591Y013285D01*
X018591Y013675D01*
X018832Y013916D01*
X018951Y013916D01*
X018995Y013898D01*
X019137Y013898D01*
X019269Y013953D01*
X019370Y014053D01*
X019424Y014185D01*
X019424Y014327D01*
X019370Y014459D01*
X019269Y014560D01*
X019137Y014614D01*
X018995Y014614D01*
X018951Y014596D01*
X018624Y014596D01*
X018499Y014544D01*
X017891Y013937D01*
X017905Y013970D01*
X017905Y014105D01*
X017853Y014229D01*
X017806Y014276D01*
X017806Y014460D01*
X017770Y014548D01*
X017436Y014882D01*
X017436Y014949D01*
X017384Y015073D01*
X017289Y015168D01*
X017165Y015220D01*
X017030Y015220D01*
X016943Y015184D01*
X016305Y015184D01*
X016258Y015231D01*
X016134Y015282D01*
X015999Y015282D01*
X015875Y015231D01*
X015779Y015135D01*
X015728Y015011D01*
X015728Y014876D01*
X015779Y014752D01*
X015875Y014657D01*
X015999Y014605D01*
X016134Y014605D01*
X016258Y014657D01*
X016305Y014704D01*
X016805Y014704D01*
X016811Y014690D01*
X016906Y014594D01*
X017030Y014543D01*
X017097Y014543D01*
X017326Y014313D01*
X017326Y014276D01*
X017279Y014229D01*
X017228Y014105D01*
X017228Y013970D01*
X017279Y013846D01*
X017375Y013751D01*
X017499Y013699D01*
X017634Y013699D01*
X017686Y013721D01*
X017677Y013700D01*
X017651Y013700D01*
X017546Y013595D01*
X017546Y013123D01*
X017144Y012721D01*
X015593Y012721D01*
X015664Y012751D01*
X015759Y012846D01*
X015811Y012970D01*
X015811Y013105D01*
X015759Y013229D01*
X015702Y013286D01*
X015702Y013539D01*
X015109Y014133D01*
X015109Y014164D01*
X015166Y014221D01*
X015217Y014345D01*
X015217Y014480D01*
X015166Y014604D01*
X015070Y014699D01*
X014946Y014751D01*
X014811Y014751D01*
X014687Y014699D01*
X014592Y014604D01*
X014540Y014480D01*
X014540Y014448D01*
X014477Y014512D01*
X014352Y014563D01*
X014218Y014563D01*
X014171Y014544D01*
X014171Y015320D01*
X014037Y015455D01*
X013370Y016121D01*
X013805Y016121D01*
X013901Y016161D01*
X013974Y016234D01*
X014162Y016421D01*
X014201Y016517D01*
X014201Y017850D01*
X014228Y017877D01*
X014280Y018001D01*
X014280Y018136D01*
X014228Y018260D01*
X014133Y018356D01*
X014009Y018407D01*
X013874Y018407D01*
X013750Y018356D01*
X013654Y018260D01*
X013603Y018136D01*
X013603Y018001D01*
X013654Y017877D01*
X013681Y017850D01*
X013681Y016676D01*
X013646Y016641D01*
X013117Y016641D01*
X013134Y016658D01*
X013186Y016783D01*
X013186Y016917D01*
X013134Y017042D01*
X013039Y017137D01*
X012915Y017188D01*
X012877Y017188D01*
X011818Y018247D01*
X011758Y018308D01*
X012476Y018308D01*
X012565Y018303D01*
X012570Y018308D01*
X012577Y018308D01*
X012581Y018312D01*
X012581Y017865D01*
X012686Y017759D01*
X013150Y017759D01*
X013256Y017865D01*
X013256Y018544D01*
X013266Y018553D01*
X013266Y019096D01*
X013160Y019202D01*
X012440Y019202D01*
X012335Y019096D01*
X012335Y018767D01*
X010846Y018767D01*
X010789Y018824D01*
X010665Y018876D01*
X010530Y018876D01*
X010406Y018824D01*
X010311Y018729D01*
X010259Y018605D01*
X010259Y018470D01*
X010305Y018360D01*
X010097Y018360D01*
X010070Y018387D01*
X009946Y018438D01*
X009811Y018438D01*
X009687Y018387D01*
X009592Y018292D01*
X009540Y018167D01*
X009540Y018033D01*
X009592Y017908D01*
X009687Y017813D01*
X009811Y017762D01*
X009946Y017762D01*
X010070Y017813D01*
X010097Y017840D01*
X011091Y017840D01*
X011072Y017792D01*
X011072Y017658D01*
X011123Y017533D01*
X011218Y017438D01*
X011328Y017392D01*
X010002Y017392D01*
X009945Y017449D01*
X009821Y017501D01*
X009686Y017501D01*
X009562Y017449D01*
X009467Y017354D01*
X009415Y017230D01*
X009415Y017095D01*
X009467Y016971D01*
X009514Y016924D01*
X009037Y016924D01*
X008921Y017039D01*
X008787Y017174D01*
X003377Y017174D01*
X002798Y016595D01*
X002718Y016595D01*
X002593Y016543D01*
X002498Y016448D01*
X002447Y016324D01*
X002447Y016189D01*
X002498Y016065D01*
X002593Y015969D01*
X002718Y015918D01*
X002852Y015918D01*
X002977Y015969D01*
X003072Y016065D01*
X003123Y016189D01*
X003123Y016269D01*
X003568Y016714D01*
X005795Y016714D01*
X005748Y016667D01*
X005697Y016542D01*
X005697Y016408D01*
X005748Y016283D01*
X005775Y016256D01*
X005775Y015498D01*
X005561Y015712D01*
X005561Y015792D01*
X005509Y015917D01*
X005414Y016012D01*
X005290Y016063D01*
X005155Y016063D01*
X005031Y016012D01*
X004936Y015917D01*
X004884Y015792D01*
X004884Y015658D01*
X004936Y015533D01*
X005031Y015438D01*
X005155Y015387D01*
X005236Y015387D01*
X005493Y015130D01*
X005493Y013755D01*
X005627Y013620D01*
X006917Y012330D01*
X006787Y012330D01*
X005359Y013758D01*
X005224Y013892D01*
X003283Y013892D01*
X003158Y013767D01*
X003024Y013633D01*
X003024Y013402D01*
X003004Y013382D01*
X002979Y013406D01*
X002833Y013467D01*
X002675Y013467D01*
X002528Y013406D01*
X002504Y013382D01*
X002479Y013406D01*
X002333Y013467D01*
X002175Y013467D01*
X002028Y013406D01*
X001989Y013367D01*
X001933Y013404D01*
X001864Y013432D01*
X001791Y013447D01*
X001754Y013447D01*
X001754Y013069D01*
X001754Y013069D01*
X001754Y013447D01*
X001717Y013447D01*
X001643Y013432D01*
X001575Y013404D01*
X001513Y013362D01*
X001460Y013310D01*
X001419Y013248D01*
X001390Y013179D01*
X001376Y013106D01*
X001376Y013069D01*
X001754Y013069D01*
X001754Y012691D01*
X001791Y012691D01*
X001864Y012705D01*
X001933Y012734D01*
X001989Y012771D01*
X002028Y012731D01*
X002175Y012671D01*
X002333Y012671D01*
X002479Y012731D01*
X002504Y012756D01*
X002528Y012731D01*
X002614Y012696D01*
X002658Y012651D01*
X002850Y012460D01*
X002833Y012467D01*
X002675Y012467D01*
X002528Y012406D01*
X002504Y012382D01*
X002479Y012406D01*
X002333Y012467D01*
X002175Y012467D01*
X002028Y012406D01*
X001989Y012367D01*
X001933Y012404D01*
X001864Y012432D01*
X001791Y012447D01*
X001754Y012447D01*
X001754Y012069D01*
X001754Y012069D01*
X001754Y012447D01*
X001717Y012447D01*
X001643Y012432D01*
X001575Y012404D01*
X001513Y012362D01*
X001460Y012310D01*
X001419Y012248D01*
X001390Y012179D01*
X001376Y012106D01*
X001376Y012069D01*
X001754Y012069D01*
X001754Y011691D01*
X001791Y011691D01*
X001864Y011705D01*
X001933Y011734D01*
X001989Y011771D01*
X002028Y011731D01*
X002175Y011671D01*
X002333Y011671D01*
X002479Y011731D01*
X002504Y011756D01*
X002524Y011736D01*
X002524Y011692D01*
X003690Y010526D01*
X004685Y010526D01*
X004665Y010480D01*
X004665Y010345D01*
X004717Y010221D01*
X004812Y010126D01*
X004936Y010074D01*
X005071Y010074D01*
X005195Y010126D01*
X005291Y010221D01*
X005314Y010276D01*
X006658Y010276D01*
X007020Y009914D01*
X006485Y009914D01*
X006427Y009857D01*
X006421Y009862D01*
X006385Y009883D01*
X006344Y009894D01*
X006145Y009894D01*
X006145Y009576D01*
X006068Y009576D01*
X006068Y009499D01*
X005730Y009499D01*
X005730Y009320D01*
X005741Y009279D01*
X005762Y009242D01*
X005792Y009213D01*
X005828Y009192D01*
X005869Y009181D01*
X006068Y009181D01*
X006068Y009499D01*
X006145Y009499D01*
X006145Y009181D01*
X006344Y009181D01*
X006385Y009192D01*
X006421Y009213D01*
X006427Y009218D01*
X006485Y009161D01*
X007067Y009161D01*
X007170Y009263D01*
X007249Y009230D01*
X007384Y009230D01*
X007490Y009274D01*
X007555Y009209D01*
X007899Y008865D01*
X007987Y008829D01*
X008139Y008829D01*
X008139Y008330D01*
X008102Y008345D01*
X007968Y008345D01*
X007843Y008293D01*
X007748Y008198D01*
X007697Y008074D01*
X007697Y007939D01*
X007748Y007815D01*
X007785Y007777D01*
X007644Y007777D01*
X007555Y007741D01*
X007430Y007616D01*
X007363Y007548D01*
X007326Y007460D01*
X007326Y007090D01*
X006769Y007090D01*
X006680Y007053D01*
X006613Y006986D01*
X005808Y006181D01*
X005758Y006231D01*
X005634Y006282D01*
X005499Y006282D01*
X005421Y006250D01*
X005421Y006860D01*
X005437Y006844D01*
X005561Y006793D01*
X005696Y006793D01*
X005820Y006844D01*
X005916Y006940D01*
X005967Y007064D01*
X005967Y007102D01*
X006152Y007287D01*
X006185Y007287D01*
X006185Y007216D01*
X006290Y007111D01*
X007030Y007111D01*
X007135Y007216D01*
X007135Y007877D01*
X007106Y007906D01*
X007115Y007939D01*
X007115Y008156D01*
X006720Y008156D01*
X006720Y008276D01*
X006600Y008276D01*
X006600Y008632D01*
X006344Y008632D01*
X006303Y008621D01*
X006266Y008600D01*
X006237Y008570D01*
X006216Y008534D01*
X006205Y008493D01*
X006205Y008276D01*
X006600Y008276D01*
X006600Y008156D01*
X006205Y008156D01*
X006205Y007939D01*
X006214Y007906D01*
X006185Y007877D01*
X006185Y007807D01*
X005992Y007807D01*
X005897Y007767D01*
X005599Y007470D01*
X005561Y007470D01*
X005437Y007418D01*
X005421Y007402D01*
X005421Y007871D01*
X005508Y007907D01*
X005603Y008002D01*
X005655Y008126D01*
X005655Y008261D01*
X005603Y008385D01*
X005508Y008481D01*
X005384Y008532D01*
X005249Y008532D01*
X005234Y008526D01*
X005234Y008695D01*
X005291Y008752D01*
X005342Y008876D01*
X005342Y009011D01*
X005291Y009135D01*
X005195Y009231D01*
X005071Y009282D01*
X004936Y009282D01*
X004812Y009231D01*
X004717Y009135D01*
X004665Y009011D01*
X004665Y008876D01*
X004717Y008752D01*
X004774Y008695D01*
X004774Y008438D01*
X004655Y008438D01*
X004531Y008387D01*
X004436Y008292D01*
X004384Y008167D01*
X004384Y008033D01*
X004436Y007908D01*
X004493Y007851D01*
X004493Y007817D01*
X004586Y007723D01*
X004586Y004536D01*
X004529Y004479D01*
X004478Y004355D01*
X004478Y004313D01*
X004468Y004313D01*
X004343Y004262D01*
X004248Y004167D01*
X004197Y004042D01*
X004197Y003908D01*
X004248Y003783D01*
X004343Y003688D01*
X004461Y003639D01*
X004461Y003348D01*
X004596Y003214D01*
X005412Y003214D01*
X005458Y003261D01*
X005468Y003251D01*
X005593Y003199D01*
X005727Y003199D01*
X005774Y003218D01*
X005774Y002953D01*
X005759Y002917D01*
X005759Y002783D01*
X005811Y002658D01*
X005906Y002563D01*
X006030Y002512D01*
X006165Y002512D01*
X006289Y002563D01*
X006384Y002658D01*
X006436Y002783D01*
X006436Y002917D01*
X006384Y003042D01*
X006289Y003137D01*
X006234Y003160D01*
X006234Y003420D01*
X006252Y003401D01*
X008599Y003401D01*
X008734Y003536D01*
X008787Y003590D01*
X008811Y003533D01*
X008868Y003476D01*
X008868Y003349D01*
X008811Y003292D01*
X008759Y003167D01*
X008759Y003033D01*
X008761Y003027D01*
X007791Y003027D01*
X007743Y003047D01*
X007640Y003047D01*
X007544Y003008D01*
X006568Y002032D01*
X006521Y002032D01*
X006478Y002135D01*
X006383Y002231D01*
X006259Y002282D01*
X006124Y002282D01*
X006000Y002231D01*
X005943Y002174D01*
X003755Y002174D01*
X003561Y002368D01*
X003561Y002449D01*
X003542Y002494D01*
X003633Y002532D01*
X003728Y002627D01*
X003780Y002751D01*
X003780Y002886D01*
X003728Y003010D01*
X003633Y003106D01*
X003509Y003157D01*
X003494Y003157D01*
X003494Y005393D01*
X003541Y005440D01*
X003592Y005564D01*
X003592Y005699D01*
X003584Y005718D01*
X003664Y005751D01*
X003755Y005842D01*
X003874Y005793D01*
X004009Y005793D01*
X004133Y005844D01*
X004228Y005940D01*
X004280Y006064D01*
X004280Y006199D01*
X004228Y006323D01*
X004181Y006370D01*
X004181Y006866D01*
X004145Y006955D01*
X003113Y007986D01*
X003046Y008053D01*
X002958Y008090D01*
X001112Y008090D01*
X001024Y008053D01*
X000368Y007397D01*
X000340Y007369D01*
X000340Y019708D01*
X008014Y019708D01*
X008014Y019493D01*
X008333Y019493D01*
X008333Y019416D01*
X008410Y019416D01*
X008410Y018990D01*
X008589Y018990D01*
X008630Y019001D01*
X008666Y019022D01*
X008696Y019051D01*
X008717Y019088D01*
X008728Y019129D01*
X012368Y019129D01*
X012335Y019011D02*
X008647Y019011D01*
X008728Y019129D02*
X008728Y019272D01*
X008750Y019251D01*
X008874Y019199D01*
X009009Y019199D01*
X009133Y019251D01*
X009160Y019278D01*
X013415Y019278D01*
X013415Y019158D01*
X013467Y019033D01*
X013562Y018938D01*
X013686Y018887D01*
X013821Y018887D01*
X013945Y018938D01*
X014041Y019033D01*
X014092Y019158D01*
X014092Y019292D01*
X014041Y019417D01*
X014014Y019444D01*
X014014Y019589D01*
X013974Y019685D01*
X013951Y019708D01*
X019580Y019708D01*
X019580Y013284D01*
X019570Y013293D01*
X019446Y013345D01*
X019311Y013345D01*
X019187Y013293D01*
X019092Y013198D01*
X019067Y013137D01*
X019067Y013165D01*
X018711Y013165D01*
X018711Y012770D01*
X018803Y012770D01*
X018550Y012517D01*
X018514Y012429D01*
X018514Y011938D01*
X018481Y011957D01*
X018440Y011967D01*
X018261Y011967D01*
X018261Y011629D01*
X018184Y011629D01*
X018184Y011552D01*
X017866Y011552D01*
X017866Y011353D01*
X017877Y011313D01*
X017898Y011276D01*
X017903Y011270D01*
X017846Y011213D01*
X017846Y010892D01*
X017565Y010892D01*
X017508Y010949D01*
X017384Y011001D01*
X017249Y011001D01*
X017156Y010962D01*
X017066Y010962D01*
X016929Y011099D01*
X016929Y011440D01*
X016967Y011533D01*
X016967Y011667D01*
X016916Y011792D01*
X016820Y011887D01*
X016696Y011938D01*
X016561Y011938D01*
X016437Y011887D01*
X016342Y011792D01*
X016290Y011667D01*
X016290Y011533D01*
X016329Y011440D01*
X016329Y010915D01*
X016374Y010805D01*
X016687Y010493D01*
X016771Y010408D01*
X016882Y010363D01*
X017156Y010363D01*
X017249Y010324D01*
X017384Y010324D01*
X017508Y010376D01*
X017565Y010433D01*
X018059Y010433D01*
X018151Y010525D01*
X018494Y010525D01*
X018514Y010545D01*
X018514Y010199D01*
X017339Y009025D01*
X017320Y009043D01*
X017196Y009095D01*
X017061Y009095D01*
X016937Y009043D01*
X016842Y008948D01*
X016790Y008824D01*
X016790Y008689D01*
X016842Y008565D01*
X016937Y008469D01*
X017061Y008418D01*
X017196Y008418D01*
X017320Y008469D01*
X017367Y008516D01*
X017458Y008516D01*
X017546Y008553D01*
X018890Y009897D01*
X018957Y009964D01*
X018994Y010052D01*
X018994Y012282D01*
X019380Y012668D01*
X019446Y012668D01*
X019570Y012719D01*
X019580Y012729D01*
X019580Y008346D01*
X019570Y008356D01*
X019446Y008407D01*
X019380Y008407D01*
X019108Y008678D01*
X019020Y008715D01*
X018867Y008715D01*
X018820Y008762D01*
X018696Y008813D01*
X018561Y008813D01*
X018437Y008762D01*
X018342Y008667D01*
X018290Y008542D01*
X018290Y008408D01*
X018342Y008283D01*
X018437Y008188D01*
X018561Y008137D01*
X018696Y008137D01*
X018820Y008188D01*
X018867Y008235D01*
X018873Y008235D01*
X019040Y008068D01*
X019040Y008001D01*
X019092Y007877D01*
X019187Y007782D01*
X019311Y007730D01*
X019446Y007730D01*
X019570Y007782D01*
X019580Y007791D01*
X019580Y000467D01*
X016797Y000467D01*
X016811Y000501D01*
X016811Y000636D01*
X016759Y000760D01*
X016712Y000807D01*
X016712Y000835D01*
X016729Y000852D01*
X016751Y000846D01*
X016895Y000846D01*
X016895Y001254D01*
X016900Y001254D01*
X016900Y001259D01*
X016895Y001259D01*
X016895Y001666D01*
X016751Y001666D01*
X016729Y001660D01*
X016703Y001686D01*
X015910Y001686D01*
X015805Y001581D01*
X015805Y001496D01*
X015774Y001496D01*
X015727Y001543D01*
X015602Y001595D01*
X015468Y001595D01*
X015343Y001543D01*
X015248Y001448D01*
X015197Y001324D01*
X015197Y001189D01*
X015248Y001065D01*
X015343Y000969D01*
X015468Y000918D01*
X015602Y000918D01*
X015727Y000969D01*
X015774Y001016D01*
X015805Y001016D01*
X015805Y000932D01*
X015910Y000826D01*
X016233Y000826D01*
X016233Y000807D01*
X016186Y000760D01*
X016134Y000636D01*
X016134Y000501D01*
X016148Y000467D01*
X000340Y000467D01*
X000340Y003112D01*
X000368Y003084D01*
X000738Y002714D01*
X000805Y002647D01*
X000894Y002610D01*
X001103Y002610D01*
X001122Y002562D01*
X001234Y002450D01*
X001381Y002389D01*
X001539Y002389D01*
X001639Y002431D01*
X001639Y002427D01*
X001649Y002403D01*
X001649Y002380D01*
X001665Y002363D01*
X001675Y002339D01*
X003087Y000928D01*
X003175Y000891D01*
X008592Y000891D01*
X008618Y000865D01*
X008706Y000829D01*
X008796Y000829D01*
X008843Y000782D01*
X008968Y000730D01*
X009102Y000730D01*
X009227Y000782D01*
X009322Y000877D01*
X009373Y001001D01*
X009373Y001136D01*
X009322Y001260D01*
X009227Y001356D01*
X009225Y001356D01*
X009488Y001620D01*
X009545Y001563D01*
X009545Y001209D01*
X009582Y001120D01*
X009649Y001053D01*
X010149Y000553D01*
X010237Y000516D01*
X013614Y000516D01*
X013702Y000553D01*
X013770Y000620D01*
X014488Y001339D01*
X014525Y001427D01*
X014525Y003898D01*
X014488Y003986D01*
X014421Y004053D01*
X013265Y005210D01*
X013176Y005246D01*
X012759Y005246D01*
X012525Y005481D01*
X012525Y005896D01*
X012575Y005845D01*
X012663Y005809D01*
X012737Y005809D01*
X013019Y005527D01*
X013019Y005527D01*
X013087Y005459D01*
X013175Y005423D01*
X013234Y005423D01*
X013281Y005376D01*
X013405Y005324D01*
X013540Y005324D01*
X013664Y005376D01*
X013759Y005471D01*
X013811Y005595D01*
X013811Y005730D01*
X013772Y005823D01*
X013772Y008851D01*
X014238Y009316D01*
X016646Y006908D01*
X016757Y006863D01*
X017822Y006863D01*
X017868Y006817D01*
X017868Y005911D01*
X018002Y005776D01*
X018062Y005717D01*
X018062Y005708D01*
X018122Y005562D01*
X018147Y005537D01*
X018122Y005513D01*
X018062Y005367D01*
X018062Y005208D01*
X018122Y005062D01*
X018147Y005038D01*
X018122Y005013D01*
X018062Y004867D01*
X018062Y004708D01*
X018122Y004562D01*
X018147Y004538D01*
X018122Y004513D01*
X018062Y004367D01*
X018062Y004208D01*
X018122Y004062D01*
X018147Y004038D01*
X018122Y004013D01*
X018119Y004004D01*
X018087Y003991D01*
X018019Y003923D01*
X017858Y003763D01*
X017858Y003867D01*
X017798Y004013D01*
X017773Y004038D01*
X017798Y004062D01*
X017858Y004208D01*
X017858Y004367D01*
X017798Y004513D01*
X017773Y004538D01*
X017798Y004562D01*
X017858Y004708D01*
X017858Y004867D01*
X017798Y005013D01*
X017773Y005037D01*
X017798Y005062D01*
X017858Y005208D01*
X017858Y005367D01*
X017798Y005513D01*
X017773Y005538D01*
X017798Y005562D01*
X017858Y005708D01*
X017858Y005867D01*
X017798Y006013D01*
X017773Y006038D01*
X017798Y006062D01*
X017858Y006208D01*
X017858Y006367D01*
X017798Y006513D01*
X017686Y006625D01*
X017539Y006686D01*
X017381Y006686D01*
X017234Y006625D01*
X017137Y006527D01*
X016759Y006527D01*
X016140Y007147D01*
X016051Y007184D01*
X015684Y007184D01*
X015660Y007188D01*
X015636Y007184D01*
X015612Y007184D01*
X015590Y007174D01*
X015566Y007170D01*
X015546Y007156D01*
X015524Y007147D01*
X015507Y007130D01*
X015487Y007117D01*
X015473Y007097D01*
X015457Y007080D01*
X015447Y007057D01*
X015407Y006996D01*
X015351Y006996D01*
X014643Y007679D01*
X014686Y007783D01*
X014686Y007917D01*
X014634Y008042D01*
X014539Y008137D01*
X014415Y008188D01*
X014280Y008188D01*
X014156Y008137D01*
X014061Y008042D01*
X014009Y007917D01*
X014009Y007783D01*
X014061Y007658D01*
X014108Y007611D01*
X014108Y007584D01*
X014108Y007581D01*
X014108Y007579D01*
X014127Y007537D01*
X014144Y007495D01*
X014146Y007494D01*
X014146Y007492D01*
X014179Y007460D01*
X014212Y007428D01*
X014214Y007427D01*
X015086Y006585D01*
X015118Y006553D01*
X015120Y006552D01*
X015121Y006550D01*
X015164Y006534D01*
X015206Y006516D01*
X015208Y006516D01*
X015210Y006515D01*
X015256Y006516D01*
X015511Y006516D01*
X015530Y006513D01*
X015561Y006440D01*
X015656Y006344D01*
X015670Y006339D01*
X015654Y006323D01*
X015603Y006199D01*
X015603Y006064D01*
X015654Y005940D01*
X015701Y005893D01*
X015701Y005521D01*
X015738Y005433D01*
X015889Y005282D01*
X015889Y003960D01*
X015790Y004001D01*
X015655Y004001D01*
X015531Y003949D01*
X015436Y003854D01*
X015384Y003730D01*
X015384Y003595D01*
X015436Y003471D01*
X015483Y003424D01*
X015483Y002896D01*
X015519Y002808D01*
X015890Y002437D01*
X015843Y002418D01*
X015828Y002402D01*
X015322Y002402D01*
X015181Y002543D01*
X015181Y003486D01*
X015228Y003533D01*
X015280Y003658D01*
X015280Y003792D01*
X015228Y003917D01*
X015133Y004012D01*
X015009Y004063D01*
X014874Y004063D01*
X014750Y004012D01*
X014654Y003917D01*
X014603Y003792D01*
X014603Y003658D01*
X014654Y003533D01*
X014701Y003486D01*
X014701Y002396D01*
X014738Y002308D01*
X015019Y002027D01*
X015087Y001959D01*
X015175Y001923D01*
X015765Y001923D01*
X015843Y001844D01*
X015968Y001793D01*
X016102Y001793D01*
X016227Y001844D01*
X016322Y001940D01*
X016367Y002048D01*
X016421Y002048D01*
X016468Y002001D01*
X016593Y001949D01*
X016727Y001949D01*
X016852Y002001D01*
X016947Y002096D01*
X016998Y002220D01*
X016998Y002355D01*
X016947Y002479D01*
X016852Y002574D01*
X016873Y002626D01*
X016873Y002735D01*
X016962Y002647D01*
X017050Y002610D01*
X017676Y002610D01*
X017765Y002647D01*
X017832Y002714D01*
X017832Y002714D01*
X018145Y003027D01*
X018158Y003059D01*
X018166Y003046D01*
X018219Y002994D01*
X018281Y002952D01*
X018350Y002924D01*
X018423Y002909D01*
X018460Y002909D01*
X018460Y003287D01*
X018460Y002909D01*
X018497Y002909D01*
X018570Y002924D01*
X018639Y002952D01*
X018701Y002994D01*
X018754Y003046D01*
X018795Y003108D01*
X018824Y003177D01*
X018838Y003250D01*
X019580Y003250D01*
X019580Y003132D02*
X018805Y003132D01*
X018838Y003250D02*
X018838Y003287D01*
X018460Y003287D01*
X018460Y003287D01*
X018460Y003288D01*
X018838Y003288D01*
X018838Y003325D01*
X018824Y003398D01*
X018795Y003467D01*
X018758Y003522D01*
X018798Y003562D01*
X018858Y003708D01*
X018858Y003750D01*
X018962Y003647D01*
X019050Y003610D01*
X019333Y003610D01*
X019421Y003647D01*
X019488Y003714D01*
X019525Y003802D01*
X019525Y004835D01*
X019517Y004854D01*
X019517Y005150D01*
X019474Y005194D01*
X019517Y005237D01*
X019517Y005662D01*
X019412Y005767D01*
X019307Y005767D01*
X019231Y005857D02*
X019580Y005857D01*
X019580Y005739D02*
X019441Y005739D01*
X019517Y005620D02*
X019580Y005620D01*
X019580Y005502D02*
X019517Y005502D01*
X019517Y005383D02*
X019580Y005383D01*
X019580Y005265D02*
X019517Y005265D01*
X019517Y005146D02*
X019580Y005146D01*
X019580Y005028D02*
X019517Y005028D01*
X019517Y004909D02*
X019580Y004909D01*
X019580Y004791D02*
X019525Y004791D01*
X019525Y004672D02*
X019580Y004672D01*
X019580Y004554D02*
X019525Y004554D01*
X019525Y004435D02*
X019580Y004435D01*
X019580Y004317D02*
X019525Y004317D01*
X019525Y004198D02*
X019580Y004198D01*
X019580Y004080D02*
X019525Y004080D01*
X019525Y003961D02*
X019580Y003961D01*
X019580Y003843D02*
X019525Y003843D01*
X019493Y003724D02*
X019580Y003724D01*
X019580Y003606D02*
X018816Y003606D01*
X018781Y003487D02*
X019580Y003487D01*
X019580Y003369D02*
X018829Y003369D01*
X018720Y003013D02*
X019580Y003013D01*
X019580Y002895D02*
X018013Y002895D01*
X018131Y003013D02*
X018200Y003013D01*
X018460Y003013D02*
X018460Y003013D01*
X018460Y003132D02*
X018460Y003132D01*
X018460Y003250D02*
X018460Y003250D01*
X017941Y003163D02*
X017629Y002850D01*
X017098Y002850D01*
X016848Y003100D01*
X016873Y002658D02*
X016951Y002658D01*
X016887Y002539D02*
X019580Y002539D01*
X019580Y002421D02*
X016971Y002421D01*
X016998Y002302D02*
X019580Y002302D01*
X019580Y002184D02*
X016983Y002184D01*
X016916Y002065D02*
X019580Y002065D01*
X019580Y001947D02*
X019080Y001947D01*
X019174Y001907D02*
X018905Y002019D01*
X018615Y002019D01*
X018346Y001907D01*
X018140Y001702D01*
X018029Y001433D01*
X018029Y001142D01*
X018140Y000873D01*
X018346Y000668D01*
X018615Y000556D01*
X018905Y000556D01*
X019174Y000668D01*
X019380Y000873D01*
X019491Y001142D01*
X019491Y001433D01*
X019380Y001702D01*
X019174Y001907D01*
X019254Y001828D02*
X019580Y001828D01*
X019580Y001710D02*
X019372Y001710D01*
X019426Y001591D02*
X019580Y001591D01*
X019580Y001473D02*
X019475Y001473D01*
X019491Y001354D02*
X019580Y001354D01*
X019580Y001236D02*
X019491Y001236D01*
X019481Y001117D02*
X019580Y001117D01*
X019580Y000999D02*
X019432Y000999D01*
X019383Y000880D02*
X019580Y000880D01*
X019580Y000762D02*
X019268Y000762D01*
X019115Y000643D02*
X019580Y000643D01*
X019580Y000525D02*
X016811Y000525D01*
X016808Y000643D02*
X018405Y000643D01*
X018252Y000762D02*
X016758Y000762D01*
X016900Y000846D02*
X017044Y000846D01*
X017084Y000857D01*
X017121Y000878D01*
X017150Y000908D01*
X017172Y000944D01*
X017182Y000985D01*
X017182Y001254D01*
X016900Y001254D01*
X016900Y000846D01*
X016895Y000880D02*
X016900Y000880D01*
X016895Y000999D02*
X016900Y000999D01*
X016895Y001117D02*
X016900Y001117D01*
X016895Y001236D02*
X016900Y001236D01*
X016900Y001259D02*
X017182Y001259D01*
X017182Y001527D01*
X017172Y001568D01*
X017150Y001604D01*
X017121Y001634D01*
X017084Y001655D01*
X017044Y001666D01*
X016900Y001666D01*
X016900Y001259D01*
X016895Y001354D02*
X016900Y001354D01*
X016895Y001473D02*
X016900Y001473D01*
X016895Y001591D02*
X016900Y001591D01*
X017158Y001591D02*
X018094Y001591D01*
X018045Y001473D02*
X017182Y001473D01*
X017182Y001354D02*
X018029Y001354D01*
X018029Y001236D02*
X017182Y001236D01*
X017182Y001117D02*
X018039Y001117D01*
X018088Y000999D02*
X017182Y000999D01*
X017122Y000880D02*
X018137Y000880D01*
X018148Y001710D02*
X014525Y001710D01*
X014525Y001828D02*
X015883Y001828D01*
X016187Y001828D02*
X018266Y001828D01*
X018440Y001947D02*
X016325Y001947D01*
X016035Y002131D02*
X016004Y002163D01*
X015223Y002163D01*
X014941Y002444D01*
X014941Y003725D01*
X014701Y003487D02*
X014525Y003487D01*
X014525Y003369D02*
X014701Y003369D01*
X014701Y003250D02*
X014525Y003250D01*
X014525Y003132D02*
X014701Y003132D01*
X014701Y003013D02*
X014525Y003013D01*
X014525Y002895D02*
X014701Y002895D01*
X014701Y002776D02*
X014525Y002776D01*
X014525Y002658D02*
X014701Y002658D01*
X014701Y002539D02*
X014525Y002539D01*
X014525Y002421D02*
X014701Y002421D01*
X014744Y002302D02*
X014525Y002302D01*
X014525Y002184D02*
X014862Y002184D01*
X014981Y002065D02*
X014525Y002065D01*
X014525Y001947D02*
X015117Y001947D01*
X015459Y001591D02*
X014525Y001591D01*
X014525Y001473D02*
X015273Y001473D01*
X015209Y001354D02*
X014495Y001354D01*
X014385Y001236D02*
X015197Y001236D01*
X015226Y001117D02*
X014266Y001117D01*
X014148Y000999D02*
X015314Y000999D01*
X015535Y001256D02*
X016110Y001256D01*
X016473Y001225D02*
X016504Y001256D01*
X016473Y001225D02*
X016473Y000569D01*
X016134Y000525D02*
X013634Y000525D01*
X013792Y000643D02*
X016137Y000643D01*
X016187Y000762D02*
X013911Y000762D01*
X014029Y000880D02*
X015857Y000880D01*
X015805Y000999D02*
X015756Y000999D01*
X015815Y001591D02*
X015611Y001591D01*
X016379Y002288D02*
X016660Y002288D01*
X016379Y002288D02*
X015723Y002944D01*
X015723Y003663D01*
X015886Y003961D02*
X015889Y003961D01*
X015889Y004080D02*
X014395Y004080D01*
X014499Y003961D02*
X014699Y003961D01*
X014624Y003843D02*
X014525Y003843D01*
X014525Y003724D02*
X014603Y003724D01*
X014624Y003606D02*
X014525Y003606D01*
X014285Y003850D02*
X014285Y001475D01*
X013566Y000756D01*
X010285Y000756D01*
X009785Y001256D01*
X009785Y001663D01*
X009488Y001959D01*
X009504Y001975D01*
X009504Y002413D01*
X009744Y002174D02*
X009791Y002221D01*
X009842Y002345D01*
X009842Y002431D01*
X009862Y002423D01*
X013484Y002423D01*
X013531Y002376D01*
X013655Y002324D01*
X013790Y002324D01*
X013826Y002339D01*
X013826Y001731D01*
X013342Y001246D01*
X010759Y001246D01*
X010717Y001288D01*
X010717Y001355D01*
X010666Y001479D01*
X010570Y001574D01*
X010446Y001626D01*
X010311Y001626D01*
X010187Y001574D01*
X010092Y001479D01*
X010040Y001355D01*
X010040Y001340D01*
X010025Y001356D01*
X010025Y001710D01*
X009988Y001798D01*
X009921Y001866D01*
X009921Y001866D01*
X009744Y002043D01*
X009744Y002174D01*
X009753Y002184D02*
X013826Y002184D01*
X013826Y002302D02*
X009824Y002302D01*
X009842Y002421D02*
X013486Y002421D01*
X013723Y002663D02*
X009910Y002663D01*
X009785Y002788D01*
X007691Y002788D01*
X007819Y002548D02*
X009193Y002548D01*
X009165Y002480D01*
X009165Y002345D01*
X009217Y002221D01*
X009264Y002174D01*
X009264Y002074D01*
X008811Y001621D01*
X006893Y001621D01*
X007819Y002548D01*
X007810Y002539D02*
X009190Y002539D01*
X009165Y002421D02*
X007692Y002421D01*
X007573Y002302D02*
X009183Y002302D01*
X009254Y002184D02*
X007455Y002184D01*
X007336Y002065D02*
X009254Y002065D01*
X009136Y001947D02*
X007218Y001947D01*
X007099Y001828D02*
X009017Y001828D01*
X008899Y001710D02*
X006981Y001710D01*
X006598Y001694D02*
X006535Y001694D01*
X006507Y002065D02*
X006601Y002065D01*
X006720Y002184D02*
X006430Y002184D01*
X006231Y002539D02*
X007075Y002539D01*
X006957Y002421D02*
X003561Y002421D01*
X003627Y002302D02*
X006838Y002302D01*
X007194Y002658D02*
X006384Y002658D01*
X006433Y002776D02*
X007312Y002776D01*
X007431Y002895D02*
X006436Y002895D01*
X006396Y003013D02*
X007556Y003013D01*
X008759Y003132D02*
X006295Y003132D01*
X006234Y003250D02*
X008793Y003250D01*
X008868Y003369D02*
X006234Y003369D01*
X005774Y003132D02*
X003571Y003132D01*
X003494Y003250D02*
X004560Y003250D01*
X004461Y003369D02*
X003494Y003369D01*
X003494Y003487D02*
X004461Y003487D01*
X004461Y003606D02*
X003494Y003606D01*
X003494Y003724D02*
X004307Y003724D01*
X004224Y003843D02*
X003494Y003843D01*
X003494Y003961D02*
X004197Y003961D01*
X004212Y004080D02*
X003494Y004080D01*
X003494Y004198D02*
X004279Y004198D01*
X004478Y004317D02*
X003494Y004317D01*
X003494Y004435D02*
X004511Y004435D01*
X004586Y004554D02*
X003494Y004554D01*
X003494Y004672D02*
X004586Y004672D01*
X004586Y004791D02*
X003494Y004791D01*
X003494Y004909D02*
X004586Y004909D01*
X004586Y005028D02*
X003494Y005028D01*
X003494Y005146D02*
X004586Y005146D01*
X004586Y005265D02*
X003494Y005265D01*
X003494Y005383D02*
X004586Y005383D01*
X004586Y005502D02*
X003566Y005502D01*
X003592Y005620D02*
X004586Y005620D01*
X004586Y005739D02*
X003635Y005739D01*
X003254Y005631D02*
X003254Y003006D01*
X003441Y002819D01*
X003741Y002658D02*
X005811Y002658D01*
X005762Y002776D02*
X003780Y002776D01*
X003776Y002895D02*
X005759Y002895D01*
X005774Y003013D02*
X003726Y003013D01*
X003640Y002539D02*
X005964Y002539D01*
X005952Y002184D02*
X003746Y002184D01*
X003450Y001828D02*
X003164Y001828D01*
X003282Y001710D02*
X005947Y001710D01*
X005943Y001714D02*
X003755Y001714D01*
X003565Y001714D01*
X003236Y002043D01*
X003155Y002043D01*
X003031Y002094D01*
X002936Y002190D01*
X002884Y002314D01*
X002884Y002449D01*
X002929Y002558D01*
X002793Y002558D01*
X002686Y002450D01*
X002584Y002408D01*
X003380Y001611D01*
X003838Y001611D01*
X003862Y001621D01*
X006085Y001621D01*
X006000Y001657D01*
X005943Y001714D01*
X005470Y003250D02*
X005448Y003250D01*
X006109Y004307D02*
X006109Y004664D01*
X005974Y004799D01*
X005859Y004914D01*
X005859Y004973D01*
X006849Y005964D01*
X006880Y005964D01*
X007015Y006098D01*
X007068Y006151D01*
X007797Y006151D01*
X007687Y006106D01*
X007672Y006091D01*
X007619Y006144D01*
X007076Y006144D01*
X006971Y006038D01*
X006971Y005456D01*
X007028Y005398D01*
X007023Y005393D01*
X007002Y005356D01*
X006991Y005315D01*
X006991Y005116D01*
X007309Y005116D01*
X007309Y005039D01*
X007386Y005039D01*
X007386Y004701D01*
X007516Y004701D01*
X007498Y004684D01*
X006800Y004684D01*
X006736Y004657D01*
X006655Y004657D01*
X006531Y004606D01*
X006436Y004510D01*
X006384Y004386D01*
X006384Y004261D01*
X006383Y004262D01*
X006259Y004313D01*
X006124Y004313D01*
X006109Y004307D01*
X006109Y004317D02*
X006384Y004317D01*
X006404Y004435D02*
X006109Y004435D01*
X006109Y004554D02*
X006479Y004554D01*
X006771Y004672D02*
X006101Y004672D01*
X005982Y004791D02*
X007007Y004791D01*
X007002Y004800D02*
X007023Y004763D01*
X007052Y004733D01*
X007089Y004712D01*
X007130Y004701D01*
X007309Y004701D01*
X007309Y005039D01*
X006991Y005039D01*
X006991Y004840D01*
X007002Y004800D01*
X006991Y004909D02*
X005864Y004909D01*
X005913Y005028D02*
X006991Y005028D01*
X006991Y005146D02*
X006031Y005146D01*
X006150Y005265D02*
X006991Y005265D01*
X007017Y005383D02*
X006268Y005383D01*
X006387Y005502D02*
X006971Y005502D01*
X006971Y005620D02*
X006505Y005620D01*
X006624Y005739D02*
X006971Y005739D01*
X006971Y005857D02*
X006742Y005857D01*
X006892Y005976D02*
X006971Y005976D01*
X007011Y006094D02*
X007026Y006094D01*
X007348Y005756D02*
X007348Y005747D01*
X007669Y006094D02*
X007675Y006094D01*
X007879Y005819D02*
X007879Y004725D01*
X007598Y004444D01*
X006848Y004444D01*
X006723Y004319D01*
X007309Y004791D02*
X007386Y004791D01*
X007386Y004909D02*
X007309Y004909D01*
X007309Y005028D02*
X007386Y005028D01*
X007816Y004256D02*
X007785Y004225D01*
X007816Y004256D02*
X010098Y004256D01*
X009879Y004506D02*
X009973Y004600D01*
X010223Y004600D01*
X010441Y004381D01*
X010441Y004225D01*
X012816Y004225D01*
X012973Y004381D01*
X012662Y004516D02*
X012641Y004465D01*
X010666Y004465D01*
X010645Y004517D01*
X010577Y004585D01*
X010358Y004803D01*
X010270Y004840D01*
X009925Y004840D01*
X009837Y004803D01*
X009779Y004746D01*
X009027Y004746D01*
X008702Y005070D01*
X008702Y006255D01*
X008734Y006286D01*
X009296Y006848D01*
X009296Y011192D01*
X009640Y011536D01*
X009640Y011945D01*
X009505Y012080D01*
X009484Y012102D01*
X009484Y012914D01*
X009541Y012971D01*
X009592Y013095D01*
X009592Y013230D01*
X009541Y013354D01*
X009445Y013449D01*
X009321Y013501D01*
X009186Y013501D01*
X009172Y013495D01*
X009166Y013510D01*
X009070Y013606D01*
X008946Y013657D01*
X008811Y013657D01*
X008687Y013606D01*
X008592Y013510D01*
X008573Y013465D01*
X008301Y013465D01*
X008342Y013564D01*
X008342Y013699D01*
X008296Y013810D01*
X008296Y013839D01*
X008349Y013839D01*
X008406Y013782D01*
X008530Y013730D01*
X008665Y013730D01*
X008789Y013782D01*
X008884Y013877D01*
X008936Y014001D01*
X008936Y014136D01*
X008884Y014260D01*
X008789Y014356D01*
X008665Y014407D01*
X008530Y014407D01*
X008406Y014356D01*
X008349Y014299D01*
X008296Y014299D01*
X008296Y014352D01*
X008208Y014440D01*
X008208Y014627D01*
X008068Y014767D01*
X008701Y014767D01*
X008701Y014552D01*
X008738Y014464D01*
X009728Y013474D01*
X009728Y013408D01*
X009779Y013283D01*
X009875Y013188D01*
X009999Y013137D01*
X010134Y013137D01*
X010258Y013188D01*
X010353Y013283D01*
X010405Y013408D01*
X010405Y013423D01*
X011485Y013423D01*
X011529Y013315D01*
X011625Y013219D01*
X011749Y013168D01*
X011884Y013168D01*
X012008Y013219D01*
X012103Y013315D01*
X012155Y013439D01*
X012155Y013574D01*
X012106Y013692D01*
X012134Y013721D01*
X012173Y013813D01*
X012545Y013441D01*
X012155Y013441D01*
X012155Y013560D02*
X012427Y013560D01*
X012545Y013441D02*
X012509Y013355D01*
X012509Y013220D01*
X012561Y013096D01*
X012588Y013069D01*
X012588Y012673D01*
X012627Y012578D01*
X012700Y012505D01*
X012806Y012398D01*
X012373Y011965D01*
X011305Y011965D01*
X011258Y012012D01*
X011134Y012063D01*
X010999Y012063D01*
X010875Y012012D01*
X010779Y011917D01*
X010728Y011792D01*
X010728Y011658D01*
X010779Y011533D01*
X010875Y011438D01*
X010999Y011387D01*
X011134Y011387D01*
X011258Y011438D01*
X011305Y011485D01*
X011605Y011485D01*
X011596Y011476D01*
X011596Y010894D01*
X011653Y010836D01*
X011648Y010830D01*
X011627Y010794D01*
X011616Y010753D01*
X011616Y010554D01*
X011934Y010554D01*
X011934Y010477D01*
X011616Y010477D01*
X011616Y010435D01*
X011602Y010449D01*
X011477Y010501D01*
X011343Y010501D01*
X011218Y010449D01*
X011123Y010354D01*
X011072Y010230D01*
X011072Y010095D01*
X011123Y009971D01*
X011218Y009876D01*
X011296Y009843D01*
X012639Y008501D01*
X012639Y006929D01*
X011577Y007991D01*
X011489Y008027D01*
X010519Y008027D01*
X010430Y007991D01*
X009909Y007470D01*
X009811Y007470D01*
X009687Y007418D01*
X009592Y007323D01*
X009540Y007199D01*
X009540Y007064D01*
X009592Y006940D01*
X009687Y006844D01*
X009811Y006793D01*
X009946Y006793D01*
X010070Y006844D01*
X010166Y006940D01*
X010217Y007064D01*
X010217Y007099D01*
X010354Y007236D01*
X010373Y007190D01*
X010420Y007143D01*
X010420Y005771D01*
X010457Y005683D01*
X011519Y004620D01*
X011587Y004553D01*
X011675Y004516D01*
X012662Y004516D01*
X013035Y004756D02*
X014066Y003725D01*
X014066Y001631D01*
X013441Y001006D01*
X010660Y001006D01*
X010379Y001288D01*
X010530Y001591D02*
X013687Y001591D01*
X013805Y001710D02*
X010025Y001710D01*
X010025Y001591D02*
X010227Y001591D01*
X010089Y001473D02*
X010025Y001473D01*
X010027Y001354D02*
X010040Y001354D01*
X009703Y000999D02*
X009372Y000999D01*
X009373Y001117D02*
X009585Y001117D01*
X009545Y001236D02*
X009332Y001236D01*
X009228Y001354D02*
X009545Y001354D01*
X009545Y001473D02*
X009341Y001473D01*
X009459Y001591D02*
X009517Y001591D01*
X009488Y001959D02*
X008910Y001381D01*
X003910Y001381D01*
X003223Y001131D02*
X001879Y002475D01*
X001712Y002302D02*
X000340Y002302D01*
X000340Y002184D02*
X001831Y002184D01*
X001949Y002065D02*
X000340Y002065D01*
X000340Y001947D02*
X000840Y001947D01*
X000746Y001907D02*
X001015Y002019D01*
X001305Y002019D01*
X001574Y001907D01*
X001780Y001702D01*
X001891Y001433D01*
X001891Y001142D01*
X001780Y000873D01*
X001574Y000668D01*
X001305Y000556D01*
X001015Y000556D01*
X000746Y000668D01*
X000540Y000873D01*
X000429Y001142D01*
X000429Y001433D01*
X000540Y001702D01*
X000746Y001907D01*
X000666Y001828D02*
X000340Y001828D01*
X000340Y001710D02*
X000548Y001710D01*
X000494Y001591D02*
X000340Y001591D01*
X000340Y001473D02*
X000445Y001473D01*
X000429Y001354D02*
X000340Y001354D01*
X000340Y001236D02*
X000429Y001236D01*
X000439Y001117D02*
X000340Y001117D01*
X000340Y000999D02*
X000488Y000999D01*
X000537Y000880D02*
X000340Y000880D01*
X000340Y000762D02*
X000652Y000762D01*
X000805Y000643D02*
X000340Y000643D01*
X000340Y000525D02*
X010217Y000525D01*
X010059Y000643D02*
X001515Y000643D01*
X001668Y000762D02*
X008892Y000762D01*
X009178Y000762D02*
X009940Y000762D01*
X009822Y000880D02*
X009323Y000880D01*
X009035Y001069D02*
X008754Y001069D01*
X008691Y001131D01*
X003223Y001131D01*
X003016Y000999D02*
X001832Y000999D01*
X001881Y001117D02*
X002897Y001117D01*
X002779Y001236D02*
X001891Y001236D01*
X001891Y001354D02*
X002660Y001354D01*
X002542Y001473D02*
X001875Y001473D01*
X001826Y001591D02*
X002423Y001591D01*
X002305Y001710D02*
X001772Y001710D01*
X001654Y001828D02*
X002186Y001828D01*
X002068Y001947D02*
X001480Y001947D01*
X001614Y002421D02*
X001642Y002421D01*
X001460Y002788D02*
X001398Y002850D01*
X000941Y002850D01*
X000504Y003288D01*
X000504Y007194D01*
X001160Y007850D01*
X002910Y007850D01*
X003941Y006819D01*
X003941Y006131D01*
X004146Y005857D02*
X004586Y005857D01*
X004586Y005976D02*
X004243Y005976D01*
X004280Y006094D02*
X004586Y006094D01*
X004586Y006213D02*
X004274Y006213D01*
X004220Y006331D02*
X004586Y006331D01*
X004586Y006450D02*
X004181Y006450D01*
X004181Y006568D02*
X004586Y006568D01*
X004586Y006687D02*
X004181Y006687D01*
X004181Y006805D02*
X004586Y006805D01*
X004586Y006924D02*
X004158Y006924D01*
X004057Y007042D02*
X004586Y007042D01*
X004586Y007161D02*
X003939Y007161D01*
X003820Y007279D02*
X004586Y007279D01*
X004586Y007398D02*
X003702Y007398D01*
X003583Y007516D02*
X004586Y007516D01*
X004586Y007635D02*
X003465Y007635D01*
X003346Y007753D02*
X004557Y007753D01*
X004472Y007872D02*
X003228Y007872D01*
X003109Y007990D02*
X004402Y007990D01*
X004384Y008109D02*
X000340Y008109D01*
X000340Y008227D02*
X004409Y008227D01*
X004489Y008346D02*
X000340Y008346D01*
X000340Y008464D02*
X004774Y008464D01*
X004774Y008583D02*
X000340Y008583D01*
X000340Y008701D02*
X004768Y008701D01*
X004689Y008820D02*
X000340Y008820D01*
X000340Y008938D02*
X004665Y008938D01*
X004684Y009057D02*
X000340Y009057D01*
X000340Y009175D02*
X004756Y009175D01*
X005251Y009175D02*
X006470Y009175D01*
X006145Y009294D02*
X006068Y009294D01*
X006068Y009412D02*
X006145Y009412D01*
X006068Y009531D02*
X000340Y009531D01*
X000340Y009649D02*
X005730Y009649D01*
X005730Y009576D02*
X005730Y009755D01*
X005741Y009796D01*
X005762Y009833D01*
X005792Y009862D01*
X005828Y009883D01*
X005869Y009894D01*
X006068Y009894D01*
X006068Y009576D01*
X005730Y009576D01*
X005730Y009412D02*
X000340Y009412D01*
X000340Y009294D02*
X005737Y009294D01*
X005733Y009768D02*
X000340Y009768D01*
X000340Y009886D02*
X005838Y009886D01*
X006068Y009886D02*
X006145Y009886D01*
X006145Y009768D02*
X006068Y009768D01*
X006068Y009649D02*
X006145Y009649D01*
X006375Y009886D02*
X006456Y009886D01*
X006812Y010123D02*
X005189Y010123D01*
X005299Y010242D02*
X006693Y010242D01*
X006930Y010005D02*
X000340Y010005D01*
X000340Y010123D02*
X004818Y010123D01*
X004708Y010242D02*
X000340Y010242D01*
X000340Y010360D02*
X004665Y010360D01*
X004665Y010479D02*
X000340Y010479D01*
X000340Y010597D02*
X003619Y010597D01*
X003500Y010716D02*
X000340Y010716D01*
X000340Y010834D02*
X003382Y010834D01*
X003263Y010953D02*
X000340Y010953D01*
X000340Y011071D02*
X003145Y011071D01*
X003026Y011190D02*
X000340Y011190D01*
X000340Y011308D02*
X002908Y011308D01*
X002789Y011427D02*
X000340Y011427D01*
X000340Y011545D02*
X002671Y011545D01*
X002552Y011664D02*
X000340Y011664D01*
X000340Y011782D02*
X001506Y011782D01*
X001513Y011775D02*
X001575Y011734D01*
X001643Y011705D01*
X001717Y011691D01*
X001754Y011691D01*
X001754Y012069D01*
X001754Y012069D01*
X001754Y012069D01*
X001376Y012069D01*
X001376Y012032D01*
X001390Y011958D01*
X001419Y011890D01*
X001460Y011828D01*
X001513Y011775D01*
X001414Y011901D02*
X000340Y011901D01*
X000340Y012019D02*
X001378Y012019D01*
X001382Y012138D02*
X000340Y012138D01*
X000340Y012256D02*
X001424Y012256D01*
X001531Y012375D02*
X000340Y012375D01*
X000340Y012493D02*
X002817Y012493D01*
X002698Y012612D02*
X000340Y012612D01*
X000340Y012730D02*
X001583Y012730D01*
X001575Y012734D02*
X001643Y012705D01*
X001717Y012691D01*
X001754Y012691D01*
X001754Y013069D01*
X001754Y013069D01*
X001754Y013069D01*
X001376Y013069D01*
X001376Y013032D01*
X001390Y012958D01*
X001419Y012890D01*
X001460Y012828D01*
X001513Y012775D01*
X001575Y012734D01*
X001446Y012849D02*
X000340Y012849D01*
X000340Y012967D02*
X001388Y012967D01*
X001376Y013086D02*
X000340Y013086D01*
X000340Y013204D02*
X001401Y013204D01*
X001473Y013323D02*
X000340Y013323D01*
X000340Y013441D02*
X001687Y013441D01*
X001754Y013441D02*
X001754Y013441D01*
X001820Y013441D02*
X002112Y013441D01*
X002395Y013441D02*
X002612Y013441D01*
X002895Y013441D02*
X003024Y013441D01*
X003024Y013560D02*
X000340Y013560D01*
X000340Y013678D02*
X003069Y013678D01*
X003188Y013797D02*
X000340Y013797D01*
X000340Y013915D02*
X005493Y013915D01*
X005493Y013797D02*
X005320Y013797D01*
X005438Y013678D02*
X005569Y013678D01*
X005557Y013560D02*
X005688Y013560D01*
X005675Y013441D02*
X005806Y013441D01*
X005794Y013323D02*
X005925Y013323D01*
X005912Y013204D02*
X006043Y013204D01*
X006031Y013086D02*
X006162Y013086D01*
X006149Y012967D02*
X006280Y012967D01*
X006268Y012849D02*
X006399Y012849D01*
X006386Y012730D02*
X006517Y012730D01*
X006505Y012612D02*
X006636Y012612D01*
X006623Y012493D02*
X006754Y012493D01*
X006742Y012375D02*
X006873Y012375D01*
X007278Y011870D02*
X007464Y011870D01*
X007499Y011855D01*
X007634Y011855D01*
X007758Y011907D01*
X007853Y012002D01*
X007905Y012126D01*
X007905Y012261D01*
X007891Y012293D01*
X008149Y012036D01*
X008149Y011974D01*
X008092Y011917D01*
X008040Y011792D01*
X008040Y011658D01*
X008092Y011533D01*
X008187Y011438D01*
X008311Y011387D01*
X008446Y011387D01*
X008570Y011438D01*
X008586Y011454D01*
X008586Y010562D01*
X007278Y011870D01*
X007366Y011782D02*
X008040Y011782D01*
X008040Y011664D02*
X007484Y011664D01*
X007603Y011545D02*
X008087Y011545D01*
X008215Y011427D02*
X007721Y011427D01*
X007840Y011308D02*
X008586Y011308D01*
X008586Y011190D02*
X007958Y011190D01*
X008077Y011071D02*
X008586Y011071D01*
X008586Y010953D02*
X008195Y010953D01*
X008314Y010834D02*
X008586Y010834D01*
X008586Y010716D02*
X008432Y010716D01*
X008551Y010597D02*
X008586Y010597D01*
X007910Y009881D02*
X007848Y009944D01*
X007910Y009881D02*
X007910Y009475D01*
X008129Y009256D01*
X008566Y009256D01*
X008598Y009225D01*
X008598Y007131D01*
X008473Y007006D01*
X008098Y007006D01*
X007848Y007256D01*
X007973Y007538D02*
X007691Y007538D01*
X007566Y007413D01*
X007566Y006975D01*
X007691Y006850D01*
X006816Y006850D01*
X005879Y005913D01*
X005598Y005913D01*
X005566Y005944D01*
X005776Y006213D02*
X005839Y006213D01*
X005958Y006331D02*
X005421Y006331D01*
X005421Y006450D02*
X006076Y006450D01*
X006195Y006568D02*
X005421Y006568D01*
X005421Y006687D02*
X006313Y006687D01*
X006432Y006805D02*
X005725Y006805D01*
X005532Y006805D02*
X005421Y006805D01*
X005900Y006924D02*
X006550Y006924D01*
X006613Y006986D02*
X006613Y006986D01*
X006669Y007042D02*
X005958Y007042D01*
X006026Y007161D02*
X006240Y007161D01*
X006185Y007279D02*
X006144Y007279D01*
X005764Y007635D02*
X005421Y007635D01*
X005421Y007753D02*
X005883Y007753D01*
X006185Y007872D02*
X005423Y007872D01*
X005591Y007990D02*
X006205Y007990D01*
X006205Y008109D02*
X005647Y008109D01*
X005655Y008227D02*
X006600Y008227D01*
X006600Y008346D02*
X006720Y008346D01*
X006720Y008276D02*
X006720Y008632D01*
X006976Y008632D01*
X007017Y008621D01*
X007054Y008600D01*
X007083Y008570D01*
X007104Y008534D01*
X007115Y008493D01*
X007115Y008276D01*
X006720Y008276D01*
X006720Y008227D02*
X007777Y008227D01*
X007711Y008109D02*
X007115Y008109D01*
X007115Y007990D02*
X007697Y007990D01*
X007724Y007872D02*
X007135Y007872D01*
X007135Y007753D02*
X007584Y007753D01*
X007449Y007635D02*
X007135Y007635D01*
X007135Y007516D02*
X007349Y007516D01*
X007326Y007398D02*
X007135Y007398D01*
X007135Y007279D02*
X007326Y007279D01*
X007326Y007161D02*
X007080Y007161D01*
X007973Y007538D02*
X008129Y007694D01*
X008129Y007913D01*
X008035Y008006D01*
X008139Y008346D02*
X007115Y008346D01*
X007115Y008464D02*
X008139Y008464D01*
X008139Y008583D02*
X007071Y008583D01*
X006720Y008583D02*
X006600Y008583D01*
X006600Y008464D02*
X006720Y008464D01*
X006249Y008583D02*
X005234Y008583D01*
X005240Y008701D02*
X008139Y008701D01*
X008139Y008820D02*
X005319Y008820D01*
X005342Y008938D02*
X007826Y008938D01*
X007708Y009057D02*
X005323Y009057D01*
X005525Y008464D02*
X006205Y008464D01*
X006205Y008346D02*
X005620Y008346D01*
X005646Y007516D02*
X005421Y007516D01*
X007081Y009175D02*
X007589Y009175D01*
X007691Y009413D02*
X007691Y009756D01*
X007629Y009819D01*
X007316Y009569D02*
X007285Y009538D01*
X006776Y009538D01*
X007691Y009413D02*
X008035Y009069D01*
X008316Y009069D01*
X008379Y009006D01*
X008379Y007600D01*
X008254Y007475D01*
X008254Y007350D01*
X009016Y006568D02*
X010420Y006568D01*
X010420Y006450D02*
X008897Y006450D01*
X008779Y006331D02*
X010420Y006331D01*
X010420Y006213D02*
X008702Y006213D01*
X008702Y006094D02*
X010420Y006094D01*
X010420Y005976D02*
X008702Y005976D01*
X008702Y005857D02*
X010420Y005857D01*
X010433Y005739D02*
X008702Y005739D01*
X008702Y005620D02*
X009889Y005620D01*
X009906Y005637D02*
X009849Y005580D01*
X009440Y005580D01*
X009392Y005532D01*
X009311Y005532D01*
X009187Y005481D01*
X009092Y005385D01*
X009040Y005261D01*
X009040Y005126D01*
X009092Y005002D01*
X009187Y004907D01*
X009311Y004855D01*
X009446Y004855D01*
X009570Y004907D01*
X009666Y005002D01*
X009715Y005120D01*
X009849Y005120D01*
X009906Y005063D01*
X010030Y005012D01*
X010165Y005012D01*
X010289Y005063D01*
X010384Y005158D01*
X010436Y005283D01*
X010436Y005417D01*
X010384Y005542D01*
X010289Y005637D01*
X010165Y005688D01*
X010030Y005688D01*
X009906Y005637D01*
X010306Y005620D02*
X010519Y005620D01*
X010401Y005502D02*
X010638Y005502D01*
X010756Y005383D02*
X010436Y005383D01*
X010428Y005265D02*
X010875Y005265D01*
X010993Y005146D02*
X010372Y005146D01*
X010203Y005028D02*
X011112Y005028D01*
X011230Y004909D02*
X009573Y004909D01*
X009676Y005028D02*
X009992Y005028D01*
X009824Y004791D02*
X008982Y004791D01*
X008864Y004909D02*
X009185Y004909D01*
X009081Y005028D02*
X008745Y005028D01*
X008702Y005146D02*
X009040Y005146D01*
X009042Y005265D02*
X008702Y005265D01*
X008702Y005383D02*
X009091Y005383D01*
X009237Y005502D02*
X008702Y005502D01*
X008941Y004506D02*
X009879Y004506D01*
X010371Y004791D02*
X011349Y004791D01*
X011467Y004672D02*
X010490Y004672D01*
X010608Y004554D02*
X011586Y004554D01*
X011723Y004756D02*
X013035Y004756D01*
X013129Y005006D02*
X012660Y005006D01*
X012285Y005381D01*
X012285Y006413D01*
X011441Y007256D01*
X011441Y007288D01*
X011191Y007516D02*
X010970Y007516D01*
X010957Y007548D02*
X011223Y007548D01*
X011154Y007479D01*
X011103Y007355D01*
X011103Y007220D01*
X011154Y007096D01*
X011250Y007001D01*
X011374Y006949D01*
X011409Y006949D01*
X012045Y006313D01*
X012045Y005334D01*
X012082Y005245D01*
X012331Y004996D01*
X011822Y004996D01*
X010900Y005918D01*
X010900Y007143D01*
X010947Y007190D01*
X010998Y007314D01*
X010998Y007449D01*
X010957Y007548D01*
X010998Y007398D02*
X011121Y007398D01*
X011103Y007279D02*
X010984Y007279D01*
X010918Y007161D02*
X011128Y007161D01*
X011208Y007042D02*
X010900Y007042D01*
X010900Y006924D02*
X011435Y006924D01*
X011553Y006805D02*
X010900Y006805D01*
X010900Y006687D02*
X011672Y006687D01*
X011790Y006568D02*
X010900Y006568D01*
X010900Y006450D02*
X011909Y006450D01*
X012027Y006331D02*
X010900Y006331D01*
X010900Y006213D02*
X012045Y006213D01*
X012045Y006094D02*
X010900Y006094D01*
X010900Y005976D02*
X012045Y005976D01*
X012045Y005857D02*
X010961Y005857D01*
X011080Y005739D02*
X012045Y005739D01*
X012045Y005620D02*
X011198Y005620D01*
X011317Y005502D02*
X012045Y005502D01*
X012045Y005383D02*
X011435Y005383D01*
X011554Y005265D02*
X012074Y005265D01*
X012181Y005146D02*
X011672Y005146D01*
X011791Y005028D02*
X012299Y005028D01*
X012623Y005383D02*
X013273Y005383D01*
X013328Y005146D02*
X015889Y005146D01*
X015889Y005028D02*
X013447Y005028D01*
X013565Y004909D02*
X015889Y004909D01*
X015889Y004791D02*
X013684Y004791D01*
X013802Y004672D02*
X015889Y004672D01*
X015889Y004554D02*
X013921Y004554D01*
X014039Y004435D02*
X015889Y004435D01*
X015889Y004317D02*
X014158Y004317D01*
X014276Y004198D02*
X015889Y004198D01*
X015559Y003961D02*
X015184Y003961D01*
X015259Y003843D02*
X015431Y003843D01*
X015384Y003724D02*
X015280Y003724D01*
X015258Y003606D02*
X015384Y003606D01*
X015429Y003487D02*
X015182Y003487D01*
X015181Y003369D02*
X015483Y003369D01*
X015483Y003250D02*
X015181Y003250D01*
X015181Y003132D02*
X015483Y003132D01*
X015483Y003013D02*
X015181Y003013D01*
X015181Y002895D02*
X015483Y002895D01*
X015551Y002776D02*
X015181Y002776D01*
X015181Y002658D02*
X015669Y002658D01*
X015788Y002539D02*
X015185Y002539D01*
X015304Y002421D02*
X015849Y002421D01*
X016379Y002850D02*
X016535Y002694D01*
X016379Y002850D02*
X016379Y005506D01*
X016285Y005600D01*
X016129Y005381D02*
X016129Y003444D01*
X016035Y003350D01*
X014285Y003850D02*
X013129Y005006D01*
X012741Y005265D02*
X015889Y005265D01*
X015788Y005383D02*
X013672Y005383D01*
X013772Y005502D02*
X015709Y005502D01*
X015701Y005620D02*
X013811Y005620D01*
X013807Y005739D02*
X015701Y005739D01*
X015701Y005857D02*
X013772Y005857D01*
X013772Y005976D02*
X015639Y005976D01*
X015603Y006094D02*
X013772Y006094D01*
X013772Y006213D02*
X015609Y006213D01*
X015662Y006331D02*
X013772Y006331D01*
X013772Y006450D02*
X015556Y006450D01*
X015535Y006756D02*
X015660Y006944D01*
X016004Y006944D01*
X016660Y006288D01*
X017460Y006288D01*
X017178Y006568D02*
X016719Y006568D01*
X016600Y006687D02*
X017868Y006687D01*
X017868Y006805D02*
X016482Y006805D01*
X016363Y006924D02*
X016631Y006924D01*
X016512Y007042D02*
X016245Y007042D01*
X016108Y007161D02*
X016394Y007161D01*
X016275Y007279D02*
X015058Y007279D01*
X015181Y007161D02*
X015552Y007161D01*
X015437Y007042D02*
X015303Y007042D01*
X015254Y006756D02*
X015535Y006756D01*
X015254Y006756D02*
X014348Y007631D01*
X014348Y007850D01*
X014568Y008109D02*
X015446Y008109D01*
X015327Y008227D02*
X013772Y008227D01*
X013772Y008109D02*
X014127Y008109D01*
X014039Y007990D02*
X013772Y007990D01*
X013772Y007872D02*
X014009Y007872D01*
X014021Y007753D02*
X013772Y007753D01*
X013772Y007635D02*
X014084Y007635D01*
X014135Y007516D02*
X013772Y007516D01*
X013772Y007398D02*
X014244Y007398D01*
X014367Y007279D02*
X013772Y007279D01*
X013772Y007161D02*
X014490Y007161D01*
X014612Y007042D02*
X013772Y007042D01*
X013772Y006924D02*
X014735Y006924D01*
X014858Y006805D02*
X013772Y006805D01*
X013772Y006687D02*
X014980Y006687D01*
X015103Y006568D02*
X013772Y006568D01*
X013173Y006568D02*
X013139Y006568D01*
X013119Y006589D02*
X013119Y008648D01*
X013082Y008736D01*
X013015Y008803D01*
X011741Y010077D01*
X011748Y010095D01*
X011748Y010140D01*
X011755Y010139D01*
X011934Y010139D01*
X011934Y010477D01*
X012011Y010477D01*
X012011Y010554D01*
X012329Y010554D01*
X012329Y010753D01*
X012318Y010794D01*
X012297Y010830D01*
X012292Y010836D01*
X012349Y010894D01*
X012349Y011476D01*
X012340Y011485D01*
X012520Y011485D01*
X012608Y011522D01*
X013118Y012031D01*
X013860Y011288D01*
X013860Y009787D01*
X013218Y009145D01*
X013173Y009035D01*
X013173Y006525D01*
X013166Y006542D01*
X013119Y006589D01*
X013119Y006687D02*
X013173Y006687D01*
X013173Y006805D02*
X013119Y006805D01*
X013119Y006924D02*
X013173Y006924D01*
X013173Y007042D02*
X013119Y007042D01*
X013119Y007161D02*
X013173Y007161D01*
X013173Y007279D02*
X013119Y007279D01*
X013119Y007398D02*
X013173Y007398D01*
X013173Y007516D02*
X013119Y007516D01*
X013119Y007635D02*
X013173Y007635D01*
X013173Y007753D02*
X013119Y007753D01*
X013119Y007872D02*
X013173Y007872D01*
X013173Y007990D02*
X013119Y007990D01*
X013119Y008109D02*
X013173Y008109D01*
X013173Y008227D02*
X013119Y008227D01*
X013119Y008346D02*
X013173Y008346D01*
X013173Y008464D02*
X013119Y008464D01*
X013119Y008583D02*
X013173Y008583D01*
X013173Y008701D02*
X013097Y008701D01*
X013173Y008820D02*
X012999Y008820D01*
X012880Y008938D02*
X013173Y008938D01*
X013182Y009057D02*
X012762Y009057D01*
X012643Y009175D02*
X013248Y009175D01*
X013367Y009294D02*
X012525Y009294D01*
X012406Y009412D02*
X013485Y009412D01*
X013604Y009531D02*
X012288Y009531D01*
X012169Y009649D02*
X013722Y009649D01*
X013841Y009768D02*
X012051Y009768D01*
X011932Y009886D02*
X013860Y009886D01*
X013860Y010005D02*
X011814Y010005D01*
X011748Y010123D02*
X013860Y010123D01*
X013860Y010242D02*
X012320Y010242D01*
X012318Y010237D02*
X012329Y010278D01*
X012329Y010477D01*
X012011Y010477D01*
X012011Y010139D01*
X012190Y010139D01*
X012231Y010150D01*
X012268Y010171D01*
X012297Y010201D01*
X012318Y010237D01*
X012329Y010360D02*
X013860Y010360D01*
X013860Y010479D02*
X012011Y010479D01*
X011934Y010479D02*
X011531Y010479D01*
X011616Y010597D02*
X009296Y010597D01*
X009296Y010479D02*
X011289Y010479D01*
X011129Y010360D02*
X009296Y010360D01*
X009296Y010242D02*
X011076Y010242D01*
X011072Y010123D02*
X009296Y010123D01*
X009296Y010005D02*
X011109Y010005D01*
X011208Y009886D02*
X009296Y009886D01*
X009296Y009768D02*
X011372Y009768D01*
X011490Y009649D02*
X009296Y009649D01*
X009296Y009531D02*
X011609Y009531D01*
X011727Y009412D02*
X009296Y009412D01*
X009296Y009294D02*
X011846Y009294D01*
X011964Y009175D02*
X009296Y009175D01*
X009296Y009057D02*
X012083Y009057D01*
X012201Y008938D02*
X009296Y008938D01*
X009296Y008820D02*
X012320Y008820D01*
X012438Y008701D02*
X009296Y008701D01*
X009296Y008583D02*
X012557Y008583D01*
X012639Y008464D02*
X009296Y008464D01*
X009296Y008346D02*
X012639Y008346D01*
X012639Y008227D02*
X009296Y008227D01*
X009296Y008109D02*
X012639Y008109D01*
X012639Y007990D02*
X011578Y007990D01*
X011697Y007872D02*
X012639Y007872D01*
X012639Y007753D02*
X011815Y007753D01*
X011934Y007635D02*
X012639Y007635D01*
X012639Y007516D02*
X012052Y007516D01*
X012171Y007398D02*
X012639Y007398D01*
X012639Y007279D02*
X012289Y007279D01*
X012408Y007161D02*
X012639Y007161D01*
X012639Y007042D02*
X012526Y007042D01*
X012566Y006663D02*
X012566Y006194D01*
X012711Y006049D01*
X012836Y006049D01*
X013223Y005663D01*
X013473Y005663D01*
X013044Y005502D02*
X012525Y005502D01*
X012525Y005620D02*
X012926Y005620D01*
X012807Y005739D02*
X012525Y005739D01*
X012525Y005857D02*
X012564Y005857D01*
X012879Y006350D02*
X012879Y008600D01*
X011410Y010069D01*
X011410Y010163D01*
X011934Y010242D02*
X012011Y010242D01*
X012011Y010360D02*
X011934Y010360D01*
X012329Y010597D02*
X013860Y010597D01*
X013860Y010716D02*
X012329Y010716D01*
X012293Y010834D02*
X013860Y010834D01*
X013860Y010953D02*
X012349Y010953D01*
X012349Y011071D02*
X013860Y011071D01*
X013860Y011190D02*
X012349Y011190D01*
X012349Y011308D02*
X013840Y011308D01*
X013722Y011427D02*
X012349Y011427D01*
X012632Y011545D02*
X013603Y011545D01*
X013485Y011664D02*
X012750Y011664D01*
X012869Y011782D02*
X013366Y011782D01*
X013248Y011901D02*
X012987Y011901D01*
X013106Y012019D02*
X013129Y012019D01*
X013160Y012413D02*
X012473Y011725D01*
X011066Y011725D01*
X010892Y012019D02*
X009566Y012019D01*
X009640Y011901D02*
X010773Y011901D01*
X010728Y011782D02*
X009640Y011782D01*
X009640Y011664D02*
X010728Y011664D01*
X010774Y011545D02*
X009640Y011545D01*
X009531Y011427D02*
X010902Y011427D01*
X011230Y011427D02*
X011596Y011427D01*
X011596Y011308D02*
X009412Y011308D01*
X009296Y011190D02*
X011596Y011190D01*
X011596Y011071D02*
X009296Y011071D01*
X009296Y010953D02*
X011596Y010953D01*
X011652Y010834D02*
X009296Y010834D01*
X009296Y010716D02*
X011616Y010716D01*
X011241Y012019D02*
X012427Y012019D01*
X012546Y012138D02*
X009484Y012138D01*
X009484Y012256D02*
X012664Y012256D01*
X012783Y012375D02*
X009484Y012375D01*
X009484Y012493D02*
X012712Y012493D01*
X012613Y012612D02*
X009484Y012612D01*
X009484Y012730D02*
X012588Y012730D01*
X012588Y012849D02*
X009484Y012849D01*
X009537Y012967D02*
X012588Y012967D01*
X012571Y013086D02*
X009588Y013086D01*
X009592Y013204D02*
X009859Y013204D01*
X009763Y013323D02*
X009554Y013323D01*
X009454Y013441D02*
X009728Y013441D01*
X009642Y013560D02*
X009117Y013560D01*
X008879Y013319D02*
X008785Y013225D01*
X007254Y013225D01*
X007191Y013288D01*
X006723Y013288D01*
X007723Y014414D02*
X007679Y014457D01*
X007477Y014457D01*
X007405Y014530D01*
X007405Y014542D01*
X007353Y014667D01*
X007258Y014762D01*
X007134Y014813D01*
X006999Y014813D01*
X006885Y014766D01*
X006299Y014766D01*
X006295Y014770D01*
X006295Y016256D01*
X006322Y016283D01*
X006373Y016408D01*
X006373Y016542D01*
X006322Y016667D01*
X006275Y016714D01*
X006492Y016714D01*
X006447Y016605D01*
X006447Y016470D01*
X006498Y016346D01*
X006593Y016251D01*
X006718Y016199D01*
X006852Y016199D01*
X006943Y016237D01*
X006873Y016167D01*
X006822Y016042D01*
X006822Y015908D01*
X006873Y015783D01*
X006930Y015726D01*
X006930Y015255D01*
X007065Y015120D01*
X007747Y014438D01*
X007723Y014414D01*
X007677Y014508D02*
X007427Y014508D01*
X007370Y014626D02*
X007559Y014626D01*
X007440Y014745D02*
X007275Y014745D01*
X007322Y014863D02*
X006295Y014863D01*
X006295Y014982D02*
X007203Y014982D01*
X007085Y015100D02*
X006295Y015100D01*
X006295Y015219D02*
X006966Y015219D01*
X006930Y015337D02*
X006295Y015337D01*
X006295Y015456D02*
X006930Y015456D01*
X006930Y015574D02*
X006295Y015574D01*
X006295Y015693D02*
X006930Y015693D01*
X006862Y015811D02*
X006295Y015811D01*
X006295Y015930D02*
X006822Y015930D01*
X006824Y016048D02*
X006295Y016048D01*
X006295Y016167D02*
X006873Y016167D01*
X006559Y016285D02*
X006323Y016285D01*
X006372Y016404D02*
X006474Y016404D01*
X006447Y016522D02*
X006373Y016522D01*
X006333Y016641D02*
X006461Y016641D01*
X006785Y016538D02*
X008660Y016538D01*
X009223Y015975D01*
X009223Y015819D01*
X008941Y015538D01*
X008941Y014600D01*
X010066Y013475D01*
X010369Y013323D02*
X011526Y013323D01*
X011662Y013204D02*
X010274Y013204D01*
X010410Y013663D02*
X009316Y014756D01*
X009316Y015183D01*
X009749Y015183D02*
X009749Y014730D01*
X010410Y014069D01*
X011691Y014069D01*
X011848Y013913D01*
X011660Y013663D02*
X011816Y013506D01*
X011660Y013663D02*
X010410Y013663D01*
X009524Y013678D02*
X008342Y013678D01*
X008340Y013560D02*
X008641Y013560D01*
X008804Y013797D02*
X009405Y013797D01*
X009287Y013915D02*
X008900Y013915D01*
X008936Y014034D02*
X009168Y014034D01*
X009050Y014152D02*
X008929Y014152D01*
X008931Y014271D02*
X008874Y014271D01*
X008813Y014389D02*
X008709Y014389D01*
X008720Y014508D02*
X008208Y014508D01*
X008208Y014626D02*
X008701Y014626D01*
X008701Y014745D02*
X008091Y014745D01*
X007876Y014959D02*
X007390Y015445D01*
X007390Y015726D01*
X007447Y015783D01*
X007498Y015908D01*
X007498Y015988D01*
X007599Y016089D01*
X008315Y016089D01*
X008415Y015988D01*
X008415Y015908D01*
X008467Y015783D01*
X008533Y015717D01*
X007982Y015717D01*
X007876Y015612D01*
X007876Y014959D01*
X007876Y014982D02*
X007854Y014982D01*
X007876Y015100D02*
X007735Y015100D01*
X007617Y015219D02*
X007876Y015219D01*
X007876Y015337D02*
X007498Y015337D01*
X007390Y015456D02*
X007876Y015456D01*
X007876Y015574D02*
X007390Y015574D01*
X007390Y015693D02*
X007957Y015693D01*
X008455Y015811D02*
X007458Y015811D01*
X007498Y015930D02*
X008415Y015930D01*
X008355Y016048D02*
X007558Y016048D01*
X008846Y017115D02*
X009415Y017115D01*
X009417Y017233D02*
X000340Y017233D01*
X000340Y017115D02*
X003318Y017115D01*
X003200Y016996D02*
X000340Y016996D01*
X000340Y016878D02*
X003081Y016878D01*
X002963Y016759D02*
X000340Y016759D01*
X000340Y016641D02*
X002844Y016641D01*
X002572Y016522D02*
X000340Y016522D01*
X000340Y016404D02*
X002480Y016404D01*
X002447Y016285D02*
X000340Y016285D01*
X000340Y016167D02*
X002456Y016167D01*
X002515Y016048D02*
X000340Y016048D01*
X000340Y015930D02*
X002689Y015930D01*
X002881Y015930D02*
X004948Y015930D01*
X004892Y015811D02*
X000340Y015811D01*
X000340Y015693D02*
X004884Y015693D01*
X004919Y015574D02*
X000340Y015574D01*
X000340Y015456D02*
X005013Y015456D01*
X005285Y015337D02*
X000340Y015337D01*
X000340Y015219D02*
X005404Y015219D01*
X005493Y015100D02*
X000340Y015100D01*
X000340Y014982D02*
X005493Y014982D01*
X005493Y014863D02*
X000340Y014863D01*
X000340Y014745D02*
X005493Y014745D01*
X005493Y014626D02*
X000340Y014626D01*
X000340Y014508D02*
X005493Y014508D01*
X005493Y014389D02*
X000340Y014389D01*
X000340Y014271D02*
X005493Y014271D01*
X005493Y014152D02*
X000340Y014152D01*
X000340Y014034D02*
X005493Y014034D01*
X005699Y015574D02*
X005775Y015574D01*
X005775Y015693D02*
X005580Y015693D01*
X005553Y015811D02*
X005775Y015811D01*
X005775Y015930D02*
X005497Y015930D01*
X005327Y016048D02*
X005775Y016048D01*
X005775Y016167D02*
X003114Y016167D01*
X003139Y016285D02*
X005747Y016285D01*
X005698Y016404D02*
X003258Y016404D01*
X003376Y016522D02*
X005697Y016522D01*
X005737Y016641D02*
X003495Y016641D01*
X003055Y016048D02*
X005118Y016048D01*
X007876Y018140D02*
X007982Y018035D01*
X008446Y018035D01*
X008551Y018140D01*
X008551Y018840D01*
X008446Y018946D01*
X007982Y018946D01*
X007876Y018840D01*
X007876Y018140D01*
X007876Y018181D02*
X001365Y018181D01*
X001305Y018156D02*
X001574Y018268D01*
X001780Y018473D01*
X001891Y018742D01*
X001891Y019033D01*
X001780Y019302D01*
X001574Y019507D01*
X001305Y019619D01*
X001015Y019619D01*
X000746Y019507D01*
X000540Y019302D01*
X000429Y019033D01*
X000429Y018742D01*
X000540Y018473D01*
X000746Y018268D01*
X001015Y018156D01*
X001305Y018156D01*
X001606Y018300D02*
X007876Y018300D01*
X007876Y018418D02*
X001725Y018418D01*
X001806Y018537D02*
X007876Y018537D01*
X007876Y018655D02*
X001855Y018655D01*
X001891Y018774D02*
X007876Y018774D01*
X007928Y018892D02*
X001891Y018892D01*
X001891Y019011D02*
X008095Y019011D01*
X008113Y019001D02*
X008153Y018990D01*
X008333Y018990D01*
X008333Y019416D01*
X008014Y019416D01*
X008014Y019129D01*
X001851Y019129D01*
X001802Y019248D02*
X008014Y019248D01*
X008014Y019366D02*
X001716Y019366D01*
X001597Y019485D02*
X008333Y019485D01*
X008333Y019366D02*
X008410Y019366D01*
X008410Y019248D02*
X008333Y019248D01*
X008333Y019129D02*
X008410Y019129D01*
X008410Y019011D02*
X008333Y019011D01*
X008499Y018892D02*
X012335Y018892D01*
X012335Y018774D02*
X010840Y018774D01*
X010355Y018774D02*
X008551Y018774D01*
X008551Y018655D02*
X010280Y018655D01*
X010259Y018537D02*
X008551Y018537D01*
X008551Y018418D02*
X009762Y018418D01*
X009600Y018300D02*
X008551Y018300D01*
X008551Y018181D02*
X009546Y018181D01*
X009540Y018063D02*
X008474Y018063D01*
X007954Y018063D02*
X000340Y018063D01*
X000340Y018181D02*
X000955Y018181D01*
X000714Y018300D02*
X000340Y018300D01*
X000340Y018418D02*
X000595Y018418D01*
X000514Y018537D02*
X000340Y018537D01*
X000340Y018655D02*
X000465Y018655D01*
X000429Y018774D02*
X000340Y018774D01*
X000340Y018892D02*
X000429Y018892D01*
X000429Y019011D02*
X000340Y019011D01*
X000340Y019129D02*
X000469Y019129D01*
X000518Y019248D02*
X000340Y019248D01*
X000340Y019366D02*
X000604Y019366D01*
X000723Y019485D02*
X000340Y019485D01*
X000340Y019603D02*
X000977Y019603D01*
X001343Y019603D02*
X008014Y019603D01*
X008014Y019129D02*
X008025Y019088D01*
X008046Y019051D01*
X008076Y019022D01*
X008113Y019001D01*
X008728Y019248D02*
X008757Y019248D01*
X009126Y019248D02*
X013415Y019248D01*
X013427Y019129D02*
X013233Y019129D01*
X013266Y019011D02*
X013490Y019011D01*
X013673Y018892D02*
X013266Y018892D01*
X013266Y018774D02*
X014618Y018774D01*
X014618Y018892D02*
X013834Y018892D01*
X014018Y019011D02*
X014618Y019011D01*
X014618Y019129D02*
X014080Y019129D01*
X014092Y019248D02*
X014618Y019248D01*
X014618Y019277D02*
X014618Y018486D01*
X014691Y018309D01*
X014826Y018174D01*
X014838Y018169D01*
X014838Y017901D01*
X014877Y017806D01*
X014921Y017762D01*
X014921Y017324D01*
X015026Y017218D01*
X015687Y017218D01*
X015716Y017247D01*
X015749Y017238D01*
X015966Y017238D01*
X015966Y017634D01*
X016086Y017634D01*
X016086Y017754D01*
X016442Y017754D01*
X016442Y018010D01*
X016431Y018051D01*
X016410Y018087D01*
X016380Y018117D01*
X016344Y018138D01*
X016303Y018149D01*
X016256Y018149D01*
X016274Y018155D01*
X016339Y018188D01*
X016397Y018230D01*
X016448Y018282D01*
X016491Y018340D01*
X016524Y018405D01*
X016546Y018474D01*
X016557Y018545D01*
X016557Y018841D01*
X016138Y018841D01*
X016138Y018921D01*
X016557Y018921D01*
X016557Y019217D01*
X016546Y019289D01*
X016524Y019358D01*
X016491Y019422D01*
X016448Y019481D01*
X016397Y019532D01*
X016339Y019575D01*
X016274Y019608D01*
X016205Y019630D01*
X016138Y019641D01*
X016138Y018921D01*
X016057Y018921D01*
X016057Y018841D01*
X015637Y018841D01*
X015638Y018545D01*
X015649Y018474D01*
X015671Y018405D01*
X015704Y018340D01*
X015747Y018282D01*
X015798Y018230D01*
X015856Y018188D01*
X015921Y018155D01*
X015939Y018149D01*
X015749Y018149D01*
X015716Y018140D01*
X015687Y018169D01*
X015357Y018169D01*
X015357Y018169D01*
X015369Y018174D01*
X015504Y018309D01*
X015577Y018486D01*
X015577Y019277D01*
X015504Y019453D01*
X015369Y019588D01*
X015193Y019661D01*
X015002Y019661D01*
X014826Y019588D01*
X014691Y019453D01*
X014618Y019277D01*
X014654Y019366D02*
X014062Y019366D01*
X014014Y019485D02*
X014722Y019485D01*
X014861Y019603D02*
X014008Y019603D01*
X014618Y018655D02*
X013266Y018655D01*
X013256Y018537D02*
X014618Y018537D01*
X014646Y018418D02*
X013256Y018418D01*
X013256Y018300D02*
X013693Y018300D01*
X013621Y018181D02*
X013256Y018181D01*
X013256Y018063D02*
X013603Y018063D01*
X013627Y017944D02*
X013256Y017944D01*
X013217Y017826D02*
X013681Y017826D01*
X013681Y017707D02*
X012358Y017707D01*
X012240Y017826D02*
X012620Y017826D01*
X012581Y017944D02*
X012121Y017944D01*
X012003Y018063D02*
X012581Y018063D01*
X012581Y018181D02*
X011884Y018181D01*
X011766Y018300D02*
X012581Y018300D01*
X012477Y017589D02*
X013681Y017589D01*
X013681Y017470D02*
X012595Y017470D01*
X012714Y017352D02*
X013681Y017352D01*
X013681Y017233D02*
X012832Y017233D01*
X013062Y017115D02*
X013681Y017115D01*
X013681Y016996D02*
X013153Y016996D01*
X013186Y016878D02*
X013681Y016878D01*
X013681Y016759D02*
X013176Y016759D01*
X013443Y016048D02*
X019580Y016048D01*
X019580Y015930D02*
X013562Y015930D01*
X013680Y015811D02*
X019580Y015811D01*
X019580Y015693D02*
X013799Y015693D01*
X013917Y015574D02*
X019580Y015574D01*
X019580Y015456D02*
X014036Y015456D01*
X014154Y015337D02*
X019580Y015337D01*
X019580Y015219D02*
X017168Y015219D01*
X017027Y015219D02*
X016270Y015219D01*
X016066Y014944D02*
X017035Y014944D01*
X017098Y014881D01*
X017566Y014413D01*
X017566Y014038D01*
X017321Y014271D02*
X015186Y014271D01*
X015217Y014389D02*
X017250Y014389D01*
X017132Y014508D02*
X015206Y014508D01*
X015144Y014626D02*
X015949Y014626D01*
X015787Y014745D02*
X014962Y014745D01*
X014796Y014745D02*
X014171Y014745D01*
X014171Y014863D02*
X015733Y014863D01*
X015728Y014982D02*
X014171Y014982D01*
X014171Y015100D02*
X015765Y015100D01*
X015862Y015219D02*
X014171Y015219D01*
X013711Y015130D02*
X013711Y013687D01*
X012645Y014753D01*
X012646Y014754D01*
X012646Y014767D01*
X013150Y014767D01*
X013256Y014872D01*
X013256Y015585D01*
X013711Y015130D01*
X013711Y015100D02*
X013256Y015100D01*
X013256Y014982D02*
X013711Y014982D01*
X013711Y014863D02*
X013246Y014863D01*
X013256Y015219D02*
X013622Y015219D01*
X013504Y015337D02*
X013256Y015337D01*
X013256Y015456D02*
X013385Y015456D01*
X013267Y015574D02*
X013256Y015574D01*
X013123Y015717D02*
X012540Y015717D01*
X012155Y015717D01*
X012131Y015694D01*
X012107Y015717D01*
X011722Y015717D01*
X011680Y015676D01*
X011661Y015687D01*
X011621Y015697D01*
X011481Y015697D01*
X011342Y015697D01*
X011301Y015687D01*
X011288Y015679D01*
X011288Y015987D01*
X011320Y016001D01*
X011416Y016096D01*
X011467Y016220D01*
X011467Y016355D01*
X011451Y016393D01*
X011468Y016387D01*
X011548Y016387D01*
X012055Y015880D01*
X012190Y015745D01*
X013096Y015745D01*
X013123Y015717D01*
X013907Y016167D02*
X019580Y016167D01*
X019580Y016285D02*
X014025Y016285D01*
X014144Y016404D02*
X019580Y016404D01*
X019580Y016522D02*
X014201Y016522D01*
X014201Y016641D02*
X019580Y016641D01*
X019580Y016759D02*
X014201Y016759D01*
X014201Y016878D02*
X019580Y016878D01*
X019580Y016996D02*
X014201Y016996D01*
X014201Y017115D02*
X019580Y017115D01*
X019580Y017233D02*
X015702Y017233D01*
X015966Y017352D02*
X016086Y017352D01*
X016086Y017238D02*
X016303Y017238D01*
X016344Y017249D01*
X016380Y017270D01*
X016410Y017300D01*
X016431Y017337D01*
X016442Y017377D01*
X016442Y017634D01*
X016086Y017634D01*
X016086Y017238D01*
X016435Y017352D02*
X019580Y017352D01*
X019580Y017470D02*
X016442Y017470D01*
X016442Y017589D02*
X019580Y017589D01*
X019580Y017707D02*
X016086Y017707D01*
X016086Y017589D02*
X015966Y017589D01*
X015966Y017470D02*
X016086Y017470D01*
X016442Y017826D02*
X019580Y017826D01*
X019580Y017944D02*
X016442Y017944D01*
X016424Y018063D02*
X019580Y018063D01*
X019580Y018181D02*
X018965Y018181D01*
X018905Y018156D02*
X019174Y018268D01*
X019380Y018473D01*
X019491Y018742D01*
X019491Y019033D01*
X019380Y019302D01*
X019174Y019507D01*
X018905Y019619D01*
X018615Y019619D01*
X018346Y019507D01*
X018140Y019302D01*
X018029Y019033D01*
X018029Y018742D01*
X018140Y018473D01*
X018346Y018268D01*
X018615Y018156D01*
X018905Y018156D01*
X019206Y018300D02*
X019580Y018300D01*
X019580Y018418D02*
X019325Y018418D01*
X019406Y018537D02*
X019580Y018537D01*
X019580Y018655D02*
X019455Y018655D01*
X019491Y018774D02*
X019580Y018774D01*
X019580Y018892D02*
X019491Y018892D01*
X019491Y019011D02*
X019580Y019011D01*
X019580Y019129D02*
X019451Y019129D01*
X019402Y019248D02*
X019580Y019248D01*
X019580Y019366D02*
X019316Y019366D01*
X019197Y019485D02*
X019580Y019485D01*
X019580Y019603D02*
X018943Y019603D01*
X018577Y019603D02*
X016283Y019603D01*
X016138Y019603D02*
X016057Y019603D01*
X016057Y019641D02*
X015990Y019630D01*
X015921Y019608D01*
X015856Y019575D01*
X015798Y019532D01*
X015747Y019481D01*
X015704Y019422D01*
X015671Y019358D01*
X015649Y019289D01*
X015638Y019217D01*
X015638Y018921D01*
X016057Y018921D01*
X016057Y019641D01*
X015912Y019603D02*
X015334Y019603D01*
X015473Y019485D02*
X015750Y019485D01*
X015675Y019366D02*
X015541Y019366D01*
X015577Y019248D02*
X015642Y019248D01*
X015638Y019129D02*
X015577Y019129D01*
X015577Y019011D02*
X015638Y019011D01*
X015577Y018892D02*
X016057Y018892D01*
X016138Y018892D02*
X018029Y018892D01*
X018029Y018774D02*
X016557Y018774D01*
X016557Y018655D02*
X018065Y018655D01*
X018114Y018537D02*
X016556Y018537D01*
X016528Y018418D02*
X018195Y018418D01*
X018314Y018300D02*
X016461Y018300D01*
X016325Y018181D02*
X018555Y018181D01*
X018029Y019011D02*
X016557Y019011D01*
X016557Y019129D02*
X018069Y019129D01*
X018118Y019248D02*
X016553Y019248D01*
X016520Y019366D02*
X018204Y019366D01*
X018323Y019485D02*
X016445Y019485D01*
X016138Y019485D02*
X016057Y019485D01*
X016057Y019366D02*
X016138Y019366D01*
X016138Y019248D02*
X016057Y019248D01*
X016057Y019129D02*
X016138Y019129D01*
X016138Y019011D02*
X016057Y019011D01*
X015637Y018774D02*
X015577Y018774D01*
X015577Y018655D02*
X015637Y018655D01*
X015639Y018537D02*
X015577Y018537D01*
X015549Y018418D02*
X015667Y018418D01*
X015734Y018300D02*
X015495Y018300D01*
X015376Y018181D02*
X015870Y018181D01*
X014921Y017707D02*
X014201Y017707D01*
X014201Y017589D02*
X014921Y017589D01*
X014921Y017470D02*
X014201Y017470D01*
X014201Y017352D02*
X014921Y017352D01*
X015012Y017233D02*
X014201Y017233D01*
X014201Y017826D02*
X014869Y017826D01*
X014838Y017944D02*
X014256Y017944D01*
X014280Y018063D02*
X014838Y018063D01*
X014819Y018181D02*
X014261Y018181D01*
X014189Y018300D02*
X014700Y018300D01*
X012124Y015811D02*
X011288Y015811D01*
X011288Y015693D02*
X011324Y015693D01*
X011481Y015693D02*
X011481Y015693D01*
X011481Y015697D02*
X011481Y015183D01*
X011481Y015183D01*
X011481Y015765D01*
X011481Y015697D02*
X011481Y015183D01*
X011481Y015219D02*
X011481Y015219D01*
X011481Y015337D02*
X011481Y015337D01*
X011481Y015456D02*
X011481Y015456D01*
X011481Y015574D02*
X011481Y015574D01*
X011639Y015693D02*
X011697Y015693D01*
X012005Y015930D02*
X011288Y015930D01*
X011368Y016048D02*
X011887Y016048D01*
X011768Y016167D02*
X011445Y016167D01*
X011467Y016285D02*
X011650Y016285D01*
X011129Y016288D02*
X011048Y016207D01*
X011048Y015183D01*
X010566Y015913D02*
X010182Y015528D01*
X010182Y015183D01*
X008486Y014389D02*
X008259Y014389D01*
X008302Y013797D02*
X008391Y013797D01*
X007929Y012256D02*
X007905Y012256D01*
X007905Y012138D02*
X008047Y012138D01*
X008149Y012019D02*
X007860Y012019D01*
X007743Y011901D02*
X008085Y011901D01*
X008543Y011427D02*
X008586Y011427D01*
X009296Y007990D02*
X010429Y007990D01*
X010311Y007872D02*
X009296Y007872D01*
X009296Y007753D02*
X010192Y007753D01*
X010074Y007635D02*
X009296Y007635D01*
X009296Y007516D02*
X009955Y007516D01*
X009666Y007398D02*
X009296Y007398D01*
X009296Y007279D02*
X009574Y007279D01*
X009540Y007161D02*
X009296Y007161D01*
X009296Y007042D02*
X009549Y007042D01*
X009608Y006924D02*
X009296Y006924D01*
X009253Y006805D02*
X009782Y006805D01*
X009975Y006805D02*
X010420Y006805D01*
X010420Y006687D02*
X009134Y006687D01*
X009879Y007131D02*
X009910Y007131D01*
X010566Y007788D01*
X011441Y007788D01*
X012566Y006663D01*
X013772Y008346D02*
X015209Y008346D01*
X015090Y008464D02*
X013772Y008464D01*
X013772Y008583D02*
X014972Y008583D01*
X014853Y008701D02*
X013772Y008701D01*
X013772Y008820D02*
X014735Y008820D01*
X014616Y008938D02*
X013860Y008938D01*
X013978Y009057D02*
X014498Y009057D01*
X014379Y009175D02*
X014097Y009175D01*
X014215Y009294D02*
X014261Y009294D01*
X014754Y009663D02*
X014754Y009850D01*
X014723Y009881D01*
X014754Y009663D02*
X015473Y008944D01*
X015785Y008944D01*
X015941Y009319D02*
X015566Y009319D01*
X015254Y009631D01*
X015254Y010194D01*
X015551Y010360D02*
X017162Y010360D01*
X017470Y010360D02*
X018514Y010360D01*
X018514Y010242D02*
X015592Y010242D01*
X015591Y010123D02*
X018437Y010123D01*
X018319Y010005D02*
X015542Y010005D01*
X015494Y009886D02*
X018200Y009886D01*
X018082Y009768D02*
X015494Y009768D01*
X015575Y009649D02*
X017963Y009649D01*
X017845Y009531D02*
X016057Y009531D01*
X016187Y009412D02*
X017726Y009412D01*
X017608Y009294D02*
X016306Y009294D01*
X016407Y009175D02*
X017489Y009175D01*
X017371Y009057D02*
X017288Y009057D01*
X016969Y009057D02*
X016431Y009057D01*
X016431Y008938D02*
X016838Y008938D01*
X016790Y008820D02*
X016431Y008820D01*
X016431Y008701D02*
X016790Y008701D01*
X016834Y008583D02*
X016463Y008583D01*
X016467Y008464D02*
X016950Y008464D01*
X017129Y008756D02*
X017410Y008756D01*
X018754Y010100D01*
X018754Y012381D01*
X019379Y013006D01*
X019098Y013204D02*
X018711Y013204D01*
X018711Y013086D02*
X018591Y013086D01*
X018591Y012967D02*
X018711Y012967D01*
X018711Y012849D02*
X018591Y012849D01*
X018763Y012730D02*
X018115Y012730D01*
X017996Y012612D02*
X018645Y012612D01*
X018540Y012493D02*
X017878Y012493D01*
X017759Y012375D02*
X018514Y012375D01*
X018514Y012256D02*
X017641Y012256D01*
X017522Y012138D02*
X018514Y012138D01*
X018514Y012019D02*
X015691Y012019D01*
X015810Y011901D02*
X016470Y011901D01*
X016338Y011782D02*
X016082Y011782D01*
X016180Y011664D02*
X016290Y011664D01*
X016290Y011545D02*
X016217Y011545D01*
X016212Y011427D02*
X016329Y011427D01*
X016329Y011308D02*
X016159Y011308D01*
X015998Y011190D02*
X016329Y011190D01*
X016329Y011071D02*
X015484Y011071D01*
X015484Y010953D02*
X016329Y010953D01*
X016362Y010834D02*
X015484Y010834D01*
X015484Y010716D02*
X016464Y010716D01*
X016582Y010597D02*
X015484Y010597D01*
X015484Y010479D02*
X016701Y010479D01*
X016957Y011071D02*
X017846Y011071D01*
X017846Y010953D02*
X017500Y010953D01*
X017846Y011190D02*
X016929Y011190D01*
X016929Y011308D02*
X017879Y011308D01*
X017866Y011427D02*
X016929Y011427D01*
X016967Y011545D02*
X017866Y011545D01*
X017866Y011629D02*
X018184Y011629D01*
X018184Y011967D01*
X018005Y011967D01*
X017964Y011957D01*
X017927Y011935D01*
X017898Y011906D01*
X017877Y011869D01*
X017866Y011828D01*
X017866Y011629D01*
X017866Y011664D02*
X016967Y011664D01*
X016920Y011782D02*
X017866Y011782D01*
X017895Y011901D02*
X016788Y011901D01*
X017153Y012730D02*
X015615Y012730D01*
X015761Y012849D02*
X017271Y012849D01*
X017390Y012967D02*
X015810Y012967D01*
X015811Y013086D02*
X017508Y013086D01*
X017546Y013204D02*
X015770Y013204D01*
X015702Y013323D02*
X017546Y013323D01*
X017546Y013441D02*
X015702Y013441D01*
X015682Y013560D02*
X017546Y013560D01*
X017629Y013678D02*
X015563Y013678D01*
X015445Y013797D02*
X017329Y013797D01*
X017251Y013915D02*
X015326Y013915D01*
X015208Y014034D02*
X017228Y014034D01*
X017247Y014152D02*
X015109Y014152D01*
X014552Y014508D02*
X014481Y014508D01*
X014614Y014626D02*
X014171Y014626D01*
X013711Y014626D02*
X012772Y014626D01*
X012890Y014508D02*
X013711Y014508D01*
X013711Y014389D02*
X013009Y014389D01*
X013127Y014271D02*
X013711Y014271D01*
X013711Y014152D02*
X013246Y014152D01*
X013364Y014034D02*
X013711Y014034D01*
X013711Y013915D02*
X013483Y013915D01*
X013601Y013797D02*
X013711Y013797D01*
X013185Y013218D02*
X014743Y011661D01*
X014743Y010227D01*
X014736Y010220D01*
X014655Y010220D01*
X014531Y010168D01*
X014460Y010097D01*
X014460Y011353D01*
X014460Y011472D01*
X014414Y011582D01*
X013485Y012511D01*
X013447Y012604D01*
X013352Y012699D01*
X013227Y012751D01*
X013189Y012751D01*
X013107Y012833D01*
X013107Y013069D01*
X013134Y013096D01*
X013185Y013218D01*
X013179Y013204D02*
X013199Y013204D01*
X013124Y013086D02*
X013318Y013086D01*
X013436Y012967D02*
X013107Y012967D01*
X013107Y012849D02*
X013555Y012849D01*
X013673Y012730D02*
X013278Y012730D01*
X013440Y012612D02*
X013792Y012612D01*
X013910Y012493D02*
X013504Y012493D01*
X013622Y012375D02*
X014029Y012375D01*
X014147Y012256D02*
X013741Y012256D01*
X013859Y012138D02*
X014266Y012138D01*
X014384Y012019D02*
X013978Y012019D01*
X014096Y011901D02*
X014503Y011901D01*
X014621Y011782D02*
X014215Y011782D01*
X014333Y011664D02*
X014740Y011664D01*
X014743Y011545D02*
X014430Y011545D01*
X014460Y011427D02*
X014743Y011427D01*
X014743Y011308D02*
X014460Y011308D01*
X014460Y011190D02*
X014743Y011190D01*
X014743Y011071D02*
X014460Y011071D01*
X014460Y010953D02*
X014743Y010953D01*
X014743Y010834D02*
X014460Y010834D01*
X014460Y010716D02*
X014743Y010716D01*
X014743Y010597D02*
X014460Y010597D01*
X014460Y010479D02*
X014743Y010479D01*
X014743Y010360D02*
X014460Y010360D01*
X014460Y010242D02*
X014743Y010242D01*
X014486Y010123D02*
X014460Y010123D01*
X015484Y011190D02*
X015759Y011190D01*
X015598Y011308D02*
X015484Y011308D01*
X015484Y011427D02*
X015545Y011427D01*
X015515Y011545D02*
X015484Y011545D01*
X015941Y009319D02*
X016191Y009069D01*
X016191Y008569D01*
X016129Y008506D01*
X016428Y008346D02*
X018316Y008346D01*
X018290Y008464D02*
X017308Y008464D01*
X017576Y008583D02*
X018307Y008583D01*
X018376Y008701D02*
X017694Y008701D01*
X017813Y008820D02*
X019580Y008820D01*
X019580Y008938D02*
X017931Y008938D01*
X018050Y009057D02*
X019580Y009057D01*
X019580Y009175D02*
X018168Y009175D01*
X018287Y009294D02*
X019580Y009294D01*
X019580Y009412D02*
X018405Y009412D01*
X018524Y009531D02*
X019580Y009531D01*
X019580Y009649D02*
X018642Y009649D01*
X018761Y009768D02*
X019580Y009768D01*
X019580Y009886D02*
X018879Y009886D01*
X018974Y010005D02*
X019580Y010005D01*
X019580Y010123D02*
X018994Y010123D01*
X018994Y010242D02*
X019580Y010242D01*
X019580Y010360D02*
X018994Y010360D01*
X018994Y010479D02*
X019580Y010479D01*
X019580Y010597D02*
X018994Y010597D01*
X018994Y010716D02*
X019580Y010716D01*
X019580Y010834D02*
X018994Y010834D01*
X018994Y010953D02*
X019580Y010953D01*
X019580Y011071D02*
X018994Y011071D01*
X018994Y011190D02*
X019580Y011190D01*
X019580Y011308D02*
X018994Y011308D01*
X018994Y011427D02*
X019580Y011427D01*
X019580Y011545D02*
X018994Y011545D01*
X018994Y011664D02*
X019580Y011664D01*
X019580Y011782D02*
X018994Y011782D01*
X018994Y011901D02*
X019580Y011901D01*
X019580Y012019D02*
X018994Y012019D01*
X018994Y012138D02*
X019580Y012138D01*
X019580Y012256D02*
X018994Y012256D01*
X019086Y012375D02*
X019580Y012375D01*
X019580Y012493D02*
X019205Y012493D01*
X019323Y012612D02*
X019580Y012612D01*
X019580Y013323D02*
X019500Y013323D01*
X019580Y013441D02*
X019067Y013441D01*
X019067Y013323D02*
X019258Y013323D01*
X019062Y013560D02*
X019580Y013560D01*
X019580Y013678D02*
X018936Y013678D01*
X018711Y013678D02*
X018594Y013678D01*
X018591Y013560D02*
X018711Y013560D01*
X018711Y013441D02*
X018591Y013441D01*
X018591Y013323D02*
X018711Y013323D01*
X018712Y013797D02*
X019580Y013797D01*
X019580Y013915D02*
X019178Y013915D01*
X019350Y014034D02*
X019580Y014034D01*
X019580Y014152D02*
X019411Y014152D01*
X019424Y014271D02*
X019580Y014271D01*
X019580Y014389D02*
X019399Y014389D01*
X019321Y014508D02*
X019580Y014508D01*
X019580Y014626D02*
X017692Y014626D01*
X017787Y014508D02*
X018462Y014508D01*
X018343Y014389D02*
X017806Y014389D01*
X017812Y014271D02*
X018225Y014271D01*
X018106Y014152D02*
X017885Y014152D01*
X017905Y014034D02*
X017988Y014034D01*
X017574Y014745D02*
X019580Y014745D01*
X019580Y014863D02*
X017455Y014863D01*
X017422Y014982D02*
X019580Y014982D01*
X019580Y015100D02*
X017357Y015100D01*
X016874Y014626D02*
X016184Y014626D01*
X013711Y014745D02*
X012653Y014745D01*
X012190Y013797D02*
X012166Y013797D01*
X012111Y013678D02*
X012308Y013678D01*
X012509Y013323D02*
X012106Y013323D01*
X011971Y013204D02*
X012516Y013204D01*
X009456Y016996D02*
X008964Y016996D01*
X008921Y017039D02*
X008921Y017039D01*
X009466Y017352D02*
X000340Y017352D01*
X000340Y017470D02*
X009612Y017470D01*
X009675Y017826D02*
X000340Y017826D01*
X000340Y017944D02*
X009577Y017944D01*
X009896Y017470D02*
X011186Y017470D01*
X011100Y017589D02*
X000340Y017589D01*
X000340Y017707D02*
X011072Y017707D01*
X011085Y017826D02*
X010083Y017826D01*
X009995Y018418D02*
X010281Y018418D01*
X002531Y012730D02*
X002476Y012730D01*
X002031Y012730D02*
X001924Y012730D01*
X001754Y012730D02*
X001754Y012730D01*
X001754Y012849D02*
X001754Y012849D01*
X001754Y012967D02*
X001754Y012967D01*
X001754Y013086D02*
X001754Y013086D01*
X001754Y013204D02*
X001754Y013204D01*
X001754Y013323D02*
X001754Y013323D01*
X001754Y012375D02*
X001754Y012375D01*
X001754Y012256D02*
X001754Y012256D01*
X001754Y012138D02*
X001754Y012138D01*
X001754Y012019D02*
X001754Y012019D01*
X001754Y011901D02*
X001754Y011901D01*
X001754Y011782D02*
X001754Y011782D01*
X001977Y012375D02*
X001997Y012375D01*
X000961Y007990D02*
X000340Y007990D01*
X000340Y007872D02*
X000842Y007872D01*
X000724Y007753D02*
X000340Y007753D01*
X000340Y007635D02*
X000605Y007635D01*
X000487Y007516D02*
X000340Y007516D01*
X000340Y007398D02*
X000368Y007398D01*
X000744Y007094D02*
X001259Y007610D01*
X002811Y007610D01*
X003701Y006719D01*
X003701Y006415D01*
X003296Y006820D01*
X003162Y006955D01*
X002127Y006955D01*
X001877Y006705D01*
X001743Y006570D01*
X001743Y006540D01*
X001701Y006581D01*
X001639Y006623D01*
X001570Y006651D01*
X001497Y006666D01*
X001460Y006666D01*
X001423Y006666D01*
X001350Y006651D01*
X001281Y006623D01*
X001219Y006581D01*
X001166Y006529D01*
X001125Y006467D01*
X001096Y006398D01*
X001082Y006325D01*
X001082Y006288D01*
X001460Y006288D01*
X001460Y006666D01*
X001460Y006288D01*
X001460Y006288D01*
X001460Y006287D01*
X001082Y006287D01*
X001082Y006250D01*
X001096Y006177D01*
X001125Y006108D01*
X001162Y006053D01*
X001122Y006013D01*
X001062Y005867D01*
X001062Y005708D01*
X001122Y005562D01*
X001147Y005538D01*
X001122Y005513D01*
X001062Y005367D01*
X001062Y005208D01*
X001122Y005062D01*
X001147Y005038D01*
X001122Y005013D01*
X001062Y004867D01*
X001062Y004708D01*
X001122Y004562D01*
X001147Y004538D01*
X001122Y004513D01*
X001062Y004367D01*
X001062Y004208D01*
X001122Y004062D01*
X001147Y004038D01*
X001122Y004013D01*
X001062Y003867D01*
X001062Y003708D01*
X001122Y003562D01*
X001147Y003538D01*
X001122Y003513D01*
X001062Y003367D01*
X001062Y003208D01*
X001111Y003090D01*
X001041Y003090D01*
X000744Y003387D01*
X000744Y007094D01*
X000744Y007042D02*
X003379Y007042D01*
X003497Y006924D02*
X003193Y006924D01*
X003312Y006805D02*
X003616Y006805D01*
X003701Y006687D02*
X003430Y006687D01*
X003549Y006568D02*
X003701Y006568D01*
X003701Y006450D02*
X003667Y006450D01*
X003260Y007161D02*
X000810Y007161D01*
X000928Y007279D02*
X003142Y007279D01*
X003023Y007398D02*
X001047Y007398D01*
X001165Y007516D02*
X002905Y007516D01*
X002096Y006924D02*
X000744Y006924D01*
X000744Y006805D02*
X001977Y006805D01*
X001859Y006687D02*
X000744Y006687D01*
X000744Y006568D02*
X001206Y006568D01*
X001118Y006450D02*
X000744Y006450D01*
X000744Y006331D02*
X001083Y006331D01*
X001089Y006213D02*
X000744Y006213D01*
X000744Y006094D02*
X001135Y006094D01*
X001107Y005976D02*
X000744Y005976D01*
X000744Y005857D02*
X001062Y005857D01*
X001062Y005739D02*
X000744Y005739D01*
X000744Y005620D02*
X001098Y005620D01*
X001118Y005502D02*
X000744Y005502D01*
X000744Y005383D02*
X001069Y005383D01*
X001062Y005265D02*
X000744Y005265D01*
X000744Y005146D02*
X001088Y005146D01*
X001137Y005028D02*
X000744Y005028D01*
X000744Y004909D02*
X001079Y004909D01*
X001062Y004791D02*
X000744Y004791D01*
X000744Y004672D02*
X001077Y004672D01*
X001131Y004554D02*
X000744Y004554D01*
X000744Y004435D02*
X001090Y004435D01*
X001062Y004317D02*
X000744Y004317D01*
X000744Y004198D02*
X001066Y004198D01*
X001115Y004080D02*
X000744Y004080D01*
X000744Y003961D02*
X001101Y003961D01*
X001062Y003843D02*
X000744Y003843D01*
X000744Y003724D02*
X001062Y003724D01*
X001104Y003606D02*
X000744Y003606D01*
X000744Y003487D02*
X001112Y003487D01*
X001063Y003369D02*
X000762Y003369D01*
X000881Y003250D02*
X001062Y003250D01*
X001094Y003132D02*
X000999Y003132D01*
X000676Y002776D02*
X000340Y002776D01*
X000340Y002658D02*
X000794Y002658D01*
X000738Y002714D02*
X000738Y002714D01*
X000557Y002895D02*
X000340Y002895D01*
X000340Y003013D02*
X000439Y003013D01*
X000368Y003084D02*
X000368Y003084D01*
X000340Y002539D02*
X001145Y002539D01*
X001306Y002421D02*
X000340Y002421D01*
X001585Y003663D02*
X001754Y003663D01*
X001848Y003569D01*
X001585Y003663D02*
X001460Y003788D01*
X002614Y002421D02*
X002884Y002421D01*
X002889Y002302D02*
X002690Y002302D01*
X002808Y002184D02*
X002942Y002184D01*
X002927Y002065D02*
X003102Y002065D01*
X003045Y001947D02*
X003332Y001947D01*
X002922Y002539D02*
X002775Y002539D01*
X001783Y000880D02*
X008603Y000880D01*
X009744Y002065D02*
X013826Y002065D01*
X013826Y001947D02*
X009840Y001947D01*
X009959Y001828D02*
X013826Y001828D01*
X013568Y001473D02*
X010668Y001473D01*
X010717Y001354D02*
X013450Y001354D01*
X013484Y002902D02*
X010009Y002902D01*
X009988Y002923D01*
X009921Y002991D01*
X009833Y003027D01*
X009434Y003027D01*
X009436Y003033D01*
X009436Y003167D01*
X009384Y003292D01*
X009327Y003349D01*
X009327Y003476D01*
X009384Y003533D01*
X009436Y003658D01*
X009436Y003776D01*
X009690Y003776D01*
X009815Y003651D01*
X010412Y003651D01*
X010537Y003776D01*
X013002Y003776D01*
X013271Y003508D01*
X013259Y003480D01*
X013259Y003345D01*
X013311Y003221D01*
X013406Y003126D01*
X013530Y003074D01*
X013665Y003074D01*
X013789Y003126D01*
X013826Y003163D01*
X013826Y002986D01*
X013790Y003001D01*
X013655Y003001D01*
X013531Y002949D01*
X013484Y002902D01*
X013400Y003132D02*
X009436Y003132D01*
X009402Y003250D02*
X013298Y003250D01*
X013259Y003369D02*
X009327Y003369D01*
X009338Y003487D02*
X013262Y003487D01*
X013173Y003606D02*
X009414Y003606D01*
X009436Y003724D02*
X009742Y003724D01*
X009868Y003013D02*
X013826Y003013D01*
X013826Y003132D02*
X013795Y003132D01*
X013054Y003724D02*
X010484Y003724D01*
X011723Y004756D02*
X010660Y005819D01*
X010660Y007381D01*
X010402Y007161D02*
X010279Y007161D01*
X010208Y007042D02*
X010420Y007042D01*
X010420Y006924D02*
X010150Y006924D01*
X008857Y003487D02*
X008685Y003487D01*
X014690Y007635D02*
X015920Y007635D01*
X015801Y007753D02*
X014674Y007753D01*
X014686Y007872D02*
X015683Y007872D01*
X015564Y007990D02*
X014656Y007990D01*
X014812Y007516D02*
X016038Y007516D01*
X016157Y007398D02*
X014935Y007398D01*
X015941Y006131D02*
X015941Y005569D01*
X016129Y005381D01*
X017802Y005502D02*
X018118Y005502D01*
X018098Y005620D02*
X017822Y005620D01*
X017858Y005739D02*
X018040Y005739D01*
X017921Y005857D02*
X017858Y005857D01*
X017868Y005976D02*
X017813Y005976D01*
X017811Y006094D02*
X017868Y006094D01*
X017858Y006213D02*
X017868Y006213D01*
X017858Y006331D02*
X017868Y006331D01*
X017868Y006450D02*
X017824Y006450D01*
X017868Y006568D02*
X017742Y006568D01*
X018327Y006687D02*
X019580Y006687D01*
X019580Y006805D02*
X018327Y006805D01*
X018327Y006924D02*
X019580Y006924D01*
X019580Y007042D02*
X018293Y007042D01*
X018175Y007161D02*
X019580Y007161D01*
X019580Y007279D02*
X018124Y007279D01*
X018037Y007398D02*
X019580Y007398D01*
X019580Y007516D02*
X016887Y007516D01*
X016768Y007635D02*
X019580Y007635D01*
X019580Y007753D02*
X019501Y007753D01*
X019257Y007753D02*
X016650Y007753D01*
X016531Y007872D02*
X019097Y007872D01*
X019045Y007990D02*
X016413Y007990D01*
X016294Y008109D02*
X019000Y008109D01*
X018881Y008227D02*
X018859Y008227D01*
X018973Y008475D02*
X018629Y008475D01*
X018398Y008227D02*
X016328Y008227D01*
X018105Y010479D02*
X018514Y010479D01*
X018261Y011664D02*
X018184Y011664D01*
X018184Y011782D02*
X018261Y011782D01*
X018261Y011901D02*
X018184Y011901D01*
X018831Y013915D02*
X018954Y013915D01*
X019054Y008701D02*
X019580Y008701D01*
X019580Y008583D02*
X019204Y008583D01*
X019323Y008464D02*
X019580Y008464D01*
X019379Y008069D02*
X018973Y008475D01*
X018742Y006568D02*
X019580Y006568D01*
X019580Y006450D02*
X018824Y006450D01*
X018858Y006331D02*
X019580Y006331D01*
X019580Y006213D02*
X018858Y006213D01*
X018811Y006094D02*
X019580Y006094D01*
X019580Y005976D02*
X019158Y005976D01*
X018978Y005757D02*
X018978Y005757D01*
X018978Y005757D01*
X018598Y005256D02*
X018816Y005038D01*
X018816Y004600D01*
X018973Y004444D01*
X018660Y004288D02*
X018460Y004288D01*
X018660Y004288D02*
X019098Y003850D01*
X019285Y003850D01*
X019285Y004788D01*
X019160Y004913D01*
X019160Y004938D01*
X019160Y004944D01*
X018598Y005256D02*
X018491Y005256D01*
X018460Y005288D01*
X018088Y005146D02*
X017832Y005146D01*
X017858Y005265D02*
X018062Y005265D01*
X018069Y005383D02*
X017851Y005383D01*
X017783Y005028D02*
X018137Y005028D01*
X018079Y004909D02*
X017841Y004909D01*
X017858Y004791D02*
X018062Y004791D01*
X018077Y004672D02*
X017843Y004672D01*
X017789Y004554D02*
X018131Y004554D01*
X018090Y004435D02*
X017830Y004435D01*
X017858Y004317D02*
X018062Y004317D01*
X018066Y004198D02*
X017854Y004198D01*
X017805Y004080D02*
X018115Y004080D01*
X018057Y003961D02*
X017819Y003961D01*
X017858Y003843D02*
X017938Y003843D01*
X018019Y003923D02*
X018019Y003923D01*
X018223Y003788D02*
X017941Y003506D01*
X017941Y003163D01*
X017894Y002776D02*
X019580Y002776D01*
X019580Y002658D02*
X017776Y002658D01*
X018223Y003788D02*
X018460Y003788D01*
X018858Y003724D02*
X018884Y003724D01*
X001743Y006568D02*
X001714Y006568D01*
X001460Y006568D02*
X001460Y006568D01*
X001460Y006450D02*
X001460Y006450D01*
X001460Y006331D02*
X001460Y006331D01*
D31*
X001973Y006475D02*
X001973Y004975D01*
X001816Y004819D01*
X001491Y004819D01*
X001460Y004788D01*
X001848Y003569D02*
X002098Y003319D01*
X002098Y002569D01*
X003285Y001381D01*
X003910Y001381D01*
X003660Y001944D02*
X003223Y002381D01*
X003410Y002788D02*
X003441Y002819D01*
X003410Y002788D02*
X002460Y002788D01*
X001879Y002475D02*
X001879Y003100D01*
X001785Y003194D01*
X001554Y003194D01*
X001460Y003288D01*
X003660Y001944D02*
X006191Y001944D01*
X006098Y002850D02*
X006004Y002944D01*
X006004Y003663D01*
X005879Y003788D01*
X005879Y004569D01*
X005629Y004819D01*
X005629Y005069D01*
X006754Y006194D01*
X006785Y006194D01*
X006973Y006381D01*
X008504Y006381D01*
X008473Y006350D01*
X008473Y004975D01*
X008941Y004506D01*
X008879Y004006D02*
X009785Y004006D01*
X009910Y003881D01*
X010316Y003881D01*
X010441Y004006D01*
X013098Y004006D01*
X013598Y003506D01*
X013598Y003413D01*
X016285Y005600D02*
X016285Y006006D01*
X016410Y006131D01*
X016410Y006225D01*
X016004Y006631D01*
X015848Y006631D01*
X016598Y005850D02*
X016598Y003350D01*
X016848Y003100D01*
X018316Y005788D02*
X018098Y006006D01*
X018098Y006913D01*
X017848Y007163D01*
X017473Y006288D02*
X017460Y006288D01*
X018316Y005788D02*
X018460Y005788D01*
X014723Y009881D02*
X014973Y010131D01*
X014973Y011756D01*
X011914Y014814D01*
X011914Y015183D01*
X012348Y015183D02*
X012348Y014725D01*
X015254Y011819D01*
X015254Y010194D01*
X015879Y011506D02*
X013941Y013444D01*
X013941Y015225D01*
X013191Y015975D01*
X012285Y015975D01*
X011535Y016725D01*
X012004Y017163D02*
X012285Y016881D01*
X012004Y017163D02*
X009754Y017163D01*
X009910Y016694D02*
X008941Y016694D01*
X008691Y016944D01*
X003473Y016944D01*
X002785Y016256D01*
X005223Y015725D02*
X005723Y015225D01*
X005723Y013850D01*
X007098Y012475D01*
X007254Y012475D01*
X007316Y012538D01*
X007973Y012538D01*
X008379Y012131D01*
X008379Y011725D01*
X008691Y012069D02*
X008066Y012913D01*
X007066Y012913D01*
X007467Y013631D02*
X007467Y014100D01*
X007978Y014100D02*
X007978Y014532D01*
X007160Y015350D01*
X007160Y015975D01*
X007504Y016319D01*
X008410Y016319D01*
X008754Y015975D01*
X008691Y016038D01*
X008598Y014069D02*
X008191Y014069D01*
X008160Y014100D01*
X007978Y014100D01*
X007978Y013631D02*
X008004Y013631D01*
X009254Y013163D02*
X009254Y012006D01*
X009410Y011850D01*
X009410Y011631D01*
X009066Y011288D01*
X009066Y006944D01*
X008504Y006381D01*
X008441Y006631D02*
X006910Y006631D01*
X005410Y005131D01*
X005410Y004725D01*
X005660Y004475D01*
X005660Y003538D01*
X005316Y003444D02*
X005316Y003788D01*
X005441Y003913D01*
X005441Y004381D01*
X005191Y004631D01*
X005191Y008069D01*
X005316Y008194D01*
X004723Y008100D02*
X004723Y007913D01*
X004816Y007819D01*
X004816Y004288D01*
X005004Y004538D02*
X005129Y004413D01*
X005129Y004038D01*
X004691Y003819D02*
X004535Y003975D01*
X004691Y003819D02*
X004691Y003444D01*
X005316Y003444D01*
X006191Y003788D02*
X006191Y003975D01*
X006191Y003788D02*
X006348Y003631D01*
X008504Y003631D01*
X008879Y004006D01*
X009098Y003725D02*
X009098Y003100D01*
X007785Y004225D02*
X007223Y004225D01*
X006941Y003944D01*
X005004Y004538D02*
X005004Y008944D01*
X005004Y010413D02*
X005098Y010506D01*
X006754Y010506D01*
X007254Y010006D01*
X007254Y009975D01*
X007473Y009975D01*
X007629Y009819D01*
X007848Y009944D02*
X007566Y010225D01*
X007348Y010225D01*
X006816Y010756D01*
X003785Y010756D01*
X002754Y011788D01*
X002754Y012069D01*
X003191Y012444D02*
X002754Y012881D01*
X002754Y013069D01*
X003254Y013069D02*
X003254Y013538D01*
X003379Y013663D01*
X005129Y013663D01*
X006691Y012100D01*
X007473Y012100D01*
X007566Y012194D01*
X006973Y011850D02*
X006598Y011850D01*
X005004Y013444D01*
X004410Y013444D01*
X004254Y013288D01*
X004254Y013069D01*
X004754Y013069D02*
X005098Y013069D01*
X006566Y011600D01*
X006879Y011600D01*
X007535Y010944D01*
X007535Y010694D01*
X008129Y010100D01*
X008129Y009725D01*
X008254Y009600D01*
X008410Y010006D02*
X008410Y010413D01*
X006973Y011850D01*
X006566Y011413D02*
X006441Y011413D01*
X005160Y012694D01*
X003816Y012694D01*
X003754Y012756D01*
X003754Y013069D01*
X003191Y012444D02*
X004973Y012444D01*
X005316Y012100D01*
X006566Y011413D02*
X007223Y010756D01*
X008816Y011506D02*
X008816Y007006D01*
X008441Y006631D01*
X009535Y005350D02*
X010098Y005350D01*
X009535Y005350D02*
X009379Y005194D01*
X003473Y006038D02*
X003473Y006319D01*
X003066Y006725D01*
X002223Y006725D01*
X001973Y006475D01*
X008816Y011506D02*
X009035Y011725D01*
X009035Y011819D01*
X011973Y011256D02*
X011973Y011185D01*
X014285Y014225D02*
X015129Y013381D01*
X015129Y013319D01*
X015473Y013444D02*
X015473Y013038D01*
X015473Y013444D02*
X014879Y014038D01*
X014879Y014413D01*
X018223Y010922D02*
X017963Y010663D01*
X017316Y010663D01*
X012482Y018538D02*
X010598Y018538D01*
X012482Y018538D02*
X012800Y018825D01*
D32*
X013160Y012413D02*
X014160Y011413D01*
X014160Y009663D01*
X013473Y008975D01*
X013473Y005663D01*
X016816Y007163D02*
X014316Y009663D01*
X014160Y009663D01*
X016629Y010975D02*
X016941Y010663D01*
X017316Y010663D01*
X016629Y010975D02*
X016629Y011600D01*
X016816Y007163D02*
X017848Y007163D01*
M02*
