G75*
G70*
%OFA0B0*%
%FSLAX24Y24*%
%IPPOS*%
%LPD*%
%AMOC8*
5,1,8,0,0,1.08239X$1,22.5*
%
%ADD10C,0.0000*%
%ADD11C,0.0120*%
%ADD12C,0.0060*%
%ADD13C,0.0100*%
%ADD14C,0.0040*%
%ADD15R,0.0118X0.0236*%
%ADD16C,0.0050*%
%ADD17R,0.0236X0.0118*%
%ADD18R,0.0295X0.0571*%
%ADD19R,0.0374X0.0197*%
%ADD20R,0.0200X0.0200*%
%ADD21R,0.0571X0.0295*%
%ADD22R,0.0197X0.0374*%
%ADD23C,0.0025*%
%ADD24C,0.0098*%
D10*
X000160Y000288D02*
X000160Y019888D01*
X019760Y019888D01*
X019760Y000288D01*
X000160Y000288D01*
X000609Y001288D02*
X000611Y001335D01*
X000617Y001381D01*
X000627Y001427D01*
X000640Y001472D01*
X000658Y001515D01*
X000679Y001557D01*
X000703Y001597D01*
X000731Y001634D01*
X000762Y001669D01*
X000796Y001702D01*
X000832Y001731D01*
X000871Y001757D01*
X000912Y001780D01*
X000955Y001799D01*
X000999Y001815D01*
X001044Y001827D01*
X001090Y001835D01*
X001137Y001839D01*
X001183Y001839D01*
X001230Y001835D01*
X001276Y001827D01*
X001321Y001815D01*
X001365Y001799D01*
X001408Y001780D01*
X001449Y001757D01*
X001488Y001731D01*
X001524Y001702D01*
X001558Y001669D01*
X001589Y001634D01*
X001617Y001597D01*
X001641Y001557D01*
X001662Y001515D01*
X001680Y001472D01*
X001693Y001427D01*
X001703Y001381D01*
X001709Y001335D01*
X001711Y001288D01*
X001709Y001241D01*
X001703Y001195D01*
X001693Y001149D01*
X001680Y001104D01*
X001662Y001061D01*
X001641Y001019D01*
X001617Y000979D01*
X001589Y000942D01*
X001558Y000907D01*
X001524Y000874D01*
X001488Y000845D01*
X001449Y000819D01*
X001408Y000796D01*
X001365Y000777D01*
X001321Y000761D01*
X001276Y000749D01*
X001230Y000741D01*
X001183Y000737D01*
X001137Y000737D01*
X001090Y000741D01*
X001044Y000749D01*
X000999Y000761D01*
X000955Y000777D01*
X000912Y000796D01*
X000871Y000819D01*
X000832Y000845D01*
X000796Y000874D01*
X000762Y000907D01*
X000731Y000942D01*
X000703Y000979D01*
X000679Y001019D01*
X000658Y001061D01*
X000640Y001104D01*
X000627Y001149D01*
X000617Y001195D01*
X000611Y001241D01*
X000609Y001288D01*
X000609Y018888D02*
X000611Y018935D01*
X000617Y018981D01*
X000627Y019027D01*
X000640Y019072D01*
X000658Y019115D01*
X000679Y019157D01*
X000703Y019197D01*
X000731Y019234D01*
X000762Y019269D01*
X000796Y019302D01*
X000832Y019331D01*
X000871Y019357D01*
X000912Y019380D01*
X000955Y019399D01*
X000999Y019415D01*
X001044Y019427D01*
X001090Y019435D01*
X001137Y019439D01*
X001183Y019439D01*
X001230Y019435D01*
X001276Y019427D01*
X001321Y019415D01*
X001365Y019399D01*
X001408Y019380D01*
X001449Y019357D01*
X001488Y019331D01*
X001524Y019302D01*
X001558Y019269D01*
X001589Y019234D01*
X001617Y019197D01*
X001641Y019157D01*
X001662Y019115D01*
X001680Y019072D01*
X001693Y019027D01*
X001703Y018981D01*
X001709Y018935D01*
X001711Y018888D01*
X001709Y018841D01*
X001703Y018795D01*
X001693Y018749D01*
X001680Y018704D01*
X001662Y018661D01*
X001641Y018619D01*
X001617Y018579D01*
X001589Y018542D01*
X001558Y018507D01*
X001524Y018474D01*
X001488Y018445D01*
X001449Y018419D01*
X001408Y018396D01*
X001365Y018377D01*
X001321Y018361D01*
X001276Y018349D01*
X001230Y018341D01*
X001183Y018337D01*
X001137Y018337D01*
X001090Y018341D01*
X001044Y018349D01*
X000999Y018361D01*
X000955Y018377D01*
X000912Y018396D01*
X000871Y018419D01*
X000832Y018445D01*
X000796Y018474D01*
X000762Y018507D01*
X000731Y018542D01*
X000703Y018579D01*
X000679Y018619D01*
X000658Y018661D01*
X000640Y018704D01*
X000627Y018749D01*
X000617Y018795D01*
X000611Y018841D01*
X000609Y018888D01*
X018209Y018888D02*
X018211Y018935D01*
X018217Y018981D01*
X018227Y019027D01*
X018240Y019072D01*
X018258Y019115D01*
X018279Y019157D01*
X018303Y019197D01*
X018331Y019234D01*
X018362Y019269D01*
X018396Y019302D01*
X018432Y019331D01*
X018471Y019357D01*
X018512Y019380D01*
X018555Y019399D01*
X018599Y019415D01*
X018644Y019427D01*
X018690Y019435D01*
X018737Y019439D01*
X018783Y019439D01*
X018830Y019435D01*
X018876Y019427D01*
X018921Y019415D01*
X018965Y019399D01*
X019008Y019380D01*
X019049Y019357D01*
X019088Y019331D01*
X019124Y019302D01*
X019158Y019269D01*
X019189Y019234D01*
X019217Y019197D01*
X019241Y019157D01*
X019262Y019115D01*
X019280Y019072D01*
X019293Y019027D01*
X019303Y018981D01*
X019309Y018935D01*
X019311Y018888D01*
X019309Y018841D01*
X019303Y018795D01*
X019293Y018749D01*
X019280Y018704D01*
X019262Y018661D01*
X019241Y018619D01*
X019217Y018579D01*
X019189Y018542D01*
X019158Y018507D01*
X019124Y018474D01*
X019088Y018445D01*
X019049Y018419D01*
X019008Y018396D01*
X018965Y018377D01*
X018921Y018361D01*
X018876Y018349D01*
X018830Y018341D01*
X018783Y018337D01*
X018737Y018337D01*
X018690Y018341D01*
X018644Y018349D01*
X018599Y018361D01*
X018555Y018377D01*
X018512Y018396D01*
X018471Y018419D01*
X018432Y018445D01*
X018396Y018474D01*
X018362Y018507D01*
X018331Y018542D01*
X018303Y018579D01*
X018279Y018619D01*
X018258Y018661D01*
X018240Y018704D01*
X018227Y018749D01*
X018217Y018795D01*
X018211Y018841D01*
X018209Y018888D01*
X018209Y001288D02*
X018211Y001335D01*
X018217Y001381D01*
X018227Y001427D01*
X018240Y001472D01*
X018258Y001515D01*
X018279Y001557D01*
X018303Y001597D01*
X018331Y001634D01*
X018362Y001669D01*
X018396Y001702D01*
X018432Y001731D01*
X018471Y001757D01*
X018512Y001780D01*
X018555Y001799D01*
X018599Y001815D01*
X018644Y001827D01*
X018690Y001835D01*
X018737Y001839D01*
X018783Y001839D01*
X018830Y001835D01*
X018876Y001827D01*
X018921Y001815D01*
X018965Y001799D01*
X019008Y001780D01*
X019049Y001757D01*
X019088Y001731D01*
X019124Y001702D01*
X019158Y001669D01*
X019189Y001634D01*
X019217Y001597D01*
X019241Y001557D01*
X019262Y001515D01*
X019280Y001472D01*
X019293Y001427D01*
X019303Y001381D01*
X019309Y001335D01*
X019311Y001288D01*
X019309Y001241D01*
X019303Y001195D01*
X019293Y001149D01*
X019280Y001104D01*
X019262Y001061D01*
X019241Y001019D01*
X019217Y000979D01*
X019189Y000942D01*
X019158Y000907D01*
X019124Y000874D01*
X019088Y000845D01*
X019049Y000819D01*
X019008Y000796D01*
X018965Y000777D01*
X018921Y000761D01*
X018876Y000749D01*
X018830Y000741D01*
X018783Y000737D01*
X018737Y000737D01*
X018690Y000741D01*
X018644Y000749D01*
X018599Y000761D01*
X018555Y000777D01*
X018512Y000796D01*
X018471Y000819D01*
X018432Y000845D01*
X018396Y000874D01*
X018362Y000907D01*
X018331Y000942D01*
X018303Y000979D01*
X018279Y001019D01*
X018258Y001061D01*
X018240Y001104D01*
X018227Y001149D01*
X018217Y001195D01*
X018211Y001241D01*
X018209Y001288D01*
D11*
X014660Y004225D02*
X014348Y004225D01*
X014504Y004069D01*
X014660Y004225D01*
X013660Y004913D02*
X013660Y005225D01*
X013504Y005069D01*
X013660Y004913D01*
X001973Y016288D02*
X001816Y016131D01*
X001660Y016288D01*
X001973Y016288D01*
X002660Y016975D02*
X002816Y017131D01*
X002660Y017288D01*
X002660Y016975D01*
D12*
X002510Y017323D02*
X002404Y017323D01*
X002510Y017323D02*
X002617Y017429D01*
X002617Y017963D01*
X002617Y017536D02*
X002297Y017536D01*
X002190Y017643D01*
X002190Y017963D01*
X001285Y017838D02*
X000858Y017411D01*
X001285Y017411D01*
X001285Y017838D02*
X000858Y017838D01*
X000952Y016576D02*
X001379Y016149D01*
X000952Y016149D02*
X001379Y016576D01*
X002384Y014665D02*
X002384Y014472D01*
X002561Y014472D02*
X002561Y014665D01*
X006509Y014321D02*
X006509Y014129D01*
X006686Y014129D02*
X006686Y014321D01*
X008634Y014754D02*
X008634Y014946D01*
X008811Y014946D02*
X008811Y014754D01*
X008947Y017754D02*
X008947Y017946D01*
X009123Y017946D02*
X009123Y017754D01*
X007944Y018043D02*
X007751Y018043D01*
X007751Y018219D02*
X007944Y018219D01*
X014598Y018631D02*
X014598Y019131D01*
X014848Y019381D01*
X015348Y019381D01*
X015598Y019131D01*
X015848Y019381D01*
X016348Y019381D01*
X016598Y019131D01*
X016598Y018631D01*
X016348Y018381D01*
X015848Y018381D01*
X015598Y018631D01*
X015348Y018381D01*
X014848Y018381D01*
X014598Y018631D01*
X015598Y018631D02*
X015598Y019131D01*
X018095Y015126D02*
X018288Y015126D01*
X018288Y014949D02*
X018095Y014949D01*
X018095Y014594D02*
X018288Y014594D01*
X018288Y014418D02*
X018095Y014418D01*
X018095Y014094D02*
X018288Y014094D01*
X018288Y013918D02*
X018095Y013918D01*
X016123Y012728D02*
X016123Y012535D01*
X015947Y012535D02*
X015947Y012728D01*
X016478Y008884D02*
X016478Y008691D01*
X016654Y008691D02*
X016654Y008884D01*
X017822Y008884D02*
X017822Y008691D01*
X017998Y008691D02*
X017998Y008884D01*
X015279Y008884D02*
X015279Y008691D01*
X015103Y008691D02*
X015103Y008884D01*
X015243Y005695D02*
X014816Y005695D01*
X014816Y005268D02*
X015243Y005695D01*
X015243Y005268D02*
X014816Y005268D01*
X014784Y004932D02*
X014784Y004612D01*
X014891Y004505D01*
X015211Y004505D01*
X015211Y004398D02*
X015104Y004291D01*
X014997Y004291D01*
X015211Y004398D02*
X015211Y004932D01*
X014211Y005380D02*
X013784Y005807D01*
X013784Y005380D02*
X014211Y005807D01*
X010600Y002469D02*
X010407Y002469D01*
X010407Y002293D02*
X010600Y002293D01*
X010600Y001876D02*
X010407Y001876D01*
X010407Y001699D02*
X010600Y001699D01*
X012470Y001438D02*
X012663Y001438D01*
X012663Y001262D02*
X012470Y001262D01*
X013447Y001504D02*
X013447Y001696D01*
X013623Y001696D02*
X013623Y001504D01*
X018884Y005097D02*
X018884Y005290D01*
X019061Y005290D02*
X019061Y005097D01*
X007029Y002009D02*
X007029Y001816D01*
X006853Y001816D02*
X006853Y002009D01*
X004881Y001469D02*
X004689Y001469D01*
X004689Y001293D02*
X004881Y001293D01*
X002904Y008847D02*
X002904Y009040D01*
X002728Y009040D02*
X002728Y008847D01*
X002728Y010097D02*
X002728Y010290D01*
X002904Y010290D02*
X002904Y010097D01*
D13*
X001816Y016163D02*
X001816Y017131D01*
X001772Y017131D02*
X001774Y017144D01*
X001780Y017156D01*
X001789Y017165D01*
X001800Y017172D01*
X001813Y017175D01*
X001826Y017174D01*
X001838Y017169D01*
X001848Y017161D01*
X001856Y017150D01*
X001860Y017138D01*
X001860Y017124D01*
X001856Y017112D01*
X001848Y017101D01*
X001838Y017093D01*
X001826Y017088D01*
X001813Y017087D01*
X001800Y017090D01*
X001789Y017097D01*
X001780Y017106D01*
X001774Y017118D01*
X001772Y017131D01*
X001618Y017131D02*
X001620Y017159D01*
X001626Y017186D01*
X001635Y017212D01*
X001648Y017236D01*
X001664Y017258D01*
X001684Y017278D01*
X001705Y017295D01*
X001729Y017309D01*
X001755Y017319D01*
X001782Y017326D01*
X001809Y017329D01*
X001837Y017328D01*
X001864Y017323D01*
X001890Y017315D01*
X001915Y017302D01*
X001938Y017287D01*
X001958Y017269D01*
X001976Y017247D01*
X001991Y017224D01*
X002002Y017199D01*
X002010Y017172D01*
X002014Y017145D01*
X002014Y017117D01*
X002010Y017090D01*
X002002Y017063D01*
X001991Y017038D01*
X001976Y017015D01*
X001958Y016993D01*
X001938Y016975D01*
X001915Y016960D01*
X001890Y016947D01*
X001864Y016939D01*
X001837Y016934D01*
X001809Y016933D01*
X001782Y016936D01*
X001755Y016943D01*
X001729Y016953D01*
X001705Y016967D01*
X001684Y016984D01*
X001664Y017004D01*
X001648Y017026D01*
X001635Y017050D01*
X001626Y017076D01*
X001620Y017103D01*
X001618Y017131D01*
X001816Y017131D02*
X002723Y017131D01*
X013535Y005069D02*
X014504Y005069D01*
X014460Y005069D02*
X014462Y005082D01*
X014468Y005094D01*
X014477Y005103D01*
X014488Y005110D01*
X014501Y005113D01*
X014514Y005112D01*
X014526Y005107D01*
X014536Y005099D01*
X014544Y005088D01*
X014548Y005076D01*
X014548Y005062D01*
X014544Y005050D01*
X014536Y005039D01*
X014526Y005031D01*
X014514Y005026D01*
X014501Y005025D01*
X014488Y005028D01*
X014477Y005035D01*
X014468Y005044D01*
X014462Y005056D01*
X014460Y005069D01*
X014306Y005069D02*
X014308Y005097D01*
X014314Y005124D01*
X014323Y005150D01*
X014336Y005174D01*
X014352Y005196D01*
X014372Y005216D01*
X014393Y005233D01*
X014417Y005247D01*
X014443Y005257D01*
X014470Y005264D01*
X014497Y005267D01*
X014525Y005266D01*
X014552Y005261D01*
X014578Y005253D01*
X014603Y005240D01*
X014626Y005225D01*
X014646Y005207D01*
X014664Y005185D01*
X014679Y005162D01*
X014690Y005137D01*
X014698Y005110D01*
X014702Y005083D01*
X014702Y005055D01*
X014698Y005028D01*
X014690Y005001D01*
X014679Y004976D01*
X014664Y004953D01*
X014646Y004931D01*
X014626Y004913D01*
X014603Y004898D01*
X014578Y004885D01*
X014552Y004877D01*
X014525Y004872D01*
X014497Y004871D01*
X014470Y004874D01*
X014443Y004881D01*
X014417Y004891D01*
X014393Y004905D01*
X014372Y004922D01*
X014352Y004942D01*
X014336Y004964D01*
X014323Y004988D01*
X014314Y005014D01*
X014308Y005041D01*
X014306Y005069D01*
X014504Y005069D02*
X014504Y004163D01*
D14*
X015000Y003574D02*
X014924Y003497D01*
X014924Y003190D01*
X015000Y003114D01*
X015154Y003114D01*
X015231Y003190D01*
X015384Y003114D02*
X015691Y003421D01*
X015691Y003497D01*
X015614Y003574D01*
X015461Y003574D01*
X015384Y003497D01*
X015231Y003497D02*
X015154Y003574D01*
X015000Y003574D01*
X015384Y003114D02*
X015691Y003114D01*
X015845Y003190D02*
X015921Y003114D01*
X016075Y003114D01*
X016151Y003190D01*
X016151Y003344D01*
X016075Y003421D01*
X015998Y003421D01*
X015845Y003344D01*
X015845Y003574D01*
X016151Y003574D01*
X015404Y002954D02*
X015104Y002954D01*
X015114Y002434D02*
X015404Y002434D01*
X014137Y001030D02*
X013907Y000800D01*
X014214Y000800D01*
X014137Y000570D02*
X014137Y001030D01*
X013754Y000954D02*
X013677Y001030D01*
X013523Y001030D01*
X013447Y000954D01*
X013293Y000954D02*
X013217Y001030D01*
X013063Y001030D01*
X012986Y000954D01*
X012986Y000647D01*
X013063Y000570D01*
X013217Y000570D01*
X013293Y000647D01*
X013447Y000570D02*
X013754Y000877D01*
X013754Y000954D01*
X013754Y000570D02*
X013447Y000570D01*
X012683Y000647D02*
X012606Y000570D01*
X012453Y000570D01*
X012376Y000647D01*
X012222Y000570D02*
X011915Y000570D01*
X012222Y000877D01*
X012222Y000954D01*
X012146Y001030D01*
X011992Y001030D01*
X011915Y000954D01*
X011762Y000954D02*
X011685Y001030D01*
X011532Y001030D01*
X011455Y000954D01*
X011455Y000647D01*
X011532Y000570D01*
X011685Y000570D01*
X011762Y000647D01*
X012376Y000954D02*
X012453Y001030D01*
X012606Y001030D01*
X012683Y000954D01*
X012683Y000877D01*
X012606Y000800D01*
X012683Y000723D01*
X012683Y000647D01*
X012606Y000800D02*
X012529Y000800D01*
X011072Y001090D02*
X011072Y001397D01*
X010996Y001474D01*
X010842Y001474D01*
X010765Y001397D01*
X010765Y001321D01*
X010842Y001244D01*
X011072Y001244D01*
X011072Y001090D02*
X010996Y001014D01*
X010842Y001014D01*
X010765Y001090D01*
X010612Y001014D02*
X010458Y001167D01*
X010535Y001167D02*
X010305Y001167D01*
X010305Y001014D02*
X010305Y001474D01*
X010535Y001474D01*
X010612Y001397D01*
X010612Y001244D01*
X010535Y001167D01*
X009683Y002022D02*
X009606Y001945D01*
X009453Y001945D01*
X009376Y002022D01*
X009376Y002098D01*
X009453Y002175D01*
X009606Y002175D01*
X009683Y002098D01*
X009683Y002022D01*
X009606Y002175D02*
X009683Y002252D01*
X009683Y002329D01*
X009606Y002405D01*
X009453Y002405D01*
X009376Y002329D01*
X009376Y002252D01*
X009453Y002175D01*
X009222Y002175D02*
X009146Y002098D01*
X008915Y002098D01*
X008915Y001945D02*
X008915Y002405D01*
X009146Y002405D01*
X009222Y002329D01*
X009222Y002175D01*
X009069Y002098D02*
X009222Y001945D01*
X009200Y001287D02*
X009276Y001210D01*
X009276Y001133D01*
X009200Y001056D01*
X009046Y001056D01*
X008970Y001133D01*
X008970Y001210D01*
X009046Y001287D01*
X009200Y001287D01*
X009200Y001056D02*
X009276Y000980D01*
X009276Y000903D01*
X009200Y000826D01*
X009046Y000826D01*
X008970Y000903D01*
X008970Y000980D01*
X009046Y001056D01*
X008816Y000826D02*
X008509Y000826D01*
X008663Y000826D02*
X008663Y001287D01*
X008509Y001133D01*
X008356Y001210D02*
X008279Y001287D01*
X008125Y001287D01*
X008049Y001210D01*
X008049Y000903D01*
X008125Y000826D01*
X008279Y000826D01*
X008356Y000903D01*
X007581Y000935D02*
X007301Y000935D01*
X007301Y001270D02*
X007581Y001270D01*
X006621Y001759D02*
X006621Y001913D01*
X006545Y001989D01*
X006621Y002143D02*
X006314Y002450D01*
X006238Y002450D01*
X006161Y002373D01*
X006161Y002220D01*
X006238Y002143D01*
X006238Y001989D02*
X006161Y001913D01*
X006161Y001759D01*
X006238Y001683D01*
X006545Y001683D01*
X006621Y001759D01*
X006621Y002143D02*
X006621Y002450D01*
X006621Y002603D02*
X006314Y002910D01*
X006238Y002910D01*
X006161Y002833D01*
X006161Y002680D01*
X006238Y002603D01*
X006621Y002603D02*
X006621Y002910D01*
X007720Y003847D02*
X007796Y003770D01*
X007950Y003770D01*
X008027Y003847D01*
X008027Y004230D01*
X008180Y004154D02*
X008180Y004077D01*
X008257Y004000D01*
X008410Y004000D01*
X008487Y003923D01*
X008487Y003847D01*
X008410Y003770D01*
X008257Y003770D01*
X008180Y003847D01*
X008180Y003923D01*
X008257Y004000D01*
X008410Y004000D02*
X008487Y004077D01*
X008487Y004154D01*
X008410Y004230D01*
X008257Y004230D01*
X008180Y004154D01*
X007720Y004230D02*
X007720Y003847D01*
X009243Y004015D02*
X009319Y003939D01*
X009473Y003939D01*
X009549Y004015D01*
X009703Y003939D02*
X010010Y004246D01*
X010010Y004322D01*
X009933Y004399D01*
X009780Y004399D01*
X009703Y004322D01*
X009549Y004322D02*
X009473Y004399D01*
X009319Y004399D01*
X009243Y004322D01*
X009243Y004015D01*
X009703Y003939D02*
X010010Y003939D01*
X010163Y003939D02*
X010470Y003939D01*
X010317Y003939D02*
X010317Y004399D01*
X010163Y004246D01*
X010113Y003672D02*
X009823Y003672D01*
X009823Y003153D02*
X010123Y003153D01*
X011745Y005179D02*
X011745Y005459D01*
X012080Y005459D02*
X012080Y005179D01*
X012292Y005234D02*
X012753Y005234D01*
X012753Y005387D02*
X012753Y005080D01*
X012676Y004927D02*
X012753Y004850D01*
X012753Y004697D01*
X012676Y004620D01*
X012369Y004620D01*
X012292Y004697D01*
X012292Y004850D01*
X012369Y004927D01*
X012446Y005080D02*
X012292Y005234D01*
X012369Y005541D02*
X012292Y005618D01*
X012292Y005771D01*
X012369Y005848D01*
X012676Y005541D01*
X012753Y005618D01*
X012753Y005771D01*
X012676Y005848D01*
X012369Y005848D01*
X012369Y005541D02*
X012676Y005541D01*
X012729Y006372D02*
X012575Y006372D01*
X012498Y006449D01*
X012498Y006832D01*
X012805Y006832D02*
X012805Y006449D01*
X012729Y006372D01*
X012959Y006602D02*
X013266Y006602D01*
X013189Y006372D02*
X013189Y006832D01*
X012959Y006602D01*
X013497Y006504D02*
X013497Y006197D01*
X013574Y006120D01*
X013728Y006120D01*
X013804Y006197D01*
X013804Y006350D01*
X013651Y006350D01*
X013804Y006504D02*
X013728Y006580D01*
X013574Y006580D01*
X013497Y006504D01*
X013958Y006427D02*
X013958Y006197D01*
X014035Y006120D01*
X014265Y006120D01*
X014265Y006043D02*
X014188Y005967D01*
X014111Y005967D01*
X014265Y006043D02*
X014265Y006427D01*
X014418Y006427D02*
X014418Y006120D01*
X014418Y006273D02*
X014572Y006427D01*
X014648Y006427D01*
X014802Y006350D02*
X014802Y006197D01*
X014879Y006120D01*
X015032Y006120D01*
X015109Y006197D01*
X015109Y006350D01*
X015032Y006427D01*
X014879Y006427D01*
X014802Y006350D01*
X015262Y006350D02*
X015262Y006427D01*
X015339Y006427D01*
X015339Y006350D01*
X015262Y006350D01*
X015262Y006197D02*
X015262Y006120D01*
X015339Y006120D01*
X015339Y006197D01*
X015262Y006197D01*
X015692Y006998D02*
X016153Y006998D01*
X016153Y007305D01*
X016153Y007459D02*
X016153Y007766D01*
X016153Y007919D02*
X016153Y008149D01*
X016076Y008226D01*
X015769Y008226D01*
X015692Y008149D01*
X015692Y007919D01*
X016153Y007919D01*
X016350Y007943D02*
X016350Y007195D01*
X016783Y007195D01*
X016783Y007943D01*
X016350Y007943D01*
X016153Y008379D02*
X015846Y008686D01*
X015769Y008686D01*
X015692Y008610D01*
X015692Y008456D01*
X015769Y008379D01*
X016153Y008379D02*
X016153Y008686D01*
X016317Y009308D02*
X016317Y009538D01*
X016394Y009614D01*
X016547Y009614D01*
X016624Y009538D01*
X016624Y009308D01*
X016624Y009461D02*
X016778Y009614D01*
X016778Y009768D02*
X016778Y010075D01*
X016778Y010228D02*
X016471Y010535D01*
X016394Y010535D01*
X016317Y010458D01*
X016317Y010305D01*
X016394Y010228D01*
X016317Y009921D02*
X016778Y009921D01*
X016471Y009768D02*
X016317Y009921D01*
X016778Y010228D02*
X016778Y010535D01*
X017034Y010410D02*
X017034Y010257D01*
X017034Y010333D02*
X017418Y010333D01*
X017495Y010257D01*
X017495Y010180D01*
X017418Y010103D01*
X017495Y010564D02*
X017495Y010871D01*
X017495Y010717D02*
X017034Y010717D01*
X017188Y010564D01*
X018192Y009552D02*
X018269Y009629D01*
X018346Y009629D01*
X018422Y009552D01*
X018499Y009629D01*
X018576Y009629D01*
X018653Y009552D01*
X018653Y009399D01*
X018576Y009322D01*
X018653Y009169D02*
X018653Y008862D01*
X018653Y009015D02*
X018192Y009015D01*
X018346Y008862D01*
X018422Y008708D02*
X018499Y008631D01*
X018499Y008401D01*
X018653Y008401D02*
X018192Y008401D01*
X018192Y008631D01*
X018269Y008708D01*
X018422Y008708D01*
X018499Y008555D02*
X018653Y008708D01*
X018269Y009322D02*
X018192Y009399D01*
X018192Y009552D01*
X018422Y009552D02*
X018422Y009475D01*
X017496Y008610D02*
X017496Y008456D01*
X017420Y008379D01*
X017420Y008226D02*
X017113Y008226D01*
X017036Y008149D01*
X017036Y007919D01*
X017496Y007919D01*
X017496Y008149D01*
X017420Y008226D01*
X017266Y008533D02*
X017266Y008610D01*
X017343Y008686D01*
X017420Y008686D01*
X017496Y008610D01*
X017266Y008610D02*
X017189Y008686D01*
X017113Y008686D01*
X017036Y008610D01*
X017036Y008456D01*
X017113Y008379D01*
X017036Y007766D02*
X017036Y007459D01*
X017496Y007459D01*
X017496Y007766D01*
X017693Y007943D02*
X017693Y007195D01*
X018127Y007195D01*
X018127Y007943D01*
X017693Y007943D01*
X017266Y007612D02*
X017266Y007459D01*
X017496Y007305D02*
X017496Y006998D01*
X017036Y006998D01*
X016748Y006543D02*
X016748Y006083D01*
X016595Y006083D02*
X016902Y006083D01*
X016595Y006389D02*
X016748Y006543D01*
X016153Y007459D02*
X015692Y007459D01*
X015692Y007766D01*
X015922Y007612D02*
X015922Y007459D01*
X015408Y007195D02*
X014975Y007195D01*
X014975Y007943D01*
X015408Y007943D01*
X015408Y007195D01*
X014778Y007305D02*
X014778Y006998D01*
X014317Y006998D01*
X014317Y007459D02*
X014778Y007459D01*
X014778Y007766D01*
X014778Y007919D02*
X014778Y008149D01*
X014701Y008226D01*
X014394Y008226D01*
X014317Y008149D01*
X014317Y007919D01*
X014778Y007919D01*
X014547Y007612D02*
X014547Y007459D01*
X014317Y007459D02*
X014317Y007766D01*
X014471Y008379D02*
X014317Y008533D01*
X014778Y008533D01*
X014778Y008686D02*
X014778Y008379D01*
X014942Y009245D02*
X014942Y009475D01*
X015019Y009552D01*
X015172Y009552D01*
X015249Y009475D01*
X015249Y009245D01*
X015249Y009398D02*
X015403Y009552D01*
X015403Y009705D02*
X015403Y010012D01*
X015403Y009859D02*
X014942Y009859D01*
X015096Y009705D01*
X015096Y010166D02*
X014942Y010319D01*
X015403Y010319D01*
X015403Y010166D02*
X015403Y010473D01*
X015403Y009245D02*
X014942Y009245D01*
X016317Y009308D02*
X016778Y009308D01*
X016780Y011764D02*
X016703Y011840D01*
X016780Y011764D02*
X016933Y011764D01*
X017010Y011840D01*
X017010Y011917D01*
X016933Y011994D01*
X016856Y011994D01*
X016933Y011994D02*
X017010Y012071D01*
X017010Y012147D01*
X016933Y012224D01*
X016780Y012224D01*
X016703Y012147D01*
X016549Y012147D02*
X016549Y011994D01*
X016473Y011917D01*
X016243Y011917D01*
X016396Y011917D02*
X016549Y011764D01*
X016243Y011764D02*
X016243Y012224D01*
X016473Y012224D01*
X016549Y012147D01*
X016492Y012574D02*
X016646Y012574D01*
X016722Y012650D01*
X016722Y013034D01*
X016876Y012881D02*
X017029Y013034D01*
X017029Y012574D01*
X016876Y012574D02*
X017183Y012574D01*
X016492Y012574D02*
X016415Y012650D01*
X016415Y013034D01*
X017540Y013226D02*
X017540Y013687D01*
X017771Y013687D01*
X017847Y013610D01*
X017847Y013456D01*
X017771Y013380D01*
X017540Y013380D01*
X017694Y013380D02*
X017847Y013226D01*
X018001Y013226D02*
X018308Y013533D01*
X018308Y013610D01*
X018231Y013687D01*
X018078Y013687D01*
X018001Y013610D01*
X018001Y013226D02*
X018308Y013226D01*
X018649Y014295D02*
X018649Y014755D01*
X018879Y014755D01*
X018956Y014679D01*
X018956Y014525D01*
X018879Y014448D01*
X018649Y014448D01*
X018802Y014448D02*
X018956Y014295D01*
X019109Y014295D02*
X019416Y014295D01*
X019263Y014295D02*
X019263Y014755D01*
X019109Y014602D01*
X019112Y015358D02*
X019112Y015818D01*
X018882Y015588D01*
X019189Y015588D01*
X018729Y015358D02*
X018422Y015358D01*
X018575Y015358D02*
X018575Y015818D01*
X018422Y015664D01*
X018268Y015741D02*
X018191Y015818D01*
X018038Y015818D01*
X017961Y015741D01*
X017961Y015434D01*
X018038Y015358D01*
X018191Y015358D01*
X018268Y015434D01*
X017098Y015146D02*
X017098Y014685D01*
X017251Y014685D02*
X016944Y014685D01*
X016791Y014685D02*
X016484Y014685D01*
X016484Y015146D01*
X016944Y014992D02*
X017098Y015146D01*
X017469Y016768D02*
X017776Y016768D01*
X017853Y016845D01*
X017853Y016998D01*
X017776Y017075D01*
X017776Y017228D02*
X017853Y017305D01*
X017853Y017459D01*
X017776Y017535D01*
X017699Y017535D01*
X017622Y017459D01*
X017622Y017228D01*
X017776Y017228D01*
X017622Y017228D02*
X017469Y017382D01*
X017392Y017535D01*
X017469Y017075D02*
X017392Y016998D01*
X017392Y016845D01*
X017469Y016768D01*
X016873Y016903D02*
X016573Y016903D01*
X016573Y017422D02*
X016863Y017422D01*
X014340Y017986D02*
X014340Y018063D01*
X014263Y018140D01*
X013880Y018140D01*
X013880Y018063D02*
X013880Y018217D01*
X013956Y018370D02*
X013880Y018447D01*
X013880Y018600D01*
X013956Y018677D01*
X014033Y018677D01*
X014110Y018600D01*
X014187Y018677D01*
X014263Y018677D01*
X014340Y018600D01*
X014340Y018447D01*
X014263Y018370D01*
X014110Y018523D02*
X014110Y018600D01*
X014340Y017986D02*
X014263Y017910D01*
X009902Y018522D02*
X009825Y018445D01*
X009671Y018445D01*
X009595Y018522D01*
X009902Y018829D01*
X009902Y018522D01*
X009902Y018829D02*
X009825Y018905D01*
X009671Y018905D01*
X009595Y018829D01*
X009595Y018522D01*
X009441Y018445D02*
X009134Y018445D01*
X008981Y018445D02*
X008827Y018598D01*
X008904Y018598D02*
X008674Y018598D01*
X008674Y018445D02*
X008674Y018905D01*
X008904Y018905D01*
X008981Y018829D01*
X008981Y018675D01*
X008904Y018598D01*
X009134Y018752D02*
X009288Y018905D01*
X009288Y018445D01*
X008385Y018835D02*
X008078Y018528D01*
X008078Y018451D01*
X007924Y018451D02*
X007771Y018605D01*
X007848Y018605D02*
X007924Y018681D01*
X007924Y018835D01*
X007848Y018912D01*
X007618Y018912D01*
X007618Y018451D01*
X007618Y018605D02*
X007848Y018605D01*
X008078Y018912D02*
X008385Y018912D01*
X008385Y018835D01*
X007887Y016987D02*
X007734Y016987D01*
X007657Y016910D01*
X007657Y016603D01*
X007964Y016910D01*
X007964Y016603D01*
X007887Y016526D01*
X007734Y016526D01*
X007657Y016603D01*
X007504Y016526D02*
X007197Y016526D01*
X007350Y016526D02*
X007350Y016987D01*
X007197Y016833D01*
X007043Y016987D02*
X007043Y016603D01*
X006967Y016526D01*
X006813Y016526D01*
X006736Y016603D01*
X006736Y016987D01*
X007282Y015880D02*
X007205Y015804D01*
X007205Y015497D01*
X007282Y015420D01*
X007435Y015420D01*
X007512Y015497D01*
X007665Y015497D02*
X007742Y015420D01*
X007896Y015420D01*
X007972Y015497D01*
X007972Y015573D01*
X007896Y015650D01*
X007819Y015650D01*
X007896Y015650D02*
X007972Y015727D01*
X007972Y015804D01*
X007896Y015880D01*
X007742Y015880D01*
X007665Y015804D01*
X007512Y015804D02*
X007435Y015880D01*
X007282Y015880D01*
X006909Y015734D02*
X006909Y015580D01*
X006832Y015503D01*
X006679Y015503D02*
X006602Y015657D01*
X006602Y015734D01*
X006679Y015810D01*
X006832Y015810D01*
X006909Y015734D01*
X006679Y015503D02*
X006448Y015503D01*
X006448Y015810D01*
X006909Y015350D02*
X006909Y015043D01*
X006909Y015196D02*
X006448Y015196D01*
X006602Y015043D01*
X006525Y014889D02*
X006448Y014813D01*
X006448Y014659D01*
X006525Y014583D01*
X006832Y014583D01*
X006909Y014659D01*
X006909Y014813D01*
X006832Y014889D01*
X007395Y014935D02*
X007675Y014935D01*
X007942Y014850D02*
X008019Y014927D01*
X008172Y014927D01*
X008249Y014850D01*
X008249Y014620D01*
X008249Y014773D02*
X008403Y014927D01*
X008172Y015080D02*
X008172Y015387D01*
X007942Y015311D02*
X008172Y015080D01*
X007942Y014850D02*
X007942Y014620D01*
X008403Y014620D01*
X007939Y014030D02*
X007785Y013877D01*
X007632Y013877D02*
X007555Y013800D01*
X007325Y013800D01*
X007171Y013724D02*
X007171Y013647D01*
X007095Y013570D01*
X006941Y013570D01*
X006864Y013647D01*
X006941Y013800D02*
X007095Y013800D01*
X007171Y013724D01*
X007325Y013570D02*
X007555Y013570D01*
X007632Y013647D01*
X007632Y013724D01*
X007555Y013800D01*
X007632Y013877D02*
X007632Y013954D01*
X007555Y014030D01*
X007325Y014030D01*
X007325Y013570D01*
X007171Y013954D02*
X007095Y014030D01*
X006941Y014030D01*
X006864Y013954D01*
X006864Y013877D01*
X006941Y013800D01*
X007785Y013570D02*
X008092Y013570D01*
X007939Y013570D02*
X007939Y014030D01*
X007675Y015270D02*
X007395Y015270D01*
X007942Y015311D02*
X008403Y015311D01*
X007964Y016910D02*
X007887Y016987D01*
X005290Y016919D02*
X005290Y016612D01*
X005290Y016765D02*
X004830Y016765D01*
X004983Y016612D01*
X004906Y016458D02*
X004830Y016382D01*
X004830Y016228D01*
X004906Y016151D01*
X005213Y016151D01*
X005290Y016228D01*
X005290Y016382D01*
X005213Y016458D01*
X004670Y017013D02*
X004670Y017313D01*
X004830Y017302D02*
X004830Y017149D01*
X004906Y017072D01*
X004983Y017072D01*
X005060Y017149D01*
X005060Y017379D01*
X005213Y017379D02*
X004906Y017379D01*
X004830Y017302D01*
X005213Y017379D02*
X005290Y017302D01*
X005290Y017149D01*
X005213Y017072D01*
X004150Y017013D02*
X004150Y017303D01*
X004110Y018151D02*
X004110Y018458D01*
X003956Y018612D01*
X003803Y018458D01*
X003803Y018151D01*
X003803Y018381D02*
X004110Y018381D01*
X004263Y018381D02*
X004263Y018228D01*
X004340Y018151D01*
X004570Y018151D01*
X004724Y018228D02*
X004724Y018381D01*
X004800Y018458D01*
X005031Y018458D01*
X005031Y018151D02*
X004800Y018151D01*
X004724Y018228D01*
X004570Y018458D02*
X004340Y018458D01*
X004263Y018381D01*
X003649Y018612D02*
X003342Y018151D01*
X003189Y018151D02*
X002959Y018151D01*
X002882Y018228D01*
X002882Y018381D01*
X002959Y018458D01*
X003189Y018458D01*
X003189Y018075D01*
X003112Y017998D01*
X003035Y017998D01*
X002729Y018151D02*
X002729Y018381D01*
X002652Y018458D01*
X002498Y018458D01*
X002498Y018305D02*
X002729Y018305D01*
X002729Y018151D02*
X002498Y018151D01*
X002422Y018228D01*
X002498Y018305D01*
X002268Y018151D02*
X002268Y018612D01*
X002115Y018458D01*
X001961Y018612D01*
X001961Y018151D01*
X004592Y015654D02*
X004669Y015654D01*
X004976Y015347D01*
X005053Y015347D01*
X004976Y015194D02*
X004592Y015194D01*
X004592Y015347D02*
X004592Y015654D01*
X004976Y015194D02*
X005053Y015117D01*
X005053Y014963D01*
X004976Y014887D01*
X004592Y014887D01*
X005009Y013821D02*
X005009Y013514D01*
X005009Y013667D02*
X004548Y013667D01*
X004702Y013514D01*
X003308Y013678D02*
X003231Y013601D01*
X003078Y013601D01*
X003001Y013678D01*
X003308Y013985D01*
X003308Y013678D01*
X003308Y013985D02*
X003231Y014062D01*
X003078Y014062D01*
X003001Y013985D01*
X003001Y013678D01*
X002847Y013601D02*
X002540Y013601D01*
X002847Y013908D01*
X002847Y013985D01*
X002771Y014062D01*
X002617Y014062D01*
X002540Y013985D01*
X002387Y013985D02*
X002310Y014062D01*
X002157Y014062D01*
X002080Y013985D01*
X002080Y013678D01*
X002157Y013601D01*
X002310Y013601D01*
X002387Y013678D01*
X002111Y014429D02*
X002111Y014709D01*
X001776Y014709D02*
X001776Y014429D01*
X001496Y014449D02*
X001189Y014756D01*
X001113Y014756D01*
X001036Y014679D01*
X001036Y014526D01*
X001113Y014449D01*
X001113Y014296D02*
X001036Y014219D01*
X001036Y014065D01*
X001113Y013989D01*
X001420Y013989D01*
X001496Y014065D01*
X001496Y014219D01*
X001420Y014296D01*
X001496Y014449D02*
X001496Y014756D01*
X001496Y014910D02*
X001420Y014910D01*
X001113Y015216D01*
X001036Y015216D01*
X001036Y014910D01*
X000804Y012896D02*
X000804Y012589D01*
X000573Y012819D01*
X001034Y012819D01*
X000957Y012359D02*
X000573Y012359D01*
X000573Y012435D02*
X000573Y012282D01*
X000957Y012359D02*
X001034Y012282D01*
X001034Y012205D01*
X000957Y012128D01*
X002036Y010654D02*
X002266Y010424D01*
X002266Y010731D01*
X002496Y010654D02*
X002036Y010654D01*
X002113Y010271D02*
X002036Y010194D01*
X002036Y010040D01*
X002113Y009964D01*
X002420Y009964D01*
X002496Y010040D01*
X002496Y010194D01*
X002420Y010271D01*
X002420Y009356D02*
X002266Y009356D01*
X002189Y009279D01*
X002189Y009203D01*
X002266Y009049D01*
X002036Y009049D01*
X002036Y009356D01*
X002420Y009356D02*
X002496Y009279D01*
X002496Y009126D01*
X002420Y009049D01*
X002420Y008896D02*
X002496Y008819D01*
X002496Y008665D01*
X002420Y008589D01*
X002113Y008589D01*
X002036Y008665D01*
X002036Y008819D01*
X002113Y008896D01*
X002363Y007944D02*
X002286Y007867D01*
X002286Y007713D01*
X002363Y007637D01*
X002439Y007637D01*
X002516Y007713D01*
X002516Y007944D01*
X002363Y007944D02*
X002670Y007944D01*
X002746Y007867D01*
X002746Y007713D01*
X002670Y007637D01*
X002670Y007483D02*
X002746Y007406D01*
X002746Y007253D01*
X002670Y007176D01*
X002363Y007176D01*
X002286Y007253D01*
X002286Y007406D01*
X002363Y007483D01*
X002896Y007429D02*
X002896Y007709D01*
X003231Y007709D02*
X003231Y007429D01*
X004386Y007359D02*
X004386Y007589D01*
X004463Y007665D01*
X004539Y007665D01*
X004616Y007589D01*
X004616Y007359D01*
X004693Y007205D02*
X004616Y007128D01*
X004616Y006975D01*
X004539Y006898D01*
X004463Y006898D01*
X004386Y006975D01*
X004386Y007128D01*
X004463Y007205D01*
X004386Y007359D02*
X004846Y007359D01*
X004846Y007589D01*
X004769Y007665D01*
X004693Y007665D01*
X004616Y007589D01*
X004463Y007819D02*
X004386Y007896D01*
X004386Y008049D01*
X004463Y008126D01*
X004539Y008126D01*
X004846Y007819D01*
X004846Y008126D01*
X004769Y007205D02*
X004846Y007128D01*
X004846Y006975D01*
X004769Y006898D01*
X004769Y007205D02*
X004693Y007205D01*
X004662Y009128D02*
X005122Y009435D01*
X005122Y009589D02*
X005122Y009896D01*
X005122Y009742D02*
X004662Y009742D01*
X004815Y009589D01*
X004662Y009435D02*
X005122Y009128D01*
X000902Y006083D02*
X000595Y006083D01*
X000748Y006083D02*
X000748Y006543D01*
X000595Y006389D01*
X003259Y004080D02*
X003259Y003697D01*
X003336Y003620D01*
X003489Y003620D01*
X003566Y003697D01*
X003566Y004080D01*
X003720Y004004D02*
X003796Y004080D01*
X003950Y004080D01*
X004027Y004004D01*
X004027Y003927D01*
X003720Y003620D01*
X004027Y003620D01*
X002435Y002318D02*
X002435Y002241D01*
X002128Y001934D01*
X002128Y001858D01*
X001898Y001934D02*
X001898Y002318D01*
X001974Y002318D02*
X001821Y002318D01*
X002128Y002318D02*
X002435Y002318D01*
X002848Y001998D02*
X002925Y001844D01*
X003079Y001691D01*
X003079Y001921D01*
X003155Y001998D01*
X003232Y001998D01*
X003309Y001921D01*
X003309Y001768D01*
X003232Y001691D01*
X003079Y001691D01*
X003002Y001537D02*
X002925Y001537D01*
X002848Y001461D01*
X002848Y001307D01*
X002925Y001230D01*
X002925Y001077D02*
X002848Y001000D01*
X002848Y000847D01*
X002925Y000770D01*
X003232Y000770D01*
X003309Y000847D01*
X003309Y001000D01*
X003232Y001077D01*
X003309Y001230D02*
X003002Y001537D01*
X003309Y001537D02*
X003309Y001230D01*
X003459Y001240D02*
X003459Y000960D01*
X003794Y000960D02*
X003794Y001240D01*
X004134Y000985D02*
X004134Y000678D01*
X004211Y000601D01*
X004364Y000601D01*
X004441Y000678D01*
X004595Y000601D02*
X004902Y000601D01*
X004748Y000601D02*
X004748Y001062D01*
X004595Y000908D01*
X004441Y000985D02*
X004364Y001062D01*
X004211Y001062D01*
X004134Y000985D01*
X001898Y001934D02*
X001821Y001858D01*
X001744Y001858D01*
X001668Y001934D01*
X012415Y003853D02*
X012492Y003776D01*
X012646Y003776D01*
X012722Y003853D01*
X012722Y004237D01*
X012876Y004160D02*
X012876Y004083D01*
X012953Y004006D01*
X013183Y004006D01*
X013183Y003853D02*
X013183Y004160D01*
X013106Y004237D01*
X012953Y004237D01*
X012876Y004160D01*
X012876Y003853D02*
X012953Y003776D01*
X013106Y003776D01*
X013183Y003853D01*
X012415Y003853D02*
X012415Y004237D01*
X017422Y001538D02*
X017422Y001384D01*
X017499Y001307D01*
X017422Y001154D02*
X017806Y001154D01*
X017882Y001077D01*
X017882Y000924D01*
X017806Y000847D01*
X017422Y000847D01*
X017806Y001307D02*
X017882Y001384D01*
X017882Y001538D01*
X017806Y001614D01*
X017729Y001614D01*
X017652Y001538D01*
X017652Y001461D01*
X017652Y001538D02*
X017575Y001614D01*
X017499Y001614D01*
X017422Y001538D01*
X017596Y002108D02*
X017673Y002108D01*
X017750Y002184D01*
X017750Y002568D01*
X017673Y002568D02*
X017827Y002568D01*
X017980Y002568D02*
X017980Y002338D01*
X018133Y002414D01*
X018210Y002414D01*
X018287Y002338D01*
X018287Y002184D01*
X018210Y002108D01*
X018057Y002108D01*
X017980Y002184D01*
X017980Y002568D02*
X018287Y002568D01*
X017596Y002108D02*
X017520Y002184D01*
X018911Y005776D02*
X018911Y006006D01*
X018988Y006083D01*
X019141Y006083D01*
X019218Y006006D01*
X019218Y005776D01*
X019371Y005776D02*
X018911Y005776D01*
X019218Y005930D02*
X019371Y006083D01*
X019371Y006237D02*
X019371Y006544D01*
X019371Y006390D02*
X018911Y006390D01*
X019064Y006237D01*
X019141Y006697D02*
X018911Y006697D01*
X018911Y007004D01*
X019064Y006927D02*
X019141Y007004D01*
X019295Y007004D01*
X019371Y006927D01*
X019371Y006774D01*
X019295Y006697D01*
X019141Y006697D02*
X019064Y006850D01*
X019064Y006927D01*
X013988Y011904D02*
X013707Y011904D01*
X013707Y012239D02*
X013988Y012239D01*
X013978Y012389D02*
X014285Y012389D01*
X014438Y012389D02*
X014745Y012696D01*
X014745Y012772D01*
X014668Y012849D01*
X014515Y012849D01*
X014438Y012772D01*
X014131Y012849D02*
X014131Y012389D01*
X014438Y012389D02*
X014745Y012389D01*
X014131Y012849D02*
X013978Y012696D01*
X013824Y012772D02*
X013748Y012849D01*
X013594Y012849D01*
X013518Y012772D01*
X013518Y012465D01*
X013594Y012389D01*
X013748Y012389D01*
X013824Y012465D01*
D15*
X018030Y014008D03*
X018350Y014008D03*
X018352Y014504D03*
X018032Y014504D03*
X018032Y015036D03*
X018352Y015036D03*
X008008Y018129D03*
X007688Y018129D03*
X010345Y002379D03*
X010665Y002379D03*
X010665Y001786D03*
X010345Y001786D03*
X012405Y001352D03*
X012725Y001352D03*
X004944Y001383D03*
X004624Y001383D03*
D16*
X004017Y001895D02*
X004017Y003430D01*
X005553Y003430D01*
X005553Y001895D01*
X004017Y001895D01*
X005162Y002269D02*
X005164Y002283D01*
X005170Y002297D01*
X005178Y002309D01*
X005190Y002317D01*
X005204Y002323D01*
X005218Y002325D01*
X005232Y002323D01*
X005246Y002317D01*
X005258Y002309D01*
X005266Y002297D01*
X005272Y002283D01*
X005274Y002269D01*
X005272Y002255D01*
X005266Y002241D01*
X005258Y002229D01*
X005246Y002221D01*
X005232Y002215D01*
X005218Y002213D01*
X005204Y002215D01*
X005190Y002221D01*
X005178Y002229D01*
X005170Y002241D01*
X005164Y002255D01*
X005162Y002269D01*
X002760Y002463D02*
X001160Y002463D01*
X001160Y006613D01*
X002760Y006613D01*
X002760Y002463D01*
X007163Y006844D02*
X006967Y007041D01*
X006967Y012159D01*
X007163Y012356D01*
X012282Y012356D01*
X012478Y012159D01*
X012478Y007041D01*
X012282Y006844D01*
X007163Y006844D01*
X004571Y008584D02*
X003311Y008584D01*
X003311Y010553D01*
X004571Y010553D01*
X004571Y008584D01*
X004177Y009333D02*
X003705Y009333D01*
X003705Y009805D01*
X004177Y009805D01*
X004177Y009333D01*
X005079Y011769D02*
X001429Y011769D01*
X001429Y013369D01*
X005079Y013369D01*
X005079Y011769D01*
X007436Y011667D02*
X007438Y011696D01*
X007444Y011725D01*
X007453Y011753D01*
X007467Y011779D01*
X007483Y011803D01*
X007503Y011825D01*
X007526Y011844D01*
X007550Y011860D01*
X007577Y011872D01*
X007605Y011881D01*
X007634Y011886D01*
X007663Y011887D01*
X007693Y011884D01*
X007721Y011877D01*
X007749Y011867D01*
X007774Y011852D01*
X007798Y011835D01*
X007819Y011815D01*
X007837Y011792D01*
X007852Y011766D01*
X007864Y011739D01*
X007872Y011711D01*
X007876Y011682D01*
X007876Y011652D01*
X007872Y011623D01*
X007864Y011595D01*
X007852Y011568D01*
X007837Y011542D01*
X007819Y011519D01*
X007798Y011499D01*
X007774Y011482D01*
X007749Y011467D01*
X007721Y011457D01*
X007693Y011450D01*
X007663Y011447D01*
X007634Y011448D01*
X007605Y011453D01*
X007577Y011462D01*
X007550Y011474D01*
X007526Y011490D01*
X007503Y011509D01*
X007483Y011531D01*
X007467Y011555D01*
X007453Y011581D01*
X007444Y011609D01*
X007438Y011638D01*
X007436Y011667D01*
X004376Y014272D02*
X004376Y016241D01*
X003194Y016241D01*
X003194Y014272D01*
X004376Y014272D01*
X007423Y017081D02*
X007423Y017869D01*
X008210Y017869D01*
X008210Y017081D01*
X007423Y017081D01*
X008067Y016884D02*
X008069Y016902D01*
X008075Y016919D01*
X008084Y016935D01*
X008097Y016948D01*
X008112Y016958D01*
X008129Y016965D01*
X008146Y016968D01*
X008165Y016967D01*
X008182Y016962D01*
X008198Y016954D01*
X008212Y016942D01*
X008223Y016927D01*
X008231Y016911D01*
X008235Y016893D01*
X008235Y016875D01*
X008231Y016857D01*
X008223Y016841D01*
X008212Y016826D01*
X008198Y016814D01*
X008182Y016806D01*
X008165Y016801D01*
X008146Y016800D01*
X008129Y016803D01*
X008112Y016810D01*
X008097Y016820D01*
X008084Y016833D01*
X008075Y016849D01*
X008069Y016866D01*
X008067Y016884D01*
X011010Y017650D02*
X013760Y017650D01*
X013760Y019050D01*
X011010Y019050D01*
X011010Y017650D01*
X015976Y014534D02*
X015976Y013353D01*
X017157Y013353D01*
X017157Y014534D01*
X015976Y014534D01*
X017672Y012701D02*
X019641Y012701D01*
X019641Y009749D01*
X017672Y009749D01*
X017672Y012701D01*
X017374Y018297D02*
X017449Y018372D01*
X017449Y018447D01*
X017374Y018522D01*
X016998Y018522D01*
X016998Y018447D02*
X016998Y018597D01*
X017224Y018757D02*
X017224Y018982D01*
X017299Y019057D01*
X017374Y019057D01*
X017449Y018982D01*
X017449Y018832D01*
X017374Y018757D01*
X017224Y018757D01*
X017073Y018907D01*
X016998Y019057D01*
X017160Y006613D02*
X017160Y002963D01*
X018760Y002963D01*
X018760Y006613D01*
X017160Y006613D01*
X013084Y003524D02*
X013084Y001989D01*
X011549Y001989D01*
X011549Y003524D01*
X013084Y003524D01*
X012693Y002363D02*
X012695Y002377D01*
X012701Y002391D01*
X012709Y002403D01*
X012721Y002411D01*
X012735Y002417D01*
X012749Y002419D01*
X012763Y002417D01*
X012777Y002411D01*
X012789Y002403D01*
X012797Y002391D01*
X012803Y002377D01*
X012805Y002363D01*
X012803Y002349D01*
X012797Y002335D01*
X012789Y002323D01*
X012777Y002315D01*
X012763Y002309D01*
X012749Y002307D01*
X012735Y002309D01*
X012721Y002315D01*
X012709Y002323D01*
X012701Y002335D01*
X012695Y002349D01*
X012693Y002363D01*
X015056Y000697D02*
X015058Y000720D01*
X015064Y000743D01*
X015073Y000765D01*
X015086Y000784D01*
X015102Y000801D01*
X015120Y000816D01*
X015141Y000827D01*
X015163Y000835D01*
X015186Y000839D01*
X015210Y000839D01*
X015233Y000835D01*
X015255Y000827D01*
X015276Y000816D01*
X015294Y000801D01*
X015310Y000784D01*
X015323Y000765D01*
X015332Y000743D01*
X015338Y000720D01*
X015340Y000697D01*
X015338Y000674D01*
X015332Y000651D01*
X015323Y000629D01*
X015310Y000610D01*
X015294Y000593D01*
X015276Y000578D01*
X015255Y000567D01*
X015233Y000559D01*
X015210Y000555D01*
X015186Y000555D01*
X015163Y000559D01*
X015141Y000567D01*
X015120Y000578D01*
X015102Y000593D01*
X015086Y000610D01*
X015073Y000629D01*
X015064Y000651D01*
X015058Y000674D01*
X015056Y000697D01*
X015473Y000539D02*
X017284Y000539D01*
X017284Y002036D01*
X015473Y002036D01*
X015473Y000539D01*
X008751Y001584D02*
X008751Y003553D01*
X007569Y003553D01*
X007569Y001584D01*
X008751Y001584D01*
D17*
X006943Y001753D03*
X006943Y002073D03*
X013537Y001761D03*
X013537Y001441D03*
X018974Y005035D03*
X018974Y005355D03*
X017912Y008628D03*
X017912Y008948D03*
X016568Y008948D03*
X016568Y008628D03*
X015193Y008628D03*
X015193Y008948D03*
X016033Y012470D03*
X016033Y012790D03*
X009037Y017691D03*
X009037Y018011D03*
X008724Y015011D03*
X008724Y014691D03*
X006596Y014384D03*
X006596Y014064D03*
X002818Y010355D03*
X002818Y010035D03*
X002814Y009103D03*
X002814Y008783D03*
X002474Y014410D03*
X002474Y014730D03*
D18*
X009685Y003412D03*
X010255Y003412D03*
X014971Y002694D03*
X015541Y002694D03*
X016435Y017162D03*
X017005Y017162D03*
D19*
X011912Y005550D03*
X011912Y005090D03*
X003627Y001328D03*
X003627Y000868D03*
X003064Y007337D03*
X003064Y007797D03*
X001943Y014340D03*
X001943Y014800D03*
D20*
X015098Y018881D03*
X016098Y018881D03*
D21*
X004410Y017445D03*
X004410Y016875D03*
D22*
X007303Y015102D03*
X007763Y015102D03*
X013616Y012071D03*
X014076Y012071D03*
X007670Y001102D03*
X007210Y001102D03*
D23*
X015132Y007569D02*
X015191Y007628D01*
X015260Y007559D01*
X015201Y007500D01*
X015132Y007569D01*
X016507Y007569D02*
X016566Y007628D01*
X016635Y007559D01*
X016576Y007500D01*
X016507Y007569D01*
X017851Y007569D02*
X017910Y007628D01*
X017979Y007559D01*
X017920Y007500D01*
X017851Y007569D01*
D24*
X017753Y007460D03*
X016409Y007460D03*
X015034Y007460D03*
M02*
