G75*
G70*
%OFA0B0*%
%FSLAX24Y24*%
%IPPOS*%
%LPD*%
%AMOC8*
5,1,8,0,0,1.08239X$1,22.5*
%
%ADD10C,0.0000*%
%ADD11C,0.1142*%
%ADD12R,0.0512X0.1497*%
%ADD13R,0.0316X0.0394*%
%ADD14R,0.0729X0.0197*%
%ADD15R,0.0985X0.0709*%
%ADD16R,0.0394X0.0316*%
%ADD17R,0.0335X0.0138*%
%ADD18R,0.0138X0.0335*%
%ADD19R,0.0611X0.0611*%
%ADD20R,0.0552X0.0631*%
%ADD21R,0.0330X0.0770*%
%ADD22R,0.0375X0.0197*%
%ADD23R,0.0197X0.0375*%
%ADD24R,0.0434X0.0473*%
%ADD25C,0.0640*%
%ADD26R,0.0512X0.0158*%
%ADD27R,0.0158X0.0512*%
%ADD28R,0.0290X0.0540*%
%ADD29R,0.0540X0.0290*%
%ADD30R,0.0434X0.0237*%
%ADD31R,0.0237X0.0512*%
%ADD32R,0.0631X0.0552*%
%ADD33R,0.0453X0.0158*%
%ADD34C,0.0476*%
%ADD35R,0.0473X0.0434*%
%ADD36R,0.0512X0.0512*%
%ADD37C,0.0434*%
%ADD38C,0.0434*%
D10*
X000160Y000288D02*
X000160Y019888D01*
X019760Y019888D01*
X019760Y000288D01*
X000160Y000288D01*
X000609Y001288D02*
X000611Y001335D01*
X000617Y001381D01*
X000627Y001427D01*
X000640Y001472D01*
X000658Y001515D01*
X000679Y001557D01*
X000703Y001597D01*
X000731Y001634D01*
X000762Y001669D01*
X000796Y001702D01*
X000832Y001731D01*
X000871Y001757D01*
X000912Y001780D01*
X000955Y001799D01*
X000999Y001815D01*
X001044Y001827D01*
X001090Y001835D01*
X001137Y001839D01*
X001183Y001839D01*
X001230Y001835D01*
X001276Y001827D01*
X001321Y001815D01*
X001365Y001799D01*
X001408Y001780D01*
X001449Y001757D01*
X001488Y001731D01*
X001524Y001702D01*
X001558Y001669D01*
X001589Y001634D01*
X001617Y001597D01*
X001641Y001557D01*
X001662Y001515D01*
X001680Y001472D01*
X001693Y001427D01*
X001703Y001381D01*
X001709Y001335D01*
X001711Y001288D01*
X001709Y001241D01*
X001703Y001195D01*
X001693Y001149D01*
X001680Y001104D01*
X001662Y001061D01*
X001641Y001019D01*
X001617Y000979D01*
X001589Y000942D01*
X001558Y000907D01*
X001524Y000874D01*
X001488Y000845D01*
X001449Y000819D01*
X001408Y000796D01*
X001365Y000777D01*
X001321Y000761D01*
X001276Y000749D01*
X001230Y000741D01*
X001183Y000737D01*
X001137Y000737D01*
X001090Y000741D01*
X001044Y000749D01*
X000999Y000761D01*
X000955Y000777D01*
X000912Y000796D01*
X000871Y000819D01*
X000832Y000845D01*
X000796Y000874D01*
X000762Y000907D01*
X000731Y000942D01*
X000703Y000979D01*
X000679Y001019D01*
X000658Y001061D01*
X000640Y001104D01*
X000627Y001149D01*
X000617Y001195D01*
X000611Y001241D01*
X000609Y001288D01*
X000609Y018888D02*
X000611Y018935D01*
X000617Y018981D01*
X000627Y019027D01*
X000640Y019072D01*
X000658Y019115D01*
X000679Y019157D01*
X000703Y019197D01*
X000731Y019234D01*
X000762Y019269D01*
X000796Y019302D01*
X000832Y019331D01*
X000871Y019357D01*
X000912Y019380D01*
X000955Y019399D01*
X000999Y019415D01*
X001044Y019427D01*
X001090Y019435D01*
X001137Y019439D01*
X001183Y019439D01*
X001230Y019435D01*
X001276Y019427D01*
X001321Y019415D01*
X001365Y019399D01*
X001408Y019380D01*
X001449Y019357D01*
X001488Y019331D01*
X001524Y019302D01*
X001558Y019269D01*
X001589Y019234D01*
X001617Y019197D01*
X001641Y019157D01*
X001662Y019115D01*
X001680Y019072D01*
X001693Y019027D01*
X001703Y018981D01*
X001709Y018935D01*
X001711Y018888D01*
X001709Y018841D01*
X001703Y018795D01*
X001693Y018749D01*
X001680Y018704D01*
X001662Y018661D01*
X001641Y018619D01*
X001617Y018579D01*
X001589Y018542D01*
X001558Y018507D01*
X001524Y018474D01*
X001488Y018445D01*
X001449Y018419D01*
X001408Y018396D01*
X001365Y018377D01*
X001321Y018361D01*
X001276Y018349D01*
X001230Y018341D01*
X001183Y018337D01*
X001137Y018337D01*
X001090Y018341D01*
X001044Y018349D01*
X000999Y018361D01*
X000955Y018377D01*
X000912Y018396D01*
X000871Y018419D01*
X000832Y018445D01*
X000796Y018474D01*
X000762Y018507D01*
X000731Y018542D01*
X000703Y018579D01*
X000679Y018619D01*
X000658Y018661D01*
X000640Y018704D01*
X000627Y018749D01*
X000617Y018795D01*
X000611Y018841D01*
X000609Y018888D01*
X018209Y018888D02*
X018211Y018935D01*
X018217Y018981D01*
X018227Y019027D01*
X018240Y019072D01*
X018258Y019115D01*
X018279Y019157D01*
X018303Y019197D01*
X018331Y019234D01*
X018362Y019269D01*
X018396Y019302D01*
X018432Y019331D01*
X018471Y019357D01*
X018512Y019380D01*
X018555Y019399D01*
X018599Y019415D01*
X018644Y019427D01*
X018690Y019435D01*
X018737Y019439D01*
X018783Y019439D01*
X018830Y019435D01*
X018876Y019427D01*
X018921Y019415D01*
X018965Y019399D01*
X019008Y019380D01*
X019049Y019357D01*
X019088Y019331D01*
X019124Y019302D01*
X019158Y019269D01*
X019189Y019234D01*
X019217Y019197D01*
X019241Y019157D01*
X019262Y019115D01*
X019280Y019072D01*
X019293Y019027D01*
X019303Y018981D01*
X019309Y018935D01*
X019311Y018888D01*
X019309Y018841D01*
X019303Y018795D01*
X019293Y018749D01*
X019280Y018704D01*
X019262Y018661D01*
X019241Y018619D01*
X019217Y018579D01*
X019189Y018542D01*
X019158Y018507D01*
X019124Y018474D01*
X019088Y018445D01*
X019049Y018419D01*
X019008Y018396D01*
X018965Y018377D01*
X018921Y018361D01*
X018876Y018349D01*
X018830Y018341D01*
X018783Y018337D01*
X018737Y018337D01*
X018690Y018341D01*
X018644Y018349D01*
X018599Y018361D01*
X018555Y018377D01*
X018512Y018396D01*
X018471Y018419D01*
X018432Y018445D01*
X018396Y018474D01*
X018362Y018507D01*
X018331Y018542D01*
X018303Y018579D01*
X018279Y018619D01*
X018258Y018661D01*
X018240Y018704D01*
X018227Y018749D01*
X018217Y018795D01*
X018211Y018841D01*
X018209Y018888D01*
X018209Y001288D02*
X018211Y001335D01*
X018217Y001381D01*
X018227Y001427D01*
X018240Y001472D01*
X018258Y001515D01*
X018279Y001557D01*
X018303Y001597D01*
X018331Y001634D01*
X018362Y001669D01*
X018396Y001702D01*
X018432Y001731D01*
X018471Y001757D01*
X018512Y001780D01*
X018555Y001799D01*
X018599Y001815D01*
X018644Y001827D01*
X018690Y001835D01*
X018737Y001839D01*
X018783Y001839D01*
X018830Y001835D01*
X018876Y001827D01*
X018921Y001815D01*
X018965Y001799D01*
X019008Y001780D01*
X019049Y001757D01*
X019088Y001731D01*
X019124Y001702D01*
X019158Y001669D01*
X019189Y001634D01*
X019217Y001597D01*
X019241Y001557D01*
X019262Y001515D01*
X019280Y001472D01*
X019293Y001427D01*
X019303Y001381D01*
X019309Y001335D01*
X019311Y001288D01*
X019309Y001241D01*
X019303Y001195D01*
X019293Y001149D01*
X019280Y001104D01*
X019262Y001061D01*
X019241Y001019D01*
X019217Y000979D01*
X019189Y000942D01*
X019158Y000907D01*
X019124Y000874D01*
X019088Y000845D01*
X019049Y000819D01*
X019008Y000796D01*
X018965Y000777D01*
X018921Y000761D01*
X018876Y000749D01*
X018830Y000741D01*
X018783Y000737D01*
X018737Y000737D01*
X018690Y000741D01*
X018644Y000749D01*
X018599Y000761D01*
X018555Y000777D01*
X018512Y000796D01*
X018471Y000819D01*
X018432Y000845D01*
X018396Y000874D01*
X018362Y000907D01*
X018331Y000942D01*
X018303Y000979D01*
X018279Y001019D01*
X018258Y001061D01*
X018240Y001104D01*
X018227Y001149D01*
X018217Y001195D01*
X018211Y001241D01*
X018209Y001288D01*
D11*
X018760Y001288D03*
X018760Y018888D03*
X001160Y018888D03*
X001160Y001288D03*
D12*
X016109Y015944D03*
X017211Y015944D03*
D13*
X017935Y015038D03*
X018447Y015038D03*
X018447Y014506D03*
X017935Y014506D03*
X017935Y014006D03*
X018447Y014006D03*
X008103Y018131D03*
X007592Y018131D03*
X010248Y002381D03*
X010760Y002381D03*
X010760Y001788D03*
X010248Y001788D03*
X012310Y001350D03*
X012822Y001350D03*
X005041Y001381D03*
X004529Y001381D03*
D14*
X018007Y010713D03*
X018007Y010969D03*
X018007Y011225D03*
X018007Y011481D03*
X018007Y011737D03*
D15*
X003941Y010297D03*
X003941Y008840D03*
D16*
X002816Y008688D03*
X002816Y009200D03*
X002816Y009938D03*
X002816Y010450D03*
X006598Y013969D03*
X006598Y014481D03*
X008723Y014594D03*
X008723Y015106D03*
X009035Y017594D03*
X009035Y018106D03*
X002473Y014825D03*
X002473Y014313D03*
X006941Y002168D03*
X006941Y001657D03*
X013535Y001856D03*
X013535Y001344D03*
X018973Y004938D03*
X018973Y005450D03*
X017910Y008532D03*
X017910Y009043D03*
X016566Y009043D03*
X016566Y008532D03*
X015191Y008532D03*
X015191Y009043D03*
X016035Y012375D03*
X016035Y012887D03*
D17*
X015976Y013648D03*
X015976Y013845D03*
X015976Y014042D03*
X015976Y014239D03*
X017157Y014239D03*
X017157Y014042D03*
X017157Y013845D03*
X017157Y013648D03*
D18*
X016862Y013353D03*
X016665Y013353D03*
X016468Y013353D03*
X016271Y013353D03*
X016271Y014534D03*
X016468Y014534D03*
X016665Y014534D03*
X016862Y014534D03*
D19*
X016566Y013944D03*
D20*
X016388Y017163D03*
X017057Y017163D03*
X010307Y003413D03*
X009638Y003413D03*
X014919Y002694D03*
X015588Y002694D03*
D21*
X013410Y017550D03*
X012910Y017550D03*
X012410Y017550D03*
X011910Y017550D03*
X011410Y017550D03*
X011410Y019150D03*
X011910Y019150D03*
X012410Y019150D03*
X012910Y019150D03*
X013410Y019150D03*
D22*
X013084Y003140D03*
X013084Y002884D03*
X013084Y002628D03*
X013084Y002372D03*
X011549Y002372D03*
X011549Y002628D03*
X011549Y002884D03*
X011549Y003140D03*
X005553Y003046D03*
X005553Y002790D03*
X005553Y002535D03*
X005553Y002279D03*
X004017Y002279D03*
X004017Y002535D03*
X004017Y002790D03*
X004017Y003046D03*
D23*
X004401Y003430D03*
X004657Y003430D03*
X004913Y003430D03*
X005169Y003430D03*
X005169Y001895D03*
X004913Y001895D03*
X004657Y001895D03*
X004401Y001895D03*
X011932Y001989D03*
X012188Y001989D03*
X012444Y001989D03*
X012700Y001989D03*
X012700Y003524D03*
X012444Y003524D03*
X012188Y003524D03*
X011932Y003524D03*
D24*
X011910Y004984D03*
X011910Y005653D03*
X003629Y001435D03*
X003629Y000765D03*
X003066Y007234D03*
X003066Y007903D03*
X001941Y014234D03*
X001941Y014903D03*
D25*
X015098Y018581D02*
X015098Y019181D01*
X016098Y019181D02*
X016098Y018581D01*
D26*
X012774Y011962D03*
X012774Y011765D03*
X012774Y011569D03*
X012774Y011372D03*
X012774Y011175D03*
X012774Y010978D03*
X012774Y010781D03*
X012774Y010584D03*
X012774Y010387D03*
X012774Y010191D03*
X012774Y009994D03*
X012774Y009797D03*
X012774Y009600D03*
X012774Y009403D03*
X012774Y009206D03*
X012774Y009009D03*
X012774Y008813D03*
X012774Y008616D03*
X012774Y008419D03*
X012774Y008222D03*
X012774Y008025D03*
X012774Y007828D03*
X012774Y007631D03*
X012774Y007435D03*
X012774Y007238D03*
X006671Y007238D03*
X006671Y007435D03*
X006671Y007631D03*
X006671Y007828D03*
X006671Y008025D03*
X006671Y008222D03*
X006671Y008419D03*
X006671Y008616D03*
X006671Y008813D03*
X006671Y009009D03*
X006671Y009206D03*
X006671Y009403D03*
X006671Y009600D03*
X006671Y009797D03*
X006671Y009994D03*
X006671Y010191D03*
X006671Y010387D03*
X006671Y010584D03*
X006671Y010781D03*
X006671Y010978D03*
X006671Y011175D03*
X006671Y011372D03*
X006671Y011569D03*
X006671Y011765D03*
X006671Y011962D03*
D27*
X007360Y012651D03*
X007557Y012651D03*
X007754Y012651D03*
X007951Y012651D03*
X008148Y012651D03*
X008345Y012651D03*
X008541Y012651D03*
X008738Y012651D03*
X008935Y012651D03*
X009132Y012651D03*
X009329Y012651D03*
X009526Y012651D03*
X009723Y012651D03*
X009919Y012651D03*
X010116Y012651D03*
X010313Y012651D03*
X010510Y012651D03*
X010707Y012651D03*
X010904Y012651D03*
X011100Y012651D03*
X011297Y012651D03*
X011494Y012651D03*
X011691Y012651D03*
X011888Y012651D03*
X012085Y012651D03*
X012085Y006549D03*
X011888Y006549D03*
X011691Y006549D03*
X011494Y006549D03*
X011297Y006549D03*
X011100Y006549D03*
X010904Y006549D03*
X010707Y006549D03*
X010510Y006549D03*
X010313Y006549D03*
X010116Y006549D03*
X009919Y006549D03*
X009723Y006549D03*
X009526Y006549D03*
X009329Y006549D03*
X009132Y006549D03*
X008935Y006549D03*
X008738Y006549D03*
X008541Y006549D03*
X008345Y006549D03*
X008148Y006549D03*
X007951Y006549D03*
X007754Y006549D03*
X007557Y006549D03*
X007360Y006549D03*
D28*
X007535Y014444D03*
X007141Y014444D03*
X007929Y014444D03*
D29*
X003973Y007962D03*
X003973Y007569D03*
X003973Y007175D03*
D30*
X007688Y003356D03*
X007688Y003041D03*
X007688Y002726D03*
X007688Y002411D03*
X007688Y002096D03*
X007688Y001781D03*
X008632Y001781D03*
X008632Y002096D03*
X008632Y002411D03*
X008632Y002726D03*
X008632Y003041D03*
X008632Y003356D03*
X004257Y014469D03*
X004257Y014784D03*
X004257Y015099D03*
X004257Y015414D03*
X004257Y015729D03*
X004257Y016044D03*
X003313Y016044D03*
X003313Y015729D03*
X003313Y015414D03*
X003313Y015099D03*
X003313Y014784D03*
X003313Y014469D03*
D31*
X003785Y014390D03*
X003785Y016122D03*
X008160Y003435D03*
X008160Y001703D03*
D32*
X004410Y016828D03*
X004410Y017497D03*
D33*
X007501Y017475D03*
X007501Y017731D03*
X007501Y017219D03*
X008131Y017219D03*
X008131Y017475D03*
X008131Y017731D03*
D34*
X004754Y013069D03*
X004254Y013069D03*
X003754Y013069D03*
X003254Y013069D03*
X002754Y013069D03*
X002254Y013069D03*
X001754Y013069D03*
X001754Y012069D03*
X002254Y012069D03*
X002754Y012069D03*
X003254Y012069D03*
X003754Y012069D03*
X004254Y012069D03*
X004754Y012069D03*
X002460Y006288D03*
X002460Y005788D03*
X002460Y005288D03*
X002460Y004788D03*
X002460Y004288D03*
X002460Y003788D03*
X002460Y003288D03*
X002460Y002788D03*
X001460Y002788D03*
X001460Y003288D03*
X001460Y003788D03*
X001460Y004288D03*
X001460Y004788D03*
X001460Y005288D03*
X001460Y005788D03*
X001460Y006288D03*
X017460Y006288D03*
X017460Y005788D03*
X017460Y005288D03*
X017460Y004788D03*
X017460Y004288D03*
X017460Y003788D03*
X017460Y003288D03*
X018460Y003288D03*
X018460Y003788D03*
X018460Y004288D03*
X018460Y004788D03*
X018460Y005288D03*
X018460Y005788D03*
X018460Y006288D03*
D35*
X014182Y012069D03*
X013513Y012069D03*
X007870Y015100D03*
X007200Y015100D03*
X007107Y001100D03*
X007776Y001100D03*
D36*
X015191Y007155D03*
X015191Y007982D03*
X016566Y007982D03*
X016566Y007155D03*
X017910Y007155D03*
X017910Y007982D03*
D37*
X015733Y001776D02*
X015843Y001666D01*
D38*
X016379Y001760D03*
X017009Y001760D03*
X017009Y000815D03*
X016379Y000815D03*
X015749Y000815D03*
M02*
