%
M48
M72
T01C0.0197
T02C0.0236
T03C0.0400
T04C0.1102
%
T01
X13000Y12125
X12688Y13000
X12688Y16563
X9719Y17813
X6906Y14188
X5875Y16188
X10906Y11438
X5469Y6844
X7188Y5469
X13313Y5375
X9719Y6844
X7156Y9281
X7094Y13375
X15375Y969
X11250Y17438
X5844Y9906
X17031Y11438
X16406Y13656
X1031Y12719
X7563Y15313
X5000Y14094
X6469Y14781
X6531Y17500
X17188Y13063
X17094Y12688
X15875Y11625
X14406Y11406
X10594Y10125
X9375Y9875
X11438Y15875
X11969Y12906
X9031Y13406
X1219Y8031
X7094Y8719
X3063Y9500
X3063Y9156
X8281Y10813
X9406Y10813
X2125Y15219
X1094Y14188
X1813Y9438
X2375Y12281
X750Y16688
X3031Y19000
X15938Y9813
X6719Y5469
X10188Y3125
X6906Y2531
X1281Y7219
X2031Y7219
X7063Y6969
X11281Y3313
X12563Y5219
X10906Y7219
X11781Y4750
X12906Y1500
X11250Y1250
X9906Y4656
X10594Y3125
X9375Y656
X8000Y2031
X3125Y1563
X13219Y9313
X12094Y8250
X15406Y2375
X18406Y7250
X19219Y9031
X16844Y7281
X15188Y6906
X18844Y5906
X14625Y656
X17906Y438
X10500Y8500
X13875Y4563
X17813Y5094
X14344Y8063
X17250Y6500
X9531Y8531
X9500Y7938
X10500Y7969
X7281Y7906
X7531Y8344
X5219Y9875
X1813Y10656
X969Y10688
X11688Y15594
X13250Y17156
X18781Y15375
X13625Y15688
X14813Y14781
X13219Y14469
X17344Y18656
X18719Y16625
X15219Y14094
X14844Y15563
X10000Y18563
X14656Y16813
X6063Y531
X11094Y1719
X12063Y2750
X13281Y16594
X10438Y17313
X2906Y17313
X563Y15375
X4938Y17875
X5250Y17281
X5969Y18719
X719Y4438
X719Y3531
X3563Y3094
X17813Y1500
X17156Y10375
X16469Y11313
X14969Y13031
X14125Y13938
X16938Y14594
X15906Y14656
X17406Y13750
X16438Y5563
X16969Y8469
X19219Y12719
X14563Y9594
X16375Y2406
X15688Y6344
X15625Y8656
X15094Y9906
X15969Y8219
X15781Y5844
X15875Y3063
X10438Y18250
X11656Y13219
X11688Y13625
X10969Y16000
X10406Y15625
X11375Y16438
X15719Y11219
X11250Y9875
X12719Y6063
X14781Y3438
X15875Y1844
X18469Y8188
X19219Y7781
X8250Y9719
X8094Y9313
X15563Y3375
X18813Y4156
X16500Y2000
X14188Y7563
X11813Y10969
X8875Y11531
X13438Y3125
X5500Y3250
X6031Y3688
X9094Y12875
X5938Y2563
X12813Y4094
X7063Y10469
X7406Y11906
X5156Y11813
X3781Y5844
X3094Y5344
X3281Y2531
X7688Y6969
X7719Y5531
X6563Y4031
X13563Y2375
X6375Y1406
X8094Y7063
X4844Y10125
X14719Y14125
X15313Y12750
X9594Y16875
X13781Y17781
X8781Y19250
X13594Y18938
X9750Y16406
X2625Y15969
X6625Y16250
X9906Y13188
X8219Y11438
X5063Y15438
X9219Y4906
X9938Y5063
X8938Y2813
X8938Y3438
X7844Y13344
X8594Y15688
X8438Y13781
X7000Y15688
X8875Y781
X10500Y7094
X10219Y1000
X9344Y2125
X11281Y7000
X6563Y13000
X8719Y13031
X8531Y11781
X6906Y12625
X4844Y8656
X4969Y3750
X4563Y7813
X4656Y4000
X5156Y7906
X4375Y3688
X9938Y3969
X6781Y3656
X6031Y1656
X3063Y2094
X3313Y5750
X5406Y5656
X7875Y7719
X16313Y281
T02
X4594Y12781
X4594Y11781
X4094Y12781
X4094Y11781
X3594Y12781
X3594Y11781
X3094Y12781
X3094Y11781
X2594Y12781
X2594Y11781
X2094Y12781
X2094Y11781
X1594Y12781
X1594Y11781
X17300Y6000
X18300Y6000
X17300Y5500
X18300Y5500
X17300Y5000
X18300Y5000
X17300Y4500
X18300Y4500
X17300Y4000
X18300Y4000
X17300Y3500
X18300Y3500
X17300Y3000
X18300Y3000
X1300Y6000
X2300Y6000
X1300Y5500
X2300Y5500
X1300Y5000
X2300Y5000
X1300Y4500
X2300Y4500
X1300Y4000
X2300Y4000
X1300Y3500
X2300Y3500
X1300Y3000
X2300Y3000
X1300Y2500
X2300Y2500
X18906Y13969
X14313Y13094
X14563Y12813
T03
X15938Y18594
X14938Y18594
T04
X18600Y1000
X18600Y18600
X1000Y18600
X1000Y1000
M30
