%
M48
M72
T01C0.0197
T02C0.0236
T03C0.0400
T04C0.1102
%
T01
X6563Y8375
X6750Y10250
X9344Y7969
X8063Y1313
X6125Y3063
X4875Y3563
X8844Y4250
X10438Y2000
X4969Y5469
X6219Y8094
X3250Y2875
X6688Y3813
X2500Y3250
X1688Y2438
X938Y2438
X938Y1813
X1625Y1813
X1625Y1250
X750Y6375
X8938Y10813
X10063Y11281
X11125Y10625
X8688Y6156
X7250Y8188
X9000Y1375
X7500Y375
X1813Y7813
X3125Y7375
X2688Y7188
X3063Y7000
X4063Y2938
X2938Y3625
X2500Y3625
X7125Y1125
X10875Y8688
X4375Y5938
X9188Y3750
X9906Y844
X13719Y3344
X13844Y4063
X11281Y7594
X406Y10125
X781Y10125
X1844Y10344
X406Y8500
X406Y7844
X406Y7188
X3594Y9375
X9719Y6594
X13313Y6563
X13719Y6938
X6000Y2563
X4469Y3219
X4625Y2844
X7750Y6250
X5375Y8813
X8500Y8625
X9188Y8813
X7250Y8813
X7250Y9250
X8313Y8250
X8875Y9813
X6750Y8813
X6250Y10438
X8313Y7688
X9125Y3313
X8438Y4531
X8625Y3375
X8031Y4688
X12969Y6156
X2500Y5000
X3125Y8688
X1313Y6438
X4563Y7750
X1875Y6125
X4625Y7313
X2688Y7813
X1000Y8688
X2500Y5500
X3938Y5313
X3500Y5125
X5563Y875
X6875Y4500
X7000Y5000
X7313Y2063
X7750Y3063
X2781Y5938
X4438Y6563
X6625Y563
X9938Y4844
X6063Y1625
X4000Y875
X5813Y9063
X6719Y5438
X5563Y10813
X5125Y6375
X5156Y6781
X5375Y10438
X8031Y6656
X8594Y6625
X11250Y6875
X11750Y7313
X10781Y2250
X9625Y5219
X5906Y6531
X8313Y5844
X9438Y5844
X12688Y5844
X13813Y5938
X14594Y2500
X10063Y4156
X10938Y3094
T02
X11781Y8938
X11781Y8438
X12281Y8938
X12281Y8438
X12781Y8938
X12781Y8438
X13281Y8938
X13281Y8438
X13781Y8938
X13781Y8438
X11781Y2438
X11781Y1938
X12281Y2438
X12281Y1938
X12781Y2438
X12781Y1938
X13281Y2438
X13281Y1938
X13781Y2438
X13781Y1938
X3938Y8688
X7188Y11000
T03
X3719Y9969
X3719Y10969
T04
X14438Y688
X14438Y11000
X625Y11000
X625Y688
M30
