G75*
G70*
%OFA0B0*%
%FSLAX24Y24*%
%IPPOS*%
%LPD*%
%AMOC8*
5,1,8,0,0,1.08239X$1,22.5*
%
%ADD10C,0.0000*%
%ADD11C,0.0050*%
%ADD12C,0.0040*%
%ADD13C,0.0060*%
%ADD14R,0.0236X0.0118*%
%ADD15R,0.0571X0.0295*%
%ADD16R,0.0295X0.0571*%
%ADD17R,0.0118X0.0236*%
%ADD18C,0.0030*%
%ADD19R,0.0197X0.0374*%
%ADD20R,0.0374X0.0197*%
%ADD21R,0.0200X0.0200*%
D10*
X000325Y000160D02*
X000325Y012469D01*
X015976Y012469D01*
X015976Y000160D01*
X000325Y000160D01*
X000649Y001098D02*
X000651Y001145D01*
X000657Y001191D01*
X000667Y001237D01*
X000680Y001282D01*
X000698Y001325D01*
X000719Y001367D01*
X000743Y001407D01*
X000771Y001444D01*
X000802Y001479D01*
X000836Y001512D01*
X000872Y001541D01*
X000911Y001567D01*
X000952Y001590D01*
X000995Y001609D01*
X001039Y001625D01*
X001084Y001637D01*
X001130Y001645D01*
X001177Y001649D01*
X001223Y001649D01*
X001270Y001645D01*
X001316Y001637D01*
X001361Y001625D01*
X001405Y001609D01*
X001448Y001590D01*
X001489Y001567D01*
X001528Y001541D01*
X001564Y001512D01*
X001598Y001479D01*
X001629Y001444D01*
X001657Y001407D01*
X001681Y001367D01*
X001702Y001325D01*
X001720Y001282D01*
X001733Y001237D01*
X001743Y001191D01*
X001749Y001145D01*
X001751Y001098D01*
X001749Y001051D01*
X001743Y001005D01*
X001733Y000959D01*
X001720Y000914D01*
X001702Y000871D01*
X001681Y000829D01*
X001657Y000789D01*
X001629Y000752D01*
X001598Y000717D01*
X001564Y000684D01*
X001528Y000655D01*
X001489Y000629D01*
X001448Y000606D01*
X001405Y000587D01*
X001361Y000571D01*
X001316Y000559D01*
X001270Y000551D01*
X001223Y000547D01*
X001177Y000547D01*
X001130Y000551D01*
X001084Y000559D01*
X001039Y000571D01*
X000995Y000587D01*
X000952Y000606D01*
X000911Y000629D01*
X000872Y000655D01*
X000836Y000684D01*
X000802Y000717D01*
X000771Y000752D01*
X000743Y000789D01*
X000719Y000829D01*
X000698Y000871D01*
X000680Y000914D01*
X000667Y000959D01*
X000657Y001005D01*
X000651Y001051D01*
X000649Y001098D01*
X000649Y011410D02*
X000651Y011457D01*
X000657Y011503D01*
X000667Y011549D01*
X000680Y011594D01*
X000698Y011637D01*
X000719Y011679D01*
X000743Y011719D01*
X000771Y011756D01*
X000802Y011791D01*
X000836Y011824D01*
X000872Y011853D01*
X000911Y011879D01*
X000952Y011902D01*
X000995Y011921D01*
X001039Y011937D01*
X001084Y011949D01*
X001130Y011957D01*
X001177Y011961D01*
X001223Y011961D01*
X001270Y011957D01*
X001316Y011949D01*
X001361Y011937D01*
X001405Y011921D01*
X001448Y011902D01*
X001489Y011879D01*
X001528Y011853D01*
X001564Y011824D01*
X001598Y011791D01*
X001629Y011756D01*
X001657Y011719D01*
X001681Y011679D01*
X001702Y011637D01*
X001720Y011594D01*
X001733Y011549D01*
X001743Y011503D01*
X001749Y011457D01*
X001751Y011410D01*
X001749Y011363D01*
X001743Y011317D01*
X001733Y011271D01*
X001720Y011226D01*
X001702Y011183D01*
X001681Y011141D01*
X001657Y011101D01*
X001629Y011064D01*
X001598Y011029D01*
X001564Y010996D01*
X001528Y010967D01*
X001489Y010941D01*
X001448Y010918D01*
X001405Y010899D01*
X001361Y010883D01*
X001316Y010871D01*
X001270Y010863D01*
X001223Y010859D01*
X001177Y010859D01*
X001130Y010863D01*
X001084Y010871D01*
X001039Y010883D01*
X000995Y010899D01*
X000952Y010918D01*
X000911Y010941D01*
X000872Y010967D01*
X000836Y010996D01*
X000802Y011029D01*
X000771Y011064D01*
X000743Y011101D01*
X000719Y011141D01*
X000698Y011183D01*
X000680Y011226D01*
X000667Y011271D01*
X000657Y011317D01*
X000651Y011363D01*
X000649Y011410D01*
X014462Y011410D02*
X014464Y011457D01*
X014470Y011503D01*
X014480Y011549D01*
X014493Y011594D01*
X014511Y011637D01*
X014532Y011679D01*
X014556Y011719D01*
X014584Y011756D01*
X014615Y011791D01*
X014649Y011824D01*
X014685Y011853D01*
X014724Y011879D01*
X014765Y011902D01*
X014808Y011921D01*
X014852Y011937D01*
X014897Y011949D01*
X014943Y011957D01*
X014990Y011961D01*
X015036Y011961D01*
X015083Y011957D01*
X015129Y011949D01*
X015174Y011937D01*
X015218Y011921D01*
X015261Y011902D01*
X015302Y011879D01*
X015341Y011853D01*
X015377Y011824D01*
X015411Y011791D01*
X015442Y011756D01*
X015470Y011719D01*
X015494Y011679D01*
X015515Y011637D01*
X015533Y011594D01*
X015546Y011549D01*
X015556Y011503D01*
X015562Y011457D01*
X015564Y011410D01*
X015562Y011363D01*
X015556Y011317D01*
X015546Y011271D01*
X015533Y011226D01*
X015515Y011183D01*
X015494Y011141D01*
X015470Y011101D01*
X015442Y011064D01*
X015411Y011029D01*
X015377Y010996D01*
X015341Y010967D01*
X015302Y010941D01*
X015261Y010918D01*
X015218Y010899D01*
X015174Y010883D01*
X015129Y010871D01*
X015083Y010863D01*
X015036Y010859D01*
X014990Y010859D01*
X014943Y010863D01*
X014897Y010871D01*
X014852Y010883D01*
X014808Y010899D01*
X014765Y010918D01*
X014724Y010941D01*
X014685Y010967D01*
X014649Y010996D01*
X014615Y011029D01*
X014584Y011064D01*
X014556Y011101D01*
X014532Y011141D01*
X014511Y011183D01*
X014493Y011226D01*
X014480Y011271D01*
X014470Y011317D01*
X014464Y011363D01*
X014462Y011410D01*
X014462Y001098D02*
X014464Y001145D01*
X014470Y001191D01*
X014480Y001237D01*
X014493Y001282D01*
X014511Y001325D01*
X014532Y001367D01*
X014556Y001407D01*
X014584Y001444D01*
X014615Y001479D01*
X014649Y001512D01*
X014685Y001541D01*
X014724Y001567D01*
X014765Y001590D01*
X014808Y001609D01*
X014852Y001625D01*
X014897Y001637D01*
X014943Y001645D01*
X014990Y001649D01*
X015036Y001649D01*
X015083Y001645D01*
X015129Y001637D01*
X015174Y001625D01*
X015218Y001609D01*
X015261Y001590D01*
X015302Y001567D01*
X015341Y001541D01*
X015377Y001512D01*
X015411Y001479D01*
X015442Y001444D01*
X015470Y001407D01*
X015494Y001367D01*
X015515Y001325D01*
X015533Y001282D01*
X015546Y001237D01*
X015556Y001191D01*
X015562Y001145D01*
X015564Y001098D01*
X015562Y001051D01*
X015556Y001005D01*
X015546Y000959D01*
X015533Y000914D01*
X015515Y000871D01*
X015494Y000829D01*
X015470Y000789D01*
X015442Y000752D01*
X015411Y000717D01*
X015377Y000684D01*
X015341Y000655D01*
X015302Y000629D01*
X015261Y000606D01*
X015218Y000587D01*
X015174Y000571D01*
X015129Y000559D01*
X015083Y000551D01*
X015036Y000547D01*
X014990Y000547D01*
X014943Y000551D01*
X014897Y000559D01*
X014852Y000571D01*
X014808Y000587D01*
X014765Y000606D01*
X014724Y000629D01*
X014685Y000655D01*
X014649Y000684D01*
X014615Y000717D01*
X014584Y000752D01*
X014556Y000789D01*
X014532Y000829D01*
X014511Y000871D01*
X014493Y000914D01*
X014480Y000959D01*
X014470Y001005D01*
X014464Y001051D01*
X014462Y001098D01*
D11*
X014681Y001998D02*
X014681Y003198D01*
X012031Y003198D01*
X012031Y001998D01*
X014681Y001998D01*
X013174Y003676D02*
X011914Y003676D01*
X011914Y005644D01*
X013174Y005644D01*
X013174Y003676D01*
X012780Y004424D02*
X012308Y004424D01*
X012308Y004896D01*
X012780Y004896D01*
X012780Y004424D01*
X010856Y003316D02*
X006919Y003316D01*
X006919Y007254D01*
X010856Y007254D01*
X010856Y003316D01*
X010414Y003671D02*
X010416Y003689D01*
X010422Y003707D01*
X010431Y003723D01*
X010443Y003736D01*
X010458Y003747D01*
X010475Y003755D01*
X010493Y003759D01*
X010511Y003759D01*
X010529Y003755D01*
X010546Y003747D01*
X010561Y003736D01*
X010573Y003723D01*
X010582Y003707D01*
X010588Y003689D01*
X010590Y003671D01*
X010588Y003653D01*
X010582Y003635D01*
X010573Y003619D01*
X010561Y003606D01*
X010546Y003595D01*
X010529Y003587D01*
X010511Y003583D01*
X010493Y003583D01*
X010475Y003587D01*
X010458Y003595D01*
X010443Y003606D01*
X010431Y003619D01*
X010422Y003635D01*
X010416Y003653D01*
X010414Y003671D01*
X010166Y002376D02*
X008984Y002376D01*
X008984Y001194D01*
X010166Y001194D01*
X010166Y002376D01*
X009228Y002061D02*
X009230Y002077D01*
X009236Y002093D01*
X009245Y002107D01*
X009257Y002118D01*
X009271Y002126D01*
X009287Y002131D01*
X009303Y002132D01*
X009319Y002129D01*
X009334Y002122D01*
X009348Y002113D01*
X009358Y002100D01*
X009366Y002085D01*
X009370Y002069D01*
X009370Y002053D01*
X009366Y002037D01*
X009358Y002022D01*
X009348Y002009D01*
X009335Y002000D01*
X009319Y001993D01*
X009303Y001990D01*
X009287Y001991D01*
X009271Y001996D01*
X009257Y002004D01*
X009245Y002015D01*
X009236Y002029D01*
X009230Y002045D01*
X009228Y002061D01*
X005425Y002485D02*
X005425Y001085D01*
X002675Y001085D01*
X002675Y002485D01*
X005425Y002485D01*
X002500Y003246D02*
X000532Y003246D01*
X000532Y006199D01*
X002500Y006199D01*
X002500Y003246D01*
X002978Y007632D02*
X001797Y007632D01*
X001797Y008813D01*
X002978Y008813D01*
X002978Y007632D01*
X005307Y008892D02*
X005307Y010428D01*
X006843Y010428D01*
X006843Y008892D01*
X005307Y008892D01*
X006452Y009266D02*
X006454Y009280D01*
X006460Y009294D01*
X006468Y009306D01*
X006480Y009314D01*
X006494Y009320D01*
X006508Y009322D01*
X006522Y009320D01*
X006536Y009314D01*
X006548Y009306D01*
X006556Y009294D01*
X006562Y009280D01*
X006564Y009266D01*
X006562Y009252D01*
X006556Y009238D01*
X006548Y009226D01*
X006536Y009218D01*
X006522Y009212D01*
X006508Y009210D01*
X006494Y009212D01*
X006480Y009218D01*
X006468Y009226D01*
X006460Y009238D01*
X006454Y009252D01*
X006452Y009266D01*
X008153Y009632D02*
X008153Y010813D01*
X010122Y010813D01*
X010122Y009632D01*
X008153Y009632D01*
X005470Y010821D02*
X005470Y010896D01*
X005395Y010971D01*
X005170Y010971D01*
X005170Y010821D01*
X005245Y010746D01*
X005395Y010746D01*
X005470Y010821D01*
X005170Y010971D02*
X005320Y011122D01*
X005470Y011197D01*
X005009Y011197D02*
X004859Y011197D01*
X004934Y011197D02*
X004934Y010821D01*
X004859Y010746D01*
X004784Y010746D01*
X004709Y010821D01*
X012031Y009698D02*
X012031Y008498D01*
X014681Y008498D01*
X014681Y009698D01*
X012031Y009698D01*
D12*
X011730Y009734D02*
X011730Y010041D01*
X011730Y009888D02*
X011270Y009888D01*
X011423Y009734D01*
X011346Y009581D02*
X011270Y009504D01*
X011270Y009351D01*
X011346Y009274D01*
X011653Y009274D01*
X011730Y009351D01*
X011730Y009504D01*
X011653Y009581D01*
X012151Y009996D02*
X012611Y009996D01*
X012611Y009843D02*
X012611Y010149D01*
X012304Y009843D02*
X012151Y009996D01*
X011730Y010195D02*
X011423Y010502D01*
X011346Y010502D01*
X011270Y010425D01*
X011270Y010271D01*
X011346Y010195D01*
X011120Y010145D02*
X011120Y010425D01*
X010785Y010425D02*
X010785Y010145D01*
X011730Y010195D02*
X011730Y010502D01*
X011762Y011286D02*
X011455Y011286D01*
X011609Y011286D02*
X011609Y011747D01*
X011455Y011593D01*
X011302Y011670D02*
X011225Y011747D01*
X011072Y011747D01*
X010995Y011670D01*
X010995Y011363D01*
X011072Y011286D01*
X011225Y011286D01*
X011302Y011363D01*
X011916Y011363D02*
X011916Y011440D01*
X011993Y011516D01*
X012146Y011516D01*
X012223Y011440D01*
X012223Y011363D01*
X012146Y011286D01*
X011993Y011286D01*
X011916Y011363D01*
X011993Y011516D02*
X011916Y011593D01*
X011916Y011670D01*
X011993Y011747D01*
X012146Y011747D01*
X012223Y011670D01*
X012223Y011593D01*
X012146Y011516D01*
X015076Y009348D02*
X015306Y009118D01*
X015306Y009424D01*
X015536Y009348D02*
X015076Y009348D01*
X015076Y008964D02*
X015076Y008811D01*
X015076Y008887D02*
X015460Y008887D01*
X015536Y008811D01*
X015536Y008734D01*
X015460Y008657D01*
X012854Y007201D02*
X012854Y006894D01*
X012777Y006818D01*
X012624Y006818D01*
X012547Y006894D01*
X012394Y006894D02*
X012317Y006818D01*
X012163Y006818D01*
X012087Y006894D01*
X012087Y007201D01*
X012163Y007278D01*
X012317Y007278D01*
X012394Y007201D01*
X012547Y007201D02*
X012547Y007124D01*
X012624Y007048D01*
X012854Y007048D01*
X012854Y007201D02*
X012777Y007278D01*
X012624Y007278D01*
X012547Y007201D01*
X012590Y006512D02*
X012310Y006512D01*
X012310Y006177D02*
X012590Y006177D01*
X013895Y005527D02*
X013895Y005220D01*
X014125Y005220D01*
X014048Y005373D01*
X014048Y005450D01*
X014125Y005527D01*
X014278Y005527D01*
X014355Y005450D01*
X014355Y005296D01*
X014278Y005220D01*
X014278Y005066D02*
X014355Y004989D01*
X014355Y004836D01*
X014278Y004759D01*
X013971Y004759D01*
X013895Y004836D01*
X013895Y004989D01*
X013971Y005066D01*
X014125Y004152D02*
X014125Y003845D01*
X013895Y004075D01*
X014355Y004075D01*
X014278Y003691D02*
X014355Y003614D01*
X014355Y003461D01*
X014278Y003384D01*
X013971Y003384D01*
X013895Y003461D01*
X013895Y003614D01*
X013971Y003691D01*
X015076Y002924D02*
X015076Y002618D01*
X015306Y002618D01*
X015229Y002771D01*
X015229Y002848D01*
X015306Y002924D01*
X015460Y002924D01*
X015536Y002848D01*
X015536Y002694D01*
X015460Y002618D01*
X015460Y002387D02*
X015076Y002387D01*
X015076Y002311D02*
X015076Y002464D01*
X015460Y002387D02*
X015536Y002311D01*
X015536Y002234D01*
X015460Y002157D01*
X012611Y003343D02*
X012611Y003649D01*
X012611Y003496D02*
X012151Y003496D01*
X012304Y003343D01*
X011748Y002790D02*
X011825Y002714D01*
X011825Y002637D01*
X011748Y002560D01*
X011825Y002483D01*
X011825Y002407D01*
X011748Y002330D01*
X011595Y002330D01*
X011518Y002407D01*
X011364Y002407D02*
X011288Y002330D01*
X011134Y002330D01*
X011058Y002407D01*
X011058Y002714D01*
X011134Y002790D01*
X011288Y002790D01*
X011364Y002714D01*
X011518Y002714D02*
X011595Y002790D01*
X011748Y002790D01*
X011748Y002560D02*
X011671Y002560D01*
X011772Y001623D02*
X011772Y001323D01*
X011253Y001323D02*
X011253Y001613D01*
X010942Y001065D02*
X010788Y001065D01*
X010712Y000989D01*
X010558Y000989D02*
X010481Y001065D01*
X010328Y001065D01*
X010251Y000989D01*
X010251Y000682D01*
X010328Y000605D01*
X010481Y000605D01*
X010558Y000682D01*
X010712Y000605D02*
X011019Y000912D01*
X011019Y000989D01*
X010942Y001065D01*
X011019Y000605D02*
X010712Y000605D01*
X009230Y000602D02*
X009154Y000525D01*
X009000Y000525D01*
X008924Y000602D01*
X008924Y000756D02*
X009077Y000832D01*
X009154Y000832D01*
X009230Y000756D01*
X009230Y000602D01*
X008924Y000756D02*
X008924Y000986D01*
X009230Y000986D01*
X008770Y000986D02*
X008770Y000602D01*
X008693Y000525D01*
X008540Y000525D01*
X008463Y000602D01*
X008463Y000986D01*
X006005Y001421D02*
X005928Y001345D01*
X006005Y001421D02*
X006005Y001498D01*
X005928Y001575D01*
X005545Y001575D01*
X005545Y001498D02*
X005545Y001652D01*
X005621Y001805D02*
X005545Y001882D01*
X005545Y002035D01*
X005621Y002112D01*
X005698Y002112D01*
X005775Y002035D01*
X005852Y002112D01*
X005928Y002112D01*
X006005Y002035D01*
X006005Y001882D01*
X005928Y001805D01*
X005775Y001958D02*
X005775Y002035D01*
X005910Y002895D02*
X005910Y003175D01*
X006245Y003175D02*
X006245Y002895D01*
X005566Y003136D02*
X005260Y003136D01*
X005413Y003136D02*
X005413Y003597D01*
X005260Y003443D01*
X004953Y003597D02*
X004953Y003136D01*
X005106Y003136D02*
X004799Y003136D01*
X004646Y003213D02*
X004569Y003136D01*
X004415Y003136D01*
X004339Y003213D01*
X004339Y003520D01*
X004415Y003597D01*
X004569Y003597D01*
X004646Y003520D01*
X004799Y003443D02*
X004953Y003597D01*
X003138Y005040D02*
X003138Y005117D01*
X003061Y005194D01*
X002678Y005194D01*
X002678Y005270D02*
X002678Y005117D01*
X002831Y005424D02*
X002678Y005577D01*
X003138Y005577D01*
X003138Y005424D02*
X003138Y005731D01*
X003138Y005040D02*
X003061Y004963D01*
X002754Y006852D02*
X002447Y006852D01*
X002601Y006852D02*
X002601Y007313D01*
X002447Y007159D01*
X002294Y007313D02*
X002294Y006929D01*
X002217Y006852D01*
X002063Y006852D01*
X001987Y006929D01*
X001987Y007313D01*
X003299Y007505D02*
X003299Y007965D01*
X003529Y007965D01*
X003606Y007889D01*
X003606Y007735D01*
X003529Y007658D01*
X003299Y007658D01*
X003453Y007658D02*
X003606Y007505D01*
X003760Y007505D02*
X004067Y007812D01*
X004067Y007889D01*
X003990Y007965D01*
X003836Y007965D01*
X003760Y007889D01*
X003760Y007505D02*
X004067Y007505D01*
X005455Y008257D02*
X005455Y008640D01*
X005762Y008640D02*
X005762Y008257D01*
X005686Y008180D01*
X005532Y008180D01*
X005455Y008257D01*
X005916Y008180D02*
X006223Y008487D01*
X006223Y008564D01*
X006146Y008640D01*
X005993Y008640D01*
X005916Y008564D01*
X005916Y008180D02*
X006223Y008180D01*
X006264Y007783D02*
X006264Y007399D01*
X006341Y007323D01*
X006494Y007323D01*
X006571Y007399D01*
X006571Y007783D01*
X006725Y007706D02*
X006801Y007783D01*
X006955Y007783D01*
X007032Y007706D01*
X007032Y007630D01*
X006955Y007553D01*
X007032Y007476D01*
X007032Y007399D01*
X006955Y007323D01*
X006801Y007323D01*
X006725Y007399D01*
X006878Y007553D02*
X006955Y007553D01*
X007560Y008058D02*
X007840Y008058D01*
X007840Y008393D02*
X007560Y008393D01*
X007600Y008543D02*
X007447Y008543D01*
X007370Y008619D01*
X007370Y008926D01*
X007447Y009003D01*
X007600Y009003D01*
X007677Y008926D01*
X007830Y008849D02*
X007984Y009003D01*
X007984Y008543D01*
X008137Y008543D02*
X007830Y008543D01*
X007677Y008619D02*
X007600Y008543D01*
X008291Y008619D02*
X008598Y008926D01*
X008598Y008619D01*
X008521Y008543D01*
X008368Y008543D01*
X008291Y008619D01*
X008291Y008926D01*
X008368Y009003D01*
X008521Y009003D01*
X008598Y008926D01*
X007938Y009807D02*
X007554Y009807D01*
X007938Y009807D02*
X008015Y009884D01*
X008015Y010037D01*
X007938Y010114D01*
X007554Y010114D01*
X007785Y010268D02*
X007785Y010498D01*
X007861Y010575D01*
X007938Y010575D01*
X008015Y010498D01*
X008015Y010344D01*
X007938Y010268D01*
X007785Y010268D01*
X007631Y010421D01*
X007554Y010575D01*
X006604Y011369D02*
X006527Y011293D01*
X006374Y011293D01*
X006297Y011369D01*
X006144Y011293D02*
X005837Y011293D01*
X005990Y011293D02*
X005990Y011753D01*
X005837Y011599D01*
X005683Y011676D02*
X005606Y011753D01*
X005453Y011753D01*
X005376Y011676D01*
X005376Y011369D01*
X005453Y011293D01*
X005606Y011293D01*
X005683Y011369D01*
X006297Y011523D02*
X006450Y011599D01*
X006527Y011599D01*
X006604Y011523D01*
X006604Y011369D01*
X006297Y011523D02*
X006297Y011753D01*
X006604Y011753D01*
X004334Y009565D02*
X004334Y009105D01*
X004487Y009105D02*
X004180Y009105D01*
X004027Y009105D02*
X003873Y009258D01*
X003950Y009258D02*
X003720Y009258D01*
X003720Y009105D02*
X003720Y009565D01*
X003950Y009565D01*
X004027Y009489D01*
X004027Y009335D01*
X003950Y009258D01*
X004180Y009412D02*
X004334Y009565D01*
X003072Y008964D02*
X002766Y008964D01*
X002919Y008964D02*
X002919Y009424D01*
X002766Y009271D01*
X002305Y009424D02*
X002305Y008964D01*
X002612Y008964D01*
X001606Y008921D02*
X001606Y008844D01*
X001529Y008768D01*
X001376Y008768D01*
X001299Y008844D01*
X001299Y008921D01*
X001376Y008998D01*
X001529Y008998D01*
X001606Y008921D01*
X001529Y008998D02*
X001606Y009074D01*
X001606Y009151D01*
X001529Y009228D01*
X001376Y009228D01*
X001299Y009151D01*
X001299Y009074D01*
X001376Y008998D01*
X001146Y009151D02*
X001069Y009228D01*
X000915Y009228D01*
X000839Y009151D01*
X000839Y008844D01*
X000915Y008768D01*
X001069Y008768D01*
X001146Y008844D01*
X000940Y009916D02*
X000940Y010206D01*
X001460Y010216D02*
X001460Y009916D01*
X002394Y011056D02*
X002694Y011056D01*
X003213Y010998D02*
X003290Y010922D01*
X003597Y010922D01*
X003674Y010998D01*
X003674Y011152D01*
X003597Y011229D01*
X003290Y011229D02*
X003213Y011152D01*
X003213Y010998D01*
X003444Y011382D02*
X003444Y011612D01*
X003520Y011689D01*
X003597Y011689D01*
X003674Y011612D01*
X003674Y011459D01*
X003597Y011382D01*
X003444Y011382D01*
X003290Y011536D01*
X003213Y011689D01*
X002684Y011576D02*
X002394Y011576D01*
X011363Y004833D02*
X011823Y004833D01*
X011823Y004680D02*
X011823Y004987D01*
X011516Y004680D02*
X011363Y004833D01*
X011363Y004527D02*
X011823Y004220D01*
X011823Y004527D02*
X011363Y004220D01*
D13*
X013487Y004131D02*
X013487Y003939D01*
X013663Y003939D02*
X013663Y004131D01*
X013663Y005189D02*
X013663Y005381D01*
X013487Y005381D02*
X013487Y005189D01*
X010976Y001819D02*
X010976Y001626D01*
X010799Y001626D02*
X010799Y001819D01*
X004046Y008197D02*
X003854Y008197D01*
X003854Y008373D02*
X004046Y008373D01*
X004046Y008697D02*
X003854Y008697D01*
X003854Y008873D02*
X004046Y008873D01*
X004044Y009879D02*
X003794Y010129D01*
X003794Y010629D01*
X004044Y010879D01*
X003794Y011129D01*
X003794Y011629D01*
X004044Y011879D01*
X004544Y011879D01*
X004794Y011629D01*
X004794Y011129D01*
X004544Y010879D01*
X004794Y010629D01*
X004794Y010129D01*
X004544Y009879D01*
X004044Y009879D01*
X004044Y010879D02*
X004544Y010879D01*
X006979Y011353D02*
X007171Y011353D01*
X007171Y011529D02*
X006979Y011529D01*
X010510Y011279D02*
X010703Y011279D01*
X010703Y011103D02*
X010510Y011103D01*
D14*
X013577Y005446D03*
X013577Y005126D03*
X013573Y004194D03*
X013573Y003874D03*
X010889Y001883D03*
X010889Y001563D03*
D15*
X011513Y001755D03*
X011513Y001185D03*
X001200Y009779D03*
X001200Y010349D03*
D16*
X002256Y011316D03*
X002826Y011316D03*
D17*
X003791Y008783D03*
X004111Y008783D03*
X004109Y008287D03*
X003789Y008287D03*
X006916Y011439D03*
X007236Y011439D03*
X010445Y011193D03*
X010765Y011193D03*
D18*
X003210Y003346D02*
X003210Y003153D01*
X003210Y003249D02*
X002920Y003249D01*
X003017Y003153D01*
D19*
X007468Y008225D03*
X007928Y008225D03*
X012222Y006345D03*
X012682Y006345D03*
D20*
X010952Y010057D03*
X010952Y010517D03*
X006077Y003267D03*
X006077Y002807D03*
D21*
X004294Y010379D03*
X004294Y011379D03*
M02*
