G75*
G70*
%OFA0B0*%
%FSLAX24Y24*%
%IPPOS*%
%LPD*%
%AMOC8*
5,1,8,0,0,1.08239X$1,22.5*
%
%ADD10C,0.0000*%
%ADD11C,0.0276*%
D10*
X000160Y000288D02*
X000160Y019888D01*
X019760Y019888D01*
X019760Y000288D01*
X000160Y000288D01*
X000609Y001288D02*
X000611Y001335D01*
X000617Y001381D01*
X000627Y001427D01*
X000640Y001472D01*
X000658Y001515D01*
X000679Y001557D01*
X000703Y001597D01*
X000731Y001634D01*
X000762Y001669D01*
X000796Y001702D01*
X000832Y001731D01*
X000871Y001757D01*
X000912Y001780D01*
X000955Y001799D01*
X000999Y001815D01*
X001044Y001827D01*
X001090Y001835D01*
X001137Y001839D01*
X001183Y001839D01*
X001230Y001835D01*
X001276Y001827D01*
X001321Y001815D01*
X001365Y001799D01*
X001408Y001780D01*
X001449Y001757D01*
X001488Y001731D01*
X001524Y001702D01*
X001558Y001669D01*
X001589Y001634D01*
X001617Y001597D01*
X001641Y001557D01*
X001662Y001515D01*
X001680Y001472D01*
X001693Y001427D01*
X001703Y001381D01*
X001709Y001335D01*
X001711Y001288D01*
X001709Y001241D01*
X001703Y001195D01*
X001693Y001149D01*
X001680Y001104D01*
X001662Y001061D01*
X001641Y001019D01*
X001617Y000979D01*
X001589Y000942D01*
X001558Y000907D01*
X001524Y000874D01*
X001488Y000845D01*
X001449Y000819D01*
X001408Y000796D01*
X001365Y000777D01*
X001321Y000761D01*
X001276Y000749D01*
X001230Y000741D01*
X001183Y000737D01*
X001137Y000737D01*
X001090Y000741D01*
X001044Y000749D01*
X000999Y000761D01*
X000955Y000777D01*
X000912Y000796D01*
X000871Y000819D01*
X000832Y000845D01*
X000796Y000874D01*
X000762Y000907D01*
X000731Y000942D01*
X000703Y000979D01*
X000679Y001019D01*
X000658Y001061D01*
X000640Y001104D01*
X000627Y001149D01*
X000617Y001195D01*
X000611Y001241D01*
X000609Y001288D01*
X000609Y018888D02*
X000611Y018935D01*
X000617Y018981D01*
X000627Y019027D01*
X000640Y019072D01*
X000658Y019115D01*
X000679Y019157D01*
X000703Y019197D01*
X000731Y019234D01*
X000762Y019269D01*
X000796Y019302D01*
X000832Y019331D01*
X000871Y019357D01*
X000912Y019380D01*
X000955Y019399D01*
X000999Y019415D01*
X001044Y019427D01*
X001090Y019435D01*
X001137Y019439D01*
X001183Y019439D01*
X001230Y019435D01*
X001276Y019427D01*
X001321Y019415D01*
X001365Y019399D01*
X001408Y019380D01*
X001449Y019357D01*
X001488Y019331D01*
X001524Y019302D01*
X001558Y019269D01*
X001589Y019234D01*
X001617Y019197D01*
X001641Y019157D01*
X001662Y019115D01*
X001680Y019072D01*
X001693Y019027D01*
X001703Y018981D01*
X001709Y018935D01*
X001711Y018888D01*
X001709Y018841D01*
X001703Y018795D01*
X001693Y018749D01*
X001680Y018704D01*
X001662Y018661D01*
X001641Y018619D01*
X001617Y018579D01*
X001589Y018542D01*
X001558Y018507D01*
X001524Y018474D01*
X001488Y018445D01*
X001449Y018419D01*
X001408Y018396D01*
X001365Y018377D01*
X001321Y018361D01*
X001276Y018349D01*
X001230Y018341D01*
X001183Y018337D01*
X001137Y018337D01*
X001090Y018341D01*
X001044Y018349D01*
X000999Y018361D01*
X000955Y018377D01*
X000912Y018396D01*
X000871Y018419D01*
X000832Y018445D01*
X000796Y018474D01*
X000762Y018507D01*
X000731Y018542D01*
X000703Y018579D01*
X000679Y018619D01*
X000658Y018661D01*
X000640Y018704D01*
X000627Y018749D01*
X000617Y018795D01*
X000611Y018841D01*
X000609Y018888D01*
X018209Y018888D02*
X018211Y018935D01*
X018217Y018981D01*
X018227Y019027D01*
X018240Y019072D01*
X018258Y019115D01*
X018279Y019157D01*
X018303Y019197D01*
X018331Y019234D01*
X018362Y019269D01*
X018396Y019302D01*
X018432Y019331D01*
X018471Y019357D01*
X018512Y019380D01*
X018555Y019399D01*
X018599Y019415D01*
X018644Y019427D01*
X018690Y019435D01*
X018737Y019439D01*
X018783Y019439D01*
X018830Y019435D01*
X018876Y019427D01*
X018921Y019415D01*
X018965Y019399D01*
X019008Y019380D01*
X019049Y019357D01*
X019088Y019331D01*
X019124Y019302D01*
X019158Y019269D01*
X019189Y019234D01*
X019217Y019197D01*
X019241Y019157D01*
X019262Y019115D01*
X019280Y019072D01*
X019293Y019027D01*
X019303Y018981D01*
X019309Y018935D01*
X019311Y018888D01*
X019309Y018841D01*
X019303Y018795D01*
X019293Y018749D01*
X019280Y018704D01*
X019262Y018661D01*
X019241Y018619D01*
X019217Y018579D01*
X019189Y018542D01*
X019158Y018507D01*
X019124Y018474D01*
X019088Y018445D01*
X019049Y018419D01*
X019008Y018396D01*
X018965Y018377D01*
X018921Y018361D01*
X018876Y018349D01*
X018830Y018341D01*
X018783Y018337D01*
X018737Y018337D01*
X018690Y018341D01*
X018644Y018349D01*
X018599Y018361D01*
X018555Y018377D01*
X018512Y018396D01*
X018471Y018419D01*
X018432Y018445D01*
X018396Y018474D01*
X018362Y018507D01*
X018331Y018542D01*
X018303Y018579D01*
X018279Y018619D01*
X018258Y018661D01*
X018240Y018704D01*
X018227Y018749D01*
X018217Y018795D01*
X018211Y018841D01*
X018209Y018888D01*
X018209Y001288D02*
X018211Y001335D01*
X018217Y001381D01*
X018227Y001427D01*
X018240Y001472D01*
X018258Y001515D01*
X018279Y001557D01*
X018303Y001597D01*
X018331Y001634D01*
X018362Y001669D01*
X018396Y001702D01*
X018432Y001731D01*
X018471Y001757D01*
X018512Y001780D01*
X018555Y001799D01*
X018599Y001815D01*
X018644Y001827D01*
X018690Y001835D01*
X018737Y001839D01*
X018783Y001839D01*
X018830Y001835D01*
X018876Y001827D01*
X018921Y001815D01*
X018965Y001799D01*
X019008Y001780D01*
X019049Y001757D01*
X019088Y001731D01*
X019124Y001702D01*
X019158Y001669D01*
X019189Y001634D01*
X019217Y001597D01*
X019241Y001557D01*
X019262Y001515D01*
X019280Y001472D01*
X019293Y001427D01*
X019303Y001381D01*
X019309Y001335D01*
X019311Y001288D01*
X019309Y001241D01*
X019303Y001195D01*
X019293Y001149D01*
X019280Y001104D01*
X019262Y001061D01*
X019241Y001019D01*
X019217Y000979D01*
X019189Y000942D01*
X019158Y000907D01*
X019124Y000874D01*
X019088Y000845D01*
X019049Y000819D01*
X019008Y000796D01*
X018965Y000777D01*
X018921Y000761D01*
X018876Y000749D01*
X018830Y000741D01*
X018783Y000737D01*
X018737Y000737D01*
X018690Y000741D01*
X018644Y000749D01*
X018599Y000761D01*
X018555Y000777D01*
X018512Y000796D01*
X018471Y000819D01*
X018432Y000845D01*
X018396Y000874D01*
X018362Y000907D01*
X018331Y000942D01*
X018303Y000979D01*
X018279Y001019D01*
X018258Y001061D01*
X018240Y001104D01*
X018227Y001149D01*
X018217Y001195D01*
X018211Y001241D01*
X018209Y001288D01*
D11*
X019030Y010142D02*
X019227Y010142D01*
X018007Y010280D02*
X017869Y010280D01*
X017869Y012170D02*
X018007Y012170D01*
X019030Y012308D02*
X019227Y012308D01*
M02*
